<?xml version="1.0" encoding="UTF-8" standalone="no"?>
<svg
   xmlns:dc="http://purl.org/dc/elements/1.1/"
   xmlns:cc="http://creativecommons.org/ns#"
   xmlns:rdf="http://www.w3.org/1999/02/22-rdf-syntax-ns#"
   xmlns:svg="http://www.w3.org/2000/svg"
   xmlns="http://www.w3.org/2000/svg"
   xmlns:sodipodi="http://sodipodi.sourceforge.net/DTD/sodipodi-0.dtd"
   xmlns:inkscape="http://www.inkscape.org/namespaces/inkscape"
   width="32"
   height="40"
   viewBox="0 0 8.466667 10.583333"
   version="1.1"
   id="svg115"
   inkscape:version="1.0.1 (3bc2e813f5, 2020-09-07)"
   sodipodi:docname="badminton.svg">
  <defs
     id="defs109" />
  <sodipodi:namedview
     id="base"
     pagecolor="#ffffff"
     bordercolor="#666666"
     borderopacity="1.0"
     inkscape:pageopacity="0.0"
     inkscape:pageshadow="2"
     inkscape:zoom="11.775"
     inkscape:cx="16"
     inkscape:cy="20"
     inkscape:document-units="px"
     inkscape:current-layer="layer1"
     inkscape:document-rotation="0"
     showgrid="false"
     inkscape:window-width="1366"
     inkscape:window-height="745"
     inkscape:window-x="-8"
     inkscape:window-y="-8"
     inkscape:window-maximized="1"
     units="px" />
  <metadata
     id="metadata112">
    <rdf:RDF>
      <cc:Work
         rdf:about="">
        <dc:format>image/svg+xml</dc:format>
        <dc:type
           rdf:resource="http://purl.org/dc/dcmitype/StillImage" />
        <dc:title></dc:title>
      </cc:Work>
    </rdf:RDF>
  </metadata>
  <g
     inkscape:label="Layer 1"
     inkscape:groupmode="layer"
     id="layer1">
    <path
       style="fill:#ffff00;stroke-width:0.0173684"
       d="M 7.3210634,10.321558 C 7.2777767,10.306181 7.2131508,10.274402 7.177485,10.250932 L 7.112609,10.208262 7.114669,9.9457711 C 7.1178432,9.552068 7.0948687,9.4142386 7.0009459,9.2578872 6.8069131,8.9352442 6.6374608,8.7731483 6.3273974,8.6135474 L 6.1404617,8.5173288 6.0647819,8.3337465 C 5.9298234,8.0063635 5.8905846,7.9294612 5.7772334,7.7702632 5.679239,7.6326379 5.6586302,7.6129419 5.607904,7.6083842 5.5761492,7.605549 5.5404816,7.5969629 5.5286758,7.589359 5.5168475,7.5817536 5.4203087,7.4305801 5.3141252,7.2534295 5.1348098,6.9542777 5.1173628,6.9313383 5.0694301,6.9313383 c -0.028388,0 -0.072495,0.01138 -0.097994,0.025308 -0.087393,0.047692 -0.222444,0.3194874 -0.2672217,0.5377466 -0.012061,0.058423 -0.020473,0.066327 -0.085437,0.080403 -0.039669,0.00858 -0.087143,0.015653 -0.1054548,0.015697 -0.021609,5.82e-5 -0.071609,0.053211 -0.1426463,0.151859 -0.060119,0.083476 -0.1093237,0.1551482 -0.1093237,0.1592712 0,0.00412 0.032893,0.012305 0.073109,0.018183 0.097927,0.014313 0.1631654,0.041775 0.3509307,0.147752 0.1060918,0.059878 0.191508,0.095354 0.2586915,0.1074363 l 0.1002924,0.018036 0.073314,-0.055471 C 5.2532391,8.0349946 5.45866,7.9818618 5.5594319,8.023306 c 0.078478,0.032272 0.1383236,0.1148957 0.1383236,0.1909438 0,0.090225 -0.040286,0.1597756 -0.141146,0.2436022 C 5.4096192,8.5800375 5.3920806,8.6114752 5.3441979,8.8383583 5.3183569,8.960766 5.2731349,9.0366899 5.1888799,9.0990463 5.0605857,9.194001 4.834398,9.15655 4.7789768,9.0311762 4.7466758,8.9580874 4.7483138,8.814834 4.7828668,8.6875573 4.8169528,8.5621433 4.8207958,8.5657929 4.6258313,8.5391956 4.4086647,8.5095734 4.1665354,8.5189773 3.8328944,8.5699891 3.500325,8.6208339 3.4753944,8.6193239 3.3240327,8.5391698 3.2350467,8.4920436 3.2271527,8.4770379 3.208045,8.3188075 3.192123,8.1865404 3.21828,8.0321882 3.3168218,7.6760419 c 0.067651,-0.2443185 0.072973,-0.2783008 0.047882,-0.3062012 -0.015463,-0.01726 -0.028206,-0.044746 -0.028206,-0.061079 0,-0.016332 0.066194,-0.1242052 0.147083,-0.2397199 0.118853,-0.169718 0.1495165,-0.227361 0.1597982,-0.3003475 0.010235,-0.072053 0.032619,-0.1150221 0.1109831,-0.212433 0.068265,-0.08484 0.1024986,-0.1456723 0.1121437,-0.1993048 0.00774,-0.042456 0.041444,-0.1151399 0.075111,-0.1615153 0.084734,-0.1167089 0.1388937,-0.2910668 0.2143461,-0.69015 0.0091,-0.048679 0.0025,-0.058784 -0.070107,-0.1041818 -0.082253,-0.051502 -0.1241099,-0.1013803 -0.146695,-0.1748671 -0.011826,-0.03841 -0.00522,-0.044198 0.084072,-0.074139 0.1107328,-0.03712 0.1281782,-0.066372 0.1084814,-0.1820727 -0.00728,-0.042672 -0.0032,-0.096757 0.00955,-0.1269635 0.017743,-0.041936 0.016143,-0.066053 -0.00774,-0.1187665 -0.036213,-0.080003 -0.088851,-0.381008 -0.088851,-0.5082642 0,-0.052111 0.02625,-0.1731156 0.060463,-0.2786941 C 4.1427373,3.8212514 4.1605483,3.7361467 4.1522243,3.7121049 4.1449443,3.690854 4.1331143,3.6224328 4.1261993,3.5600626 4.1141374,3.4527465 4.1095959,3.4442168 4.0411236,3.4011085 3.9722001,3.357734 3.9571188,3.3550884 3.7263015,3.3458649 3.5499661,3.3388182 3.4851913,3.3310262 3.4886853,3.3172813 3.4914105,3.3068953 3.4691223,3.2939962 3.4394838,3.2886289 3.409805,3.283264 3.3235248,3.2653451 3.2477777,3.2488084 3.1720237,3.2322743 3.0037813,3.2128564 2.8739158,3.2056598 2.2997471,3.1738388 1.9415235,3.0738146 1.1398608,2.7214723 0.90781524,2.6194843 0.87081259,2.6079344 0.77584327,2.6078583 0.62380185,2.6077369 0.54950971,2.5864331 0.39957446,2.4999935 0.21591394,2.3941089 0.22405724,2.3533264 0.41936366,2.4013275 c 0.0610076,0.015001 0.0565238,-0.012178 -0.0118273,-0.071774 l -0.0560703,-0.048905 -0.0714472,0.03441 c -0.11168928,0.053785 -0.148221,0.010349 -0.0725854,-0.086303 0.0213833,-0.027263 0.0339172,-0.059477 0.0279564,-0.071585 -0.0138817,-0.027978 0.0466992,-0.1011483 0.0836171,-0.1011483 0.0152239,0 0.0715852,0.017247 0.12497148,0.038328 0.0533874,0.02108 0.10595671,0.038328 0.1167819,0.038328 0.0306389,0 0.002723,-0.046154 -0.0820946,-0.1353205 -0.0426737,-0.044914 -0.0734268,-0.08492 -0.0683093,-0.088901 0.0225212,-0.017493 0.11828397,0.017471 0.19830931,0.072367 0.0908514,0.062304 0.37704467,0.3313426 0.43797495,0.4117121 0.021383,0.028279 0.062577,0.053287 0.1049112,0.063772 0.038306,0.00948 0.1395097,0.040874 0.2249234,0.069745 0.1679183,0.056761 0.4325774,0.097861 0.818696,0.1271355 0.4811011,0.036476 0.6432699,0.065977 0.88736,0.1614249 0.1151219,0.045021 0.1590027,0.053958 0.2648079,0.053958 h 0.1268143 v -0.078784 -0.078785 l 0.1229715,0.011221 c 0.067651,0.00618 0.3177796,0.015934 0.5558666,0.021697 0.4964168,0.012019 0.4964509,0.012031 0.6759189,0.1530926 0.1130081,0.088832 0.339182,0.1905949 0.3899036,0.1754301 0.049451,-0.014784 0.054139,-0.080074 0.00842,-0.1179403 C 5.1223909,2.8675562 5.1189571,2.6989638 5.2174541,2.4721339 5.2970461,2.2886942 5.3544614,2.2191101 5.5137966,2.1128832 5.655897,2.0181556 5.6969791,2.003059 5.8720182,1.9812329 c 0.1392798,-0.017365 0.148061,-0.016612 0.2262883,0.019392 0.1123692,0.051724 0.2486369,0.1454116 0.2486369,0.1709538 0,0.011651 0.036578,0.074325 0.081252,0.1392767 0.077978,0.1133389 0.080775,0.1221265 0.069241,0.2182881 -0.016599,0.1389523 -0.080834,0.2287014 -0.306622,0.428755 -0.197081,0.1746111 -0.3161075,0.3220545 -0.3161075,0.391563 0,0.072105 0.072108,0.092326 0.2872574,0.080543 0.2756426,-0.015099 0.3084483,-0.00458 0.5347068,0.1713173 0.3273401,0.2544904 0.3217123,0.2513968 0.4313921,0.2371337 0.080821,-0.010509 0.095309,-0.017788 0.1001771,-0.050316 0.0032,-0.020916 0.027979,-0.1208154 0.055208,-0.2220024 C 7.3756169,3.2236456 7.3900171,3.1015682 7.3670874,2.8565932 7.3520623,2.6973555 7.3523006,2.6245095 7.3678091,2.5981438 7.3862342,2.5664419 7.3796364,2.5510556 7.3191998,2.4854224 7.2732503,2.4355854 7.2531406,2.3995057 7.26083,2.3806291 7.2719841,2.3533451 7.1803576,2.2483411 6.7303076,1.7723925 6.6744864,1.7133674 6.5657331,1.5982389 6.4886356,1.5165515 L 6.3484454,1.3680288 6.239965,1.3977331 C 5.8974884,1.4915194 5.5649007,1.3425593 5.3767889,1.0111427 5.214738,0.72562317 5.2156263,0.380072 5.3788405,0.228953 5.4436247,0.16896259 5.5656628,0.12506594 5.6688864,0.12462909 5.8784099,0.12372494 6.2278465,0.24143586 6.4218906,0.37825437 6.6488593,0.53828197 6.7310925,0.69147691 6.716789,0.92756079 6.7065528,1.0964607 6.6528013,1.1911971 6.5126566,1.2873118 l -0.091944,0.063059 0.1469708,0.1573519 c 0.7264469,0.7777453 0.7646121,0.8164956 0.7999065,0.8121784 0.022064,-0.00271 0.055845,0.01577 0.087236,0.047841 0.039238,0.040077 0.062123,0.050618 0.098267,0.045235 0.03685,-0.0055 0.060621,0.00626 0.1091172,0.053973 0.034099,0.033547 0.084051,0.065306 0.1109831,0.070575 0.071314,0.013945 0.1263162,0.1107744 0.1505175,0.2649621 0.018657,0.1186523 0.028481,0.1396021 0.097563,0.2077178 0.042264,0.041664 0.076864,0.085016 0.076864,0.096331 0,0.011319 -0.027455,0.035815 -0.06103,0.054437 l -0.06103,0.03386 -0.07586,-0.067311 C 7.8584997,3.090501 7.8239697,3.055035 7.8235157,3.048712 7.8214557,3.020704 7.7813647,3.041442 7.7493837,3.087041 7.7182887,3.131382 7.7144227,3.184123 7.7141697,3.5661395 7.7138738,3.9770536 7.7016647,4.0904784 7.6467017,4.1956256 7.6135827,4.2588886 7.2694344,4.3031099 6.98543,4.2805966 6.8378231,4.2688966 6.8007908,4.2705426 6.7566509,4.2907986 6.7064239,4.3138426 6.6967339,4.3123936 6.5486285,4.2596516 6.3201815,4.1782956 6.2925531,4.1748696 6.2761251,4.2258636 c -0.0075,0.022997 -0.00223,0.098278 0.011605,0.1672937 0.02302,0.1153303 0.021609,0.1371861 -0.017743,0.2701397 -0.063238,0.2138614 -0.070265,0.3833868 -0.026158,0.6313626 0.042059,0.2364551 0.03876,0.2461813 -0.090056,0.2662558 -0.05598,0.00872 -0.06267,0.01543 -0.06267,0.062973 0,0.029264 0.017284,0.072141 0.038443,0.095282 0.089168,0.097565 0.1580926,0.2976955 0.2088185,0.606231 0.023975,0.1458081 0.049839,0.2320587 0.096788,0.3228145 0.035234,0.068116 0.083502,0.1883323 0.1072525,0.2671494 0.023748,0.078818 0.074997,0.21581 0.1138714,0.304426 l 0.0707,0.1611216 -0.043039,0.027151 -0.043039,0.027146 0.068037,0.2578148 c 0.037419,0.1417984 0.074269,0.3011712 0.081888,0.3541612 0.016603,0.1152676 0.055321,0.1587902 0.1878461,0.2111174 0.1841147,0.072695 0.2568625,0.1968459 0.3425053,0.5845556 0.026638,0.120565 0.072403,0.2745862 0.1017255,0.3422698 0.044586,0.1029075 0.064123,0.1280277 0.1192632,0.1533798 0.082458,0.037903 0.1149184,0.097683 0.1513136,0.2786916 0.070767,0.3518189 0.057616,0.4870319 -0.060961,0.6266339 -0.091852,0.108136 -0.1706486,0.127785 -0.3116557,0.0777 z"
       id="path131"
       sodipodi:nodetypes="cscssscsscsssssscssssscssssssssssssssssssscscsssssssssssssssscssscssssssssssssssscccssssssssssssssscsssscsssscssssssscsssssssssscscscssssssssssssssscccsssssssscc" />
  </g>
</svg>
