<?xml version="1.0" encoding="UTF-8" standalone="no"?>
<svg
   xmlns:dc="http://purl.org/dc/elements/1.1/"
   xmlns:cc="http://creativecommons.org/ns#"
   xmlns:rdf="http://www.w3.org/1999/02/22-rdf-syntax-ns#"
   xmlns:svg="http://www.w3.org/2000/svg"
   xmlns="http://www.w3.org/2000/svg"
   xmlns:sodipodi="http://sodipodi.sourceforge.net/DTD/sodipodi-0.dtd"
   xmlns:inkscape="http://www.inkscape.org/namespaces/inkscape"
   width="32"
   height="32"
   viewBox="0 0 8.4666665 8.4666669"
   version="1.1"
   id="svg8"
   inkscape:version="1.0.1 (3bc2e813f5, 2020-09-07)"
   sodipodi:docname="bat.svg">
  <defs
     id="defs2" />
  <sodipodi:namedview
     id="base"
     pagecolor="#ffffff"
     bordercolor="#666666"
     borderopacity="1.0"
     inkscape:pageopacity="0.0"
     inkscape:pageshadow="2"
     inkscape:zoom="16.03125"
     inkscape:cx="16"
     inkscape:cy="16"
     inkscape:document-units="px"
     inkscape:current-layer="layer1"
     inkscape:document-rotation="0"
     showgrid="false"
     units="px"
     inkscape:window-width="1366"
     inkscape:window-height="745"
     inkscape:window-x="-8"
     inkscape:window-y="-8"
     inkscape:window-maximized="1" />
  <metadata
     id="metadata5">
    <rdf:RDF>
      <cc:Work
         rdf:about="">
        <dc:format>image/svg+xml</dc:format>
        <dc:type
           rdf:resource="http://purl.org/dc/dcmitype/StillImage" />
        <dc:title></dc:title>
      </cc:Work>
    </rdf:RDF>
  </metadata>
  <g
     inkscape:label="Layer 1"
     inkscape:groupmode="layer"
     id="layer1">
    <path
       style="fill:#ff0000;stroke-width:0.01103"
       d="M 0.95473312,8.0630558 C 0.65622284,7.8859438 0.36136312,7.5976726 0.1684076,7.2943052 0.10951613,7.2017286 0.0995202,7.1389436 0.13549395,7.087691 0.15976817,7.052999 3.0947154,4.1900067 3.105934,4.1900067 c 0.00426,0 0.239284,0.2255417 0.521751,0.5012056 L 4.1412531,5.1924179 2.6617582,6.6367524 C 1.8480309,7.4311346 1.1686899,8.0881307 1.1521053,8.0967338 1.0973506,8.1251928 1.0441412,8.1160585 0.95476341,8.0630409 Z M 1.2213091,6.4092729 c 0,-0.00222 -0.016312,-0.017819 -0.03632,-0.035416 l -0.036319,-0.032019 0.032791,0.035416 c 0.030542,0.033021 0.039788,0.040427 0.039788,0.031964 z M 1.13198,6.3221084 c 0,-0.00222 -0.016312,-0.017819 -0.03626,-0.035416 L 1.059399,6.2547284 1.09219,6.2901444 c 0.030542,0.033021 0.039788,0.040427 0.039788,0.032019 z M 3.6303863,4.682982 C 3.3494461,4.4087994 3.1195739,4.1809634 3.1195739,4.1766757 c 0,-0.0098 1.7334351,-1.7029476 1.7850809,-1.74357 0.020988,-0.016482 0.051104,-0.029958 0.066953,-0.029958 0.023119,0 0.1220649,0.090655 0.4965274,0.4548866 0.2612162,0.2540804 0.4744978,0.4702503 0.4831368,0.48969 0.00851,0.019156 0.012341,0.043657 0.0086,0.054459 -0.00645,0.018432 -1.8006978,1.7792975 -1.812981,1.7792975 -0.00303,0 -0.2355182,-0.2243333 -0.5164644,-0.498516 z M 5.5700759,2.7721116 C 5.3615398,2.5680254 5.2009686,2.4037485 5.2132519,2.4070617 c 0.0123,0.00334 0.080117,0.01871 0.1507463,0.034191 0.070629,0.01548 0.1376909,0.030905 0.1490292,0.034246 0.016005,0.00446 0.2476735,-0.2153123 1.024782,-0.9728981 0.5522918,-0.53841441 1.0067249,-0.98115625 1.009864,-0.98386255 0.00305,-0.002783 0.077119,0.0634804 0.1644219,0.14708689 L 7.8708235,0.81783934 7.7172856,0.66516159 C 7.6328418,0.58118859 7.5637538,0.5066594 7.5637538,0.49954277 c 0,-0.007126 0.00688,-0.0168726 0.015329,-0.0216057 0.00839,-0.005018 0.014715,-0.0204367 0.013979,-0.0348036 C 7.5924535,0.42420117 7.6363168,0.36678927 7.7536339,0.23449782 7.8426849,0.13409233 7.9228081,0.04877659 7.9316966,0.044912 7.9529896,0.0356671 8.3809161,0.45053956 8.3764565,0.4761157 8.3715865,0.5050161 7.9891284,0.82601928 7.9688142,0.81841828 c -0.0096,-0.003342 -0.026649,0.001677 -0.037903,0.0115853 -0.017703,0.0156465 -0.023242,0.0160378 -0.040276,0.002783 -0.01801,-0.0137545 -0.018379,-0.0134203 -0.00426,0.004459 0.014122,0.017541 -0.074636,0.10724954 -0.9910043,1.00136452 C 6.3417855,2.3787486 5.888855,2.8253772 5.888855,2.8311128 c 0,0.0093 0.019463,0.095366 0.056822,0.2510287 0.00694,0.02879 0.01052,0.054348 0.0081,0.056776 -0.00244,0.00222 -0.1751114,-0.1626062 -0.3836477,-0.366698 z"
       id="path24" />
  </g>
</svg>
