<?xml version="1.0" encoding="UTF-8" standalone="no"?>
<svg
   xmlns:dc="http://purl.org/dc/elements/1.1/"
   xmlns:cc="http://creativecommons.org/ns#"
   xmlns:rdf="http://www.w3.org/1999/02/22-rdf-syntax-ns#"
   xmlns:svg="http://www.w3.org/2000/svg"
   xmlns="http://www.w3.org/2000/svg"
   xmlns:sodipodi="http://sodipodi.sourceforge.net/DTD/sodipodi-0.dtd"
   xmlns:inkscape="http://www.inkscape.org/namespaces/inkscape"
   width="40"
   height="32"
   viewBox="0 0 10.583333 8.4666669"
   version="1.1"
   id="svg276"
   inkscape:version="1.0.1 (3bc2e813f5, 2020-09-07)"
   sodipodi:docname="lining.svg">
  <defs
     id="defs270" />
  <sodipodi:namedview
     id="base"
     pagecolor="#ffffff"
     bordercolor="#666666"
     borderopacity="1.0"
     inkscape:pageopacity="0.0"
     inkscape:pageshadow="2"
     inkscape:zoom="14.71875"
     inkscape:cx="16"
     inkscape:cy="16"
     inkscape:document-units="px"
     inkscape:current-layer="layer1"
     inkscape:document-rotation="0"
     showgrid="false"
     inkscape:snap-global="false"
     units="px"
     inkscape:window-width="1366"
     inkscape:window-height="745"
     inkscape:window-x="-8"
     inkscape:window-y="-8"
     inkscape:window-maximized="1" />
  <metadata
     id="metadata273">
    <rdf:RDF>
      <cc:Work
         rdf:about="">
        <dc:format>image/svg+xml</dc:format>
        <dc:type
           rdf:resource="http://purl.org/dc/dcmitype/StillImage" />
        <dc:title></dc:title>
      </cc:Work>
    </rdf:RDF>
  </metadata>
  <g
     inkscape:label="Layer 1"
     inkscape:groupmode="layer"
     id="layer1">
    <path
       style="fill:#d40000;stroke-width:0.0112854"
       d="M 0.60026851,5.9208474 C 0.46629023,5.9089031 0.26857584,5.876906 0.16260864,5.8499795 L 0.08068557,5.8291701 0.22286332,5.3609236 C 0.30106234,5.1033862 0.37058888,4.8754022 0.37736892,4.854292 l 0.0123273,-0.038385 h 0.17456197 c 0.1604524,0 0.17403054,0.00149 0.16800425,0.017917 -0.0289349,0.079041 -0.23153649,0.7648847 -0.23153649,0.783798 0,0.022667 0.008314,0.025482 0.12754094,0.043582 0.17013895,0.025817 0.45034832,0.026001 0.63770482,3.709e-4 0.07528,-0.010278 0.1453775,-0.022409 0.1557726,-0.026968 0.010393,-0.00457 0.02605,-0.030601 0.034788,-0.057836 0.00873,-0.027226 0.021448,-0.066796 0.028239,-0.087906 l 0.012363,-0.038384 h 0.1750533 c 0.1349157,0 0.1736925,0.00296 0.1691141,0.012797 -0.00327,0.00705 -0.032528,0.094282 -0.065033,0.1938758 l -0.059091,0.1810782 -0.1327955,0.026115 c -0.073038,0.014355 -0.1885553,0.033349 -0.2567059,0.04219 -0.1479316,0.019176 -0.57753176,0.027636 -0.72739657,0.014282 z m 8.52346609,0.00368 c -0.1738606,-0.010757 -0.5355442,-0.071161 -0.56346,-0.09413 -0.00889,-0.0073 0.2659336,-0.9369411 0.2805055,-0.94893 0.013466,-0.011097 0.1849095,-0.045989 0.3312236,-0.067449 0.2141188,-0.031419 0.7050366,-0.033978 0.9156923,-0.00482 0.135717,0.018806 0.340528,0.062689 0.357846,0.076707 0.0069,0.0056 -0.05793,0.2243748 -0.0693,0.2337077 -0.0012,0.00111 -0.04148,-0.00712 -0.08928,-0.018176 -0.27082,-0.062648 -0.6754215,-0.086926 -0.9392694,-0.056357 -0.14312,0.01658 -0.2364155,0.033497 -0.2364155,0.04288 0,0.0026 -0.033613,0.1217468 -0.07466,0.2644587 -0.041069,0.1427122 -0.07466,0.2662172 -0.07466,0.2744521 0,0.026225 0.2266471,0.053684 0.441726,0.05348 0.172017,-1.554e-4 0.439859,-0.024965 0.475189,-0.044032 0.021453,-0.011576 0.071091,-0.1960354 0.056086,-0.2083766 -0.00785,-0.0065 -0.1064171,-0.012983 -0.2442469,-0.016099 -0.2015667,-0.00453 -0.2309781,-0.0073 -0.2306447,-0.021663 2.389e-4,-0.00905 0.010448,-0.053308 0.022712,-0.098344 l 0.02229,-0.081886 0.1857201,0.00111 c 0.1867872,0.00111 0.3172424,0.015097 0.5310214,0.056241 0.07588,0.014615 0.108873,0.02552 0.108873,0.035981 0,0.00827 -0.03731,0.132233 -0.08285,0.2754753 l -0.08285,0.2604378 -0.0447,0.010454 c -0.10625,0.024814 -0.3543424,0.061005 -0.4864175,0.070924 -0.1330955,0.00998 -0.3799572,0.011829 -0.5101683,0.00375 z M 2.2129809,5.3510006 c 0.091537,-0.297109 0.1664787,-0.5413514 0.1665366,-0.5427573 6.08e-5,-0.00149 0.078871,-0.0026 0.175144,-0.0026 0.1631077,0 0.1745547,0.00111 0.1679085,0.018472 -0.00395,0.010164 -0.079,0.2531301 -0.1668385,0.539923 l -0.1597058,0.5214392 -0.1747392,0.003 -0.1747372,0.003 z m 1.766688,0 c 0.091645,-0.297109 0.1666812,-0.5413514 0.1667462,-0.5427573 5.97e-5,-0.00149 0.076155,-0.0026 0.1690924,-0.0026 h 0.1689786 l 0.1361647,0.057296 c 0.1627153,0.068465 0.430741,0.2133542 0.5548189,0.2999207 0.049228,0.034349 0.094726,0.062441 0.1011148,0.062441 0.00638,0 0.034984,-0.077149 0.063532,-0.1714415 0.028548,-0.094297 0.057452,-0.18872 0.064241,-0.2098302 l 0.012346,-0.038385 h 0.1745638 c 0.1626432,0 0.1740685,0.00111 0.1674241,0.018472 -0.00417,0.010164 -0.078998,0.2531301 -0.166833,0.5399231 l -0.1597059,0.5214391 -0.1748674,0.003 -0.1748674,0.003 0.048156,-0.1563667 C 5.1570256,5.6490472 5.1788371,5.5705527 5.179016,5.5606156 5.1795109,5.5307919 4.8989219,5.3016764 4.7866565,5.2402301 4.6643311,5.173279 4.459557,5.0827285 4.4298653,5.0824578 c -0.013231,-1.187e-4 -0.024913,0.010719 -0.030217,0.027969 -0.00477,0.015468 -0.059813,0.1962647 -0.1223135,0.4017439 l -0.1136483,0.3735968 -0.1753139,0.003 -0.1753157,0.003 z m 1.8342246,0.5328458 c 0,-0.011829 0.3252162,-1.0619006 0.3314621,-1.070217 0.00715,-0.0095 0.3404615,-0.01087 0.3404615,-0.00149 0,0.00371 -0.073734,0.2477291 -0.1638541,0.5424826 L 6.1581088,5.890547 H 5.9860014 c -0.09466,0 -0.1721073,-0.003 -0.1721073,-0.00682 z M 6.7027551,5.350726 6.8668479,4.8108028 l 0.1706414,-0.00296 0.1706414,-0.00296 0.139675,0.058675 c 0.1629178,0.068435 0.4245843,0.2098859 0.5533048,0.2991046 0.04958,0.034349 0.094361,0.062459 0.09956,0.062459 0.00533,0 0.033257,-0.077151 0.06227,-0.1714452 0.029023,-0.094293 0.058703,-0.1887162 0.065892,-0.2098265 l 0.01305,-0.038387 h 0.172615 0.1726152 L 8.3319365,5.3095595 C 8.2466068,5.5868086 8.1712474,5.8309251 8.164489,5.8520387 l -0.012273,0.03838 H 7.9798881 7.8075712 L 7.855667,5.7343269 C 7.882124,5.6484764 7.9038806,5.5701042 7.9040583,5.5601665 7.9046153,5.5270751 7.6223871,5.300126 7.4938456,5.2303186 7.3616504,5.1585303 7.1509285,5.0636881 7.1412141,5.0716077 7.1376341,5.0745677 7.0836421,5.2425596 7.0210461,5.4452046 6.9584311,5.64785 6.9017781,5.8309203 6.8951391,5.852034 l -0.012038,0.03838 H 6.7109087 6.5387236 Z M 2.8648979,5.4696721 c 0,-0.00653 0.017497,-0.064172 0.038882,-0.1281007 l 0.038881,-0.116231 h 0.3595329 0.3595329 l -0.00853,0.028155 c -0.00472,0.015468 -0.02316,0.071902 -0.041051,0.125385 l -0.032515,0.097239 -0.3573635,0.0026 C 2.9576176,5.480567 2.8648979,5.4783668 2.8648979,5.4695491 Z M 0.11006219,4.0610493 C 0.78221873,3.4051069 1.956285,2.3646321 2.2271315,2.1848702 2.3976338,2.0717037 2.5538449,2.014842 2.8586765,1.9549796 c 0.3077938,-0.060445 0.5944082,-0.091437 0.951891,-0.1029291 0.2367366,-0.0076 0.235721,-0.012094 0.018666,0.082096 C 3.5488605,2.0557866 3.1172147,2.26818 2.8337925,2.423953 2.1053512,2.8243209 1.5036774,3.2347003 0.65868327,3.9075169 L 0.39194428,4.1199028 H 0.22084915 0.04975403 Z m 0.62795364,7.79e-5 C 1.0902031,3.7903848 1.7678392,3.3292124 2.2623236,3.0237609 2.9297737,2.6114636 3.0157605,2.5815769 3.7732381,2.4986011 4.588057,2.4093488 5.5231549,2.3949825 6.473373,2.4571226 c 0.8419338,0.055058 1.8389666,0.1717567 2.9801017,0.3488143 0.387479,0.060122 1.0052453,0.1674688 1.0172433,0.1767645 0.0097,0.00753 -0.245426,0.1322182 -0.5692895,0.2782652 C 9.1508161,3.5994504 8.1060868,3.9851734 7.6984168,4.0743327 7.5314878,4.1108333 7.3274947,4.119005 7.1818959,4.0949942 6.9709058,4.0601998 6.7977071,4.0048109 6.2429717,3.7946729 5.1205383,3.3694817 4.5532814,3.2206417 3.9341262,3.1888705 3.1987531,3.1511384 2.6371715,3.3046561 1.6952537,3.8009121 1.1347274,4.0962256 1.0991667,4.1092532 0.83133843,4.1173768 l -0.17332738,0.00527 0.0800048,-0.061505 z"
       id="path292" />
  </g>
</svg>
