<?xml version="1.0" encoding="UTF-8" standalone="no"?>
<svg
   xmlns:dc="http://purl.org/dc/elements/1.1/"
   xmlns:cc="http://creativecommons.org/ns#"
   xmlns:rdf="http://www.w3.org/1999/02/22-rdf-syntax-ns#"
   xmlns:svg="http://www.w3.org/2000/svg"
   xmlns="http://www.w3.org/2000/svg"
   xmlns:sodipodi="http://sodipodi.sourceforge.net/DTD/sodipodi-0.dtd"
   xmlns:inkscape="http://www.inkscape.org/namespaces/inkscape"
   width="32"
   height="32"
   viewBox="0 0 8.4666665 8.4666669"
   version="1.1"
   id="svg394"
   inkscape:version="1.0.1 (3bc2e813f5, 2020-09-07)"
   sodipodi:docname="sf.svg">
  <defs
     id="defs388" />
  <sodipodi:namedview
     id="base"
     pagecolor="#ffffff"
     bordercolor="#666666"
     borderopacity="1.0"
     inkscape:pageopacity="0.0"
     inkscape:pageshadow="2"
     inkscape:zoom="14.71875"
     inkscape:cx="16"
     inkscape:cy="16"
     inkscape:document-units="px"
     inkscape:current-layer="layer1"
     inkscape:document-rotation="0"
     showgrid="false"
     units="px"
     inkscape:window-width="1366"
     inkscape:window-height="745"
     inkscape:window-x="-8"
     inkscape:window-y="-8"
     inkscape:window-maximized="1" />
  <metadata
     id="metadata391">
    <rdf:RDF>
      <cc:Work
         rdf:about="">
        <dc:format>image/svg+xml</dc:format>
        <dc:type
           rdf:resource="http://purl.org/dc/dcmitype/StillImage" />
        <dc:title></dc:title>
      </cc:Work>
    </rdf:RDF>
  </metadata>
  <g
     inkscape:label="Layer 1"
     inkscape:groupmode="layer"
     id="layer1">
    <path
       style="fill:#ff0000;stroke-width:0.0227072"
       d="M 3.4653629,8.340587 C 2.6434285,8.0716048 1.0572846,7.1841501 0.59052279,6.7321006 0.42661717,6.5733615 0.27246608,6.3415301 0.19895933,6.1432189 L 0.13896449,5.9813688 V 4.1770622 2.3727563 L 0.20754942,2.238827 C 0.33146711,1.9968522 0.73578662,1.6463784 1.3849334,1.2182434 2.0103245,0.80577683 2.7917633,0.43150673 3.543308,0.18449174 4.3037951,-0.06546319 4.9059762,0.05451721 6.2266658,0.71913136 7.2896237,1.2540455 7.9675878,1.7362748 8.2502669,2.1584948 8.4095525,2.3964122 8.4077915,2.3719096 8.3973751,4.2062726 8.3870778,6.0218964 8.3885487,6.0033349 8.2355313,6.3190288 8.091574,6.6161441 7.8671532,6.8311637 7.3404397,7.1766123 6.9258881,7.4484978 6.6636332,7.5963465 6.1173311,7.8661535 5.5828921,8.1301017 5.2393978,8.2763514 4.9792056,8.3507371 4.7972547,8.4027516 4.7540517,8.4058594 4.2229578,8.4050451 3.6674134,8.4041876 3.6570192,8.4033303 3.4653601,8.3405915 Z m 1.14972,-0.1036385 C 4.8969532,8.1884561 5.1432905,8.1067272 5.5457889,7.9281614 6.2049133,7.6357439 6.9607079,7.2209046 7.419625,6.8996527 7.7160098,6.692178 7.9619315,6.4457855 8.0551141,6.2629504 8.1944964,5.989471 8.197762,5.9401767 8.197762,4.1118463 V 2.4605513 L 8.136728,2.3397165 C 7.9058669,1.8826841 6.807208,1.1531432 5.4772053,0.57371618 4.9379218,0.33877303 4.6403855,0.26397301 4.2451244,0.26397301 c -0.3090636,0 -0.4810201,0.0345946 -0.8483457,0.17066165 C 2.3750701,0.81310962 1.5952973,1.24532 0.81245938,1.8670653 0.56770661,2.0614529 0.4798381,2.152731 0.3862294,2.3098369 l -0.064369,0.1080267 0.002633,1.7591992 0.002633,1.7591985 0.0554469,0.1469402 c 0.11595423,0.3072682 0.31841179,0.5309794 0.7508803,0.8297059 0.6925825,0.4783997 1.7657775,1.039864 2.385491,1.248018 0.3232505,0.1085769 0.7392131,0.1374253 1.0961347,0.076022 z M 3.7743537,8.0991318 C 3.0729323,7.9451633 1.325416,6.9954829 0.81262223,6.4895903 0.62430463,6.3038081 0.51362526,6.121312 0.47294856,5.9295132 0.45570061,5.848172 0.44766853,5.2754303 0.44781945,4.1364831 l 2.164e-4,-1.6735118 0.0665946,-0.1145465 C 0.59671915,2.2072356 0.75455726,2.0633548 1.1425398,1.7760416 1.8178604,1.2759457 2.4863792,0.91514923 3.3219325,0.59983405 3.8742626,0.3913991 4.0999233,0.35136239 4.4620835,0.39754579 4.8799646,0.45083239 5.2535055,0.59041793 6.073304,0.99961778 7.0732067,1.4987155 7.810822,2.0203437 8.0045481,2.3653593 l 0.067476,0.120166 -3.472e-4,1.6464302 C 8.0712455,5.9240007 8.0704718,5.93719 7.9421078,6.1955317 7.7600472,6.5620213 7.1039811,7.024611 5.9770309,7.5811009 5.4456884,7.8434795 5.115067,7.9820978 4.8142396,8.0686224 4.5840683,8.1348264 4.0132782,8.1515728 3.7743823,8.0991303 Z M 3.8923699,6.2724559 C 4.0074945,6.1882018 4.0113643,6.1496335 4.0127547,5.072457 4.0141892,3.9485745 4.0156976,3.9595784 3.8595766,3.9204553 3.8125083,3.9086593 3.5116582,3.8817376 3.1910209,3.8606386 2.7398692,3.8309448 2.585899,3.8128684 2.5101095,3.7806981 2.3579269,3.7161014 2.3451336,3.6649268 2.3451336,3.1207995 c 0,-0.431256 0.00294,-0.4637543 0.047386,-0.5194628 0.064936,-0.081438 0.2047045,-0.083433 0.2851527,-0.00408 0.055545,0.054794 0.056119,0.059609 0.056119,0.4736299 V 3.4891625 H 3.3739205 4.0140513 V 3.0086833 c 0,-0.4659822 -0.00173,-0.4838592 -0.056571,-0.5924743 -0.1009372,-0.199827 -0.031674,-0.1900613 -1.347977,-0.1900613 -0.9929842,0 -1.1694772,0.00493 -1.24213,0.034909 -0.1083647,0.04467 -0.180079,0.1112238 -0.2418514,0.2244614 -0.04458,0.081713 -0.049918,0.131064 -0.056669,0.5236354 -0.00945,0.5489199 0.014933,0.7634837 0.1026406,0.9034289 0.1139783,0.1818724 0.1812931,0.2018789 0.8168219,0.2427667 0.5947525,0.03826 0.6483603,0.051308 0.7165108,0.1743266 0.035801,0.064632 0.041179,0.1555643 0.047286,0.8001484 l 0.00688,0.7272295 -0.057287,0.056516 c -0.077601,0.076557 -0.1811083,0.075272 -0.254787,-0.00315 l -0.056076,-0.05967 V 5.2112589 4.5717681 H 1.7264125 1.0619861 l 0.00716,0.7273601 0.00716,0.7273618 0.057152,0.101492 c 0.040114,0.071226 0.087833,0.1168317 0.1600328,0.1529344 l 0.1028773,0.051444 1.2157408,-0.00635 c 1.1929936,-0.00623 1.2169492,-0.00723 1.2802632,-0.053567 z M 5.7515449,5.6994457 V 5.0904926 H 6.5517095 7.3518726 V 4.5153695 3.9402474 H 6.5517095 5.7515449 V 3.714709 3.4891707 H 6.5517095 7.3518726 V 2.8463868 2.2036023 H 5.9230094 4.4941451 v 2.052399 2.0523982 h 0.6287004 0.6286994 z"
       id="path457" />
  </g>
</svg>
