<?xml version="1.0" encoding="UTF-8" standalone="no"?>
<svg
   xmlns:dc="http://purl.org/dc/elements/1.1/"
   xmlns:cc="http://creativecommons.org/ns#"
   xmlns:rdf="http://www.w3.org/1999/02/22-rdf-syntax-ns#"
   xmlns:svg="http://www.w3.org/2000/svg"
   xmlns="http://www.w3.org/2000/svg"
   xmlns:sodipodi="http://sodipodi.sourceforge.net/DTD/sodipodi-0.dtd"
   xmlns:inkscape="http://www.inkscape.org/namespaces/inkscape"
   width="32"
   height="32"
   viewBox="0 0 8.4666666 8.4666666"
   version="1.1"
   id="svg212"
   inkscape:version="1.0.1 (3bc2e813f5, 2020-09-07)"
   sodipodi:docname="apacs.svg">
  <defs
     id="defs206" />
  <sodipodi:namedview
     id="base"
     pagecolor="#ffffff"
     bordercolor="#666666"
     borderopacity="1.0"
     inkscape:pageopacity="0.0"
     inkscape:pageshadow="2"
     inkscape:zoom="14.71875"
     inkscape:cx="16"
     inkscape:cy="16"
     inkscape:document-units="px"
     inkscape:current-layer="layer1"
     inkscape:document-rotation="0"
     showgrid="false"
     units="px"
     width="1000mm"
     inkscape:window-width="1366"
     inkscape:window-height="745"
     inkscape:window-x="-8"
     inkscape:window-y="-8"
     inkscape:window-maximized="1" />
  <metadata
     id="metadata209">
    <rdf:RDF>
      <cc:Work
         rdf:about="">
        <dc:format>image/svg+xml</dc:format>
        <dc:type
           rdf:resource="http://purl.org/dc/dcmitype/StillImage" />
        <dc:title></dc:title>
      </cc:Work>
    </rdf:RDF>
  </metadata>
  <g
     inkscape:label="Layer 1"
     inkscape:groupmode="layer"
     id="layer1">
    <path
       style="fill:#000000;stroke-width:0.0372152"
       d="M 1.9904169,8.3800195 1.765662,8.3654692 V 7.138581 5.9116933 l 0.2566475,0.012153 c 0.2417632,0.011449 0.257985,0.018176 0.2797057,0.1161351 0.012685,0.057193 0.024551,0.079675 0.026375,0.049959 0.00516,-0.083893 0.2697345,-0.2144092 0.4366995,-0.2154239 0.2239625,-0.00133 0.3660974,0.1105888 0.4739629,0.3733064 0.077876,0.1896727 0.091458,0.2732167 0.090836,0.558717 C 3.3290215,7.204118 3.2660417,7.4119215 3.086832,7.608479 2.8864352,7.8282763 2.6680468,7.8382792 2.4239912,7.6388414 2.3557086,7.5830416 2.2920279,7.5373873 2.2824785,7.5373873 c -0.00954,0 -0.017361,0.1965337 -0.017361,0.4367424 0,0.2402077 -0.011241,0.4330764 -0.024972,0.4285957 -0.01374,-0.00448 -0.1261131,-0.014691 -0.2497278,-0.022701 z M 2.646541,7.2203803 c 0.079741,-0.038225 0.1513281,-0.2388128 0.1513281,-0.4240274 0,-0.417431 -0.3651832,-0.5354563 -0.4667898,-0.1508642 -0.052902,0.2002382 -0.01614,0.4118331 0.089602,0.5157371 0.091031,0.089448 0.1373536,0.1015804 0.2258589,0.05915 z m 1.1502385,0.570364 C 3.5398611,7.7246286 3.3972152,7.5389574 3.3972152,7.2706604 c 0,-0.3290415 0.1409661,-0.4450473 0.6915158,-0.5690707 0.1935853,-0.043608 0.3569268,-0.079287 0.3629813,-0.079287 0.00605,0 0.011014,-0.044505 0.011014,-0.098893 0,-0.1468575 -0.08451,-0.2085601 -0.2889146,-0.210938 -0.1548383,-0.00176 -0.1939565,0.013827 -0.2549903,0.1018591 -0.067864,0.097886 -0.083324,0.10188 -0.2635516,0.068074 -0.1244692,-0.023347 -0.1914576,-0.055588 -0.1914576,-0.092141 0,-0.1134062 0.2046982,-0.3487263 0.3441514,-0.3956343 0.211057,-0.070994 0.7810735,-0.03217 0.9072232,0.06179 0.1810409,0.1348471 0.1953007,0.197423 0.1962116,0.8610316 6.293e-4,0.456436 0.012344,0.6244292 0.0472,0.6769153 0.025501,0.038399 0.040485,0.076862 0.033297,0.085494 -0.00719,0.00861 -0.107935,0.033456 -0.2238826,0.055195 -0.2014929,0.037786 -0.2120637,0.035415 -0.2390806,-0.053347 L 4.5006656,7.588834 4.3401824,7.685001 C 4.1546963,7.7961477 3.9628319,7.8334884 3.7967798,7.7907562 Z M 4.3002394,7.4069952 c 0.099938,-0.047672 0.1624802,-0.1914434 0.1624802,-0.37351 0,-0.099274 -0.012231,-0.1215784 -0.058269,-0.1063191 -0.032048,0.010616 -0.1526047,0.042692 -0.2679014,0.071287 -0.2247399,0.055718 -0.3123881,0.1481318 -0.2813074,0.2966023 0.0098,0.046774 0.064325,0.110189 0.1211828,0.14092 0.102746,0.055534 0.1567897,0.050693 0.3238148,-0.02898 z M 5.6914775,7.7864121 C 5.4895337,7.7437402 5.3607777,7.6567592 5.23531,7.4782496 4.9038729,7.0066956 5.0656177,6.2111218 5.5322903,6.0174918 c 0.2185692,-0.090687 0.6589826,-0.069635 0.8387159,0.040094 0.1208957,0.073809 0.2893158,0.3210426 0.2893158,0.4247068 0,0.028518 -0.08275,0.060652 -0.1999947,0.077646 C 6.2667144,6.5880057 6.257258,6.5848196 6.1639438,6.4600357 6.0860048,6.3558098 6.0410108,6.331137 5.9288882,6.331137 c -0.1480611,0 -0.2592637,0.055835 -0.3241975,0.1627733 -0.063298,0.1042455 -0.085649,0.3888601 -0.045255,0.5762559 0.049014,0.227381 0.1691939,0.3424275 0.3577069,0.3424275 0.1457123,0 0.2331063,-0.069365 0.3269666,-0.2595234 0.028539,-0.057823 0.061671,-0.061648 0.2318844,-0.026774 0.109223,0.02238 0.2039162,0.047333 0.2104286,0.05547 0.0065,0.00814 -0.019469,0.091453 -0.057731,0.185155 -0.08895,0.2178028 -0.2657449,0.360838 -0.5155597,0.4171109 -0.2161686,0.048697 -0.2028125,0.048615 -0.421654,0.00238 z m 1.579508,0.00229 C 7.09222,7.7354911 6.9134658,7.5988112 6.8356935,7.4558574 6.7947984,7.380689 6.7681115,7.305494 6.7763903,7.2887605 c 0.00829,-0.016742 0.1058003,-0.04227 0.2167147,-0.056752 0.1934847,-0.025263 0.2053395,-0.021273 0.2923815,0.098295 0.066041,0.09072 0.1317509,0.1313791 0.2415306,0.149449 0.2538912,0.041785 0.4906571,-0.1333391 0.35697,-0.26404 C 7.8610959,7.1933343 7.6925289,7.132654 7.509395,7.0808682 7.1094598,6.9677759 6.9450898,6.8705741 6.8774383,6.7071486 6.72075,6.3286388 6.9600341,6.0139314 7.4388288,5.9688047 c 0.3551968,-0.033477 0.6069638,0.045141 0.7610785,0.2376627 0.068894,0.086064 0.1252657,0.1755621 0.1252657,0.1988852 0,0.023321 -0.090982,0.055597 -0.2021844,0.071717 C 7.9464465,6.5026671 7.9116083,6.4956607 7.8482884,6.4218441 7.7519611,6.309549 7.6244331,6.2741429 7.4404359,6.3086111 7.288399,6.3370926 7.2198465,6.4228145 7.2845092,6.503591 7.3030353,6.5267347 7.4900363,6.5983903 7.7000673,6.6628263 8.1704228,6.8071302 8.2830282,6.8768523 8.3450078,7.0621555 8.4835017,7.4762137 8.1306652,7.8347139 7.5949197,7.8242835 7.4746274,7.8218998 7.3288578,7.8059306 7.2709855,7.7887045 Z M 1.1996129,7.2069392 c 0,-0.5006877 -0.00532,-0.5461431 -0.076017,-0.6488067 C 1.0681232,6.4775739 1.0055601,6.4418177 0.89210666,6.4258442 0.75182678,6.4060976 0.72671752,6.4163356 0.63515359,6.5307227 0.40587335,6.8171396 0.57333522,7.2462141 0.91439929,7.2462141 H 1.0331279 V 7.4749846 7.7037542 H 0.83201941 c -0.41820762,0 -0.70360371,-0.3514602 -0.706111,-0.8695644 C 0.12401054,6.4426917 0.27211548,6.1499602 0.55032124,5.9953087 0.65674287,5.936147 0.77551783,5.9211026 1.1413432,5.920424 L 1.5991771,5.9195752 1.5990537,6.1773437 1.5989307,6.4351124 1.5352955,6.3047475 C 1.4636856,6.1580443 1.2675421,5.9566946 1.1964725,5.9569302 c -0.025741,8.39e-5 -0.00185,0.035029 0.053088,0.077655 0.2873371,0.2229282 0.3496188,0.4274154 0.3496188,1.1478909 l -2.6e-6,0.5628628 H 1.3993949 1.1996129 Z m 2.280845,-1.945385 C 2.6831749,5.1238182 2.0816254,4.5038165 1.8076543,3.5374394 1.7323361,3.2717694 1.720808,3.162476 1.7184379,2.6916182 1.7160911,2.2250035 1.7268507,2.1084183 1.7969487,1.8410215 1.8977543,1.4564881 2.1417146,0.99417847 2.3915343,0.71426838 2.6144312,0.46452475 3.0935471,0.161731 3.3783259,0.0906324 3.6536143,0.02190614 4.1029744,0.03108258 4.3794771,0.11108499 5.1379892,0.33054559 5.7659782,1.1082965 5.9425389,2.0469062 c 0.040571,0.2156789 0.050959,0.5711311 0.05135,1.7573677 l 5.035e-4,1.4870039 H 5.4132641 4.8321351 L 4.8222402,3.8042741 C 4.8109649,2.1092759 4.8156032,2.1391257 4.5114218,1.8046495 4.1270903,1.3820437 3.5505826,1.3869636 3.1703414,1.8160935 2.7864543,2.2493377 2.7805534,3.0287378 3.1574664,3.5166363 3.3758796,3.799363 3.493911,3.8520496 3.9632755,3.87633 l 0.4162126,0.021529 0.00913,0.6967084 0.00913,0.6967074 -0.4086937,-0.00627 C 3.764271,5.2815693 3.5354078,5.2710076 3.4804678,5.2615225 Z m 2.398157,-3.891979 C 5.6890211,0.88027377 5.3833253,0.50277624 4.9671142,0.24398056 L 4.6557323,0.05036652 h 0.6859733 0.6859737 v 0.83189077 c 0,0.45753961 -0.00376,0.83125191 -0.00834,0.83047291 C 6.0147673,1.711944 5.951437,1.5575316 5.8786092,1.3695752 Z M 6.4150854,0.58807611 C 6.2414392,0.41744889 6.3488433,0.05036652 6.5724152,0.05036652 c 0.098365,0 0.2543921,0.16346347 0.2543921,0.26651705 0,0.11687229 -0.073786,0.26495178 -0.1550751,0.31121927 -0.1140958,0.0649411 -0.1565659,0.0583137 -0.2566473,-0.0400234 z M 6.6406119,0.48710934 c -0.06778,-0.12922043 -0.1375385,-0.13385372 -0.156574,-0.0103943 -0.00793,0.0514766 -0.016469,0.00353 -0.018964,-0.10662255 l -0.00454,-0.20020962 0.108214,0.013032 c 0.09888,0.0119053 0.1082157,0.0252616 0.1082157,0.15478916 0,0.16288983 0.066459,0.21859676 0.1005788,0.0843086 C 6.8064594,0.30818308 6.7001449,0.11829185 6.5967773,0.0991564 6.4803992,0.07760967 6.3606395,0.19951631 6.3606395,0.33952079 c 0,0.16081018 0.079222,0.25157983 0.2195763,0.25157983 h 0.1149344 z m 0.011549,-0.21837102 c 0.0086,-0.0325936 -0.018383,-0.0519963 -0.07231,-0.0519963 -0.055956,0 -0.086019,0.022818 -0.086019,0.0652849 0,0.0782205 0.1372384,0.0667047 0.158329,-0.0132886 z"
       id="path244" />
  </g>
</svg>
