<?xml version="1.0" encoding="UTF-8" standalone="no"?>
<svg
   xmlns:dc="http://purl.org/dc/elements/1.1/"
   xmlns:cc="http://creativecommons.org/ns#"
   xmlns:rdf="http://www.w3.org/1999/02/22-rdf-syntax-ns#"
   xmlns:svg="http://www.w3.org/2000/svg"
   xmlns="http://www.w3.org/2000/svg"
   xmlns:sodipodi="http://sodipodi.sourceforge.net/DTD/sodipodi-0.dtd"
   xmlns:inkscape="http://www.inkscape.org/namespaces/inkscape"
   width="50"
   height="32"
   viewBox="0 0 13.229166 8.4666669"
   version="1.1"
   id="svg38"
   inkscape:version="1.0.1 (3bc2e813f5, 2020-09-07)"
   sodipodi:docname="bag.svg">
  <defs
     id="defs32" />
  <sodipodi:namedview
     id="base"
     pagecolor="#ffffff"
     bordercolor="#666666"
     borderopacity="1.0"
     inkscape:pageopacity="0.0"
     inkscape:pageshadow="2"
     inkscape:zoom="14.71875"
     inkscape:cx="25"
     inkscape:cy="16"
     inkscape:document-units="px"
     inkscape:current-layer="layer1"
     inkscape:document-rotation="0"
     showgrid="false"
     units="px"
     inkscape:window-width="1366"
     inkscape:window-height="745"
     inkscape:window-x="-8"
     inkscape:window-y="-8"
     inkscape:window-maximized="1" />
  <metadata
     id="metadata35">
    <rdf:RDF>
      <cc:Work
         rdf:about="">
        <dc:format>image/svg+xml</dc:format>
        <dc:type
           rdf:resource="http://purl.org/dc/dcmitype/StillImage" />
        <dc:title></dc:title>
      </cc:Work>
    </rdf:RDF>
  </metadata>
  <g
     inkscape:label="Layer 1"
     inkscape:groupmode="layer"
     id="layer1">
    <path
       style="fill:#0000ff;stroke-width:0.0649662"
       d="M 2.0594116,6.2710841 C 2.2744192,5.9423697 2.3135113,5.9376917 2.7632351,6.1868611 2.9911124,6.3131143 3.1775545,6.426326 3.1775545,6.4384412 c 0,0.012118 -0.2794534,0.022033 -0.6210074,0.022033 H 1.9355372 L 2.0594116,6.2710888 Z M 3.8289746,6.0600199 C 3.4141242,5.8380777 3.0140614,5.6021493 2.9399485,5.5357298 2.8060153,5.415702 2.8070547,5.413243 3.1113742,5.130213 4.0891933,4.2208108 5.6490643,3.1783137 6.969401,2.5518112 7.6729673,2.2179695 9.0396533,1.7158095 9.486026,1.6271339 9.6180235,1.6009117 9.690702,1.5684288 9.6475369,1.5549505 9.6043626,1.541482 9.3112305,1.5880566 8.9961188,1.6584796 6.7603595,2.1581194 4.4870477,3.1650653 2.7547915,4.4230258 2.1054032,4.8946082 2.0434734,4.8980443 1.9655144,4.466823 1.8813613,4.0013239 2.5045615,3.2604834 3.4760979,2.6710909 4.4142099,2.1019791 7.3620255,1.5115762 9.6574522,1.4330599 c 0.9220608,-0.031537 1.1627728,-0.020588 1.5085448,0.068675 0.775799,0.2002585 1.407126,0.6769492 1.726885,1.3039011 0.671277,1.316168 0.0729,2.8668475 -1.334793,3.459095 L 11.165997,6.4296929 7.8746224,6.4466266 4.5832463,6.4635602 Z M 8.9723202,5.4814704 9.2869517,5.1795363 9.6036751,5.4834776 C 9.8230659,5.6940142 9.9423303,5.767738 9.9917553,5.7233727 10.041177,5.6790086 9.9569843,5.5601636 9.7178033,5.3366691 9.384369,5.0251093 9.3751843,5.0070637 9.4506712,4.8117441 c 0.077976,-0.2017754 0.078484,-0.201964 0.2049127,-0.076562 0.069712,0.069142 0.1140725,0.1339482 0.098593,0.1440146 -0.015499,0.010073 -0.1052913,0.052166 -0.1995791,0.093556 l -0.1714235,0.075255 0.1714243,-0.036934 c 0.094282,-0.02031 0.4028507,-0.057883 0.6857044,-0.083488 0.558873,-0.050591 0.711635,-0.1034385 0.93482,-0.3233895 0.844345,-0.8321004 0.08504,-1.9043746 -0.997496,-1.4086379 -0.2655567,0.1216072 -0.6230284,0.4489307 -0.6230284,0.5704844 0,0.036263 0.07034,-0.02776 0.1563112,-0.1422767 0.2116485,-0.2819132 0.6286712,-0.4847913 0.9990982,-0.4860473 0.248583,-9.41e-4 0.33713,0.033857 0.53142,0.2082607 0.194291,0.1744039 0.232952,0.253888 0.232013,0.4770217 -0.0013,0.3105853 -0.215209,0.6871873 -0.496746,0.8745975 C 10.847865,4.783354 10.650409,4.8314423 10.358609,4.84812 9.7574094,4.8824816 9.6044585,4.7667473 9.5482204,4.2348991 L 9.5069427,3.8445426 9.496506,4.1892788 C 9.490726,4.3788806 9.450518,4.6254868 9.407104,4.7372885 9.333511,4.9267786 9.321894,4.9328664 9.2356778,4.8270365 9.1830718,4.7624595 9.1431918,4.5584862 9.1431918,4.3539865 9.1431918,3.981297 9.0176899,3.6260995 8.8148685,3.4247778 8.6186552,3.2300115 8.2057401,3.075154 7.8826305,3.075154 c -0.5668841,0 -0.9518348,0.4671669 -0.8005406,0.9715153 0.1722686,0.574267 0.5998755,0.8750192 1.2440968,0.8750192 0.3339211,0 0.8170018,0.092544 0.8170018,0.1565137 0,0.011747 -0.1436544,0.1432051 -0.3192343,0.2921167 -0.1886221,0.1599734 -0.2991863,0.2998657 -0.2702329,0.3419165 0.07044,0.1023062 0.073015,0.1008868 0.4186139,-0.2307659 z M 8.9846057,4.9581987 C 8.8146326,4.8906913 8.8044608,4.8721314 8.8988962,4.8017828 8.9578191,4.7578803 9.00557,4.6907324 9.0049911,4.6525614 9.0042428,4.6025733 8.9898612,4.602101 8.9535636,4.6509368 8.7955466,4.8633644 8.1277623,4.9335571 7.7855105,4.7737118 7.2354621,4.5168182 6.9693351,3.8706021 7.2320398,3.4297652 7.2671298,3.3708704 7.3859718,3.2808536 7.4961219,3.229723 8.2463793,2.8814645 9.2216295,3.6002256 9.0491565,4.3743137 c -0.027387,0.1229005 0.0029,0.2695906 0.088544,0.4286819 0.1412272,0.2623816 0.134307,0.2694 -0.1530926,0.1552556 z M 8.8271567,4.5168473 c 0.045649,-0.1067958 -0.038045,-0.1144305 -0.1502581,-0.013704 -0.04526,0.040625 -0.082286,0.095152 -0.082286,0.1211725 0,0.076626 0.1917189,-0.011982 0.2325428,-0.1074655 z m 1.2074343,0.1046233 c 0,-0.07871 -0.2016238,-0.2163779 -0.2514247,-0.1716724 -0.049801,0.044706 0.103565,0.2256879 0.19125,0.2256879 0.03309,0 0.06017,-0.024307 0.06017,-0.054016 z m -0.08714,-3.1222801 c -0.02279,-0.020446 -0.081927,-0.022636 -0.1314276,-0.00488 -0.054701,0.019659 -0.038453,0.034231 0.041429,0.037186 0.072286,0.00267 0.1127846,-0.011888 0.090001,-0.032329 z M 0.57812402,5.9641907 C 0.25488958,5.6740426 0.14171332,5.4298603 0.10684027,4.9473721 0.08196171,4.603329 0.10371645,4.4540993 0.20990676,4.2395333 0.39012409,3.8754377 0.67056207,3.5876804 0.98591731,3.4432656 1.2123404,3.3395783 2.1247179,3.0136045 2.1885107,3.0136045 c 0.012745,0 -0.2370283,0.2304381 -0.5550605,0.5120835 C 0.74893581,4.3090118 0.67379104,4.6062695 1.221945,5.1535372 L 1.5190474,5.4501601 1.2095469,5.7860466 C 1.0393233,5.9707863 0.87620588,6.1300593 0.84706282,6.1399881 0.81792342,6.149919 0.69689862,6.0708073 0.57812402,5.9641907 Z M 5.4044258,1.7142159 C 5.3715185,1.5797372 5.3887176,1.4948004 5.4622304,1.4288182 5.6901496,1.2242326 5.8829978,1.5002228 5.7122457,1.7866191 5.6058226,1.965117 5.457268,1.9301753 5.4044264,1.7142159 Z M 7.8000945,1.3214129 C 7.6665681,1.138488 7.7145643,0.98240696 7.9043428,0.98240696 c 0.1507353,0 0.2788475,0.16781304 0.2788475,0.36525914 0,0.1810892 -0.2439511,0.1643722 -0.3830958,-0.026253 z m -2.0840059,0.00115 C 5.6284342,1.2277597 5.8742921,1.0451424 6.3106695,0.88092773 6.585574,0.77747999 7.284794,0.74522564 7.5528142,0.82362798 7.7251985,0.87405772 7.733976,1.092111 7.5619941,1.0514744 7.0289925,0.92554732 6.451299,1.0026836 6.0369118,1.2551085 5.8370473,1.3768555 5.7778078,1.389313 5.7160962,1.3225681 Z"
       id="path54"
       sodipodi:nodetypes="ssssccscscssccsssscssccccccsssssssccssssccscsssccssscsssssscccsccsscscccsssssssssccsccscssscscccsscssssssssscsss" />
  </g>
</svg>
