<?xml version="1.0" encoding="UTF-8" standalone="no"?>
<svg
   xmlns:dc="http://purl.org/dc/elements/1.1/"
   xmlns:cc="http://creativecommons.org/ns#"
   xmlns:rdf="http://www.w3.org/1999/02/22-rdf-syntax-ns#"
   xmlns:svg="http://www.w3.org/2000/svg"
   xmlns="http://www.w3.org/2000/svg"
   xmlns:sodipodi="http://sodipodi.sourceforge.net/DTD/sodipodi-0.dtd"
   xmlns:inkscape="http://www.inkscape.org/namespaces/inkscape"
   width="32"
   height="32"
   viewBox="0 0 8.4666665 8.4666669"
   version="1.1"
   id="svg62"
   inkscape:version="1.0.1 (3bc2e813f5, 2020-09-07)"
   sodipodi:docname="cover.svg">
  <defs
     id="defs56" />
  <sodipodi:namedview
     id="base"
     pagecolor="#ffffff"
     bordercolor="#666666"
     borderopacity="1.0"
     inkscape:pageopacity="0.0"
     inkscape:pageshadow="2"
     inkscape:zoom="14.71875"
     inkscape:cx="16"
     inkscape:cy="16"
     inkscape:document-units="px"
     inkscape:current-layer="layer1"
     inkscape:document-rotation="0"
     showgrid="false"
     units="px"
     inkscape:window-width="1366"
     inkscape:window-height="745"
     inkscape:window-x="-8"
     inkscape:window-y="-8"
     inkscape:window-maximized="1" />
  <metadata
     id="metadata59">
    <rdf:RDF>
      <cc:Work
         rdf:about="">
        <dc:format>image/svg+xml</dc:format>
        <dc:type
           rdf:resource="http://purl.org/dc/dcmitype/StillImage" />
        <dc:title></dc:title>
      </cc:Work>
    </rdf:RDF>
  </metadata>
  <g
     inkscape:label="Layer 1"
     inkscape:groupmode="layer"
     id="layer1">
    <path
       style="fill:#ffff00;stroke-width:0.0205232"
       d="M 4.3054331,8.3899083 C 4.2708343,8.3816583 4.2094993,8.3564616 4.1691339,8.3339496 4.1287687,8.311419 4.0469936,8.2779671 3.9874126,8.2595855 3.8562707,8.219117 3.7800367,8.1507895 3.717165,8.017357 3.6685616,7.9142063 3.6434401,7.69185 3.6127756,7.0933752 3.5884642,6.61889 3.4928024,5.7407194 3.4224118,5.3458434 3.359264,4.9915975 3.2228314,4.3651726 3.1498486,4.0943813 3.1090668,3.9430666 3.051724,3.7243544 3.0224203,3.6083546 2.9752735,3.4217211 2.8921336,3.1258371 2.728928,2.5638522 2.6037071,2.1326659 2.5915721,2.051497 2.6043024,1.7302599 2.6180174,1.3841849 2.6560383,1.2206886 2.7911504,0.92679677 2.9243115,0.63714855 3.1131459,0.41436556 3.3447567,0.27366405 3.4001833,0.23999456 3.5352133,0.18450967 3.6448228,0.15036701 4.0330307,0.02944405 4.3591406,0.05375628 4.745784,0.23244958 4.9529622,0.32819988 5.1046013,0.45542579 5.2390827,0.64633125 5.4072809,0.8851004 5.4373352,0.95754112 5.5968611,1.5087027 c 0.030742,0.1062161 0.037955,0.1789241 0.029881,0.3012985 -0.016085,0.2437861 -0.052394,0.4701114 -0.095166,0.59316 -0.021118,0.06076 -0.058913,0.196346 -0.08399,0.3012984 C 5.4225141,2.8094121 5.3648321,3.0173074 5.31941,3.1664502 5.273985,3.3155936 5.2183458,3.5144503 5.1957597,3.6083555 c -0.022584,0.093904 -0.060122,0.2475671 -0.08342,0.3414718 -0.083108,0.3349848 -0.1460063,0.6953774 -0.1875532,1.0746312 -0.013314,0.1215243 -0.03242,0.2751867 -0.042468,0.3414721 -0.028743,0.1897326 -0.06124,0.5159991 -0.08402,0.8436342 -0.022263,0.3202143 -0.031424,1.5133069 -0.011764,1.5321425 0.00643,0.00614 0.011707,0.00277 0.011752,-0.00724 2.456e-4,-0.047949 0.088162,-0.5212942 0.098534,-0.5303501 0.00649,-0.00568 0.00585,0.034896 -0.00141,0.090122 -0.00725,0.055239 -0.022726,0.1817827 -0.034387,0.2812134 -0.033982,0.2898745 -0.058887,0.3939682 -0.1253571,0.5239267 -0.054175,0.1059324 -0.073803,0.1257734 -0.147409,0.1490447 -0.051861,0.016389 -0.077379,0.034072 -0.065562,0.045379 0.011816,0.011302 0.036547,0.00969 0.063535,-0.00412 0.024301,-0.012478 0.044191,-0.014393 0.044191,-0.00433 0,0.032075 -0.056232,0.064521 -0.1266339,0.073057 -0.037505,0.00453 -0.078144,0.017797 -0.090303,0.029459 -0.012163,0.011663 -0.027296,0.020263 -0.033642,0.019128 -0.00636,-0.0012 -0.039839,-0.0088 -0.07444,-0.017094 z M 4.4522165,8.2885244 c 0.00712,-0.011038 0.00296,-0.020069 -0.00924,-0.020069 -0.012215,0 -0.022205,0.00904 -0.022205,0.020069 0,0.011038 0.00418,0.020069 0.00924,0.020069 0.00508,0 0.015082,-0.00904 0.022205,-0.020069 z M 3.8179016,5.0412847 c -0.014416,-0.00558 -0.038006,-0.00558 -0.052422,0 -0.014416,0.00557 -0.00262,0.010136 0.026211,0.010136 0.028832,0 0.040628,-0.00454 0.026211,-0.010136 z m 0.036696,-0.05472 c 0,-0.015538 -0.027586,-0.031729 -0.062399,-0.036623 -0.045806,-0.00643 -0.057006,-0.00254 -0.04212,0.014635 0.011153,0.012872 0.014069,0.029355 0.00648,0.036623 -0.00759,0.00727 0.011366,0.013214 0.04212,0.013214 0.033691,0 0.055918,-0.011074 0.055918,-0.02785 z m 0.059722,-0.2417859 0.1846971,-0.088857 0.1508516,0.065864 c 0.082968,0.036228 0.1569329,0.071692 0.1643677,0.078813 0.033391,0.031987 0.083219,0.011422 0.078162,-0.032246 -0.00289,-0.02486 -0.00604,-0.056582 -0.00698,-0.070502 -9.643e-4,-0.013918 -0.049752,-0.046441 -0.108429,-0.072272 l -0.1066803,-0.046965 0.101439,-0.050747 c 0.089642,-0.044846 0.102195,-0.059215 0.1079461,-0.1235725 0.0036,-0.040054 -0.00116,-0.07269 -0.010485,-0.072528 -0.00935,1.519e-4 -0.091932,0.03632 -0.1835243,0.080347 -0.091593,0.044026 -0.1778332,0.080048 -0.1916447,0.080048 -0.013811,0 -0.1015463,-0.036157 -0.1949669,-0.080348 -0.09342,-0.044188 -0.1752406,-0.080345 -0.1818231,-0.080345 -0.00658,0 -0.00904,0.032773 -0.00546,0.072826 0.00574,0.064242 0.018344,0.078747 0.1069436,0.1230707 0.05524,0.027632 0.097702,0.052634 0.094361,0.055554 -0.00334,0.00293 -0.048537,0.027938 -0.1004353,0.055595 -0.081346,0.043349 -0.095258,0.060276 -0.1008689,0.1227025 -0.00358,0.039829 -0.00102,0.072417 0.00566,0.072417 0.00669,0 0.095283,-0.039985 0.1968675,-0.088857 z m -0.059722,-0.60413 V 4.0100864 h 0.094361 0.094361 V 4.131878 4.2536696 l 0.068149,-0.0063 c 0.06783,-0.00626 0.06815,-0.00682 0.06815,-0.1167717 V 4.0201227 l 0.089119,-0.00618 0.089118,-0.00618 v 0.1317218 0.1317174 h 0.073392 c 0.071179,0 0.073392,-0.00234 0.073392,-0.077398 0,-0.04257 -0.00604,-0.1329598 -0.013475,-0.2008661 L 4.4776962,3.8694629 H 4.0927555 3.7078142 V 4.038556 c 0,0.2087035 0.00886,0.2326387 0.08612,0.2326387 h 0.060663 z M 4.315917,3.7519886 4.4941543,3.7389116 V 3.678653 3.618394 L 4.3108936,3.6083544 4.1276314,3.5983149 4.305651,3.5099836 c 0.1602227,-0.0795 0.1780194,-0.094058 0.1780194,-0.1456274 V 3.3070574 H 4.0944131 3.7051568 l 0.00657,0.06528 0.00657,0.065282 0.1834794,-0.00161 c 0.100914,-9.059e-4 0.1834791,0.00429 0.1834791,0.01147 0,0.00719 -0.082565,0.053105 -0.1834791,0.1020356 C 3.7328483,3.631423 3.7177773,3.643656 3.7117276,3.7037599 l -0.00657,0.065281 0.2162616,-0.00201 c 0.118944,-0.00109 0.2964682,-0.00789 0.3944986,-0.015065 z M 4.321577,3.174127 C 4.4281866,3.158836 4.504668,3.0643424 4.504668,2.9479161 4.504668,2.7778892 4.385773,2.7043805 4.1110735,2.7045703 3.900875,2.704722 3.8073632,2.7310643 3.7383886,2.8095876 3.6900466,2.8646196 3.6837126,2.8868256 3.6922036,2.9714807 3.7128666,3.1774722 3.8932693,3.2355587 4.321577,3.174127 Z M 3.8598353,3.0326275 c -0.033074,-0.012777 -0.03451,-0.1401061 -0.0018,-0.1594719 0.036309,-0.021497 0.3980888,-0.026812 0.4526341,-0.00665 0.052728,0.019489 0.066009,0.1131813 0.022018,0.1553216 -0.024931,0.023881 -0.4159049,0.032813 -0.4728532,0.010797 z M 4.4836659,2.6288552 c 0,-0.07335 -0.00392,-0.077279 -0.1310575,-0.1318389 L 4.2215522,2.44078 4.3526084,2.3830356 c 0.1249495,-0.055054 0.1310575,-0.061079 0.1310575,-0.129286 0,-0.039349 -0.00444,-0.071542 -0.00986,-0.071542 -0.0054,0 -0.059684,0.021499 -0.1205728,0.047778 -0.2637692,0.1138317 -0.318977,0.133002 -0.3830463,0.133002 -0.037289,0 -0.1115787,0.00574 -0.1650869,0.012777 -0.09363,0.0123 -0.097288,0.015291 -0.097288,0.079781 v 0.067007 L 3.89129,2.521609 c 0.1396999,-6.673e-4 0.2034933,0.00832 0.2673563,0.037796 0.1570978,0.072533 0.3145227,0.1435764 0.3197782,0.1443121 0.00289,3.796e-4 0.00527,-0.033286 0.00527,-0.074869 z m 0,-0.9186822 c 0,-0.1601906 -0.00476,-0.2912555 -0.010537,-0.2912555 -0.00579,0 -0.043715,0.035174 -0.084265,0.078171 -0.079685,0.08449 -0.2462293,0.1721619 -0.3761713,0.1980238 l -0.081195,0.01616 0.2603573,0.1446255 c 0.1431962,0.079543 0.2674347,0.1448291 0.2760846,0.1450779 0.00865,2.28e-4 0.015725,-0.130613 0.015725,-0.2908026 z M 4.0576422,1.5966624 c 0.018758,-0.014903 0.047264,-0.057247 0.063346,-0.0941 C 4.177119,1.3739294 4.0737192,1.21604 3.9308052,1.2121599 3.7412535,1.2069999 3.6268363,1.3857191 3.7214509,1.5391474 c 0.067079,0.1087771 0.2354113,0.1375741 0.3361913,0.057515 z m 0.416135,-0.79650957 c -0.00611,-0.005836 -0.046461,0.0258804 -0.089712,0.070478 -0.090459,0.0932781 -0.2875369,0.18672797 -0.393794,0.18672797 -0.040024,0 -0.072771,0.00904 -0.072771,0.020088 0,0.011046 0.00823,0.020088 0.018281,0.020088 0.010054,0 0.1114927,0.051003 0.2254177,0.1133398 0.1139254,0.062337 0.2307271,0.1254966 0.25956,0.1403551 l 0.05242,0.027016 0.00585,-0.2837406 c 0.00321,-0.15605741 8.358e-4,-0.28851467 -0.00527,-0.29434953 z M 4.0089221,0.98952734 C 4.1283552,0.94172543 4.1648457,0.75097338 4.0731291,0.65389275 3.9394185,0.51236269 3.6862137,0.61099815 3.6873064,0.80418878 3.6882514,0.97191423 3.8377225,1.0580484 4.0089221,0.98952734 Z M 4.9143532,7.0632462 c 0.00636,-0.060764 0.04844,-0.327412 0.093583,-0.5925559 C 5.0981803,5.940614 5.1567467,5.5416754 5.2718564,4.6729435 5.2886932,4.5458964 5.3210748,4.3996695 5.3438274,4.3479962 5.3665787,4.2963232 5.379494,4.2398299 5.3725381,4.222456 5.350809,4.16821 5.3944215,4.18829 5.4220329,4.245243 c 0.02972,0.061297 0.033957,0.1063147 0.01001,0.1063147 -0.023561,0 -0.083924,0.1206545 -0.095464,0.1908224 -0.00546,0.033146 -0.023992,0.1416109 -0.041202,0.2410391 -0.01721,0.099429 -0.04205,0.26213 -0.055191,0.3615582 -0.099122,0.7498147 -0.1222212,0.905873 -0.199204,1.3458016 -0.029,0.1657125 -0.063477,0.3645704 -0.076613,0.4419035 -0.03251,0.1913631 -0.065256,0.2768444 -0.050015,0.1305652 z"
       id="path80" />
  </g>
</svg>
