<?xml version="1.0" encoding="UTF-8" standalone="no"?>
<svg
   xmlns:dc="http://purl.org/dc/elements/1.1/"
   xmlns:cc="http://creativecommons.org/ns#"
   xmlns:rdf="http://www.w3.org/1999/02/22-rdf-syntax-ns#"
   xmlns:svg="http://www.w3.org/2000/svg"
   xmlns="http://www.w3.org/2000/svg"
   xmlns:sodipodi="http://sodipodi.sourceforge.net/DTD/sodipodi-0.dtd"
   xmlns:inkscape="http://www.inkscape.org/namespaces/inkscape"
   width="32"
   height="32"
   viewBox="0 0 8.4666665 8.4666669"
   version="1.1"
   id="svg137"
   inkscape:version="1.0.1 (3bc2e813f5, 2020-09-07)"
   sodipodi:docname="kitbag.svg">
  <defs
     id="defs131" />
  <sodipodi:namedview
     id="base"
     pagecolor="#ffffff"
     bordercolor="#666666"
     borderopacity="1.0"
     inkscape:pageopacity="0.0"
     inkscape:pageshadow="2"
     inkscape:zoom="16.03125"
     inkscape:cx="16"
     inkscape:cy="16"
     inkscape:document-units="px"
     inkscape:current-layer="layer1"
     inkscape:document-rotation="0"
     showgrid="false"
     units="px"
     inkscape:window-width="1366"
     inkscape:window-height="745"
     inkscape:window-x="-8"
     inkscape:window-y="-8"
     inkscape:window-maximized="1" />
  <metadata
     id="metadata134">
    <rdf:RDF>
      <cc:Work
         rdf:about="">
        <dc:format>image/svg+xml</dc:format>
        <dc:type
           rdf:resource="http://purl.org/dc/dcmitype/StillImage" />
        <dc:title></dc:title>
      </cc:Work>
    </rdf:RDF>
  </metadata>
  <g
     inkscape:label="Layer 1"
     inkscape:groupmode="layer"
     id="layer1">
    <path
       style="fill:#ff0000;stroke-width:0.0406749"
       d="M 3.8069818,8.4969637 C 3.7493172,8.4404887 3.7021881,8.3494122 3.7021881,8.2945581 c 0,-0.064815 -0.043056,-0.1297768 -0.1229984,-0.1855386 -0.1229013,-0.08573 -0.2057598,-0.079993 -0.2057598,0.014263 0,0.027473 -0.022109,0.071569 -0.049068,0.097989 -0.038011,0.037203 -0.072431,0.027669 -0.1528584,-0.042268 -0.057148,-0.049666 -0.079005,-0.058593 -0.04868,-0.019851 0.070369,0.0899 0.02767,0.088622 -0.2464165,-0.00737 C 2.1793123,7.9077377 1.2775528,7.486161 1.2775528,7.4043192 c 0,-0.031531 0.045511,-0.1977842 0.1011612,-0.3694427 0.068578,-0.2115449 0.086931,-0.320726 0.05702,-0.3388562 -0.02935,-0.017762 -0.025341,-0.034077 0.011774,-0.048574 0.031161,-0.012146 0.035232,-0.023238 0.00906,-0.025001 -0.025794,-0.00177 -0.090468,0.031456 -0.1438341,0.07378 -0.087202,0.069162 -0.097016,0.1092772 -0.097016,0.3960182 v 0.319058 L 1.0307682,7.2969706 C 0.72196688,7.1060606 0.67476789,7.0514182 0.64378233,6.8490098 0.62781424,6.7447925 0.6020839,6.6572117 0.58643926,6.6543861 0.42641145,6.6253371 0.38177849,6.6352621 0.40194858,6.6953761 c 0.0120203,0.035635 -0.0228205,0.012864 -0.077415,-0.050598 L 0.22540971,6.5293926 0.31967943,6.3428406 C 0.37152621,6.240237 0.47413449,6.0892608 0.54769756,6.0073376 L 0.6814468,5.8583867 0.9896663,5.9795174 C 1.6777252,6.2499279 2.1044061,6.1607691 2.5063907,5.6625837 2.6769436,5.4512084 2.7567766,5.4022142 2.7567766,5.5089108 c 0,0.1417262 0.4439662,0.5192632 1.1813767,1.0046049 0.4238607,0.2789758 0.8197363,0.5478002 0.8797233,0.5973874 L 4.9269423,7.2010641 4.8009446,7.4435855 C 4.6289965,7.7745646 4.2326366,8.4400863 4.1721783,8.49935 4.0642684,8.6051196 3.9162198,8.6041504 3.8067976,8.4970178 Z M 1.7091783,7.2636161 c -0.013961,-0.022015 -0.065831,-0.059274 -0.1154409,-0.082791 -0.085438,-0.040495 -0.085069,-0.038397 0.00686,0.040038 0.1046966,0.089349 0.1489859,0.1067827 0.1086003,0.042744 z m 0.513559,-0.1764497 c 0,-0.0084 -0.032387,-0.040057 -0.071915,-0.070459 -0.065171,-0.050076 -0.066638,-0.048649 -0.015457,0.015206 0.053721,0.067054 0.087449,0.088388 0.087449,0.055253 z M 2.0147665,6.9182607 C 1.9466025,6.8378108 1.6470651,6.6866939 1.6160277,6.7171033 c -0.012727,0.012612 -0.0049,0.022939 0.018423,0.022939 0.023079,0 0.12312,0.054022 0.2225938,0.1200415 0.2067942,0.1372686 0.2329702,0.1469256 0.1577915,0.058173 z M 2.2432888,6.6997828 c 0.040922,-0.044283 0.065145,-0.080515 0.053787,-0.080515 -0.011313,0 -0.054045,0.036232 -0.094927,0.080515 -0.040922,0.044283 -0.065145,0.080515 -0.053787,0.080515 0.011313,0 0.054045,-0.036232 0.094927,-0.080515 z M 0.7007023,6.560642 C 0.7564281,6.494837 0.7254631,6.4179746 0.643166,6.4179746 c -0.0739043,0 -0.15963317,0.1075349 -0.12700077,0.1592704 0.0378187,0.059908 0.12648279,0.051923 0.18456171,-0.016605 z M 0.90766469,6.458233 C 0.87372503,6.436768 0.82752663,6.419207 0.80493472,6.419207 c -0.0225623,0 -0.0132536,0.01756 0.0206236,0.039026 0.0339397,0.021465 0.0801364,0.039026 0.10272997,0.039026 0.0225623,0 0.0132536,-0.01756 -0.0206236,-0.039026 z M 2.4745422,6.38778 c 0.051136,-0.063852 0.04965,-0.065276 -0.015457,-0.015199 -0.039565,0.030391 -0.071915,0.062093 -0.071915,0.070453 0,0.033131 0.033746,0.011807 0.087449,-0.055252 z M 2.665362,6.122625 C 2.7098404,6.048752 2.7785978,5.9355251 2.8181234,5.8710107 L 2.8899919,5.753712 2.8049737,5.8543578 c -0.09719,0.1150379 -0.268345,0.4025833 -0.239648,0.4025833 0.01054,0 0.055532,-0.060442 0.1000102,-0.1343156 z M 0.77485882,7.7731737 C 0.66790596,7.7031437 0.58006324,7.6254262 0.57964952,7.6004592 c -4.6799e-4,-0.024963 -0.02851,-0.06795 -0.0623855,-0.09551 -0.0951018,-0.077316 -0.0743186,-0.1147941 0.0792254,-0.143015 0.1163272,-0.021381 0.17538847,-0.00308 0.33904342,0.1053461 0.10899006,0.072175 0.20738256,0.1388321 0.21864396,0.1481206 0.011313,0.00933 -0.030449,0.05322 -0.092671,0.09763 -0.0622556,0.044414 -0.10271189,0.097283 -0.0899516,0.1174938 0.0344576,0.054647 0.10209693,0.044469 0.0902476,-0.013573 -0.00659,-0.031885 0.04952,-0.055095 0.1529357,-0.063351 0.1583801,-0.01264 0.1611081,-0.010746 0.092111,0.063938 C 1.1973167,7.9361156 0.9984084,7.9195256 0.77488365,7.7731717 Z M 4.9213566,6.8763035 c -0.064,-0.033994 -0.1426058,-0.051951 -0.1746515,-0.039908 -0.032001,0.012043 -0.058247,0.00532 -0.058247,-0.015028 0,-0.020308 -0.049262,-0.08767 -0.1094554,-0.1497056 -0.060187,-0.062035 -0.096111,-0.090142 -0.079768,-0.062464 0.056824,0.096362 -0.013517,0.049152 -0.1935931,-0.1296953 -0.099642,-0.09901 -0.192954,-0.1684554 -0.2073833,-0.1543233 -0.014487,0.014132 -0.026182,0.00511 -0.026182,-0.020046 0,-0.025156 -0.1387793,-0.137474 -0.3083745,-0.2495919 C 3.5941061,5.943423 3.364472,5.7726437 3.2534272,5.6760314 3.0615536,5.5090887 3.0546363,5.4960405 3.1139375,5.4130807 c 0.034328,-0.04801 0.054369,-0.095151 0.044607,-0.1047562 -0.00982,-0.0096 -0.041696,0.026272 -0.070938,0.07973 -0.02922,0.053457 -0.089652,0.1065584 -0.1343379,0.1180042 -0.044737,0.011444 -0.069044,0.040146 -0.054109,0.063779 0.014997,0.023632 0.00763,0.042969 -0.016427,0.042969 -0.093487,0 -0.039953,-0.3049603 0.095446,-0.5434875 C 3.0535826,4.9364656 3.1767102,4.7190707 3.2517787,4.5862185 3.3268602,4.453366 3.4012047,4.3356103 3.4170045,4.3245392 3.4927003,4.2715135 3.9108332,3.6292396 3.8966948,3.5876863 3.8878381,3.5616082 3.8100803,3.6442671 3.7239311,3.7713724 3.5430024,4.0383085 3.5033994,4.0669126 3.6129508,3.8515043 3.6552304,3.7684712 3.7419419,3.5918377 3.8057618,3.4589856 3.8695687,3.326133 3.9448314,3.1902611 3.9729788,3.1570479 4.0011652,3.1238343 4.1022156,2.9607886 4.1975834,2.7947231 4.416499,2.4135149 4.8993905,1.753469 4.9616446,1.7503596 4.9875682,1.7490629 4.913547,1.8915582 4.7972787,2.0670107 4.2287886,2.9245058 3.7867587,3.7103598 4.003793,3.4776771 4.0340482,3.4452565 4.2223659,3.1469833 4.422288,2.8148521 4.8794939,2.0553296 5.0779158,1.7647305 5.1605171,1.7336799 c 0.03575,-0.013433 0.1751684,-0.013137 0.3098744,6.469e-4 0.1974203,0.020212 0.2713963,0.049345 0.3814714,0.1502133 0.075106,0.068825 0.3086204,0.2610078 0.5189248,0.4270737 C 6.5810923,2.4776791 6.8858724,2.7515387 7.0480909,2.9201905 7.3048834,3.1871622 7.3443183,3.2481706 7.3529748,3.3917979 7.3628012,3.5565172 7.2755594,3.775384 7.1056142,4.0117005 7.0621712,4.0721358 7.0199823,4.153659 7.0118884,4.1928629 6.9661826,4.4145573 6.7292241,4.8142279 6.6494039,4.8043001 6.5229213,4.7885664 6.4680096,4.8165121 6.3983456,4.9320357 6.3433959,5.0231787 6.3355095,5.0683874 6.3689312,5.1011205 6.4521064,5.1826015 6.4159946,5.307857 6.2271345,5.5926672 6.1243766,5.7476616 5.9094505,6.0961114 5.7495322,6.3670002 5.5896261,6.6378885 5.4338006,6.8798325 5.4032677,6.904654 5.3633804,6.937052 5.3127291,6.937827 5.2236125,6.907364 5.1484355,6.881692 5.0994564,6.880022 5.0994564,6.903164 c 0,0.052054 -0.041052,0.045859 -0.1780584,-0.026866 z M 4.3546002,6.322427 c -0.035362,-0.076001 -0.027088,-0.1339258 0.040275,-0.2831524 0.046611,-0.1031829 0.06843,-0.177755 0.048552,-0.1657154 -0.019846,0.012039 -0.067085,0.101237 -0.104889,0.1982167 -0.053593,0.1375423 -0.058571,0.1950087 -0.022304,0.2612625 0.063354,0.1160251 0.093434,0.1077207 0.038401,-0.010611 z M 5.1383766,6.355054 C 5.0917013,6.299996 5.0984892,6.29544 5.19268,6.318588 5.347556,6.356668 5.4014589,6.310738 5.3259129,6.2050835 5.2461185,6.0935272 5.2458735,6.0312143 5.3254176,6.0959081 c 0.073071,0.059408 0.083621,-0.00263 0.012283,-0.072465 -0.078786,-0.077174 -0.1561487,-0.056039 -0.1561487,0.042651 0,0.050029 0.038789,0.1146911 0.086194,0.1436936 0.1165278,0.071284 0.07388,0.1021069 -0.059087,0.042741 -0.083892,-0.037441 -0.1204513,-0.03662 -0.1702102,0.00383 -0.072872,0.059247 -0.014997,0.1616106 0.091548,0.1616106 0.051201,0 0.052623,-0.010623 0.00834,-0.062919 z M 5.5362102,5.9273014 c -0.036784,-0.020181 -0.066911,-0.056122 -0.066911,-0.079875 0,-0.029922 0.016939,-0.029417 0.055144,0.00166 0.07545,0.061342 0.120619,0.00716 0.057536,-0.069007 -0.042798,-0.051623 -0.039371,-0.057301 0.020882,-0.035161 0.039565,0.01452 0.071915,0.00885 0.071915,-0.012592 0,-0.021445 -0.019135,-0.038994 -0.042538,-0.038994 -0.02935,0 -0.02935,-0.024194 0,-0.077871 0.059153,-0.1082344 0.054239,-0.1234215 -0.039629,-0.1234215 -0.08134,0 -0.098491,0.034684 -0.084377,0.1707849 0.0049,0.044864 -0.013254,0.062399 -0.049844,0.048661 -0.033617,-0.012628 -0.074467,0.016522 -0.099227,0.070765 -0.035944,0.078706 -0.026376,0.1017879 0.0649,0.1572833 0.058829,0.035771 0.123199,0.055909 0.1430449,0.044751 0.019846,-0.011157 0.00589,-0.036799 -0.030837,-0.056975 z M 5.7569618,5.6128062 c 0,-0.02214 -0.018423,-0.040259 -0.041116,-0.040259 -0.022562,0 -0.041052,0.018114 -0.041052,0.040259 0,0.02214 0.018423,0.040259 0.041052,0.040259 0.022562,0 0.041116,-0.018114 0.041116,-0.040259 z M 5.728647,5.4256463 C 5.657367,5.3190923 5.657393,5.3190446 5.751726,5.3685203 5.8848619,5.4383183 5.9107722,5.3893793 5.793618,5.2894723 5.702535,5.2118313 5.701923,5.2087993 5.785018,5.2482083 5.9192852,5.3118203 5.9425448,5.2999713 5.859634,5.2102213 5.7569744,5.0990949 5.7249537,5.1081561 5.6458253,5.2707383 5.5802399,5.4054747 5.5807316,5.4144044 5.6568919,5.470749 5.7790566,5.561273 5.8074761,5.543424 5.7286832,5.425644 Z M 4.8939692,5.2102229 c 0.024309,-0.044284 0.034716,-0.080517 0.023531,-0.080517 -0.011313,0 -0.04034,0.036232 -0.064518,0.080517 -0.024309,0.044284 -0.034716,0.080516 -0.023531,0.080516 0.011313,0 0.040339,-0.036232 0.064518,-0.080516 z M 3.355468,5.1196409 3.4761643,4.9888014 3.3426157,5.1070437 C 3.2181176,5.2172622 3.19017,5.2504807 3.2219194,5.2504807 c 0.00712,0 0.067182,-0.058878 0.1335486,-0.1308398 z m 1.749259,-0.2516141 0.04034,-0.080517 -0.066911,0.080517 c -0.03685,0.044284 -0.085089,0.116749 -0.1072766,0.161033 l -0.04034,0.080517 0.066911,-0.080517 c 0.036784,-0.044284 0.085089,-0.1167491 0.1072766,-0.161033 z m 1.1864921,0.1672729 c 0,-0.00764 -0.041634,-0.048401 -0.092453,-0.090582 l -0.092453,-0.076691 0.078295,0.090581 c 0.073562,0.085125 0.1066354,0.1089087 0.1066354,0.076691 z M 3.6252262,4.7774478 c 0.051136,-0.063853 0.04965,-0.065276 -0.015457,-0.015199 -0.068455,0.052592 -0.090221,0.085652 -0.056438,0.085652 0.0086,0 0.040922,-0.031705 0.071915,-0.070451 z M 3.7638115,4.5660915 c 0.03504,-0.066426 0.054499,-0.120775 0.043248,-0.120775 -0.011313,0 -0.049262,0.054348 -0.084306,0.120775 -0.03504,0.066426 -0.054499,0.1207749 -0.043248,0.1207749 0.011313,0 0.049262,-0.054348 0.084306,-0.1207749 z m 1.5200722,0.015175 c 0.038855,-0.058082 0.05036,-0.093305 0.025471,-0.078275 -0.047386,0.028722 -0.1431237,0.1838772 -0.1134035,0.1838772 0.00957,0 0.049068,-0.047522 0.087888,-0.1056024 z m 0.8840198,-0.070631 c 0,-0.00836 -0.032387,-0.040065 -0.071915,-0.070452 -0.065171,-0.050076 -0.066638,-0.048652 -0.015457,0.015199 0.053721,0.067061 0.087423,0.088386 0.087423,0.055252 z M 4.0459496,4.1232527 C 4.1564376,3.9632046 4.1669895,3.937249 4.0840264,4.0296117 4.0209306,4.0998907 3.9342841,4.2176458 3.8915128,4.2912905 3.7858838,4.4731712 3.860158,4.3923414 4.0459234,4.1232532 Z m 1.9575781,0.2666082 c 0,-0.00836 -0.032387,-0.040065 -0.071915,-0.070451 -0.065191,-0.050076 -0.066638,-0.048652 -0.015457,0.015199 0.053721,0.067061 0.087423,0.088387 0.087423,0.055252 z M 5.411638,3.9665432 C 5.3729133,3.9246382 5.3254175,3.838586 5.3060551,3.7753163 5.2783213,3.6847453 5.270111,3.6783903 5.267332,3.7454303 c -0.00319,0.079086 0.1367173,0.2973023 0.1907486,0.2973023 0.013254,0 -0.00783,-0.034283 -0.046417,-0.076191 z M 4.4754716,3.4653826 C 4.6183964,3.2476352 4.8001736,2.9177555 4.7536404,2.9606076 4.7151179,2.9960556 4.4484128,3.4251556 4.3312269,3.6401505 4.2244189,3.8361067 4.2621571,3.7903667 4.4754754,3.4653826 Z m 0.993815,-0.10704 c 0.024309,-0.044285 0.034716,-0.080517 0.023531,-0.080517 -0.011313,0 -0.04034,0.036232 -0.064518,0.080517 -0.024309,0.044284 -0.034716,0.080516 -0.023531,0.080516 0.011313,0 0.040339,-0.036232 0.064518,-0.080516 z M 5.6348809,3.1145505 c 0.06245,-0.1143086 0.019846,-0.095655 -0.062385,0.027326 -0.038853,0.058082 -0.05036,0.093305 -0.025471,0.078275 0.024825,-0.01503 0.064388,-0.062551 0.087914,-0.1056023 z M 5.7569486,2.9155011 c 0.024309,-0.044285 0.034716,-0.080516 0.023531,-0.080516 -0.011313,0 -0.04034,0.036232 -0.064518,0.080516 -0.024309,0.044284 -0.034716,0.080516 -0.023531,0.080516 0.011313,0 0.040339,-0.036232 0.064518,-0.080516 z M 5.1015792,2.412272 C 5.1755295,2.2794194 5.2173423,2.1888384 5.1944512,2.2109806 5.1716307,2.2331206 5.0918166,2.3599363 5.0172269,2.4927885 4.9426369,2.625641 4.9008487,2.7162224 4.9243549,2.6940803 4.9478858,2.6719393 5.0276292,2.5451246 5.1015792,2.412272 Z m 1.0457859,0.00882 C 6.2263965,2.402226 6.2262732,2.401297 6.1436817,2.396805 6.0962961,2.394225 6.0223507,2.432896 5.9792898,2.482716 5.9016544,2.572554 5.9016807,2.572753 5.9829731,2.507003 6.0281619,2.47054 6.1021451,2.431881 6.1473651,2.421092 Z M 5.3996917,1.9523992 c 0.1097268,-0.183068 0.057278,-0.1503678 -0.075767,0.047228 -0.063354,0.094104 -0.088922,0.1498455 -0.056824,0.1238702 0.032129,-0.025976 0.091767,-0.1029694 0.132591,-0.1710982 z m -4.06051,4.0652239 C 1.2713729,6.0012391 1.1210626,5.9474681 1.0051672,5.8981297 0.88926722,5.8487907 0.76906129,5.8046627 0.73804218,5.8000657 0.6185989,5.7823677 0.57215171,5.7296767 0.62304016,5.6696139 c 0.0635497,-0.074997 0.12025066,-0.072186 0.12025066,0.00596 0,0.034519 0.015457,0.053362 0.0345218,0.041873 0.0188773,-0.011489 0.10101654,0.014039 0.18233163,0.056726 C 1.041458,5.8168629 1.2176802,5.8879952 1.3517653,5.932244 1.5871208,6.009915 1.6037675,6.010307 1.8330136,5.943595 2.0486639,5.880836 2.0956691,5.844917 2.3448461,5.552424 c 0.1509,-0.1771365 0.296932,-0.3582993 0.3244977,-0.4025831 0.043507,-0.069916 0.046609,-0.061966 0.023337,0.060388 C 2.6473638,5.4484907 2.2884353,5.8511726 2.0119443,5.974073 1.8296903,6.055092 1.5651853,6.072215 1.3392413,6.017625 Z M 1.4791859,5.8992305 C 1.4021909,5.8634425 1.2282306,5.7905806 1.0926178,5.7373175 0.9570048,5.6840545 0.83966467,5.6355506 0.8318694,5.6295327 0.82404223,5.6235127 0.9026844,5.4899114 1.0065209,5.3326366 1.1103841,5.1753624 1.1953495,5.019754 1.1953495,4.9868399 c 0,-0.071023 0.2445547,-0.3111363 0.4574838,-0.449179 C 1.7361317,4.4836641 1.8272845,4.3850711 1.8554061,4.3185649 1.8835277,4.2520594 1.9782815,4.1129716 2.0659757,4.0094805 2.1536698,3.9059896 2.3295562,3.6167468 2.456821,3.3667191 2.5840925,3.116691 2.7055455,2.9016286 2.7267305,2.8888023 2.7478055,2.8759755 2.8629555,2.7171105 2.9823787,2.5357675 3.1017955,2.3544244 3.3110656,2.1071491 3.44742,1.9862672 3.5837678,1.8653855 3.7183379,1.7170358 3.7464531,1.656601 3.774575,1.596167 3.8119152,1.5467198 3.8294589,1.5467198 c 0.017391,0 0.037689,-0.058877 0.044737,-0.1308396 0.0071,-0.071962 0.034458,-0.1308393 0.060833,-0.1308393 0.026376,0 0.063354,-0.016493 0.082198,-0.036649 0.020106,-0.021639 0.011067,-0.023467 -0.022562,-0.00447 -0.038983,0.022144 -0.050232,0.014738 -0.035944,-0.023738 0.011313,-0.030759 0.042926,-0.050949 0.070027,-0.044865 0.027153,0.00609 0.038593,-0.00587 0.025535,-0.02656 -0.031483,-0.049893 0.017197,-0.17064585 0.058701,-0.1455346 0.017907,0.010818 0.043442,-0.00834 0.05689,-0.04258 0.015967,-0.040913 0.00686,-0.053609 -0.026505,-0.037041 -0.027992,0.013861 -0.018877,-5.66e-4 0.020365,-0.032085 0.039241,-0.031507 0.060897,-0.067431 0.048292,-0.079827 -0.044348,-0.043459 0.1284478,-0.066266 0.2708533,-0.035747 0.1421141,0.030456 0.1446169,0.028628 0.2100329,-0.1527576 0.044283,-0.1228406 0.088477,-0.18173083 0.1335552,-0.17798913 0.037043,0.003069 0.067376,-0.0105143 0.067376,-0.030193 0,-0.0196824 0.039175,-0.0741559 0.087028,-0.12105391 0.071035,-0.0695802 0.076705,-0.0923999 0.030837,-0.12403114 -0.038273,-0.026357 -0.016679,-0.0298254 0.067059,-0.0108417 0.067815,0.0153577 0.4088882,0.0258477 0.7579565,0.0233169 0.621391,-0.004506 0.6379279,-0.002388 0.7900304,0.10086699 0.085438,0.0580081 0.202844,0.18485274 0.2608911,0.28187659 0.058053,0.097023 0.1195649,0.1764067 0.1367173,0.1764067 0.053593,0 0.2112614,-0.35746117 0.1860359,-0.42186113 -0.013961,-0.0360551 -0.00108,-0.0617647 0.031805,-0.0625194 0.03685,-8.4862e-4 0.028834,-0.021231 -0.023531,-0.0599718 -0.043572,-0.0322789 -0.067453,-0.0701969 -0.053139,-0.0842588 0.014487,-0.0140638 0.1976659,-0.0225043 0.4073433,-0.0187608 0.2881014,0.00514 0.3895396,0.0213317 0.4152046,0.0662564 0.018619,0.0326996 0.05592,0.046533 0.082813,0.0307471 0.031871,-0.0187328 0.03032,-0.006287 -0.00442,0.0358284 -0.041116,0.0497401 -0.04202,0.0713919 -0.00368,0.094465 0.033423,0.0202366 0.038659,0.0128632 0.01623,-0.0227674 -0.022562,-0.0358769 -0.017197,-0.0430114 0.016939,-0.0223504 0.038465,0.0232842 0.036202,0.0458128 -0.00982,0.0968011 -0.081563,0.0904801 -0.602984,1.11816373 -0.602984,1.18842893 0,0.065177 0.2549822,0.3002055 0.4449616,0.4101453 0.1562014,0.090389 0.1633642,0.1737883 0.036202,0.4204098 C 7.8459022,2.6217642 7.5522088,3.0755023 7.5216113,3.0760877 7.5087355,3.0763371 7.4370396,2.9964234 7.3621301,2.8985069 7.1764387,2.6557173 6.0718761,1.69966 5.7748485,1.5246215 5.7067876,1.4845085 5.706833,1.4764383 5.7759351,1.3635882 l 0.07287,-0.1188051 -0.08615,0.100646 c -0.047386,0.055355 -0.086563,0.1165481 -0.087054,0.1359846 -5.423e-4,0.030667 -0.3254416,0.00234 -0.3598858,-0.031378 -0.0071,-0.00687 0.043184,-0.1165715 0.1114731,-0.2437946 C 5.5044027,1.062463 5.5499926,0.91934195 5.547684,0.82804585 L 5.544004,0.68116505 5.505927,0.82206895 C 5.4427604,1.0558859 5.2104368,1.5064608 5.1530558,1.5064608 c -0.073388,0 -0.071176,-0.00865 0.074248,-0.2908771 0.094074,-0.1825356 0.1313436,-0.31554945 0.1407181,-0.50208095 0.01151,-0.2289649 0.0049,-0.25375845 -0.06733,-0.25375845 -0.085634,0 -0.1623102,0.14349955 -0.1573525,0.29449385 0.0027,0.084897 0.00442,0.085155 0.038207,0.00744 l 0.035298,-0.080517 0.00442,0.080517 c 0.00442,0.079457 0.0049,0.079488 0.064518,0.00239 0.033228,-0.042981 0.060315,-0.062303 0.060315,-0.042939 0,0.069163 -0.1753627,0.52479595 -0.2248049,0.58405595 -0.027734,0.033214 -0.061155,0.090285 -0.074299,0.1268273 -0.014224,0.039689 -0.091811,0.077673 -0.1924876,0.094336 -0.14533,0.024056 -0.1983531,0.064826 -0.384919,0.2958884 C 4.1169655,2.2590067 4.0870337,2.3102383 3.6137493,3.2872655 3.3642037,3.8024235 3.1037069,4.3398436 3.0348706,4.4815322 2.9660462,4.6232212 2.8476321,4.8036289 2.7717555,4.8824386 2.6958911,4.9612476 2.6337851,5.0472283 2.6337851,5.0735054 c 0,0.026276 -0.082736,0.1335943 -0.1838766,0.238482 C 2.3487669,5.4168754 2.2541818,5.5410602 2.2397072,5.5879544 2.2046691,5.7014706 2.0559275,5.8576061 2.0095818,5.8295385 1.989218,5.8172415 1.9318494,5.8329385 1.881994,5.8644205 1.7326644,5.9587125 1.6268889,5.9678593 1.4792795,5.8992505 Z M 4.345917,1.9223764 C 4.330723,1.9075654 4.348617,1.8629504 4.385158,1.8232304 4.421813,1.7835094 4.440948,1.7231619 4.427632,1.6891239 4.398736,1.6152489 4.2366893,1.6054849 4.2358037,1.6775579 c -3.09e-4,0.031163 -0.012283,0.034996 -0.030837,0.010066 -0.04506,-0.0601 -0.1726605,-0.07135 -0.2349353,-0.020718 -0.091346,0.074271 0.1381644,0.2716933 0.3246141,0.2792166 0.043314,0.00174 0.066393,-0.00894 0.051265,-0.023749 z M 4.1379216,1.8218183 c 0.011774,-0.018449 0.038593,-0.033548 0.059863,-0.033548 0.021334,0 0.038659,0.015098 0.038659,0.033548 0,0.018454 -0.026894,0.033549 -0.059865,0.033549 -0.032905,0 -0.050296,-0.015098 -0.038659,-0.033549 z m -0.1377697,6.873e-4 c -0.026441,-0.0259 -0.077512,-0.031795 -0.1205483,-0.013918 -0.066051,0.027432 -0.062838,0.034268 0.028056,0.059175 0.1218013,0.033387 0.1557805,0.016756 0.092477,-0.045258 z M 7.680552,0.91913295 C 7.9937689,0.30314355 7.9913317,0.25844729 7.644608,0.25844729 c -0.18932,0 -0.2438178,0.0134938 -0.2438178,0.0603878 0,0.0332127 -0.014997,0.0603878 -0.033487,0.0603878 -0.018423,0 -0.08556,0.10662836 -0.1491536,0.23695156 l -0.115675,0.2369508 0.1534026,0.22639365 c 0.084869,0.1252549 0.1429035,0.2532043 0.1298965,0.2864071 -0.01299,0.033007 -0.00982,0.060013 0.00686,0.060013 0.016679,0 0.1462645,-0.228063 0.2879914,-0.50680605 z M 5.962439,1.0636136 c 0.046093,-0.088569 0.074616,-0.16103325 0.063356,-0.16103325 -0.011313,0 -0.058312,0.072466 -0.1044056,0.16103325 -0.046093,0.088569 -0.074616,0.1610333 -0.06329,0.1610333 0.011313,0 0.058247,-0.072465 0.1044056,-0.1610333 z M 6.1599821,0.68009425 c -0.012727,-0.012394 -0.03562,0.00995 -0.051006,0.049652 -0.022304,0.057376 -0.017649,0.062 0.023079,0.022537 0.028122,-0.027307 0.040728,-0.059794 0.028056,-0.072188 z m 0.090118,-0.1398387 c 0.024309,-0.044285 0.03478,-0.0805162 0.023531,-0.0805162 -0.011313,0 -0.04034,0.0362323 -0.064518,0.0805162 -0.024309,0.044284 -0.034716,0.080516 -0.023531,0.080516 0.011313,0 0.040339,-0.036232 0.064518,-0.080516 z M 5.5721846,0.41931086 c 0.040986,-0.0443781 0.150188,-0.10184575 0.242667,-0.12770652 0.105555,-0.0295222 0.1413067,-0.0530406 0.096059,-0.0631985 -0.086763,-0.0194763 -0.4497134,0.15030545 -0.473038,0.22126799 -0.025341,0.0770944 0.051006,0.059844 0.134312,-0.030363 z m 0.666789,-0.14492825 c -0.013763,-0.0133763 -0.049068,-0.0148073 -0.07876,-0.00319 -0.032777,0.0128511 -0.023079,0.0223915 0.024825,0.0243234 0.043378,0.001735 0.067595,-0.007761 0.053917,-0.0211461 z M 1.9752018,3.8917537 c 0.092627,-0.138388 0.178013,-0.2516145 0.1897401,-0.2516145 0.035232,0 -0.1190026,0.2386555 -0.2426413,0.3754499 -0.080306,0.088853 -0.064194,0.051127 0.052881,-0.1238354 z M 4.2338881,2.5028416 c 0.2975138,-0.6632866 0.460865,-0.9375823 0.4167301,-0.699758 -0.00368,0.019226 0.043896,0.022577 0.1054086,0.00744 0.1117625,-0.027477 0.1116901,-0.027307 -0.040663,0.146206 -0.083912,0.095543 -0.2379542,0.2960005 -0.3423276,0.4454596 -0.1043529,0.149459 -0.1956294,0.2717437 -0.2027924,0.2717437 -0.00712,0 0.021592,-0.076995 0.063678,-0.1710978 z m 0.018423,-1.84586455 c 0.0049,-0.090067 0.1075414,-0.1640571 0.1075414,-0.077449 0,0.025294 0.017649,0.035307 0.039241,0.022253 0.055792,-0.033775 0.2484658,0.019663 0.2484658,0.068908 0,0.024659 -0.064454,0.032724 -0.1605902,0.020095 -0.088309,-0.011606 -0.1783299,-0.00371 -0.1999931,0.017512 -0.025149,0.024642 -0.037691,0.00608 -0.03465,-0.051318 z m 0.1896956,-0.1377209 c 0,-0.0782978 0.229537,-0.34133267 0.2978565,-0.34133267 0.077144,0 0.077926,0.005271 0.014997,0.0992294 -0.036526,0.0545761 -0.066375,0.13609947 -0.066375,0.18116235 0,0.0641976 -0.0267,0.0819332 -0.123296,0.0819332 -0.067822,0 -0.123296,-0.00945 -0.123296,-0.020992 z"
       id="path153" />
  </g>
</svg>
