<?xml version="1.0" encoding="UTF-8" standalone="no"?>
<svg
   xmlns:dc="http://purl.org/dc/elements/1.1/"
   xmlns:cc="http://creativecommons.org/ns#"
   xmlns:rdf="http://www.w3.org/1999/02/22-rdf-syntax-ns#"
   xmlns:svg="http://www.w3.org/2000/svg"
   xmlns="http://www.w3.org/2000/svg"
   xmlns:sodipodi="http://sodipodi.sourceforge.net/DTD/sodipodi-0.dtd"
   xmlns:inkscape="http://www.inkscape.org/namespaces/inkscape"
   width="32"
   height="32"
   viewBox="0 0 8.4666665 8.4666669"
   version="1.1"
   id="svg113"
   inkscape:version="1.0.1 (3bc2e813f5, 2020-09-07)"
   sodipodi:docname="legguard.svg">
  <defs
     id="defs107" />
  <sodipodi:namedview
     id="base"
     pagecolor="#ffffff"
     bordercolor="#666666"
     borderopacity="1.0"
     inkscape:pageopacity="0.0"
     inkscape:pageshadow="2"
     inkscape:zoom="16.03125"
     inkscape:cx="16"
     inkscape:cy="16"
     inkscape:document-units="px"
     inkscape:current-layer="layer1"
     inkscape:document-rotation="0"
     showgrid="false"
     units="px"
     inkscape:window-width="1366"
     inkscape:window-height="745"
     inkscape:window-x="-8"
     inkscape:window-y="-8"
     inkscape:window-maximized="1" />
  <metadata
     id="metadata110">
    <rdf:RDF>
      <cc:Work
         rdf:about="">
        <dc:format>image/svg+xml</dc:format>
        <dc:type
           rdf:resource="http://purl.org/dc/dcmitype/StillImage" />
        <dc:title></dc:title>
      </cc:Work>
    </rdf:RDF>
  </metadata>
  <g
     inkscape:label="Layer 1"
     inkscape:groupmode="layer"
     id="layer1">
    <path
       style="fill:#ff0000;stroke-width:0.00915124"
       d="m 2.7238578,8.1710567 c -0.042249,-0.00361 -0.089029,-0.01028 -0.1039374,-0.015045 -0.03601,-0.011392 -0.059933,-0.039982 -0.059933,-0.071783 0,-0.030246 -0.059556,-0.1055078 -0.1215111,-0.1535479 l -0.040979,-0.031798 -0.3668364,0.00461 c -0.5254735,0.00664 -0.5287656,0.00756 -0.5918696,0.1670513 -0.042359,0.1070693 0.01621,0.09595 -0.5197075,0.098663 l -0.4647555,0.00236 -0.019016,-0.030966 C 0.42120324,8.1176825 0.4139919,8.0788271 0.40737627,7.9910692 0.40251645,7.925856 0.39373743,6.8293511 0.38807809,5.5543885 0.38243443,4.2794218 0.37522308,3.2099194 0.37215042,3.177715 0.36697742,3.122957 0.36478242,3.118539 0.33769272,3.109601 0.28724462,3.092926 0.26532842,3.066579 0.25515422,3.010372 0.24998122,2.981718 0.24559122,2.6914922 0.24559122,2.3654445 l -1.4893e-4,-0.5928162 0.0716745,-0.032197 0.0716745,-0.032197 7.525e-5,-0.2172084 C 0.38909081,0.91699904 0.44756071,0.75433747 0.73596434,0.52525725 0.8538855,0.43159261 0.97575253,0.36186342 1.1190231,0.30607487 1.2283377,0.26351443 1.4487666,0.20462221 1.5641199,0.18716237 c 0.1206176,-0.018267 0.4132759,-0.0245546 0.6581873,-0.0142076 0.3226011,0.0136561 0.4479562,0.0370521 0.6808466,0.12705478 0.1581651,0.0611247 0.2636044,0.12285235 0.3957272,0.23167099 0.1472682,0.12128392 0.2218273,0.21774175 0.269187,0.348215 0.037358,0.10290858 0.047093,0.19414156 0.053411,0.50021866 0.00314,0.1529032 0.00894,0.2888485 0.012855,0.3020931 0.00517,0.017471 0.019674,0.029331 0.052752,0.043293 0.025067,0.010544 0.065169,0.034544 0.089107,0.053253 l 0.043535,0.034028 -2.241e-4,0.4786842 c -2.242e-4,0.4655388 -0.00909,0.6866276 -0.030053,0.7436937 -0.015207,0.041692 -0.047799,0.064281 -0.1080448,0.075046 l -0.053599,0.00959 -0.00627,2.3763353 c -0.00345,1.306988 -0.010504,2.4306911 -0.015677,2.4971216 -0.00988,0.1269742 -0.018624,0.1500287 -0.0652,0.1712298 -0.026949,0.012225 -0.6868744,0.017504 -0.8167899,0.00653 z M 1.3698165,7.296344 C 1.3981285,7.279987 1.4155145,7.262038 1.4233375,7.241149 1.4433725,7.187725 1.4525595,6.5501117 1.4526375,5.2068918 1.4527127,3.9022877 1.4440175,3.3180679 1.4236035,3.2635369 1.4094945,3.2257289 1.3531205,3.1856649 1.303613,3.1782509 1.274501,3.1739209 1.255799,3.1766509 1.223818,3.1902679 1.167993,3.2139089 1.15705,3.2303599 1.144995,3.3087733 1.138565,3.3504143 1.132767,4.09677 1.129318,5.3035591 l -0.00549,1.9282475 0.024158,0.020973 c 0.082445,0.071601 0.1502468,0.084925 0.2217536,0.043575 z m 1.4516531,-3.98e-4 c 0.01842,-0.00907 0.037264,-0.022883 0.041857,-0.030684 0.00455,-0.00779 0.010033,-0.9183105 0.011914,-2.0234002 l 0.00361,-2.0092601 -0.049366,-0.025033 c -0.083969,-0.042588 -0.1107923,-0.0423 -0.193936,0.00199 l -0.05004,0.026704 -0.00251,0.731822 c -0.0014,0.4024992 0.00106,1.3076686 0.00549,2.011485 0.0069,1.0944516 0.01019,1.2823133 0.022841,1.2979459 0.0351,0.043344 0.1407466,0.052577 0.2100931,0.018346 z M 2.1084604,7.2896945 C 2.12478,7.2799421 2.1380426,7.2616765 2.1429965,7.24208 2.155538,7.1923206 2.1693493,6.0881067 2.169412,5.1251748 2.1694621,4.0801081 2.157184,3.282751 2.1403158,3.2380462 c -0.00925,-0.024555 -0.020882,-0.034585 -0.055841,-0.048127 -0.079654,-0.030883 -0.1679867,0.0016 -0.1927342,0.070952 -0.014893,0.041688 -0.023547,3.6424906 -0.00925,3.8501278 0.008,0.1164563 0.012541,0.1412224 0.02952,0.1594499 0.03938,0.042413 0.1409034,0.052357 0.1964589,0.019262 z M 3.0258376,2.7927489 c 0.038314,-0.038962 0.046231,-0.052967 0.046231,-0.081741 4.7e-6,-0.028376 -0.00674,-0.040674 -0.036856,-0.067299 -0.02027,-0.017908 -0.053678,-0.037091 -0.074245,-0.042592 -0.028124,-0.00756 -0.2695177,-0.010711 -0.9735739,-0.012781 L 1.0512193,2.5855439 1.016981,2.612049 C 0.9594941,2.656527 0.9283756,2.697805 0.9354301,2.7202228 c 0.003449,0.010989 0.0304758,0.042356 0.0600736,0.069742 l 0.0538029,0.049791 H 2.0144511 2.9795987 Z M 2.9826777,2.2522381 C 3.0852355,2.2250564 3.1087194,2.0951561 3.0178565,2.0576468 2.9681766,2.0371515 2.6844556,2.030704 1.82217,2.0304651 L 1.0075452,2.030298 0.9748903,2.0733155 c -0.0434092,0.057193 -0.0491312,0.084833 -0.0248635,0.1202531 0.029253,0.042715 0.0617825,0.057782 0.1410289,0.065348 0.1201629,0.011461 1.8461168,0.00542 1.891611,-0.00664 z M 1.3810897,1.6576986 c 0.017166,-0.011544 0.036135,-0.034544 0.042155,-0.051104 0.013639,-0.037411 0.032843,-0.4643648 0.024973,-0.5534482 -0.00956,-0.10837382 -0.021571,-0.1386632 -0.068288,-0.17236438 -0.038738,-0.0279374 -0.044757,-0.02961 -0.095613,-0.0262273 -0.06868,0.004543 -0.1218561,0.034703 -0.1377994,0.0781386 -0.01574,0.0429064 -0.02466,0.44392468 -0.012541,0.56252608 0.011287,0.1101048 0.02629,0.1426871 0.077114,0.1674255 0.049727,0.024198 0.130055,0.021848 0.1699682,-0.00493 z m 0.7197032,-0.0016 c 0.01505,-0.00709 0.032874,-0.022367 0.039709,-0.033988 0.030178,-0.051399 0.038816,-0.75647275 0.01019,-0.8347232 -0.014736,-0.040503 -0.071204,-0.0695032 -0.1351814,-0.0695032 -0.042939,0 -0.053975,0.003973 -0.086395,0.0296892 -0.025412,0.0202966 -0.039897,0.0409795 -0.045808,0.065416 -0.01113,0.0462613 -0.011287,0.7279655 -1.489e-4,0.7741271 0.019157,0.079114 0.1249757,0.1126749 0.2175976,0.069013 z m 0.7309576,-0.00279 c 0.041606,-0.033232 0.04714,-0.086771 0.043738,-0.4230667 -0.00345,-0.34444603 -0.00298,-0.34189902 -0.07528,-0.36602452 -0.090973,-0.0303255 -0.1750131,-0.001987 -0.1968478,0.066383 -0.016116,0.0505027 -0.01875,0.59140332 -0.00314,0.65557342 0.01864,0.07683 0.046168,0.093573 0.1471742,0.089518 0.046858,-0.00199 0.06462,-0.00661 0.084388,-0.022367 z M 4.861639,8.171422 C 4.803525,8.1650316 4.7745228,8.1445543 4.760884,8.1005574 4.7414917,8.0380074 4.7323051,7.0992761 4.7317878,5.1239477 l -5.111e-4,-2.004385 -0.043754,-0.00879 c -0.02466,-0.00493 -0.056578,-0.019501 -0.073179,-0.033311 -0.025459,-0.021212 -0.03057,-0.033669 -0.037891,-0.092342 -0.0047,-0.037291 -0.011444,-0.3161937 -0.015207,-0.6197555 l -0.00674,-0.5519319 0.067677,-0.046273 c 0.037233,-0.02547 0.072662,-0.047598 0.078729,-0.049213 0.018985,-0.00506 0.030131,-0.1467226 0.036856,-0.4687107 l 0.00643,-0.31071748 0.079952,-0.12673943 C 4.9183171,0.66248925 4.993083,0.57836069 5.1111657,0.48879178 5.291697,0.35185124 5.5338633,0.25357074 5.8242078,0.19940996 5.9951041,0.1675313 6.3004356,0.15774974 6.6105924,0.17421767 c 0.2008845,0.0106693 0.3055854,0.0254312 0.4349366,0.0613915 0.3718498,0.10333507 0.6664552,0.30195795 0.8096035,0.545835 0.086066,0.14661513 0.100175,0.22893293 0.1092206,0.63690423 l 0.00643,0.2917657 0.074387,0.025908 0.074387,0.025908 0.00658,0.066645 c 0.00361,0.036654 0.00517,0.3242129 0.00345,0.6390176 -0.00361,0.6454728 9.908e-4,0.6090897 -0.081927,0.6378992 -0.02433,0.00843 -0.045965,0.016357 -0.048097,0.017511 -0.020881,0.011656 -0.024566,0.2817247 -0.032451,2.3781579 -0.0047,1.268221 -0.013012,2.3739275 -0.018279,2.4571249 -0.00721,0.1144419 -0.013952,0.1584338 -0.027325,0.1806976 l -0.017715,0.02941 -0.3445047,0.00431 c -0.1894765,0.00236 -0.404025,0.00153 -0.4767734,-0.00153 -0.154652,-0.00695 -0.1565959,-0.00792 -0.1903528,-0.098388 -0.026196,-0.070227 -0.09022,-0.1307279 -0.1615906,-0.152716 -0.043488,-0.013378 -0.084561,-0.014884 -0.406828,-0.014884 -0.3217577,0 -0.3633985,0.0016 -0.4066368,0.014844 -0.077726,0.023959 -0.1102708,0.061421 -0.1533978,0.1765825 -0.018138,0.048428 -0.048912,0.06453 -0.1415305,0.074074 -0.085016,0.00875 -0.6834442,0.00945 -0.7606683,7.96e-4 z M 5.6866467,7.3093419 c 0.018122,-0.00613 0.042171,-0.019381 0.053442,-0.02949 0.020333,-0.018188 0.020505,-0.03164 0.0235,-1.8918766 0.00188,-1.1478803 -8.623e-4,-1.9289919 -0.00705,-2.0167182 L 5.7465008,3.2280761 5.7151628,3.2057095 C 5.6572839,3.1644271 5.5945452,3.1675043 5.5112025,3.215698 l -0.042625,0.024635 6.066e-4,1.0976792 c 9.266e-4,1.6212912 0.013796,2.9091046 0.029441,2.9323704 0.014579,0.021769 0.085188,0.049619 0.1264651,0.049883 0.015677,8.36e-5 0.043331,-0.00482 0.061453,-0.010947 z m 1.4618806,-0.013489 c 0.026431,-0.013531 0.056327,-0.031917 0.066439,-0.040828 0.017605,-0.015522 0.018107,-0.096875 0.011914,-1.9275832 C 7.2231177,4.1970124 7.2163767,3.3796569 7.2104509,3.3269566 7.2015151,3.2467758 7.1975958,3.2355286 7.172701,3.2147152 7.104256,3.1576734 7.0239435,3.1653503 6.9481429,3.2362066 l -0.047736,0.044605 0.0069,1.6048745 c 0.0069,1.6354036 0.017229,2.3189867 0.035571,2.3684474 0.024268,0.06544 0.1210879,0.085083 0.2056832,0.041739 z m -0.7272641,0.00318 c 0.02281,-0.00728 0.046153,-0.020218 0.051859,-0.028734 0.03115,-0.04646 0.034034,-0.2183348 0.034238,-2.038989 2.242e-4,-1.8571728 -0.00172,-1.9616421 -0.036778,-2.006753 -0.00752,-0.00959 -0.033454,-0.025152 -0.057753,-0.034545 -0.082617,-0.031998 -0.1573861,-0.00358 -0.1787928,0.06774 -0.014266,0.047343 -0.022512,3.546968 -0.00909,3.8078903 0.0058,0.1139015 0.014423,0.1943646 0.021791,0.2053726 0.013952,0.020854 0.064385,0.040518 0.1050504,0.040984 0.015363,1.672e-4 0.046623,-0.00565 0.069433,-0.012934 z M 7.2020935,2.831877 c 0.1147858,-0.0082 0.1573892,-0.023481 0.1843581,-0.066164 0.038581,-0.06105 0.00956,-0.1275757 -0.06926,-0.1591674 -0.039898,-0.015998 -0.061265,-0.016357 -0.9421152,-0.016357 -0.4957063,0 -0.923535,0.00318 -0.9507311,0.00672 -0.061312,0.00836 -0.1245368,0.050976 -0.1411072,0.095148 -0.00972,0.025948 -0.00831,0.036216 0.00925,0.067919 0.028234,0.050961 0.058036,0.064364 0.1586856,0.071381 0.1219188,0.00852 1.6328147,0.00896 1.75096,3.98e-4 z m 0.122734,-0.5797467 c 0.021775,-0.00577 0.049915,-0.022367 0.065404,-0.038604 0.038691,-0.040495 0.036511,-0.080798 -0.00752,-0.1389699 l -0.034677,-0.045847 -0.9678565,0.00358 c -0.6477701,0.00239 -0.9814045,0.00664 -1.0088233,0.012531 -0.047375,0.010225 -0.071753,0.031083 -0.088464,0.075592 -0.00988,0.026386 -0.00894,0.037848 0.00596,0.068882 0.02292,0.047901 0.054885,0.061086 0.1683473,0.069427 0.1512501,0.0111 1.823039,0.0051 1.8676176,-0.00672 z M 5.7123865,1.6571967 c 0.045165,-0.0236 0.047516,-0.040359 0.051169,-0.3653 C 5.7674749,0.94176748 5.762949,0.90470366 5.7124962,0.87602538 5.6467162,0.8386162 5.5428838,0.84971892 5.5029329,0.89839197 5.477364,0.92955378 5.4628943,1.2206666 5.4758904,1.4423803 l 0.010033,0.1711743 0.02941,0.024516 c 0.016178,0.013489 0.043409,0.027899 0.060513,0.032077 0.039004,0.00952 0.1056932,0.00318 0.1365453,-0.012934 z m 0.7294886,7.96e-4 c 0.041105,-0.016954 0.053082,-0.048526 0.06208,-0.1634456 0.010504,-0.1344802 0.01066,-0.4856726 7.52e-5,-0.60955119 -0.00878,-0.10401996 -0.020051,-0.12650186 -0.077475,-0.1548334 -0.04228,-0.0208537 -0.077428,-0.0208537 -0.1285814,-3.987e-5 -0.07934,0.0323163 -0.076189,0.0152426 -0.079513,0.43137656 -0.00314,0.3926213 0.00157,0.4486207 0.040807,0.4819275 0.041011,0.034863 0.1184699,0.041031 0.1825646,0.014566 z m 0.7034181,0.0045 c 0.059353,-0.028893 0.06694,-0.052263 0.076205,-0.2346758 0.011131,-0.2175467 -0.00157,-0.47966309 -0.024958,-0.51508705 -0.025773,-0.039161 -0.080908,-0.0629404 -0.1347111,-0.0580962 -0.0813,0.007321 -0.1345699,0.0565444 -0.149651,0.13828114 -0.010974,0.0593826 -0.00251,0.47194631 0.011287,0.56009061 0.011287,0.070916 0.023343,0.093767 0.059164,0.1115093 0.038393,0.019023 0.1215111,0.017989 0.1625954,-0.00199 z"
       id="path129" />
  </g>
</svg>
