<?xml version="1.0" encoding="UTF-8" standalone="no"?>
<svg
   xmlns:dc="http://purl.org/dc/elements/1.1/"
   xmlns:cc="http://creativecommons.org/ns#"
   xmlns:rdf="http://www.w3.org/1999/02/22-rdf-syntax-ns#"
   xmlns:svg="http://www.w3.org/2000/svg"
   xmlns="http://www.w3.org/2000/svg"
   xmlns:sodipodi="http://sodipodi.sourceforge.net/DTD/sodipodi-0.dtd"
   xmlns:inkscape="http://www.inkscape.org/namespaces/inkscape"
   width="32"
   height="32"
   viewBox="0 0 8.4666665 8.4666669"
   version="1.1"
   id="svg188"
   inkscape:version="1.0.1 (3bc2e813f5, 2020-09-07)"
   sodipodi:docname="nets.svg">
  <defs
     id="defs182" />
  <sodipodi:namedview
     id="base"
     pagecolor="#ffffff"
     bordercolor="#666666"
     borderopacity="1.0"
     inkscape:pageopacity="0.0"
     inkscape:pageshadow="2"
     inkscape:zoom="14.71875"
     inkscape:cx="16"
     inkscape:cy="16"
     inkscape:document-units="px"
     inkscape:current-layer="layer1"
     inkscape:document-rotation="0"
     showgrid="false"
     units="px"
     inkscape:window-width="1366"
     inkscape:window-height="745"
     inkscape:window-x="-8"
     inkscape:window-y="-8"
     inkscape:window-maximized="1" />
  <metadata
     id="metadata185">
    <rdf:RDF>
      <cc:Work
         rdf:about="">
        <dc:format>image/svg+xml</dc:format>
        <dc:type
           rdf:resource="http://purl.org/dc/dcmitype/StillImage" />
        <dc:title></dc:title>
      </cc:Work>
    </rdf:RDF>
  </metadata>
  <g
     inkscape:label="Layer 1"
     inkscape:groupmode="layer"
     id="layer1">
    <path
       style="fill:#000000;stroke-width:0.0431284"
       d="M 1.5447058,8.1388418 C 1.5358775,8.0456883 1.4942812,8.0064137 1.3423699,7.9478369 1.2371957,7.9072917 1.1365415,7.8521253 1.1186937,7.8252591 1.0539691,7.7278241 1.1306687,7.7152716 1.2881358,7.797504 c 0.088533,0.046259 0.176068,0.084083 0.1945226,0.084083 0.041699,0 0.044033,-0.9081942 0.00259,-1.0088304 C 1.4677397,6.8302154 1.4274781,6.813798 1.3880346,6.8330278 1.312394,6.8699443 0.91736547,6.641905 0.89740647,6.5497677 c -0.0188468,-0.086985 0.0484577,-0.072382 0.19448563,0.042269 0.1280756,0.1005369 0.211345,0.1306141 0.3287092,0.1187323 0.053624,-0.00544 0.060843,-0.06966 0.060843,-0.5411503 0,-0.5171138 -0.00261,-0.5352184 -0.078228,-0.5418126 C 1.1050878,5.6017725 0.99468849,5.5450823 0.99468849,5.4180148 v -0.107584 l 0.0956134,0.1079565 c 0.073158,0.082632 0.1262325,0.1001734 0.2259939,0.074831 L 1.4466765,5.4601109 1.4440966,5.159499 C 1.4426833,4.994154 1.4309459,4.7516744 1.4180213,4.6206613 L 1.3945224,4.3824448 1.1621113,4.3025344 C 0.99999834,4.2468424 0.92495682,4.1947415 0.91401827,4.1303778 0.89606326,4.024734 0.92691785,4.0298228 1.1761435,4.1736432 1.2832577,4.2355037 1.351929,4.2501068 1.3739572,4.215821 1.4139738,4.1535984 1.3559938,3.3344846 1.3061024,3.2572228 1.2882972,3.2296481 1.1992103,3.1985367 1.1081318,3.188197 0.91019657,3.1656111 0.85561362,3.1405774 0.85561362,3.0723952 c 0,-0.028118 0.0977862,-0.046894 0.21730188,-0.041814 l 0.2173021,0.00925 -0.0068,-0.2674958 C 1.2743519,2.4153973 1.2064685,2.0562722 1.1375391,2.000598 1.106776,1.9757447 0.99836316,1.9381028 0.896621,1.9169691 0.75224164,1.8869454 0.70549119,1.8532942 0.68364542,1.7636881 0.66135674,1.6722399 0.67071602,1.6423991 0.72955747,1.6171555 0.8238228,1.5767012 0.85561242,1.6040943 0.85561242,1.725574 c 0,0.063584 0.0270459,0.098922 0.0782281,0.1022786 0.0430249,0.00273 0.10951218,0.011888 0.14774858,0.020046 C 1.1847574,1.8700304 1.1818226,1.7063548 1.0713142,1.2744485 0.97555462,0.90020296 0.97544874,0.90003061 0.79387863,0.82533567 c -0.0999009,-0.041089 -0.181639,-0.0981151 -0.181639,-0.12671386 0,-0.0300237 0.0404719,-0.0363727 0.0956134,-0.0151481 0.26803111,0.10326616 0.28506526,0.0829034 0.23344369,-0.27848004 -0.0383915,-0.26879286 0.0343606,-0.20798484 0.090725,0.075829 0.027276,0.1373443 0.073059,0.26792202 0.1017426,0.29017183 0.07315,0.0567809 0.6028433,0.20063777 0.6346155,0.17238334 0.014391,-0.0127835 0.012646,-0.0639461 -0.00389,-0.11364353 -0.06534,-0.19650161 -0.077608,-0.38462217 -0.02508,-0.38462217 0.033361,0 0.058646,0.081725 0.073978,0.23901466 0.01281,0.13146674 0.041907,0.26278824 0.064653,0.29184083 0.022748,0.0290257 0.1874419,0.0801831 0.3659875,0.11355267 0.3506233,0.065579 0.4084756,0.035556 0.3650259,-0.18967157 -0.051689,-0.26791294 -0.055872,-0.34774179 -0.018222,-0.34774179 0.047831,0 0.1074974,0.22463807 0.1074974,0.40472227 0,0.16176189 0.039586,0.16359419 0.3544365,0.0164174 0.259962,-0.12149792 0.269173,-0.14604293 0.1831874,-0.48804316 -0.012944,-0.0515195 -0.00886,-0.0936247 0.00907,-0.0936247 0.031973,0 0.088484,0.14873669 0.1270407,0.33437192 0.01659,0.0799106 0.064286,0.0935066 0.3247596,0.0928083 C 4.075749,0.81785193 4.1158802,0.78710257 4.0387584,0.55760339 4.0074893,0.46456794 3.9924005,0.36230823 4.005227,0.33038033 4.018052,0.29845273 4.060568,0.38616313 4.099701,0.5252402 L 4.170855,0.77816878 4.4999771,0.74841758 C 4.6809942,0.73209101 4.8430962,0.6971693 4.8602028,0.6708651 4.8784949,0.64274655 4.8760536,0.56126688 4.8542824,0.47312082 4.8339145,0.39067038 4.8256707,0.31028866 4.835965,0.29444268 c 0.02785,-0.0428125 0.1199214,0.16303164 0.1211979,0.27101511 9.234e-4,0.0800015 0.036187,0.0936156 0.24222,0.0936156 0.1326121,0 0.2824728,-0.0242186 0.3330228,-0.0537881 0.07979,-0.0467124 0.088892,-0.0749218 0.069037,-0.21398933 -0.013899,-0.0973715 -0.00877,-0.160229 0.013094,-0.160229 0.019776,0 0.04623,0.0842648 0.058785,0.18724077 l 0.022829,0.18724972 h 0.2879421 c 0.3022379,0 0.3301489,-0.022948 0.3301489,-0.27186778 0,-0.0564175 0.015645,-0.10262245 0.034768,-0.10262245 0.019123,0 0.034769,0.0852615 0.034769,0.18949923 V 0.61005657 L 6.6532319,0.59445548 6.9226862,0.5788544 6.9335874,0.40498351 C 6.9482169,0.1715653 7.0096129,0.18236809 7.0096129,0.4183173 V 0.60556767 H 7.326966 7.644325 L 7.6215725,0.38664403 c -0.028304,-0.27237575 0.041195,-0.26680655 0.101756,0.008163 0.038535,0.17495937 0.047639,0.18313187 0.184929,0.16604323 0.194172,-0.0242186 0.1848683,0.0767361 -0.011244,0.1219885 -0.085605,0.0197736 -0.1617814,0.0526084 -0.1692782,0.0729258 -0.0075,0.0203174 -0.024284,0.18749462 -0.037306,0.37139754 l -0.023674,0.334371 h 0.2103366 c 0.1170462,0 0.2103365,0.023764 0.2103365,0.053516 0,0.029388 -0.086542,0.053516 -0.1923166,0.053516 -0.2260568,0 -0.2404118,0.030204 -0.241534,0.5082429 L 7.652785,2.397801 7.9048554,2.413493 c 0.1457891,0.00907 0.2520702,0.039366 0.2520702,0.071657 0,0.032109 -0.063108,0.050885 -0.147765,0.043991 C 7.6677631,2.501386 7.6417601,2.514356 7.6024613,2.7321281 c -0.019915,0.1103418 -0.036296,0.2771284 -0.036402,0.3706445 -1.315e-4,0.165508 0.00476,0.1709774 0.186444,0.2058986 0.2789551,0.053606 0.3127124,0.031565 0.3502556,-0.2289193 0.018015,-0.1249904 0.045395,-0.2272503 0.060846,-0.2272503 0.038393,0 0.035676,0.5737041 -0.00325,0.685624 -0.017236,0.049525 -0.042479,0.2044654 -0.0561,0.3442225 -0.022711,0.2330735 -0.018844,0.2541261 0.04667,0.2541261 0.1134,0 0.1193532,0.09084 0.0082,0.1250448 -0.090243,0.027755 -0.1052382,0.062586 -0.141017,0.3278322 -0.057171,0.423761 -0.042154,0.4858391 0.1140874,0.4715804 0.1737342,-0.015874 0.1646171,0.07338 -0.012199,0.1193305 -0.1652126,0.042994 -0.2064471,0.15573 -0.2064471,0.5646608 v 0.2640128 h 0.1891747 c 0.1040452,0 0.1988437,0.024037 0.2106612,0.053516 0.013332,0.033198 -0.051106,0.053516 -0.1697382,0.053516 -0.105174,0 -0.1981958,0.01805 -0.2067162,0.040091 -0.00852,0.022041 -0.026677,0.2146697 -0.040348,0.4279879 l -0.024857,0.3878693 h 0.271244 c 0.328781,0 0.3121974,0.093679 -0.020809,0.1175526 L 7.8961675,7.1057018 7.8854303,7.3342945 C 7.8730676,7.5976179 7.8092393,7.5887652 7.8092393,7.3237691 V 7.1468733 L 7.5571772,7.1186643 c -0.1386383,-0.01551 -0.2638036,-0.017325 -0.2781455,-0.00363 -0.014346,0.013334 -0.026077,0.1310857 -0.026077,0.2617634 0,0.3032332 -0.06206,0.3115508 -0.07623,0.010253 L 7.1660291,7.1596807 6.9134568,7.1439889 C 6.6398001,7.1269365 6.6486582,7.1175033 6.6108693,7.4673404 6.5989539,7.5776823 6.5740809,7.66796 6.5555979,7.66796 c -0.019733,0 -0.024423,-0.088347 -0.011364,-0.2139895 l 0.022237,-0.2139984 h -0.223489 c -0.2597329,0 -0.3069292,0.050976 -0.3069292,0.3316962 0,0.2479128 -0.060859,0.2714687 -0.076026,0.029388 C 5.9494103,7.4316483 5.9444755,7.4267684 5.7676406,7.4110675 5.5352142,7.3903868 5.4449923,7.4627688 5.4449923,7.6698103 c 0,0.087257 -0.015646,0.1586145 -0.034769,0.1586145 -0.019123,0 -0.034768,-0.07084 -0.034768,-0.1573355 0,-0.2064248 -0.036333,-0.2330464 -0.1864151,-0.1365552 -0.068347,0.043992 -0.1863127,0.079911 -0.2621467,0.079911 -0.1214469,0 -0.1391916,0.016145 -0.148882,0.1354123 -0.014137,0.1740524 -0.077041,0.1968463 -0.092082,0.033379 -0.00935,-0.1015335 -0.025921,-0.118596 -0.086922,-0.089434 -0.041458,0.019774 -0.1303648,0.053969 -0.1975714,0.075829 -0.067206,0.02195 -0.161081,0.077371 -0.2086093,0.1232305 C 4.1452988,7.9387573 4.0077971,7.9908941 3.8872682,8.0088173 3.6534562,8.043557 3.6169067,7.9732613 3.8359327,7.9100314 4.0771966,7.8403706 4.0857764,7.8206877 4.0817753,7.3465949 4.0775326,6.8437943 4.0743214,6.8411911 3.750036,7.0772488 l -0.217302,0.158179 v 0.4079785 c 0,0.3024985 -0.011229,0.4022551 -0.04346,0.3858557 C 3.4612376,8.0150211 3.442188,7.8710104 3.435598,7.6235603 3.4299759,7.4125912 3.4111857,7.2399721 3.3938332,7.2399721 c -0.076504,0 -0.4301784,0.1637212 -0.47368,0.2192774 -0.030977,0.039547 -0.048018,0.1740342 -0.048018,0.3789259 0,0.1981072 -0.013078,0.3051562 -0.034768,0.2845301 C 2.818245,8.1045646 2.8026,7.9811071 2.8026,7.8484522 2.8026,7.6224809 2.79766,7.6097097 2.724372,7.6461002 2.681346,7.6675062 2.5711264,7.6874612 2.4794393,7.6905452 2.2941876,7.6968916 2.241006,7.7700925 2.254927,7.9999555 2.266037,8.183314 2.1979764,8.1998222 2.1831546,8.0173709 2.1726858,7.8884715 2.1615221,7.8819585 1.9513121,7.8819585 c -0.285963,0 -0.3308333,0.029751 -0.3308333,0.219722 0,0.1804196 -0.059483,0.2098441 -0.075811,0.03746 z M 2.12864,7.6625359 C 2.167178,7.6133749 2.177031,7.4940709 2.169437,7.1687693 L 2.1594304,6.7398926 1.8998728,6.7529538 c -0.1427573,0.00725 -0.2718342,0.024762 -0.2868386,0.039003 -0.031323,0.029751 -0.03737,0.7729087 -0.00728,0.8935998 0.01567,0.062858 0.06903,0.0761 0.2460417,0.061044 0.1243176,-0.010525 0.2488964,-0.048436 0.276841,-0.084083 z M 4.5410546,7.5952336 4.6975126,7.4723379 4.7075639,7.1011763 4.7176151,6.7300237 4.4756322,6.757688 C 4.3425414,6.772927 4.2232201,6.801408 4.2104727,6.821 c -0.046027,0.07084 -0.078121,0.4182189 -0.060659,0.6566078 0.01696,0.2315406 0.023173,0.243441 0.126313,0.2420079 0.059662,-8.072e-4 0.1788813,-0.056781 0.2649328,-0.1244011 z M 2.7429901,7.4052718 C 2.7853574,7.2949027 2.8026383,7.1312181 2.8026383,6.8402571 V 6.4306094 L 2.6374887,6.4645331 C 2.3211458,6.5294773 2.2932648,6.5646248 2.2684459,6.930009 c -0.044695,0.6579956 -0.05321,0.6306573 0.1963971,0.6306573 0.2043042,0 0.2223724,-0.010071 0.2781463,-0.1553763 z m 2.4488076,0.014332 0.1489282,-0.087529 V 6.9438244 c 0,-0.4269901 -0.013138,-0.4531945 -0.2272014,-0.4531945 -0.1590034,0 -0.2928909,0.1019243 -0.3107124,0.2365385 -0.012497,0.094423 -0.00455,0.6140222 0.011334,0.7398107 0.00886,0.070206 0.2234064,0.043265 0.3776593,-0.047347 z M 3.2111667,7.1743846 3.4632368,7.0545648 3.4636179,6.8127292 C 3.4638282,6.6797205 3.474042,6.4774139 3.4863003,6.3631628 L 3.5086009,6.155441 3.2686166,6.1925392 C 2.9387901,6.2435149 2.8725889,6.3626005 2.8723472,6.9052566 2.8722025,7.1797367 2.8848739,7.2932711 2.9156346,7.2936521 2.9395383,7.2938606 3.0725265,7.2402274 3.2111653,7.174376 Z M 5.9190755,7.1586018 C 5.947295,7.0991903 5.9665563,6.9221087 5.9665563,6.721988 V 6.3852935 l -0.2173025,0.032382 c -0.1350981,0.020137 -0.2337428,0.064128 -0.2607617,0.1164001 -0.024597,0.047529 -0.04346,0.2333456 -0.04346,0.4280059 V 7.306032 L 5.6583124,7.2822675 C 5.81412,7.264943 5.884389,7.2315639 5.9190755,7.1586105 Z M 6.4965063,7.0647134 C 6.5335711,7.0199963 6.5554928,6.8828244 6.5647112,6.6377687 6.5798661,6.2349151 6.5898849,6.2485388 6.2968548,6.2735823 6.110512,6.2895462 6.0378762,6.4336026 6.0368657,6.7893536 c -3.941e-4,0.1495712 0.00577,0.2819813 0.013765,0.2942445 0.036478,0.055965 0.3964324,0.040726 0.4458824,-0.018866 z M 3.804381,6.8886203 c 0.1087711,-0.075375 0.2212333,-0.1561292 0.2499172,-0.1794946 0.076236,-0.062132 0.095311,-0.8604655 0.020559,-0.8604655 -0.1317159,0 -0.401299,0.1224869 -0.4488022,0.2039122 -0.068663,0.117707 -0.1221523,0.9730657 -0.060849,0.9730657 0.022776,0 0.130405,-0.061679 0.239175,-0.1370178 z M 7.16928,6.9640863 C 7.207141,6.8698273 7.221327,6.5407969 7.197453,6.3107165 L 7.176013,6.1040747 6.9700667,6.1270227 c -0.1142246,0.012693 -0.2279873,0.057053 -0.2554344,0.099648 -0.052682,0.081634 -0.09835,0.5861125 -0.065123,0.7193479 0.024731,0.099175 0.4808278,0.115049 0.5197705,0.01805 z M 7.793283,6.902407 C 7.804333,6.834651 7.808549,6.6480543 7.802633,6.487789 L 7.7918961,6.196402 7.5533792,6.1493262 c -0.2884157,-0.056962 -0.299701,-0.039637 -0.2899781,0.4467004 0.0068,0.3405943 0.00929,0.3491388 0.1112689,0.3826811 0.057368,0.018866 0.1705015,0.037189 0.251408,0.040636 0.1262473,0.00544 0.1499534,-0.011161 0.1672032,-0.1168998 z M 4.6935479,6.5435451 c 0.063933,-0.094732 0.070602,-0.1740069 0.060127,-0.7146765 l -0.00401,-0.2070505 -0.209663,0.023311 c -0.280099,0.031202 -0.3178964,0.097815 -0.3387244,0.5972057 l -0.016726,0.4010123 0.1174071,0.022495 C 4.474338,6.69895 4.6192006,6.6536821 4.693546,6.5435011 Z M 2.133349,6.5302113 c 0.028498,-0.034558 0.04346,-0.2048192 0.04346,-0.4946283 0,-0.5064923 -3.3e-5,-0.5065376 -0.3476831,-0.5063743 -0.2782909,1.088e-4 -0.2952099,0.029297 -0.2842446,0.4904104 0.013257,0.5573956 0.017449,0.5693232 0.2077768,0.5908745 0.1897132,0.021497 0.3192697,-0.00544 0.3806905,-0.080274 z M 2.6507116,6.3217912 2.7943144,6.2663704 2.8183166,5.8915625 C 2.8315144,5.6854191 2.8515617,5.4796929 2.8628597,5.4343952 2.8806074,5.3631917 2.8464198,5.3556643 2.6114225,5.3788836 2.2802529,5.4115367 2.246346,5.463238 2.246346,5.9347917 c 0,0.5388918 0.00322,0.5419848 0.4043654,0.3870439 z m 2.6813219,0.044263 c 0.028333,-0.027483 0.04346,-0.1790045 0.04346,-0.4351533 V 5.5379801 L 5.2068244,5.5194765 C 5.1140564,5.5093145 4.9928018,5.5131265 4.93737,5.5276365 4.8369248,5.5546665 4.836552,5.5562075 4.826556,5.9892755 L 4.816535,6.423776 5.0525592,6.415616 C 5.1823721,6.411086 5.3081406,6.388677 5.3320438,6.365457 Z m 0.446408,-0.094168 0.2174182,-0.058232 0.011423,-0.3698554 0.011423,-0.3698555 -0.2259938,9.071e-4 c -0.1242953,6.076e-4 -0.2480559,0.022404 -0.2750208,0.048708 -0.051983,0.050612 -0.096331,0.5810149 -0.060571,0.7244092 0.024412,0.097888 0.040758,0.099103 0.3213196,0.023946 z M 3.2729479,6.1101967 c 0.08438,-0.032653 0.1707962,-0.091657 0.1920365,-0.1310404 0.02124,-0.039365 0.043782,-0.253373 0.050094,-0.475544 l 0.011468,-0.4039421 -0.092503,0.00453 c -0.050876,0.00273 -0.1698501,0.044536 -0.2643867,0.093625 -0.1636812,0.085081 -0.1740202,0.102106 -0.2166313,0.3568303 -0.024611,0.1471223 -0.045049,0.3457373 -0.045417,0.4413667 -6.176e-4,0.1584694 0.00874,0.1738709 0.1056229,0.1738709 0.058461,0 0.175331,-0.026757 0.2597109,-0.059412 z m 3.3138197,-0.010344 c 0.056464,-0.1046912 0.068915,-0.7607816 0.014316,-0.7540513 -0.023904,0.00273 -0.12057,0.00907 -0.2148176,0.013334 -0.2319202,0.010889 -0.2806305,0.096492 -0.2806305,0.4933402 v 0.3171775 h 0.22173 c 0.1399835,0 0.2356234,-0.02576 0.2594017,-0.069842 z m 0.6011526,-0.137268 c 0.01202,-0.018504 0.032576,-0.1871137 0.045678,-0.37469 l 0.02382,-0.3410478 -0.215999,0.024036 C 6.7719226,5.3009065 6.6966904,5.4152483 6.6966904,5.7949452 v 0.255414 l 0.234685,-0.02712 C 7.0604532,6.0083631 7.1758978,5.9810609 7.1879202,5.9625579 Z M 7.8227,5.9155998 C 7.8331241,5.8346912 7.845624,5.648104 7.8504811,5.5009818 L 7.8593115,5.2334861 7.6133241,5.217885 7.3673365,5.2022839 7.3320452,5.5388419 c -0.019412,0.1851091 -0.028173,0.3652477 -0.01947,0.4003049 0.018662,0.075194 0.106546,0.106242 0.3287875,0.1162106 0.1509036,0.00635 0.1637276,-0.00273 0.1813362,-0.1398296 z M 3.9129943,5.7718338 C 4.1289169,5.6773383 4.1573319,5.629655 4.1580709,5.3605536 4.1583467,5.2538859 4.1683756,5.0913798 4.1803342,4.999433 l 0.02173,-0.1671861 H 4.019288 c -0.3456979,0 -0.450295,0.1967103 -0.4513632,0.8488463 -4.335e-4,0.2621352 -0.029241,0.2545523 0.3450695,0.090741 z M 4.5154061,5.500093 C 4.6064731,5.47905 4.6914993,5.435693 4.7043522,5.403701 4.7380252,5.31989 4.8119973,4.6249962 4.7907332,4.5922793 c -0.043539,-0.06703 -0.2440479,-0.01551 -0.371202,0.095284 -0.1505241,0.1311766 -0.1799753,0.240457 -0.1872779,0.6949305 -0.00367,0.2281483 0.00251,0.2505521 0.056731,0.2058984 0.033464,-0.027575 0.1353545,-0.067302 0.2264218,-0.088346 z M 2.1489162,5.1131126 C 2.1422858,4.2810375 2.1559041,4.3617098 2.0116599,4.3000673 1.823314,4.2196126 1.6478043,4.2310413 1.5561978,4.3297275 c -0.075226,0.081089 -0.078635,0.1106417 -0.059571,0.5167238 0.011125,0.2369011 0.034455,0.457004 0.051852,0.4891133 0.018146,0.03347 0.1533569,0.058414 0.3171545,0.058414 h 0.2855224 z m 3.2587491,0.2321937 c 0.024863,-0.046078 0.03666,-0.2174815 0.030333,-0.4406955 l -0.010349,-0.3652569 -0.2174471,0.00635 c -0.1195947,0.00363 -0.2374144,0.031837 -0.2618208,0.063039 -0.054472,0.06957 -0.1454953,0.6746399 -0.1134775,0.7543506 0.035826,0.089254 0.5232265,0.074105 0.5727632,-0.017687 z m 0.6072313,-0.050341 c 0.035021,-0.041361 0.054884,-0.1756124 0.06054,-0.4092664 l 0.00842,-0.3477417 -0.284645,-0.01551 -0.284645,-0.01551 V 4.901427 c 0,0.2169645 0.00887,0.4081327 0.019703,0.4248042 0.036562,0.056237 0.4280595,0.03084 0.4806265,-0.031202 z m -3.2232669,-0.0644 C 2.8779718,5.2030809 2.8996312,5.1200049 2.9093946,4.7786855 2.924203,4.2611545 2.9463008,4.2946878 2.5952622,4.3019533 c -0.1977478,0.00453 -0.3245217,0.030295 -0.3468087,0.071566 -0.026185,0.048527 -0.030291,0.7868226 -0.00519,0.9310242 0.00353,0.020317 0.4348702,-0.037915 0.5483544,-0.074015 z m 3.8616,-0.053152 c 0.028948,-0.013878 0.043461,-0.1375621 0.043461,-0.3703 V 4.457693 H 6.4947258 c -0.2975243,0 -0.331589,0.057961 -0.3236797,0.551019 l 0.00412,0.2567746 0.2173012,-0.03356 c 0.1195172,-0.018503 0.2368599,-0.042994 0.2607624,-0.054513 z m 0.5496066,-0.051792 c 0.059334,-0.018957 0.072309,-0.066486 0.076032,-0.2785254 0.00248,-0.1406278 0.00938,-0.2997594 0.015377,-0.3536286 C 7.3035053,4.4102003 7.2753943,4.3919246 7.1062756,4.3714697 6.9403495,4.3514237 6.8958206,4.3651197 6.837406,4.4550987 6.779799,4.5437167 6.770896,4.6080078 6.787148,4.817843 6.798019,4.9581079 6.811626,5.0978377 6.8174,5.1283506 c 0.00978,0.051701 0.2194248,0.05025 0.385435,-0.00273 z M 3.2111667,5.0236147 c 0.100393,-0.041089 0.1825336,-0.064037 0.1825336,-0.050976 0,0.013061 0.030607,-0.00182 0.068016,-0.0322 0.1138742,-0.093779 0.1997846,-0.8042923 0.097135,-0.80334 -0.09977,9.071e-4 -0.4972817,0.1156837 -0.5189732,0.1498252 -0.037136,0.058414 -0.075976,0.8128277 -0.041811,0.8121202 0.016813,-4.081e-4 0.112708,-0.034286 0.2131024,-0.075375 z m 4.6794383,0.035918 c 0.00874,-0.022041 0.0214,-0.1966105 0.028127,-0.3878602 L 7.9309606,4.3239221 7.7203901,4.308321 C 7.5458723,4.295356 7.4990425,4.311051 7.4468304,4.399769 c -0.082776,0.1407458 -0.117671,0.5862032 -0.051006,0.6511566 0.058968,0.057416 0.4725832,0.064672 0.4947833,0.00907 z M 3.9815486,4.7542776 C 4.1846508,4.7309662 4.2043644,4.6952294 4.1786728,4.3972568 4.1661907,4.2525201 4.1716488,4.0921278 4.190946,4.0366531 4.2495846,3.8680612 4.2224299,3.8658933 3.7893889,4.0046346 c -0.061827,0.019774 -0.077533,0.07592 -0.097604,0.3489481 -0.013153,0.1789323 -0.033196,0.3625356 -0.044533,0.4079876 -0.016984,0.068119 -0.00122,0.0761 0.089568,0.045443 0.060598,-0.020499 0.1707273,-0.044173 0.2447298,-0.052699 z M 4.5053562,4.5116529 c 0.1130167,-0.058595 0.2298664,-0.092119 0.2596658,-0.074558 0.035543,0.020953 0.05418,0.00182 0.05418,-0.056146 0,-0.048436 0.028506,-0.1774266 0.063347,-0.2865981 C 4.9173891,3.985179 4.9393065,3.850492 4.931252,3.7950445 4.9180542,3.7041413 4.8933198,3.697564 4.6795968,3.7281043 4.549241,3.746789 4.4172253,3.7769931 4.3862295,3.7953157 4.2850625,3.8550894 4.2222644,4.1200459 4.2476194,4.3802128 c 0.012751,0.1308408 0.029724,0.2378899 0.037718,0.2378899 0.00799,0 0.1070023,-0.047892 0.2200195,-0.1065146 z M 5.4505278,4.1574711 c 0.012914,-0.1144235 0.039835,-0.2733916 0.059818,-0.3532657 0.019983,-0.079911 0.024385,-0.1565917 0.00978,-0.1704785 -0.0146,-0.013878 -0.1348073,-0.00907 -0.2671218,0.011525 -0.2388114,0.036463 -0.2406128,0.037914 -0.2459048,0.2015719 -0.00292,0.090705 -0.02294,0.2154769 -0.044462,0.2773554 -0.077014,0.2214271 -0.051385,0.2733644 0.1434015,0.2906163 0.2663096,0.023583 0.3170605,-0.014332 0.3444882,-0.2572734 z M 6.116919,4.1767921 C 6.128327,4.0517382 6.148194,3.8701122 6.161068,3.7731766 l 0.023407,-0.1762564 -0.2701192,0.015783 -0.2701205,0.015783 -0.06587,0.3205396 c -0.062148,0.302435 -0.062488,0.3243582 -0.00602,0.3878693 0.033925,0.038187 0.1602912,0.067302 0.2918397,0.067302 H 6.096192 Z M 6.6892355,4.305393 c 0.024582,-0.024037 0.05265,-0.1139161 0.06237,-0.1998033 0.00972,-0.085897 0.032322,-0.239704 0.050223,-0.3418006 0.019035,-0.1085548 0.019692,-0.2054179 0.0016,-0.2332822 -0.01703,-0.026213 -0.1411721,-0.030568 -0.2758697,-0.0098 -0.236425,0.036554 -0.2460795,0.04372 -0.2787737,0.2065335 -0.057259,0.2852013 -0.079813,0.5111908 -0.056748,0.5686247 0.026039,0.064853 0.4325879,0.072655 0.4972103,0.00953 z M 2.837926,4.1629315 C 2.884603,4.1185775 2.881106,3.7402045 2.831666,3.4863234 2.7838537,3.240778 2.7400086,3.2154172 2.402068,3.2378392 l -0.242651,0.016055 0.010946,0.399933 c 0.012065,0.4409222 0.036502,0.5186285 0.1741364,0.5536041 0.1155638,0.029388 0.447174,-6.078e-4 0.4934228,-0.044536 z m 4.5017202,0.027846 C 7.3813231,4.0870117 7.4618254,3.5385056 7.4424551,3.4902781 7.4200322,3.4344953 7.2088923,3.4252431 7.0526811,3.4734065 6.9337828,3.5099609 6.8789101,3.6531913 6.8471501,4.0097405 L 6.826311,4.2436764 h 0.2460532 c 0.1353277,0 0.2556052,-0.023764 0.2672822,-0.052881 z m -5.2209531,-0.05415 c 0.00952,-0.014694 0.00216,-0.1350858 -0.016358,-0.2674958 -0.01852,-0.13241 -0.044764,-0.3250114 -0.058321,-0.4279968 L 2.0193656,3.2538939 1.724328,3.219517 C 1.5620573,3.2006506 1.4240375,3.192669 1.4176173,3.2018303 c -0.010722,0.015329 0.05705,0.7851902 0.079947,0.9080762 0.00995,0.053425 0.5877605,0.078278 0.6211283,0.026757 z M 7.9855037,4.0467395 C 8.0049917,3.9678265 8.0302007,3.7993436 8.0415207,3.672249 L 8.0621051,3.4411527 H 7.8153425 7.5685784 l -0.032622,0.2006287 c -0.064704,0.3979194 -0.072736,0.479535 -0.050551,0.513667 0.012407,0.019139 0.1220225,0.03474 0.2436051,0.03474 0.2077753,0 0.2231895,-0.00907 0.2564935,-0.1434035 z m -4.6284813,0.00544 C 3.5861339,4.0053782 3.6206546,3.9097761 3.5863488,3.4168531 3.5657856,3.1214023 3.5521098,3.0670342 3.5037784,3.0886308 c -0.031858,0.014241 -0.1361539,0.041452 -0.231767,0.06041 -0.294466,0.058504 -0.3407528,0.073198 -0.3681154,0.116709 -0.014555,0.02313 -6.438e-4,0.2305881 0.030898,0.4609768 0.05586,0.4080058 0.059732,0.4181646 0.1489491,0.3907085 0.050378,-0.01551 0.1733552,-0.044898 0.2732803,-0.065308 z M 4.1586031,3.7422182 c 0.079682,-0.055874 0.08778,-0.093779 0.09723,-0.4554259 L 4.2661381,2.8922925 4.0135199,2.9305705 C 3.654267,2.9849935 3.6240529,3.0184625 3.656071,3.3259502 3.670357,3.463104 3.679483,3.6417822 3.676358,3.7230169 L 3.670678,3.8707106 3.8711765,3.8368776 C 3.9814536,3.8182827 4.1107921,3.7756518 4.1585986,3.7421547 Z M 4.7465775,3.6020984 c 0.15893,0 0.2265393,-0.1912499 0.2011933,-0.5691327 -0.011006,-0.163966 -0.028257,-0.3108252 -0.038351,-0.3263629 -0.010096,-0.01551 -0.1317368,0.00544 -0.2703124,0.045714 -0.2842322,0.083449 -0.2968277,0.1091803 -0.3031967,0.6188114 -0.0033,0.2638132 0.00118,0.2782352 0.092148,0.2962763 0.052587,0.010434 0.1219644,-1.82e-5 0.1541716,-0.023221 0.032207,-0.023221 0.1061642,-0.042178 0.1643485,-0.042178 z M 5.5323317,3.4855983 c 0.032015,-0.049252 0.059389,-0.779394 0.030237,-0.8065236 -0.05453,-0.050703 -0.5303591,0.025579 -0.5446326,0.087348 -0.00761,0.032926 -0.00656,0.2254271 0.00236,0.4277338 l 0.016182,0.367832 0.2402922,-0.026486 C 5.4089306,3.5208995 5.523938,3.4984955 5.5323427,3.4855245 Z M 6.0766479,3.4648263 C 6.1873069,3.4292703 6.1961472,3.3993383 6.2270848,2.95603 l 0.023983,-0.3436963 -0.2900223,0.026758 -0.2900209,0.026757 -0.010081,0.4077881 -0.010081,0.407788 0.1665317,0.00635 c 0.091593,0.00363 0.2082512,-0.00635 0.25924,-0.023221 z m 0.5721442,-0.057144 0.1780957,-0.032926 0.018598,-0.3009747 c 0.01023,-0.1655353 0.029544,-0.3431069 0.042925,-0.3945997 0.021761,-0.08372 -7.885e-4,-0.093534 -0.2140777,-0.092799 -0.1311238,3.991e-4 -0.2597157,0.021588 -0.2857607,0.046985 -0.048222,0.046985 -0.1048505,0.3949444 -0.1075885,0.6610523 -0.0017,0.1645647 0.032841,0.1751952 0.3678078,0.113271 z m 0.828475,-0.354018 C 7.5250239,2.5247318 7.5358342,2.5600612 7.3225199,2.5479339 7.2173444,2.5415876 7.1000018,2.5470269 7.0617569,2.5590952 6.9751254,2.5864883 6.8975063,2.9402253 6.9274939,3.1709406 l 0.021267,0.1636212 h 0.251572 0.2515737 z M 2.7394396,2.7992209 C 2.7207707,2.2115574 2.7313617,2.2266415 2.3194617,2.2010085 1.9877056,2.1803279 1.9702591,2.2174259 2.0697797,2.7316463 l 0.074273,0.3837514 0.23368,0.019592 C 2.7806826,3.1687315 2.752022,3.1953083 2.7394393,2.7992479 Z M 1.9943434,3.0760501 C 2.0285483,3.042671 2.0236757,2.9503251 1.9715941,2.6450782 1.9351423,2.4314425 1.896718,2.2434037 1.8862086,2.2272401 1.8561709,2.1809811 1.4747348,2.0519997 1.3653898,2.0510744 c -0.096423,-8.072e-4 -0.098117,0.00453 -0.07441,0.2200938 0.051664,0.4705371 0.1337231,0.7625231 0.2252319,0.8014261 0.1224327,0.052065 0.4261452,0.054241 0.4781321,0.00363 z M 3.3148648,3.0357775 C 3.5498065,2.9891556 3.5869616,2.9208099 3.5171254,2.6636271 3.4874869,2.5544738 3.4632368,2.3693736 3.4632368,2.2522745 V 2.0393826 l -0.2520703,0.038822 c -0.1386383,0.021315 -0.2895039,0.06059 -0.3352559,0.087258 -0.079339,0.046259 -0.082268,0.065126 -0.063359,0.4080057 0.02875,0.5213678 0.044491,0.5639807 0.1951163,0.5281888 0.068899,-0.016327 0.207137,-0.045987 0.3071967,-0.065851 z M 4.0109328,2.8011348 C 4.1344615,2.774196 4.2426743,2.7411795 4.2514043,2.7277548 4.2601283,2.7143302 4.250198,2.5584463 4.2293333,2.3813554 4.2084644,2.2042735 4.1957482,2.0272371 4.2010721,1.987935 4.2086621,1.93188 4.1471791,1.919726 3.9152243,1.931607 3.7526825,1.939767 3.6001365,1.957186 3.5762333,1.970065 c -0.059252,0.031746 -0.055769,0.4498565 0.00562,0.6755014 0.061806,0.2271596 0.090987,0.2715049 0.1541063,0.2342345 0.027702,-0.016326 0.1514372,-0.051792 0.2749667,-0.07864 z m 0.782309,-0.222316 0.1305005,-0.051339 -0.0088,-0.3446125 c -0.00486,-0.1895351 -0.024567,-0.3541088 -0.043815,-0.3657098 -0.049742,-0.030022 -0.530715,0.042449 -0.5577107,0.083992 -0.037149,0.057143 -0.022618,0.5642799 0.019652,0.6858146 0.041817,0.1202286 0.137842,0.1185142 0.4601775,-0.00816 z M 5.4499338,2.55188 C 5.635952,2.5045329 5.6663966,2.3608479 5.5987159,1.8496662 5.5839075,1.737837 5.5644373,1.7292922 5.3246505,1.7292922 c -0.2199924,0 -0.2654332,0.016055 -0.3075678,0.1086092 -0.0545,0.119729 -0.02367,0.5388828 0.049636,0.674794 0.041805,0.077552 0.1779143,0.09143 0.3832151,0.039185 z M 6.2720105,2.4864816 C 6.3382353,2.4218099 6.3625879,2.0884444 6.3167117,1.8745456 6.2727621,1.6696357 6.1976076,1.6276215 5.9055487,1.6446921 5.6996313,1.6567618 5.641905,1.7582993 5.6825955,2.0369605 c 0.017585,0.1204286 0.024265,0.281029 0.014838,0.3568848 l -0.017133,0.1379068 0.2735082,-8.073e-4 c 0.1504292,-3.992e-4 0.2936189,-0.020408 0.3182,-0.044445 z m 0.600807,-0.063584 C 6.9294235,2.376276 6.9400682,2.3085467 6.9400682,1.9949098 V 1.6222975 H 6.6670486 6.3940292 l 0.00356,0.3988627 0.00356,0.3988627 0.1738422,0.01923 c 0.095612,0.010616 0.1866042,0.023674 0.2022022,0.029117 0.015599,0.00544 0.058625,-0.015057 0.095614,-0.045534 z m 0.6859119,-0.4127307 0.01021,-0.3878693 h -0.240644 c -0.1510494,0 -0.2534083,0.024944 -0.2749303,0.066849 -0.018857,0.036735 -0.033812,0.2182797 -0.03323,0.4033344 l 0.00105,0.3364583 0.2636606,-0.01551 0.2636579,-0.01551 z M 2.6049695,1.7159224 C 2.594089,1.5025951 2.5754426,1.3133953 2.5635321,1.2954721 2.5321958,1.2483059 2.1505761,1.1408124 2.0145534,1.1408124 c -0.063739,0 -0.1176292,0.024037 -0.1197543,0.053516 -0.012005,0.1663516 -0.00509,0.2681943 0.035488,0.5219937 0.024731,0.1546869 0.070758,0.3044215 0.1022825,0.3327393 0.031526,0.0283 0.1776619,0.052245 0.3247493,0.053152 L 2.6247503,2.10403 2.6049685,1.7161607 Z M 1.8828659,1.9299208 C 1.8734495,1.8637067 1.8496244,1.6662165 1.8299223,1.4910304 1.8102201,1.3158443 1.7805535,1.1516697 1.763995,1.1261909 1.7097147,1.0426522 1.1734947,0.8637201 1.1187517,0.91085896 c -0.044834,0.03864 -0.038166,0.10664954 0.047961,0.48937654 0.055019,0.2444931 0.1072394,0.4556162 0.1160454,0.4691675 0.018104,0.027846 0.4614486,0.1681565 0.5557233,0.1758573 0.046231,0.00363 0.057255,-0.024853 0.044385,-0.1153395 z m 1.3312799,0.036191 C 3.3919393,1.9213046 3.4154872,1.8559335 3.3626669,1.553571 3.3409986,1.4295423 3.3186592,1.2745103 3.3130237,1.2090582 3.3073866,1.1435697 3.2920309,1.0735371 3.2788957,1.0533191 3.2492133,1.0076041 2.8897139,1.1320503 2.7551202,1.2345915 c -0.09465,0.072109 -0.098893,0.090341 -0.084235,0.3623179 0.025645,0.4758615 0.051049,0.4931315 0.5432606,0.3692024 z M 4.1352236,1.7713427 C 4.1774178,1.737964 4.1905277,1.6909791 4.1742474,1.6315674 4.1607662,1.5823152 4.1318935,1.397605 4.110094,1.2210583 L 4.0704577,0.90006526 H 3.7929235 c -0.3891778,0 -0.4104115,0.0212245 -0.392629,0.39299414 0.00796,0.1666961 0.042534,0.3680231 0.076987,0.4484778 0.061438,0.1434578 0.067115,0.1454079 0.3284593,0.113018 0.1462678,-0.018141 0.2945341,-0.055601 0.329482,-0.083176 z M 4.8008792,1.6825433 C 4.9289887,1.640275 4.9963089,1.4545854 4.9551822,1.2568229 4.9388494,1.1782731 4.9169185,1.0478314 4.9064497,0.96690515 4.8885312,0.82843616 4.8765018,0.81979204 4.7017019,0.81979204 c -0.1021407,0 -0.2599722,0.0156919 -0.3507373,0.0348309 l -0.1650271,0.0348309 0.013824,0.33409086 c 0.018343,0.4432533 0.057124,0.507372 0.3020885,0.4994536 0.1076138,-0.00363 0.2421759,-0.021679 0.2990281,-0.040363 z M 5.5811761,1.5474484 c 0.02729,-0.050614 0.032742,-0.1891546 0.016839,-0.4279879 L 5.5745011,0.76628556 5.3620003,0.76710188 c -0.1168761,3.9908e-4 -0.2491045,0.0157828 -0.2938436,0.0342858 -0.074697,0.0307492 -0.079582,0.0536973 -0.05979,0.28014002 0.011856,0.1356391 0.023324,0.3128297 0.025487,0.3937469 0.00392,0.1463785 0.0052,0.1471223 0.2554503,0.1471223 0.1730443,0 0.2641059,-0.023311 0.2918698,-0.074831 z m 0.6118346,-0.019592 c 0.019378,-0.021588 0.037695,-0.2138442 0.040709,-0.4271714 l 0.00549,-0.38786943 H 6.013673 c -0.3303657,0 -0.3649219,0.0423595 -0.3398927,0.41662263 0.011229,0.168084 0.026463,0.3357054 0.033827,0.3724858 0.014689,0.07338 0.4232947,0.09523 0.4854059,0.025941 z m 0.7327417,-0.387044 c 0,-0.42219184 -0.00306,-0.42601963 -0.3408363,-0.42726229 -0.2222238,-8.1633e-4 -0.2691717,0.0649442 -0.277068,0.38815059 -0.00792,0.323569 0.049479,0.4065363 0.2935688,0.4244322 0.333015,0.024399 0.3243355,0.03474 0.3243355,-0.3853205 z m 0.6530863,0.3320499 c 0.00937,-0.023311 0.026212,-0.2048374 0.037416,-0.4033343 L 7.6366273,0.70862488 7.3318072,0.72404427 7.0269884,0.73955451 7.008073,0.95758032 C 6.997664,1.0775001 7.002023,1.2520424 7.017753,1.3454496 l 0.028601,0.1698345 h 0.2577156 c 0.1417447,0 0.2653872,-0.019048 0.2747619,-0.042449 z M 0.577467,7.0320055 c 0,-0.029388 0.015645,-0.068391 0.0347677,-0.086532 0.0191227,-0.018141 0.0347677,-0.00907 0.0347677,0.020408 0,0.029388 -0.015645,0.068391 -0.0347677,0.086532 C 0.593112,7.0705545 0.577467,7.0614835 0.577467,7.0320055 Z m 0,-1.1232447 c 0,-0.065307 0.0221768,-0.1135436 0.0521531,-0.1135436 0.0286833,0 0.0521531,0.021134 0.0521531,0.046985 0,0.025851 -0.0234698,0.076917 -0.0521531,0.1135526 C 0.58604783,6.011356 0.577467,6.003647 0.577467,5.9087699 Z M 0.7408824,5.2420849 c -0.009738,-0.039094 0.004265,-0.071022 0.0311245,-0.071022 0.0547449,0 0.0653255,0.067121 0.0177119,0.1124456 -0.0171199,0.016327 -0.0390954,-0.00273 -0.048838,-0.041452 z M 0.68230491,4.8456077 c -2.8901e-4,-0.066213 0.0151126,-0.120374 0.0342353,-0.120374 0.0435618,0 0.0435618,0.056781 0,0.1605011 -0.0272546,0.064853 -0.0338058,0.057234 -0.0342353,-0.040091 z M 0.58119609,4.5046959 c -0.00689,-0.2942536 0.0306682,-0.4749454 0.0987496,-0.4749454 0.0134364,0 0.0232535,0.081089 0.0218189,0.1802656 -0.001909,0.1317479 -0.0157524,0.1725557 -0.0514372,0.151603 -0.0391446,-0.022948 -0.0443015,0.014876 -0.0260005,0.1909958 0.0125566,0.1208179 0.009693,0.2321575 -0.006368,0.247423 -0.01605,0.015238 -0.032596,-0.1176343 -0.0367628,-0.295342 z M 1.0468393,3.9762532 c -0.011826,-0.029388 -0.050031,-0.053516 -0.084918,-0.053516 -0.0524603,0 -0.12747763,-0.199259 -0.0942609,-0.2503709 0.0186276,-0.028662 0.266099,0.2557315 0.266099,0.3057911 0,0.067666 -0.059492,0.066395 -0.086921,-0.00182 z M 0.59485115,3.8157521 c -0.0118259,-0.029388 -0.004921,-0.053516 0.0153319,-0.053516 0.0202516,0 0.0368212,0.024037 0.0368212,0.053516 0,0.029388 -0.00689,0.053516 -0.0153318,0.053516 -0.008426,0 -0.0250028,-0.024037 -0.0368213,-0.053516 z M 0.56373439,3.4856704 c 0.0160074,-0.03982 0.007277,-0.052065 -0.0240245,-0.033651 -0.0353389,0.020772 -0.0515282,-0.020317 -0.0575724,-0.1462877 -0.007263,-0.1514034 0.001015,-0.1714491 0.0608442,-0.1473672 0.0519458,0.020862 0.0692536,0.073107 0.0692536,0.2088737 0,0.099557 -0.0165696,0.1810093 -0.0368197,0.1810093 -0.0202516,0 -0.0255069,-0.028209 -0.0116767,-0.062586 z m -0.003652,-0.6328977 c -0.0118259,-0.029388 -0.004921,-0.053516 0.0153319,-0.053516 0.0202516,0 0.0368197,0.024037 0.0368197,0.053516 0,0.029388 -0.00689,0.053516 -0.0153319,0.053516 -0.008426,0 -0.0250013,-0.024037 -0.0368197,-0.053516 z M 0.42811854,2.6747113 c -0.068324,-0.1604468 -0.0728104,-0.1964291 -0.024494,-0.1964291 0.0191227,0 0.0347677,0.034105 0.0347677,0.075829 0,0.041633 0.0179923,0.08499 0.0399827,0.096292 0.0219904,0.011252 0.033014,0.052699 0.0244943,0.092019 -0.0103942,0.047983 -0.0349869,0.02567 -0.0747519,-0.067666 z m 0.0798103,-0.3836789 c 0,-0.044173 0.015645,-0.080273 0.0347677,-0.080273 0.0191227,0 0.0347677,0.0361 0.0347677,0.080273 0,0.044172 -0.015645,0.080274 -0.0347677,0.080274 -0.0191227,0 -0.0347677,-0.0361 -0.0347677,-0.080274 z M 0.27923641,2.0881543 c 0.006368,-0.084263 0.026512,-0.1761566 0.0447444,-0.2042114 0.0210241,-0.032382 0.0274932,0.00816 0.0176836,0.1111672 -0.009321,0.097725 -8.291e-5,0.1621793 0.0232446,0.1621793 0.0212925,0 0.0387151,0.018957 0.0387151,0.041996 0,0.02313 -0.0305966,0.041996 -0.0679904,0.041996 -0.0543453,0 -0.0656641,-0.030749 -0.0563973,-0.1532084 z m 0.10700385,-0.037824 c 0.0118258,-0.029388 0.028388,-0.053516 0.0368212,-0.053516 0.008426,0 0.0153319,0.024037 0.0153319,0.053516 0,0.029388 -0.0165696,0.053516 -0.0368197,0.053516 -0.0202516,0 -0.0271517,-0.024037 -0.0153334,-0.053516 z m -0.0521523,-0.511399 c 0,-0.045896 0.0159015,-0.0683 0.0353359,-0.049796 0.0194344,0.018503 0.0263345,0.056055 0.0153319,0.083448 -0.0298047,0.074196 -0.0506677,0.060319 -0.0506678,-0.033652 z M 0.21819353,0.78418157 c -0.0127504,-0.0195919 -0.0227033,-0.0737421 -0.0221216,-0.12037401 8.6509e-4,-0.0695696 0.00765,-0.0672114 0.0379546,0.0129652 0.0374371,0.0990586 0.0265836,0.17271 -0.0158344,0.10743865 z"
       id="path204"
       sodipodi:nodetypes="ccccscccccscscccccccccccscscccccccsccccsccccccsccccssccscccscccccccsccsccsssscccssccccscccscssscccsccccssccsccccscscscscsccsscccscccssscssccssscscscccccsccsccscscscccssscccscccccccccccccsccccsccssccccssccccccsccccccccscccscccccsccsccccscsccscccscccccccccccccccscccccscsccccccccscccsccccccccccccccsccccccccscscccccscscccsccscccccsccccccccscccscscscccccccccscscccccccccccccccsccccsccccccscscccccccccccccccscccccccscccccccscccccccccsssccssccsccccccsscccccccsccccssccccccccccccccccscsccccccccccccccccccsccccccccccccsccsccccccccccccccccccccccccccccccccccccccccccccsccccsccccssccccccccccsccccccccccscccccccccccccccssccccscsccccccsccccccsccccsccccccccsccccccccsccccccccccsccccscsccccccccsccsccccccccccscccccsccccscccscsccccccsccsssssssscsscscccsscsscsscscccssscccssscccccsscccsssccssccccssssscccssscccssscsscsccccc" />
  </g>
</svg>
