<?xml version="1.0" encoding="UTF-8" standalone="no"?>
<svg
   xmlns:dc="http://purl.org/dc/elements/1.1/"
   xmlns:cc="http://creativecommons.org/ns#"
   xmlns:rdf="http://www.w3.org/1999/02/22-rdf-syntax-ns#"
   xmlns:svg="http://www.w3.org/2000/svg"
   xmlns="http://www.w3.org/2000/svg"
   xmlns:sodipodi="http://sodipodi.sourceforge.net/DTD/sodipodi-0.dtd"
   xmlns:inkscape="http://www.inkscape.org/namespaces/inkscape"
   width="40"
   height="40"
   viewBox="0 0 39.999994 39.999995"
   version="1.1"
   id="svg71"
   sodipodi:docname="racquet.svg"
   inkscape:version="1.0.1 (3bc2e813f5, 2020-09-07)">
  <metadata
     id="metadata159">
    <rdf:RDF>
      <cc:Work
         rdf:about="">
        <dc:format>image/svg+xml</dc:format>
        <dc:type
           rdf:resource="http://purl.org/dc/dcmitype/StillImage" />
        <dc:title></dc:title>
      </cc:Work>
    </rdf:RDF>
  </metadata>
  <defs
     id="defs157" />
  <sodipodi:namedview
     pagecolor="#ffffff"
     bordercolor="#666666"
     borderopacity="1"
     objecttolerance="10"
     gridtolerance="10"
     guidetolerance="10"
     inkscape:pageopacity="0"
     inkscape:pageshadow="2"
     inkscape:window-width="1366"
     inkscape:window-height="745"
     id="namedview155"
     showgrid="false"
     inkscape:zoom="11.775"
     inkscape:cx="20"
     inkscape:cy="20"
     inkscape:window-x="-8"
     inkscape:window-y="-8"
     inkscape:window-maximized="1"
     inkscape:current-layer="svg71" />
  <ellipse
     style="fill:#000080;stroke-width:1.32706"
     id="path170"
     ry="19.936705"
     rx="19.990561"
     cy="20.012339"
     cx="19.97547" />
  <ellipse
     style="fill:#ffff00"
     id="path172"
     cx="17.970276"
     cy="1.0191083"
     rx="0.033970278"
     ry="0.33970276" />
  <path
     style="fill:#ffffff;stroke:none;stroke-width:0.072785"
     d="m 17.949253,29.482341 v -0.07604 c 0.667771,-0.646963 1.413427,-1.789335 1.811371,-2.661456 0.670905,0.797373 1.455017,1.834882 1.881038,2.813538 -0.520416,0.401802 0.299994,1.235146 0.548498,1.596872 0.883461,1.285713 1.820988,2.546027 2.645093,3.87812 0.235476,0.380516 0.354539,1.366699 0.986496,1.121997 0.36096,-0.139763 1.029491,-0.645675 0.946513,-1.122225 -0.08011,-0.460272 -0.663936,-0.843221 -0.920525,-1.216431 -0.743704,-1.08185 -1.484414,-2.170232 -2.205899,-3.269794 -0.43285,-0.65966 -0.80627,-1.608435 -1.651831,-1.444793 -0.353847,-0.913714 -1.21021,-2.144368 -1.88104,-2.813538 v -0.07604 c 0.956962,-0.9271 1.671269,-2.37387 2.430303,-3.497918 0.926865,-1.372546 2.194752,-2.795971 2.864479,-4.334369 1.859786,1.230046 4.166013,0.840336 5.921791,-0.430926 2.64439,-1.914734 4.716112,-5.750424 3.801928,-9.3024009 C 34.97538,8.0561488 34.754115,7.4779872 34.429949,6.9740178 32.126717,3.3930653 27.682379,5.484265 25.548373,8.0388857 c -1.645278,1.9694703 -2.559678,4.9811973 -1.911416,7.6038693 0.146446,0.592365 0.401639,1.177281 0.732843,1.672918 0.149507,0.22379 0.517776,0.535709 0.494572,0.836457 -0.05046,0.652967 -0.999388,1.610412 -1.34975,2.129169 -1.220095,1.806823 -2.597781,3.570528 -3.68433,5.474992 -1.348285,-1.700673 -2.515367,-3.651213 -3.721953,-5.474992 -0.352449,-0.532752 -1.298542,-1.474831 -1.370295,-2.129169 -0.03622,-0.330172 0.406298,-0.669241 0.568904,-0.912499 0.356284,-0.533127 0.600192,-1.183664 0.731659,-1.825001 C 16.661928,12.37434 15.314749,9.068393 13.211823,7.0720635 11.005222,4.9773547 7.0807454,3.9529517 5.1553102,7.0500275 4.8503907,7.5405091 4.6305364,8.0759133 4.4855661,8.6469029 c -0.6631563,2.6118151 0.3563352,5.4427561 1.871953,7.4520731 1.3253693,1.757094 3.4025886,3.09748 5.5306089,3.040527 0.508086,-0.01354 1.05408,-0.122351 1.532698,-0.309869 0.213112,-0.08355 0.520071,-0.346752 0.754224,-0.26554 0.499664,0.173375 1.051988,1.418404 1.361808,1.869257 0.832045,1.210885 1.642142,2.438574 2.473216,3.649992 0.421843,0.61487 1.00921,1.279705 1.305093,1.977084 0.227046,0.535027 -0.749697,1.56045 -1.028095,1.97708 -0.193881,0.290099 -0.408115,0.737074 -0.69828,0.92102 -0.245648,0.15573 -0.498962,0.0705 -0.721836,0.312985 -1.022795,1.112794 -1.829828,2.666244 -2.687865,3.936826 -0.344159,0.509704 -1.715157,1.70637 -1.164918,2.334476 0.233939,0.267054 0.73702,0.766576 1.102289,0.620196 0.477014,-0.191322 0.447897,-0.81654 0.714446,-1.20686 0.779517,-1.14138 1.560841,-2.281624 2.343146,-3.42073 0.33629,-0.489556 1.33094,-1.458553 0.775199,-2.05312 M 9.0317293,6.13755 V 6.213588 L 8.8923955,6.3656752 9.1710703,6.289632 9.1013909,5.985463 h 0.069679 L 9.8677474,6.289632 C 10.195051,6.0965992 10.662457,6.340547 10.843101,6.6698378 l -0.278669,0.2281248 c 0.344925,-0.1872956 0.867853,-0.4641424 0.975353,0.1520812 0.364713,-0.033457 0.524113,0.2076589 0.696678,0.5322937 0.263696,-0.143526 0.401778,0.07071 0.557351,0.3041694 h -0.278676 l 0.209002,0.3041616 c 0.304242,-0.4891789 0.980169,0.5621541 0.975358,0.9125005 l 0.487679,0.5322936 -0.418011,0.3802064 0.278668,0.07604 -0.06967,-0.2281256 0.278675,-0.152087 0.209006,0.6843746 c 0.343045,0.21319 0.349244,0.502082 0.139334,0.836462 l 0.27867,0.07604 -0.06965,-0.228125 h 0.06965 l 0.06966,0.836461 c 0.289619,0.06738 0.274286,0.400434 0.278677,0.68437 l -0.278677,-0.152082 -0.139336,0.532289 c 0.37656,-0.14364 0.684977,0.139008 0.418009,0.532293 0.242863,0.379595 0.152507,0.834177 -0.139333,1.140625 h -0.06965 l -0.139339,-0.152082 -0.139336,0.456243 0.627018,-0.380206 -0.209008,0.304168 c 0.0742,0.378461 -5.97e-4,0.595864 -0.278674,0.836457 0.188385,0.36827 -0.231579,0.823988 -0.418004,1.140625 l -0.278675,-0.152082 0.139333,0.228126 v 0.07604 c -0.210397,0.188586 -0.300753,0.260065 -0.557343,0.152086 0.03032,0.385224 -0.166858,0.528639 -0.487675,0.380207 l 0.06966,0.228127 -0.487676,0.228123 -0.06965,-0.45625 -0.348343,-0.152088 0.06965,0.380215 0.278675,0.228123 -0.55735,0.152081 -0.209002,-0.304161 0.06968,0.228118 c -0.239454,0.12502 -0.406654,0.179236 -0.627015,0 h -0.06966 l -0.348342,0.07604 0.418009,-0.45625 -0.418009,-0.152081 0.139334,0.228125 v 0.07604 c -0.215424,0.192085 -0.33818,0.295349 -0.557354,0.07604 h -0.48768 l 0.139334,-0.228127 C 9.9976145,17.825815 9.8318033,17.850454 9.6587485,17.543779 L 9.3800724,17.619829 9.589081,17.315667 9.3104073,17.163585 9.3800633,17.467748 8.7530532,17.239623 8.9620534,16.859416 C 8.4389081,17.155851 8.3378261,16.683712 7.9866951,16.327148 l 0.069679,0.304167 -0.4876762,-0.380206 v -0.07604 l 0.2090002,-0.152079 0.2090086,0.304163 -0.4180088,-0.608331 0.069655,0.304168 -0.069655,0.07604 C 7.2744808,15.988508 7.1046326,15.843345 7.1506837,15.490668 L 6.5933399,15.11046 V 15.03442 L 6.7326738,14.882338 C 6.3903516,14.865987 6.2541032,14.632536 6.3146639,14.274004 6.0034463,14.167693 5.9060709,13.931058 5.9663227,13.589629 L 5.5483188,13.057335 5.8269889,13.209424 5.6876526,12.981293 v -0.07604 l 0.1393363,-0.152081 -0.2786701,0.07604 -0.139341,-0.684373 C 5.2496237,12.020513 5.0816616,11.507614 5.3393103,11.460463 L 5.1303077,10.2438 h 0.069655 L 5.4786389,10.16776 C 5.0557661,10.146481 5.1130417,9.7280828 5.2696332,9.4073372 h 0.069679 L 5.54832,9.6354626 5.4089802,9.4073372 v -0.076041 l 0.2786737,-0.3041691 -0.34834,0.228131 0.069656,-0.760418 0.2090085,0.1520812 C 5.4904006,8.2508301 5.666244,8.0196405 6.035982,8.1906706 L 6.175317,7.6583835 5.8269758,7.8104649 C 5.9114771,7.5479625 5.9843952,7.4255061 6.2449845,7.4302583 L 6.1753051,7.1260898 6.6629813,6.9740084 6.5933019,6.7458833 7.220312,6.6698399 7.1506445,6.4417153 7.6383207,6.2135899 8.0563306,6.8219278 7.7079941,6.1375524 H 9.031683 m 21.457791,-0.1520877 0.139334,0.1520877 0.627018,-0.076043 -0.06968,0.2281254 c 0.271496,-0.1912693 0.381018,-0.142724 0.627016,0.076043 v 0.076038 L 31.604156,6.745884 31.882831,6.441716 h 0.06966 L 32.1615,6.5938026 31.952491,6.2896344 c 0.464618,-0.063924 1.132454,0.4487492 1.420468,0.8364562 0.134945,0.1816534 0.626661,0.5943505 0.251569,0.684375 0.364714,0.4171033 0.783068,0.8065548 0.696678,1.444793 l -0.209001,-0.07604 0.06968,0.3041626 0.209001,-0.076042 v 0.8364558 l 0.139341,-0.07604 v 0.07604 0.07604 l -0.278674,-0.07604 -0.06966,0.304169 0.139335,-0.152088 h 0.06966 c 0.148746,0.309091 0.122544,0.518918 0,0.836463 l -0.209,-0.07604 0.139335,0.152082 v 0.07604 l -0.139344,0.228125 0.278676,-0.228125 -0.139341,0.760412 -0.278669,-0.152082 c 0.259927,0.399449 0.164486,0.88117 -0.348342,0.684377 l 0.348342,0.304162 c -0.03344,0.177259 -0.255127,0.854028 -0.348342,0.380211 l -0.208979,0.304163 c 0.51353,0.06349 -0.194994,1.042227 -0.348337,1.292704 l -0.696685,-0.456242 0.139335,0.456242 0.13934,-0.152079 h 0.06968 c 0.185314,0.312536 0.114476,0.462788 -0.06968,0.760419 l -0.34834,-0.152087 0.06968,-0.22812 h -0.348344 l 0.487679,0.456245 v 0.07604 l -0.627012,0.304171 0.139333,0.15208 v 0.07604 l -0.557337,0.38021 -0.208999,-0.152082 v 0.304163 l 0.208999,-0.07604 -0.208999,0.228125 v -0.152088 l -0.209011,0.30417 -0.278668,-0.07604 0.06968,0.228123 -0.766352,0.45625 -1.114687,0.380207 0.06968,-0.228118 h -0.06968 c -0.14401,0.233444 -0.246974,0.23641 -0.487682,0.152079 0.08675,0.236716 -0.305146,0.31177 -0.348336,0.07604 -0.276862,0.157787 -0.467963,0.162505 -0.627015,-0.152082 h -0.27867 l 0.06965,0.228124 c -0.241747,-0.01886 -0.415293,-0.03415 -0.487676,-0.304162 -0.403797,0.168886 -0.774848,-0.143872 -1.114693,-0.38021 l 0.06966,-0.228127 c -0.407135,0.06357 -0.479729,-0.242041 -0.348336,-0.60833 l -0.209008,0.228123 h -0.06966 c -0.175908,-0.249344 -0.22649,-0.380968 -0.139331,-0.684376 l -0.20901,0.152082 -0.209,-0.532288 0.278667,0.152081 -0.139334,-0.456249 -0.209003,0.15208 c -0.158563,-0.335949 -0.237642,-0.738363 0.209003,-0.760413 l -0.278668,-0.228125 -0.209007,0.228125 0.139333,-0.380204 -0.06968,-0.532295 -0.139334,-0.380207 0.209002,0.07604 -0.06968,0.304171 h 0.487682 l -0.06966,-0.608337 c -0.417794,0.304164 -0.661774,-0.06099 -0.348336,-0.456249 l -0.139335,-0.228125 0.418009,0.228125 -0.348343,-0.304169 0.139341,-0.760414 0.278669,0.152082 c -0.189359,-0.300441 -0.154731,-0.446821 0,-0.760413 l -0.139334,0.07604 0.06966,-0.228125 0.487677,0.304168 -0.278675,-0.228125 0.06968,-0.228125 -0.209006,0.07604 0.209006,-0.608332 h 0.139334 l 0.06968,0.07604 -0.139333,0.380207 0.487675,-0.152083 -0.06965,-0.456249 -0.278674,0.152082 0.139334,-0.6843757 c 0.232141,0.144406 0.22559,0.2659422 0.13934,0.5322937 0.355865,-0.2534842 0.501473,-0.02338 0.836019,0.152082 V 10.0917 c -0.310999,0.03223 -0.444696,-0.1168778 -0.418009,-0.4562497 -0.870369,0.3735847 0.350503,-1.0843335 0,0 l 0.208989,-0.3041685 0.278676,0.1520814 -0.06968,-0.4562506 c -0.777496,0.3338989 0.145887,-1.0320961 0.06968,-0.07604 l 0.418007,-0.07604 -0.06968,-0.4562499 h -0.418 V 8.3427407 L 26.866779,7.9625282 27.354456,7.4302404 27.21512,7.7344029 c 0.369726,-0.1710299 0.545568,0.060163 0.418003,0.4562498 l 0.55735,-0.076023 -0.139343,-0.5322936 c -0.308628,0.1351188 -0.468583,-0.00115 -0.627009,-0.3041627 0.225721,0 1.015901,-0.5919894 0.627009,0.3041627 L 28.538811,7.4302553 28.469148,6.9740054 C 28.245097,7.07101 28.171044,7.0535726 28.051139,6.8219243 L 28.60849,6.593799 28.538815,6.8979617 28.956825,6.82192 C 28.762392,6.2759448 29.592344,6.0743451 29.374841,6.74588 l 0.55735,-0.076043 C 29.636156,6.1881051 29.998333,6.0056482 30.41985,6.13755 L 29.932176,6.6698376 V 7.0500445 L 30.210843,6.8979623 30.628853,6.2896315 30.48952,5.9854623 M 8.3350565,6.13755 C 8.4393447,6.4980802 8.4272892,6.7272954 8.0563816,6.8219249 L 7.638373,7.2781747 7.3597053,6.6698374 7.638373,6.4417128 6.6630205,6.9740063 6.7326762,7.2021307 6.1753336,7.6583813 6.384341,7.5823404 C 6.5277223,8.0124809 6.5958708,8.4591976 6.0359986,8.1906712 6.1089559,8.567954 5.9685163,8.7506688 5.6179887,8.646922 L 5.6876562,9.0271277 6.1753313,9.5594215 5.82699,9.8635898 H 5.7573225 L 5.54832,9.6354655 5.4786406,10.167753 5.8269758,10.015672 c 0.2392449,0.647782 0.014168,0.80706 -0.4876762,0.380206 0.1255822,0.324524 0.2547081,0.485711 0,0.760418 v 0.07604 l 0.4180087,-0.22813 0.2786748,0.608337 -0.4180086,0.228125 -0.2786749,-0.380211 0.2786749,0.380211 v 0.07604 l -0.2090086,0.228121 c 0.3928365,-0.09871 0.5181597,0.23246 0.4180099,0.608337 l 0.2090073,-0.15208 H 6.10565 c 0.1891,0.386675 0.2507342,0.605519 -0.1393421,0.836456 L 5.896641,13.209424 H 5.826962 l 0.4876763,1.064581 0.2090073,-0.07604 0.2090026,0.684374 0.2090084,-0.07606 0.2090015,0.684374 0.4180086,0.228123 -0.2090013,-0.380205 0.34834,-0.304168 h 0.069667 l 0.3483447,0.608332 -0.2786688,0.228128 0.2786688,-0.228128 h 0.06968 l 0.3483353,0.608341 -0.2786677,0.228125 0.2786677,-0.228125 h 0.069679 l 0.6966776,0.9125 C 9.228667,16.858502 9.279,16.729688 9.4497208,16.47921 h 0.069679 L 9.867735,17.087542 9.5890673,17.315664 9.867735,17.087542 h 0.069668 l 0.627018,0.836456 -0.139333,-0.228125 v -0.07604 l 0.348335,-0.304163 h 0.06966 l 0.209008,0.228129 -0.139341,-0.228125 v -0.07604 c 0.374607,-0.234057 0.458354,-0.137487 0.766352,0.152079 v 0.07604 l -0.209001,0.228121 0.557343,0.152087 -0.209008,-0.456255 h 0.627017 l -0.139335,-0.380209 c 0.429155,-0.172842 0.671387,0.0508 0.487677,0.532293 h 0.487676 c 0.03106,-0.351313 0.173263,-0.473284 0.487677,-0.380207 l -0.139342,-0.304168 0.557351,-0.152081 0.278674,-0.532292 h 0.06965 l 0.139348,0.152081 0.209001,-0.532288 -0.418004,0.228124 C 14.298063,15.621383 14.24776,15.46002 14.605161,15.186503 l 0.348337,0.456245 -0.209002,-0.684378 -0.557344,-0.380204 v -0.07604 l 0.487677,-0.304169 0.209001,0.304169 -0.209001,-0.45625 0.487674,-0.228125 0.06968,0.228125 h 0.06965 l -0.06965,-0.456246 c -0.258666,-0.138406 -0.375152,-0.295961 -0.418,-0.608344 -0.488233,-0.153523 -0.424558,-0.80277 0.139334,-0.532286 v -0.532289 c -0.399962,-0.04191 -0.50363,-0.298087 -0.348335,-0.684374 -0.698705,0.160746 -0.499939,-0.867307 0,-0.228131 h 0.06965 l -0.208994,-0.608332 -0.418017,-0.304163 0.209008,0.45625 c -0.375851,0.150992 -0.528005,0.02941 -0.766344,-0.304168 l 0.278657,-0.228125 -0.418008,0.152082 -0.278675,-0.5322883 c 0.35517,-0.1597574 0.469426,-0.093035 0.766352,0.1520812 L 13.699477,9.103168 13.420802,9.1792098 13.281468,8.4948348 12.724118,8.1906653 13.002792,8.7229591 12.515115,8.9510844 C 12.3831,8.5936177 12.2772,8.4542232 12.58477,8.1906651 V 8.1146241 L 12.097095,8.3427492 11.818418,7.8104558 12.16676,7.5062864 C 11.775161,7.6599382 11.459354,7.5856695 11.53975,7.0500367 L 11.261074,7.1260775 10.982407,6.7458709 11.261074,7.2781646 10.7734,7.5062831 10.564397,6.8979522 10.146387,6.2896214 9.5890446,6.7458709 H 9.5193771 L 9.1710739,6.289632 C 9.3274731,6.7131275 9.3759696,6.8188728 9.0317329,7.1260882 L 8.6833906,6.669838 V 6.5938007 L 8.8923979,6.3656763 8.3350553,6.1375511 m 21.3881167,0 -0.209002,0.1520814 0.209002,-0.1520814 m 2.159714,0 V 6.2896325 L 31.743551,6.1375511 h 0.139335 m -24.0355069,0.076038 0.069667,0.076043 -0.069667,-0.076043 m 22.7814779,0.076043 0.278674,0.2281244 -0.348339,0.6083318 h -0.06968 l -0.27867,-0.2281263 0.278674,0.2281254 -0.348341,0.6083309 h -0.06968 L 29.72316,7.4302566 V 7.3542157 L 29.932166,7.0500473 29.72316,7.3542157 29.374818,6.7458846 28.956807,6.8219255 c 0.06271,0.3672864 -0.07609,0.5720615 -0.418009,0.6083309 0.05973,0.3499363 -0.0616,0.5307462 -0.348335,0.6843751 -0.06743,0.4905268 -0.504816,0.6704406 -0.557351,0.07604 -0.350773,0.085588 -0.472696,-0.081632 -0.418003,-0.4562501 l -0.348342,0.2281261 -0.13934,0.4562496 c 0.576092,-0.2989532 0.621441,0.3977202 0.06968,0.4562498 0.06271,0.3672809 -0.07608,0.5720617 -0.418009,0.6083318 l -0.06966,0.6083373 c 0.267942,-0.1646032 0.406722,-0.1927757 0.696681,-0.07604 -0.195699,0.336242 -0.329186,0.47592 -0.696679,0.380206 l 0.278669,0.228125 c -0.225583,0.387676 -0.372653,0.48124 -0.766353,0.304168 l 0.278677,-0.532293 -0.278677,0.380212 -0.278668,-0.07605 c 0.0785,0.332986 -0.08423,0.52967 -0.348342,0.684376 l -0.418008,0.60833 -0.209002,0.608332 c 0.515889,-0.425529 0.666791,-0.116037 0.418011,0.456249 l -0.278677,-0.152081 0.06966,0.45625 0.557343,0.07604 -0.27867,0.608337 -0.209007,-0.07604 -0.209,0.684377 c 0.305629,-0.263487 0.38219,-0.369484 0.766347,-0.228127 l -0.348346,0.608331 h -0.06968 L 24.77671,14.882342 v 0.608332 l 0.278677,-0.304164 h 0.06966 l 0.348343,0.304164 v 0.07604 l -0.557356,0.380207 0.55735,0.684375 c 0.31894,0.0644 0.396898,0.276412 0.348334,0.608332 h 0.06968 l 0.06966,-0.228126 0.487674,0.228126 -0.209006,0.456249 0.209006,-0.304169 0.487677,0.228126 -0.06968,0.22813 0.41801,0.07604 0.06965,-0.760414 c 0.344996,0.204402 0.333221,0.382565 0.208999,0.760414 h 0.06966 c 0.241609,-0.296791 0.538609,-0.303635 0.55735,0.152082 l 0.348336,-0.07604 0.209008,-0.684375 0.348342,0.532295 0.139333,-0.152089 h 0.06965 l 0.209009,0.152089 -0.209008,-0.228131 v -0.07604 l 0.348342,-0.45625 h 0.06968 l 0.278674,0.532288 0.557345,-0.760411 h 0.06968 l 0.209007,0.152079 -0.209007,-0.228125 v -0.07604 l 0.348379,-0.456251 h 0.06966 l 0.278676,0.228124 -0.278676,-0.304168 v -0.07604 l 0.348341,-0.456253 c 0.348825,0.299153 0.294351,0.422031 0.139335,0.836462 l 0.696677,-0.988548 -0.278675,0.380212 c -0.39007,-0.230935 -0.328418,-0.449778 -0.139335,-0.836454 h 0.06966 l 0.208999,0.152089 0.139342,-0.76042 0.209,0.07604 0.20901,-0.684375 c 0.318798,0.283333 0.301938,0.445374 0.139334,0.836457 l 0.348341,-0.456251 h 0.06968 l 0.209002,0.152082 v -0.07604 l -0.208989,-0.07604 0.278667,-0.532294 -0.278667,0.380213 c -0.398341,-0.235949 -0.292655,-0.440122 -0.13938,-0.836446 l 0.418003,0.228118 -0.278669,-0.228118 0.278669,-0.608337 0.209008,0.07604 0.487677,-1.064581 c -0.268988,0.140141 -0.375997,0.0847 -0.627012,-0.07604 v -0.07604 l 0.348338,-0.456251 h 0.06968 l 0.209002,0.152087 -0.209002,-0.228124 v -0.07605 l 0.209016,-0.304164 -0.278677,0.304164 h -0.06967 L 33.48525,10.547954 v -0.07604 c 0.28926,-0.246084 0.400522,-0.354478 0.766349,-0.228125 L 33.972929,10.01566 34.181932,9.4833664 33.903257,9.863578 C 33.540702,9.5420832 33.56335,9.0522123 34.112264,9.1792038 V 8.4948396 L 33.903255,8.7990079 C 33.493193,8.6431938 33.533946,8.4238991 33.694253,8.038589 33.397328,8.2837063 33.283073,8.3504276 32.927902,8.1906702 L 33.206578,7.6583832 33.624585,7.8104646 33.415578,7.354214 C 33.13203,7.3221107 33.025231,7.2080566 32.997568,6.8979643 l -0.557342,-0.076042 0.06966,-0.3041691 -0.348337,0.076043 0.139335,0.1520812 v 0.076042 C 32.030228,7.0521188 31.665375,7.312992 31.604204,6.7458784 L 31.046868,6.5937996 V 6.5177566 L 31.186201,6.2896317 30.977203,6.5177562 H 30.90754 L 30.628861,6.2896325 m -20.412766,0.912498 0.278675,-0.07604 c 0.157726,0.2545745 0.24363,0.3917733 0.139335,0.6843751 h 0.348341 L 10.91277,7.58234 c 0.380879,-0.2244154 0.685123,-0.1499545 0.696686,0.3802068 0.293582,0.094332 0.435917,0.2711264 0.418009,0.6083376 0.320058,0.1068754 0.472491,0.3350824 0.348342,0.684374 0.460507,-0.2714205 0.76363,-0.6407214 1.045021,0.076042 l -0.557342,0.4562447 c 0.327857,0.1053405 0.479106,0.3278229 0.348339,0.6843749 0.372303,-0.03481 0.556226,0.231418 0.418003,0.608331 0.378374,-0.03492 0.566616,0.224573 0.41801,0.608332 0.615178,-0.05674 0.582289,0.824597 0,0.532293 l 0.06968,0.380206 0.487676,0.45625 v 0.07604 l -0.139336,0.152081 c 0.299501,0.01401 0.42142,0.174365 0.557344,0.45625 L 14.67486,14.045871 H 14.60518 L 14.465849,13.89379 c -0.01403,0.349333 -0.183088,0.490997 -0.487683,0.380206 0.169783,0.342719 0.794636,1.115377 0,1.064582 l -0.06968,0.304162 0.55735,0.380213 v 0.07604 c -0.282855,0.236567 -0.416138,0.242344 -0.696685,0 l 0.209002,0.45625 c -0.303266,0.171473 -0.430409,0.160597 -0.696679,-0.07604 l 0.209001,0.456251 -0.487675,0.228125 -0.06965,-0.684376 c -0.372234,0.03428 -0.530593,-0.253905 -0.766351,-0.532292 l -0.139331,0.304168 0.278674,-0.07604 c 0.26996,0.436632 0.154519,0.909533 -0.348342,0.53229 0.09892,0.308881 0.04821,0.433892 -0.13934,0.684371 H 11.7488 l -0.278668,-0.684366 -0.348342,-0.152085 0.139334,0.228125 v 0.07604 l -0.348343,0.304169 h -0.06966 l -0.209001,-0.228123 0.139335,0.228123 v 0.07604 c -0.344669,0.288283 -0.499473,0.190793 -0.766375,-0.152074 v -0.07604 l 0.13934,-0.152086 -0.5573439,-0.380206 v -0.07604 l 0.139335,-0.152074 -0.4180087,-0.152089 0.1393327,0.380214 C 9.0795904,16.66933 8.7940878,16.584926 8.7530545,16.099014 L 8.2653783,15.642766 v -0.07605 l 0.139335,-0.152078 c -0.3440871,-0.0161 -0.5289162,-0.24394 -0.4180039,-0.608332 l -0.4180111,-0.152082 0.139341,0.380207 C 7.3383062,15.243475 7.0524603,15.140747 7.0113545,14.654229 6.754169,14.516893 6.619821,14.360173 6.5933459,14.045897 L 6.1056768,13.589625 v -0.07604 l 0.3483436,-0.304163 h 0.069655 l 0.139335,0.152082 0.1393398,-0.45625 -0.3483422,0.152082 C 6.2810581,12.761987 6.2112849,12.606027 6.3843528,12.296919 L 6.0360105,12.449 C 5.8242596,12.106434 5.7455281,11.680372 6.2450118,11.688582 l 0.069667,-0.304163 -0.2090025,0.07604 C 5.7378855,10.873102 6.0391209,10.733525 6.4540191,10.319843 L 6.2450107,10.471925 H 6.1753313 L 5.8269913,9.8635929 6.3146674,9.6354686 C 6.1212825,9.3145886 5.7301527,8.464146 6.4540085,8.7990122 6.423613,8.4081765 6.6161499,8.2553748 6.9416846,8.4187999 L 6.87201,8.0385933 C 6.4555631,7.821204 6.3894988,7.5409008 6.732675,7.2021374 h 0.06968 l 0.1393338,0.1520813 0.27867,-0.532287 h 0.069679 L 7.638372,7.2781814 v 0.07604 L 7.4293704,7.5823481 7.6383717,7.4302666 h 0.069679 L 7.8473875,7.5823481 C 7.8597983,7.2702105 7.9803163,7.1400375 8.2653961,7.1260984 L 8.6833988,6.6698481 9.1710822,7.3542227 C 9.343985,6.7147076 10.547708,6.269034 10.216086,7.2021412 M 31.81321,7.506304 32.30089,6.8219355 c 0.406439,0.1875312 1.351069,1.2343112 0.348342,1.140619 0.210114,0.2471684 1.693002,1.4793468 0.487675,1.3687502 l 0.139335,0.3802056 c 0.783489,-0.081238 0.157659,0.7309577 0,1.0645867 l 0.557343,0.07604 -0.557343,0.988544 0.209,-0.228125 h 0.06968 l 0.348337,0.304169 v 0.07604 l -0.557344,0.380207 0.139335,0.152086 v 0.07604 l -0.557343,0.380207 0.13934,0.152087 v 0.07604 c -0.403317,0.495408 -0.941427,1.819293 -1.602371,1.444788 0.397805,0.533505 -0.117186,0.975916 -0.41801,1.444788 l -0.348343,-0.152082 c 0.173054,0.309107 0.10324,0.465069 -0.06968,0.760418 l -0.348329,-0.152116 c 0.173129,0.310402 0.09078,0.45929 -0.06966,0.760418 l -0.418009,-0.456252 -0.41801,-0.07604 c 0.185319,0.312536 0.114463,0.462788 -0.06968,0.760417 L 28.887153,17.087536 H 28.60848 l -0.209007,0.684375 -0.41801,-0.45625 c -0.285077,-0.01396 -0.405606,-0.144099 -0.418009,-0.45625 l -0.139333,0.152084 h -0.06966 l -0.209008,-0.152084 0.209008,0.228125 v 0.07604 l -0.348342,0.456246 c -0.342702,-0.219453 -0.803272,-0.513275 -0.766352,-0.988537 -0.320821,0.148436 -0.51798,0.0053 -0.487674,-0.380206 l -0.557333,-0.07604 0.487675,-0.9125 -0.557343,-0.152081 v -0.07604 L 25.682433,14.654206 25.5431,14.502125 v -0.07604 l 0.139333,-0.228126 -0.209,0.228126 h -0.06966 l -0.348334,-0.304156 v -0.07604 l 0.557343,-0.380211 c -0.152923,-0.154285 -0.462877,-0.361269 -0.479525,-0.610992 -0.0355,-0.53282 0.512894,-0.371694 0.61886,0.0029 l 0.487675,0.152082 -0.06965,0.304168 0.348342,-0.07604 -0.557345,-0.684375 -0.487675,-0.380205 -0.487678,-0.228125 0.487678,-0.532288 0.209,-0.608337 0.487678,0.228125 -0.06968,0.228124 h 0.348342 l 0.139334,-0.684374 0.278675,0.07604 0.139333,-0.684374 0.278676,0.07604 -0.06965,-0.3802071 -0.55735,-0.1520862 0.487677,-0.5322878 c 0.03046,-0.7462915 0.526483,-0.4270061 0.905686,-0.2281254 0.02371,-0.3087389 0.143869,-0.5097753 0.418008,-0.6083375 0.0265,-0.3142634 0.160798,-0.4710383 0.418012,-0.6083311 0.0404,-0.4784799 0.33183,-0.6093975 0.696683,-0.3802057 l -0.06968,0.3041625 C 29.879516,7.5071085 30.11026,7.8437616 30.419868,8.0388518 30.215036,7.6711151 30.371333,7.3730637 30.7682,7.3544367 30.490088,6.4406883 31.64588,6.9125653 31.813225,7.5065171 M 9.5890802,6.8979979 C 9.7568369,7.2995797 9.807141,7.4609598 9.4497381,7.7344542 L 9.1710703,7.3542477 9.3800717,7.8865413 8.9620618,8.1146667 8.6833882,7.5063288 8.9620618,7.3542477 v -0.07604 L 8.5440531,7.5063327 8.2653842,7.126127 8.5440531,7.5063327 v 0.07604 L 8.1957167,7.8865418 H 8.1260373 L 7.8473708,7.5823733 8.056371,7.8865418 v 0.07604 C 7.7203694,8.1725027 7.2946268,8.120201 7.4293633,7.5823771 L 7.1506896,7.658418 6.941687,7.3542554 7.1506896,7.810506 6.8720136,7.9625866 v 0.07604 l 0.278676,-0.2281237 h 0.06968 L 7.568713,8.4188339 H 6.9417001 C 7.0055482,8.8562399 6.810434,8.9699835 6.4540239,8.79904 L 6.3146817,9.4834149 C 6.691118,9.3077441 6.8348283,9.4644908 7.0810339,9.7875834 L 6.7326928,10.091753 H 6.6630134 L 6.3843457,9.6354965 h -0.06968 l 0.139341,0.6843745 0.2786665,-0.07604 c 0.148049,0.400802 0.1926596,0.49549 -0.069655,0.836456 H 6.5933392 L 6.244998,10.624038 6.314666,11.384457 6.6630096,11.23237 c 0.1677697,0.401581 0.2180666,0.562937 -0.1393351,0.836462 L 6.2449997,11.68862 6.3843406,12.29695 6.593342,12.22091 6.8023494,12.905285 c 0.4648887,0.121583 0.4626643,0.527729 0.069655,0.760413 L 6.6630037,13.36153 6.8720039,13.665694 v 0.07604 L 6.5933374,14.045906 6.8720039,13.81778 h 0.06968 l 0.3483424,0.608332 -0.2786749,0.228125 0.2786749,-0.228125 h 0.06968 l 0.2090013,0.228125 c -0.1373882,-0.654873 0.353288,-0.409334 0.6270152,-0.152081 v 0.07604 L 7.9867142,14.806321 8.1957204,14.65424 h 0.069679 l 0.3483423,0.456249 v 0.07604 l -0.2090084,0.228124 0.2090084,-0.15208 h 0.069655 L 9.0317412,15.87091 8.7530723,16.099036 9.0317412,15.87091 h 0.069679 l 0.2090085,0.228126 c -0.1396861,-0.665754 0.352521,-0.392153 0.6270117,-0.152093 v 0.07604 l -0.2090025,0.228126 c 0.3030531,-0.0762 0.4014991,0.10691 0.6270111,0.304161 v 0.07604 l -0.209003,0.228123 0.209003,-0.152088 h 0.06968 l 0.209001,0.228131 c -0.08666,-0.413058 0.162465,-0.558758 0.487675,-0.380209 -0.130556,-0.67152 0.596013,-0.496854 0.348342,0.152082 h 0.487679 l 0.06965,-0.456244 -0.278676,0.152079 c -0.160028,-0.386228 -0.243762,-0.60652 0.139344,-0.836467 l 0.278667,0.380207 -0.278667,-0.532293 c 0.398081,-0.15619 0.537139,-0.08966 0.766343,0.304168 l -0.348336,0.304168 c 0.391602,-0.15368 0.707408,-0.07939 0.627011,0.45625 H 13.2815 l -0.06965,-0.228125 0.348342,-0.304168 h 0.06965 l 0.13934,0.15208 0.139335,-0.456248 -0.348336,0.152086 c -0.157941,-0.427661 -0.06564,-1.031809 0.348336,-0.456249 h 0.06965 l -0.208984,-0.532294 0.278669,-0.228127 -0.418008,0.228127 -0.278668,-0.608332 0.418007,-0.228125 0.209003,0.304169 -0.209003,-0.304169 v -0.07604 l 0.487672,-0.304163 0.209007,0.304163 -0.209007,-0.304163 v -0.07604 l 0.209007,-0.228125 c -0.329605,0.01146 -0.457305,-0.16448 -0.627017,-0.45625 l 0.278676,-0.152081 V 12.6011 l -0.278676,0.228125 h -0.06968 l -0.348342,-0.60833 h 0.62701 v -0.53229 c -0.345609,-0.01641 -0.47979,-0.246142 -0.417998,-0.608332 -0.346525,-0.03632 -0.494153,-0.234546 -0.418002,-0.608331 -0.399982,-0.04189 -0.50364,-0.298093 -0.348354,-0.6843581 L 12.515142,10.015709 12.375809,9.2552914 12.097133,9.4073773 12.02747,8.570922 11.609461,8.7230034 V 7.9625843 L 11.261115,8.1907095 10.982446,7.8105039 c 0.106863,0.3694779 0.06883,0.5135027 -0.209007,0.7604181 L 10.634107,7.8105039 10.425105,7.9625843 h -0.06968 L 10.007077,7.5063288 V 7.4302879 L 10.216084,7.2021626 10.007077,7.3542441 H 9.9374012 L 9.5890802,6.8979979 m 18.8800608,0 0.06966,0.07604 -0.06966,-0.07604 m 2.856399,0.1520813 c -0.178566,0.2319043 -0.272895,0.3796724 -0.557352,0.3041685 l 0.209009,0.2281251 v 0.07604 l -0.557344,0.3802122 0.139335,0.1520814 v 0.07604 c -0.497989,0.4293624 -0.736949,0.2863451 -0.487677,-0.380205 l -0.348343,0.4562441 h -0.06968 C 29.457108,8.0802079 29.376707,7.9807147 29.514167,7.6584111 L 29.235491,7.9625796 H 29.16584 L 28.887157,7.7344551 v 0.07604 L 29.16583,7.9625754 28.817488,8.570913 h -0.06966 L 28.46915,8.3427828 28.747825,8.5709138 28.399482,9.179245 h -0.06968 l -0.278668,-0.2281255 0.278675,0.2281254 -0.348342,0.6083308 h -0.06968 C 27.653189,9.4417708 27.692691,9.3507278 27.842142,8.95112 h -0.06968 c -0.202798,0.2603055 -0.323047,0.3069579 -0.627013,0.2281254 v 0.07604 l 0.278675,0.1520861 -0.209001,0.4562507 0.209001,-0.3041685 0.487677,0.3041685 v 0.07604 L 27.563459,10.395912 H 27.4938 L 27.284798,10.24383 v 0.07604 l 0.209002,0.07604 -0.348342,0.60833 h -0.06966 l -0.209,-0.152081 0.209,0.228124 v 0.07604 l -0.34834,0.45625 h -0.06966 l -0.209014,-0.152083 -0.139335,0.760419 c -0.277834,-0.246905 -0.315872,-0.390928 -0.209,-0.760419 l -0.209003,0.304169 -0.418008,-0.152081 v 0.760413 l 0.278669,-0.380207 0.487676,0.304162 v 0.07604 l -0.278669,0.380206 h 0.06968 c 0.460993,-0.566735 0.511152,0.02397 0.34834,0.456251 0.497987,-0.429332 0.796515,-0.254054 0.418009,0.380211 h -0.06968 l -0.208998,-0.152087 c 0.232828,0.533583 -0.163022,0.70833 -0.557342,0.456251 v -0.07604 l 0.209,-0.304168 -0.209,0.304168 -0.348345,-0.152088 0.06966,0.532293 0.209008,-0.228125 h 0.06966 l 0.348341,0.304168 v 0.07604 c -0.216178,0.200142 -0.331136,0.382112 -0.627016,0.304171 l 0.209009,0.228123 v 0.07604 l -0.209009,0.304168 0.209009,-0.304168 0.487674,0.304168 c -0.257848,0.314734 -0.384435,0.458004 -0.766359,0.304168 l 0.278675,0.228127 -0.13934,0.456251 0.209008,-0.304169 c 0.239728,0.212381 0.32786,0.345454 0.278669,0.684376 0.497569,-0.23862 0.526483,0.104177 0.348342,0.532286 l 0.278675,-0.380207 0.278668,0.07604 0.13934,-0.684375 0.487677,0.228124 -0.209009,0.456251 h 0.06968 l 0.13934,-0.304169 c 0.344999,0.204398 0.333225,0.382566 0.209001,0.760418 l 0.278675,-0.380206 0.348344,0.15208 0.06966,-0.760416 c 0.331901,0.218924 0.352661,0.379907 0.209003,0.760416 l 0.487677,-0.304168 0.209008,-0.684373 0.418009,0.228125 -0.20901,0.532293 h 0.06966 l 0.41801,-0.304169 0.209007,-0.684375 0.209003,0.07604 -0.139336,-0.152081 v -0.07604 l 0.348343,-0.45625 0.41801,0.228125 v -0.07604 c -0.394904,-0.425989 0.248623,-0.924595 0.41799,-1.368752 l 0.418009,0.228123 c -0.194658,-0.353978 -0.136765,-0.470698 0,-0.836462 l 0.418001,0.228125 -0.278666,-0.228125 0.278666,-0.60833 0.348343,0.15208 v -0.07604 l -0.209,-0.07604 0.348343,-0.60833 h 0.06966 l 0.209,0.15208 v -0.07604 l -0.209004,-0.07604 0.139334,-0.380207 -0.209002,0.228125 h -0.06968 L 32.649225,11.764643 V 11.6886 c 0.281339,-0.256717 0.403886,-0.35307 0.766367,-0.22813 v -0.07604 c -0.196115,-0.208285 -0.202313,-0.321518 -0.139336,-0.608337 l -0.209002,0.304168 C 32.634406,10.69868 32.792898,10.249642 33.345924,10.471925 33.195092,10.179459 33.16932,10.027987 33.276269,9.7115075 L 32.997586,10.091745 C 32.665344,9.7971155 32.6149,9.3561472 33.136927,9.3313263 L 33.276262,8.646952 c -0.296928,0.2451165 -0.411109,0.3118495 -0.76635,0.1520803 L 32.788584,8.2667455 32.509912,8.646952 C 32.116775,8.4140574 32.200375,8.2018983 32.370577,7.8104957 l 0.278675,0.1520805 0.139332,-0.7604123 c -0.286892,0.2442498 -0.40352,0.3742595 -0.766352,0.2281252 0.378581,0.7353166 -0.482866,0.9076013 -0.209,0.07604 h -0.06968 C 31.245146,8.1129332 31.34352,7.3700287 31.325547,7.0500805 m -19.089073,0.2281245 -0.06965,0.076042 0.06965,-0.076042 m -2.229383,0.2281251 1.114694,1.5968754 c -0.394459,-0.8766054 0.598244,-0.7574949 0.348343,-0.076042 0.430825,-0.040249 0.570861,0.3119731 0.348335,0.684375 0.385342,-0.1477394 0.64464,0.1043107 0.487684,0.5322935 0.438976,-0.04049 0.579079,0.305483 0.348336,0.684375 0.451172,-0.172027 0.675155,0.186072 0.41801,0.608332 0.363879,-0.138699 0.514151,0.03984 0.696682,0.380206 l -0.348342,0.304168 h -0.06968 l -0.209007,-0.228125 0.139342,0.228125 v 0.07604 l -0.139342,0.15209 0.557351,0.380205 v 0.07604 l -0.139335,0.152082 0.557344,0.380206 v 0.07604 l -0.557344,0.152082 0.06966,0.304168 -0.487677,0.152082 -0.06968,0.304168 0.209009,-0.07604 c 0.367777,0.58735 0.06655,0.726961 -0.348344,1.140624 l 0.208998,-0.15208 h 0.06968 l 0.348344,0.608331 -0.487684,0.228125 -0.139332,-0.684375 -0.278678,0.07604 -0.278667,-0.532293 0.487677,-0.228125 0.209,-0.380206 c -0.511296,0.320974 -1.371355,1.485089 -1.95071,1.064582 0.127911,0.399371 -0.0447,0.643693 -0.41801,0.456248 l 0.139333,0.228126 v 0.07604 l -0.348335,0.304155 h -0.06966 L 9.658737,15.338624 9.0317198,15.718831 c -0.1857306,-0.348807 -0.2390999,-0.506589 0,-0.836455 L 8.753051,15.110497 H 8.6833716 C 8.460236,14.832862 8.3598404,14.680629 8.5440424,14.350075 L 8.1957072,14.502161 7.9170336,13.893824 7.2900235,14.274036 C 7.0992656,13.915803 7.0341277,13.395223 7.5686912,13.589663 7.1418344,12.727881 6.3628005,12.413827 7.2203488,11.612581 L 6.6630063,11.232369 v -0.07604 L 7.2203488,10.624033 6.7326726,10.091747 c 0.386593,-0.218563 0.5544899,-0.09092 0.7663498,0.304163 L 7.2203488,10.624033 7.7776925,10.167784 7.4990224,10.243825 7.2900235,9.6354879 C 6.7812772,9.4720174 6.7953081,8.7660624 7.3597029,9.0271585 L 7.2203619,8.7229958 7.5687031,8.4188274 h 0.06968 L 7.7777181,8.5709143 8.056393,8.0386209 h 0.06968 L 8.3350802,8.2667461 8.1957464,8.0386209 V 7.9625798 C 8.5440816,7.6705997 8.6847469,7.7825671 8.9620915,8.1146679 v 0.07604 L 8.7530866,8.4188344 8.9620879,8.2667531 h 0.069667 L 9.1710965,8.4188344 9.1014171,8.1146718 9.5891004,7.9625838 10.007105,7.506334 m 2.299054,0.076042 0.209002,0.3041683 -0.209002,-0.3041683 m 19.089068,0.5322937 c 0.270589,-0.00462 0.371818,0.1180209 0.487678,0.3802066 l 0.975351,0.6083311 c -0.168738,0.3505047 -0.336218,0.5173458 -0.696679,0.3802058 l 0.209004,0.4562505 0.487675,0.1520863 c -0.102404,0.32467 -0.232829,0.486192 -0.557344,0.456249 l 0.06968,0.456245 0.557341,0.07604 -0.34834,0.608333 h -0.06968 l -0.278667,-0.228126 0.278668,0.304169 v 0.07604 l -0.139333,0.228126 c 0.268641,-0.1787 0.381776,-0.129342 0.627008,0.07604 v 0.07604 l -0.348333,0.45625 h -0.06968 l -0.208996,-0.152096 0.209001,0.228118 v 0.07604 l -0.557346,0.380207 0.13934,0.152089 v 0.07604 l -0.348357,0.456251 h -0.06968 l -0.209007,-0.152082 0.209007,0.228125 v 0.07604 l -0.487673,0.456254 -1.114695,1.824993 -0.418008,-0.456248 h -0.278665 l 0.139332,0.152073 V 16.099 L 29.235488,16.555248 28.817479,16.099 28.469138,16.02296 c 0.134742,0.31884 0.03563,0.481035 -0.139335,0.760412 l -0.348343,-0.532287 -0.557342,-0.152088 0.06965,-0.228123 h -0.34834 c 0.202456,0.552062 -0.391043,0.853412 -0.557345,0.228123 -0.544595,0.05648 -0.400175,-0.406515 -0.209002,-0.760412 l 0.209002,0.07604 v -0.380211 l -0.557345,-0.07604 0.766351,-1.216662 h 0.06966 l 0.208986,0.15208 -0.209002,-0.228125 v -0.07604 l 0.348341,-0.456245 h 0.06968 l 0.209,0.152079 -0.209,-0.228123 v -0.07604 l 0.209,-0.304162 -0.27867,0.304162 h -0.06968 l -0.766337,-0.608322 0.278671,-0.608332 0.348341,0.152081 c -0.290855,-0.49092 0.223708,-0.957231 0.487679,-1.368738 l 0.348345,0.152081 c -0.173122,-0.310409 -0.09078,-0.459268 0.06965,-0.7604176 l 0.348339,0.1520866 c -0.173126,-0.310408 -0.09078,-0.4592616 0.06965,-0.7604186 l 0.278675,0.076042 0.139336,-0.6843742 0.278674,0.07604 0.139334,-0.6843682 1.114688,0.7604122 0.696683,-1.2166685 0.41801,0.4562563 M 5.7573059,7.8865482 l -0.06968,0.076042 0.06968,-0.076042 m 28.1459251,0.02537 c 0.05383,0 0.01115,0.037857 -0.02318,0.02537 l 0.02318,-0.02537 M 9.5890541,7.9625964 9.7980554,8.4948901 9.3800455,8.7230155 9.1710442,8.4188461 9.3800455,8.7230155 v 0.07604 C 9.0054395,9.03314 8.9216996,8.9365181 8.6137017,8.6469749 V 8.5709341 L 8.7530343,8.4188471 8.3350256,8.2667658 8.4743595,8.6469724 7.7776759,8.5709315 7.9866845,9.0271764 H 7.3596732 l -0.069679,0.6083311 c 0.3740443,-0.086061 0.571276,0.1219343 0.4876715,0.5322935 0.4686619,0.0491 0.4836417,0.37092 0.2786736,0.760418 H 7.9866713 L 7.7080274,10.471972 H 7.638348 l 0.2786737,0.532288 -0.3483412,0.304168 h -0.069668 l -0.3483423,-0.45625 0.069679,0.76042 0.3483423,-0.152089 c 0.1551546,0.372836 0.1651154,0.510468 -0.06968,0.836457 H 7.4293573 L 7.0810149,11.840723 c 0.1277757,0.347358 0.1720822,0.497686 0,0.836455 l 0.4180088,-0.228125 c 0.1394739,0.320663 0.2540073,0.4872 0,0.760413 v 0.07604 l 0.418017,-0.228126 0.2786748,0.60833 -0.2786748,0.228125 0.4180086,-0.228125 0.2090015,0.684377 0.9753595,0.988541 C 9.2551512,14.655702 9.5530453,14.480271 10.007081,15.03446 l -0.3483369,0.304168 c 0.3810109,-0.131326 0.5641729,-0.04219 0.6966769,0.380209 l -0.278667,0.228123 h 0.627012 l -0.139335,-0.380207 0.557344,-0.07604 c 0.0216,-0.546508 0.336288,-0.391918 0.62701,-0.152082 l -0.27867,-0.532291 0.487678,-0.228125 0.278668,0.380205 c -0.278602,-0.669926 0.02689,-0.783229 0.487677,-0.380205 -0.159678,-0.384011 -0.188445,-0.567119 0.139343,-0.836457 l 0.278667,0.380207 C 12.998511,13.74153 13.019275,13.580471 13.35117,13.361552 l 0.209009,0.304161 -0.209009,-0.304161 v -0.07606 l 0.209009,-0.228124 -0.209009,0.152081 h -0.06968 l -0.34834,-0.456247 v -0.07604 l 0.209001,-0.228125 c -0.344712,0.08607 -0.466285,-0.150336 -0.627011,-0.456251 h 0.627011 l -0.06966,-0.456249 c -0.263482,-0.137793 -0.38805,-0.287501 -0.418009,-0.608335 l -0.209002,0.07605 -0.139334,-0.760414 -0.278675,0.152082 -0.209008,-0.6843745 -0.209,0.076041 -0.139336,-0.760418 -0.348342,0.076041 -0.418009,0.4562497 -0.278668,-0.608332 0.278668,-0.152087 v -0.076042 l -0.41801,0.2281245 c -0.136619,-0.3142115 -0.26174,-0.5001185 0,-0.7604182 V 8.1146515 L 9.8677538,8.3427702 9.589085,7.9625637 m 21.73646,0.152088 c -0.212139,0.2592151 -0.331481,0.2542404 -0.627016,0.1520814 0.172006,0.3373089 0.143027,0.4925901 0,0.8364563 l -0.41801,-0.2281253 0.278675,0.2281253 -0.278675,0.608331 C 29.898184,9.4591623 29.967082,9.2752754 30.141184,8.8750655 L 29.792842,9.3313152 29.374833,9.1031907 29.653508,8.4948598 h -0.06966 c -0.172359,0.239662 -0.272191,0.3793796 -0.557341,0.3041617 l 0.209001,0.2281252 v 0.076042 l -0.348345,0.45625 h -0.06966 l -0.209,-0.1520828 0.209003,0.2281196 v 0.07604 l -0.557344,0.3802125 c 1.99e-4,0.319174 -0.109244,0.567935 -0.418009,0.60833 l -0.209008,0.684376 -0.418004,-0.228125 0.278669,0.228125 -0.278669,0.60833 -0.209008,-0.07604 -0.208999,0.684375 c 0.270652,-0.230175 0.635504,-0.491071 0.696676,0.07604 l 0.139335,-0.15208 h 0.06968 l 0.348335,0.304162 v 0.07604 l -0.557345,0.380205 c 0.07852,0.337094 -0.107205,0.568869 -0.418007,0.608332 l 0.139339,0.152087 v 0.07604 c -0.281325,0.256719 -0.403871,0.353065 -0.766352,0.228126 v 0.07604 l 0.348343,0.228125 v 0.07604 l -0.20901,0.304167 h 0.06968 l 0.139339,-0.304167 c 0.369939,0.32607 0.349874,0.812963 -0.209008,0.684375 v 0.684376 l 0.209008,-0.304165 0.348337,0.07604 c -0.128608,-0.631446 0.588284,-0.709465 0.348342,0 l 0.696683,-0.07604 -0.209006,0.45625 h 0.06966 l 0.13934,-0.304169 0.278668,0.07604 0.139342,-0.684375 0.487677,0.228123 -0.278677,0.532291 0.278677,-0.380207 0.348342,0.152081 0.06967,-0.760415 0.487677,0.304165 v 0.07604 l -0.278676,0.380206 0.278676,-0.380206 0.418009,0.228127 -0.278674,-0.228127 0.278674,-0.608329 0.41801,0.228124 c -0.194658,-0.353973 -0.13676,-0.470699 0,-0.836456 l 0.418007,0.228125 c -0.194656,-0.353974 -0.136763,-0.4707 0,-0.836462 l 0.27867,0.07604 0.209009,-0.684375 h 0.06968 l 0.208982,0.152057 -0.209002,-0.228125 v -0.07604 l 0.557345,-0.380207 -0.139334,-0.152087 v -0.07603 l 0.139334,-0.228117 -0.209003,0.228117 h -0.06968 l -0.348326,-0.304163 0.487676,-0.532294 0.139335,-0.456249 c -0.576083,0.298958 -0.621441,-0.39772 -0.06966,-0.456244 l 0.06966,-0.6083369 C 32.102634,10.10424 31.963848,10.132405 31.67389,10.015673 L 32.161591,9.4833815 32.370595,8.8750504 C 31.929667,9.2387097 31.68785,9.0887792 31.882916,8.4948447 L 31.604243,8.8750504 31.116566,8.5708876 V 8.4948468 L 31.325574,8.1146403 M 10.28579,8.9510956 v 0.07604 l -0.139334,0.1520875 0.557345,0.3802067 v 0.07604 l -0.139335,0.1520874 0.348335,0.07604 -0.06966,-0.3041683 c 0.510114,-0.3211086 0.762869,0.147042 0.418009,0.6083311 l 0.418006,-0.2281229 0.766352,1.1406229 -0.348341,0.30417 h -0.06968 l -0.139338,-0.152087 -0.139342,0.456248 0.209008,-0.15208 h 0.06966 l 0.209,0.228125 -0.139335,-0.228125 v -0.07605 c 0.344649,-0.288276 0.499451,-0.190775 0.766352,0.152089 v 0.07604 l -0.348342,0.304169 h -0.06968 l -0.209008,-0.228126 0.139343,0.228126 v 0.07604 l -0.139343,0.152082 0.278677,-0.07604 c 0.150417,0.271017 1.080142,1.634972 0.139338,1.292706 l 0.06965,0.304171 -2.299043,1.824997 C 10.207114,15.174042 9.7356029,14.74722 9.7980923,14.274018 l -0.2090014,0.07604 -0.2090097,-0.304161 c 0.1135635,0.354806 0.017137,0.510613 -0.2786736,0.684368 L 8.892405,14.0459 8.6833988,14.121944 8.4743975,13.437569 8.2653949,13.513613 8.0563864,12.829238 c -0.5146347,-0.02509 -0.5638913,-0.742771 0,-0.684375 L 7.5687102,11.308406 C 7.9926405,11.036923 8.6072551,10.243474 9.1014076,10.47195 L 9.0317329,10.091735 8.6833893,9.8636097 8.8227315,10.243816 C 8.3873712,10.517878 8.0476037,10.192548 8.3350553,9.7115229 7.9711774,9.8502566 7.8209016,9.6716768 7.6383706,9.331316 L 7.986713,9.0271478 H 8.056392 L 8.2653984,9.255273 8.1260587,9.0271478 V 8.9511069 L 8.474401,8.6469393 H 8.544068 L 8.892411,9.2552704 C 9.1422389,9.0789773 9.2944671,8.9201524 9.5890956,9.027145 L 9.5194162,8.7229824 C 9.8912285,8.5123064 10.017676,8.6282477 10.28576,8.9511069 m 21.666794,0.3802066 -0.278675,0.5322938 -0.278671,-0.07604 0.06966,0.3802067 c 0.476253,-0.07437 0.440097,0.325497 0.278677,0.684374 l -0.418008,-0.15208 0.139331,0.532287 0.557346,0.07605 c -0.09349,0.296867 -0.209078,0.444917 -0.487681,0.532293 l -0.06968,0.456245 c 0.252126,-0.178315 0.364222,-0.148888 0.627012,0 l -0.348336,0.608337 h -0.06968 l -0.209,-0.152088 0.209,0.228125 v 0.07604 l -0.348334,0.456249 h -0.06968 l -0.209004,-0.152082 0.209009,0.228126 v 0.07604 l -0.348342,0.45625 h -0.06968 l -0.20901,-0.152082 0.20901,0.228127 v 0.07604 l -0.348332,0.456234 h -0.06968 l -0.209007,-0.152081 0.209007,0.228124 v 0.07604 c -0.256384,0.329409 -0.672228,0.5351 -0.696685,-0.07604 l -0.139332,0.152082 h -0.06966 l -0.209009,-0.152082 0.209009,0.228126 v 0.07604 l -0.348341,0.45625 h -0.06968 l -0.278673,-0.532294 -0.278676,0.07604 c 0.01721,0.526663 -0.330156,0.619208 -0.696677,0.380206 l 0.06965,-0.228124 c -0.316779,0.04951 -0.444551,-0.114748 -0.418008,-0.456251 l -0.557334,-0.07604 1.393363,-2.205202 c -0.310237,0.205825 -1.094354,-0.113173 -0.975007,-0.610252 0.178135,-0.741909 1.076927,-1.548037 1.462678,-2.2033079 l 0.348344,0.152087 c -0.17313,-0.3104026 -0.09078,-0.4592678 0.06965,-0.760418 l 0.41801,0.4562498 c 0.290304,-0.00462 0.40568,0.1429402 0.41801,0.4562491 l 0.139334,-0.1520809 h 0.06966 L 30.489477,10.015681 30.280471,9.7875561 V 9.7115144 L 30.83782,9.3313079 c -0.155155,-1.0447349 0.777422,-0.2376057 1.114686,0 m -5.643116,-0.3802067 0.06966,0.07604 -0.06966,-0.07604 M 9.5890303,9.0271475 9.7980317,9.3313157 v 0.076042 C 9.4558936,9.6211211 9.3427522,9.6009524 9.101347,9.2552707 H 9.0316723 L 9.3103471,9.8636076 9.0316723,10.091733 9.3103471,9.8636076 h 0.06968 L 9.7283689,10.471938 H 9.1013517 l 0.1393422,0.380207 C 8.9462031,10.970861 8.8251935,10.96022 8.6136827,10.700064 h -0.069679 c 0.1950737,0.593935 -0.046758,0.743837 -0.4876787,0.380205 l 0.278676,0.532295 -0.3483424,0.304163 0.4876774,-0.228125 c 0.1564064,0.423479 0.2048958,0.529251 -0.139335,0.836462 L 8.0563246,12.144852 v 0.684375 c 0.4247724,-0.09825 0.5746953,0.197709 0.4180111,0.60833 l 0.3483412,-0.152082 0.06968,0.760421 H 9.380033 c 0.011399,-0.292309 0.1161397,-0.395494 0.3483435,-0.532294 l 0.069667,0.760417 c 0.4986845,-0.115359 0.5559545,0.281047 0.3483435,0.684372 0.294416,-0.137785 0.415294,-0.11208 0.627009,0.152085 h 0.06966 c -0.195067,-0.593964 0.04676,-0.743843 0.487684,-0.38021 l -0.278677,-0.53229 0.418009,-0.304169 0.348336,0.45625 c -0.164969,-0.396478 -0.171241,-0.541492 0.139341,-0.836455 l 0.348343,0.45625 -0.278675,-0.608331 0.41801,-0.228125 0.209,0.304161 -0.209,-0.304161 v -0.07604 l 0.348341,-0.228125 v -0.07604 c -0.365831,0.126387 -0.477086,0.01799 -0.76635,-0.228117 v -0.07604 L 12.236421,12.2209 c -0.303053,0.07619 -0.401492,-0.106911 -0.627011,-0.304168 v -0.07604 L 11.748744,11.6886 11.191401,11.308394 v -0.07604 c 0.297621,-0.185979 0.404427,-0.198911 0.696684,0 l -0.209004,-0.456259 0.278676,-0.22812 -0.41801,0.22812 -0.627017,-0.9124949 0.209008,0.3041629 v 0.07604 c -0.374615,0.234098 -0.458357,0.137476 -0.766361,-0.152061 v -0.07604 l 0.209008,-0.2281249 -0.209008,0.1520823 h -0.06965 L 9.9373796,9.4834032 V 9.4073623 L 10.146387,9.179238 9.7980459,9.3313194 9.5890446,9.027151 M 31.39517,9.1031919 31.186162,9.4833978 30.837827,9.3313163 c 0.145043,0.3800539 0.04372,0.6427849 -0.348344,0.6843747 l -0.139334,0.684375 -0.487683,-0.304168 v -0.07604 l 0.208994,-0.304163 -0.209009,0.304163 C 29.530553,10.10092 29.509791,9.93992 29.653449,9.5594442 l -0.278673,0.3802067 -0.209003,-0.07604 -0.209007,0.6843751 -0.41801,-0.228131 0.278675,0.228131 -0.278675,0.608331 -0.418002,-0.228125 0.27867,0.228125 -0.27867,0.60833 -0.418008,-0.228124 c 0.194649,0.353973 0.136758,0.470699 0,0.836456 0.317687,-0.273899 0.392301,-0.391386 0.766343,-0.152082 v 0.07604 l -0.139332,0.228132 0.208999,-0.228132 h 0.06968 l 0.348336,0.304169 -0.27867,0.532296 -0.487675,-0.228125 0.348335,0.304161 c -0.248086,0.324854 -0.386932,0.456707 -0.766345,0.30417 0.256654,0.487733 0.09315,0.784523 -0.41801,0.60833 l 0.348343,0.304168 -0.209008,0.380206 c 0.414664,-0.198926 0.567515,0.01406 0.418009,0.45625 l 0.627011,-0.152081 c -0.195068,-0.485224 0.05378,-0.706735 0.487683,-0.532293 l -0.209008,0.456249 0.487677,-0.228125 0.13934,-0.684374 0.487678,0.228125 -0.209008,0.456249 0.209008,-0.304161 0.278667,0.07603 0.139342,-0.684375 0.278667,0.07604 c -0.0785,-0.337088 0.107218,-0.568863 0.41801,-0.608326 l -0.139332,-0.152082 v -0.07604 l 0.557343,-0.380212 v -0.45625 c -0.573508,0.169806 -0.489142,-0.585514 0.06966,-0.456245 l -0.06966,-0.608337 h -0.627012 l 0.487679,-0.532289 0.139333,-0.532294 -0.209003,0.304169 -0.487683,-0.228126 0.348344,-0.6083359 h 0.06966 L 31.39515,9.7875677 31.186139,9.5594436 V 9.4834019 L 31.39515,9.1031963 M 12.654417,9.179238 12.863424,9.5594446 H 12.9331 L 12.654422,9.179237 m -7.3848208,0.07604 -0.06968,0.07604 0.06968,-0.07604 m 2.995732,0 0.069655,0.4562505 0.3483346,0.152088 L 8.5439866,9.5594463 8.892329,9.255278 H 8.2653189 M 9.8676814,9.4834024 10.216024,9.939653 v 0.07604 l -0.209008,0.228125 0.209008,-0.15208 h 0.06966 l 0.348342,0.456249 v 0.07604 l -0.278674,0.304169 0.278676,-0.228124 h 0.06966 l 0.209008,0.228125 -0.139333,-0.228124 v -0.07605 c 0.344646,-0.288278 0.49945,-0.190771 0.76635,0.152082 v 0.07604 l -0.557344,0.152082 c -0.01403,0.349345 -0.183087,0.491002 -0.487677,0.380213 v 0.380205 l 0.557344,-0.456249 h 0.06965 l 0.348345,0.608331 -0.278677,0.228125 0.418011,-0.228125 0.696684,1.21667 -0.487683,0.15208 c -0.08061,0.296334 -0.20336,0.409715 -0.48767,0.380207 l 0.06966,0.228125 L 10.49467,14.578184 10.216004,13.893822 9.7283279,13.361534 10.006996,13.13341 9.1709841,13.741741 C 8.9961402,13.462365 8.8970036,13.300168 9.0317412,12.981323 l -0.2786677,0.152088 c -0.4128614,-0.659736 0.2533791,-1.430115 0.836015,-0.9125 L 9.519421,11.612579 H 9.1710786 l 0.069655,0.228125 c -0.3923007,0.231167 -0.5886987,0.148355 -0.7663497,-0.304168 0.3330834,-0.234617 0.6461027,-0.65639 1.0450259,-0.45625 L 9.3800682,10.776118 9.7284105,10.471954 h 0.069655 L 10.007068,10.70008 9.8677324,10.471954 v -0.07604 L 10.007062,10.24383 9.4497178,9.8636244 V 9.7875837 L 9.8677266,9.4834151 m 19.7857544,1.1406239 0.139333,-0.15208 h 0.06966 l 0.278673,0.532287 0.557342,-0.760413 h 0.06966 l 0.348344,0.304169 -0.487679,0.532288 v 0.304169 c 0.575391,-0.08985 0.473115,0.658442 -0.06965,0.608331 v 0.532293 c 0.25255,-0.180223 0.367639,-0.163265 0.627011,0 l -0.487677,0.532288 c 0.02536,0.477619 -0.423163,0.942765 -0.696678,1.292706 h -0.06966 l -0.348339,-0.304162 0.139335,-0.304169 -0.348341,0.152082 c 0.03079,0.579133 -0.607925,0.727565 -0.557346,0.07604 l -0.418008,0.07604 c 0.182458,0.497537 -0.178835,0.69456 -0.557342,0.45625 0.102405,-0.324699 0.232827,-0.486214 0.557342,-0.45625 -0.130762,-0.356562 0.02046,-0.579057 0.348344,-0.684375 -0.01795,-0.337168 0.124418,-0.513965 0.418008,-0.608336 l 0.06968,-0.456251 c -0.419474,0.294896 -0.782307,-0.154892 -1.11469,-0.456242 v -0.07604 l 0.557337,-0.380205 -0.139341,-0.152087 v -0.07604 l 0.55735,-0.380212 -0.139341,-0.152082 v -0.07604 l 0.348344,-0.45625 c 0.239451,0.126822 0.336983,0.238778 0.348341,0.532287 m -0.06968,0 -0.139333,0.304168 -0.348342,-0.152085 0.208999,0.228124 v 0.07604 l -0.27867,0.45625 -0.348342,-0.15208 0.209003,0.228125 v 0.07604 l -0.278667,0.456248 h 0.06965 l 0.27867,-0.456248 h 0.06968 l 0.209003,0.608332 0.627011,0.07604 c -0.216184,0.283104 -0.34855,0.440282 -0.69668,0.380206 0.170684,0.424544 0.01102,0.6824 -0.418008,0.608336 l 0.06966,0.608331 0.557344,-0.07604 c -0.195069,-0.48522 0.05378,-0.706728 0.487677,-0.532288 l -0.139334,0.380206 h 0.627017 l -0.348342,-0.304169 c 0.21618,-0.283097 0.348548,-0.440276 0.696676,-0.380205 l -0.139317,-0.53229 c -0.553795,0.135125 -0.493116,-0.479981 0,-0.532293 l 0.06968,-0.608331 c -0.267935,0.164628 -0.406713,0.192766 -0.696668,0.07605 l 0.209004,-0.45625 -0.209004,0.304168 -0.487674,-0.228125 0.139334,-0.45625 m -19.576757,0.07604 0.139338,0.380206 H 9.5194091 v 0.532296 c 0.4542333,0.04757 0.5951719,0.548642 0.069667,0.60833 l 0.069679,0.228125 -0.4876763,0.228125 -0.2786747,-0.380213 0.1393338,0.684376 0.2786749,-0.07604 0.278676,0.380206 -0.278676,-0.532293 0.4876762,-0.22812 0.209002,0.608332 0.487678,0.532288 -0.278675,0.152087 v 0.07604 c 0.323402,-0.08424 0.44128,0.01729 0.696677,0.228125 -0.164968,-0.396478 -0.17124,-0.541493 0.139342,-0.836457 l 0.278675,0.380207 c -0.125128,-0.370017 -0.05973,-0.50575 0.209001,-0.760413 l 0.27867,0.380206 -0.209002,-0.532293 0.278674,-0.22812 c -0.60688,0.209645 -0.761822,-0.467506 -1.184361,-0.836462 l 0.278675,0.608331 c -0.429157,0.172848 -0.671394,-0.05079 -0.487676,-0.532287 -0.5454369,0.09466 -0.5802722,-0.355193 -0.209009,-0.684376 l 0.209009,0.30417 -0.139343,-0.45625 -0.34834,-0.228126 m 14.978654,0.152082 0.06968,0.07604 -0.06968,-0.07604 m 5.364448,0 0.278668,0.228124 -0.278668,-0.228124 m -19.437418,0.07604 0.06968,0.07605 -0.06968,-0.07605 m 18.531733,0.152081 0.278669,0.532296 c 0.615103,-0.09604 0.427829,0.8563 -0.209004,0.45625 l 0.139337,-0.380214 c -0.268644,0.178701 -0.381781,0.129342 -0.627011,-0.07604 v -0.07604 l 0.418009,-0.456254 m -20.482438,0.228125 0.2090085,0.30417 -0.2090085,-0.30417 m 20.69144,0.30417 0.06968,0.07604 -0.06968,-0.07604 m -19.367745,0.532287 0.278675,0.532293 -0.278675,0.228125 0.836018,-0.608337 c 0.219174,0.350178 0.332948,0.816611 -0.209008,0.760419 -0.152359,0.573128 -0.644705,0.389335 -0.62701,-0.152082 -0.4807821,-0.160524 -0.5174235,-0.644986 0,-0.760418 m 19.651585,0.459069 c 0.374329,-0.04518 0.302986,0.56469 -0.01039,0.611529 -0.368753,0.05513 -0.310999,-0.572746 0.01039,-0.611529 m -14.635464,0.07323 0.06968,0.228126 -0.06968,-0.228126 m -4.598095,0.07604 0.208999,0.304169 -0.208999,-0.304169 m 14.978647,0.304169 -0.209001,0.380206 0.209001,-0.380206 m 8.151172,0 -0.139334,0.304168 0.139334,-0.304168 M 7.5687185,13.589681 7.7777199,13.893844 7.5687185,13.589681 m 16.8596865,0.988538 0.06968,0.07603 -0.06968,-0.07603 m -11.564904,0.228125 0.278668,0.380207 -0.278668,-0.380207 m 2.229378,0 0.06968,0.07604 -0.06968,-0.07604 m 17.417033,0.152082 -0.06966,0.228125 0.06966,-0.228125 m -24.383851,1.748957 0.2090086,0.22813 -0.2786749,-0.15209 0.069679,-0.07604 m 1.3933671,0.760419 0.069679,0.07604 -0.069679,-0.07604 m 2.7170532,0.532295 0.278674,-0.228127 -0.278674,0.228127 m -0.882483,-0.02531 0.02323,0.05063 z"
     id="path283-7" />
</svg>
