<?xml version="1.0" encoding="UTF-8" standalone="no"?>
<svg
   xmlns:dc="http://purl.org/dc/elements/1.1/"
   xmlns:cc="http://creativecommons.org/ns#"
   xmlns:rdf="http://www.w3.org/1999/02/22-rdf-syntax-ns#"
   xmlns:svg="http://www.w3.org/2000/svg"
   xmlns="http://www.w3.org/2000/svg"
   xmlns:sodipodi="http://sodipodi.sourceforge.net/DTD/sodipodi-0.dtd"
   xmlns:inkscape="http://www.inkscape.org/namespaces/inkscape"
   width="32"
   height="32"
   viewBox="0 0 8.4666665 8.4666669"
   version="1.1"
   id="svg346"
   inkscape:version="1.0.1 (3bc2e813f5, 2020-09-07)"
   sodipodi:docname="sg.svg">
  <defs
     id="defs340" />
  <sodipodi:namedview
     id="base"
     pagecolor="#ffffff"
     bordercolor="#666666"
     borderopacity="1.0"
     inkscape:pageopacity="0.0"
     inkscape:pageshadow="2"
     inkscape:zoom="14.71875"
     inkscape:cx="16"
     inkscape:cy="16"
     inkscape:document-units="px"
     inkscape:current-layer="layer1"
     inkscape:document-rotation="0"
     showgrid="false"
     units="px"
     inkscape:window-width="1366"
     inkscape:window-height="745"
     inkscape:window-x="-8"
     inkscape:window-y="-8"
     inkscape:window-maximized="1" />
  <metadata
     id="metadata343">
    <rdf:RDF>
      <cc:Work
         rdf:about="">
        <dc:format>image/svg+xml</dc:format>
        <dc:type
           rdf:resource="http://purl.org/dc/dcmitype/StillImage" />
        <dc:title></dc:title>
      </cc:Work>
    </rdf:RDF>
  </metadata>
  <g
     inkscape:label="Layer 1"
     inkscape:groupmode="layer"
     id="layer1">
    <path
       style="fill:#ff0000;stroke-width:0.0509651"
       d="m 0.77020451,8.0686447 c 0,-0.1694516 0.0227113,-0.3050145 0.0510947,-0.3050145 0.0281021,0 0.0510947,0.054015 0.0510947,0.12004 0,0.099456 0.0211303,0.1160207 0.12321516,0.096608 C 1.1478531,7.9513222 1.2380699,8.0919758 1.1745723,8.2592812 1.1408453,8.3481582 1.0909203,8.3736667 0.95068409,8.3736667 H 0.77020217 Z M 1.0512249,8.1703166 c 0,-0.1393318 -0.11377512,-0.1970227 -0.15872366,-0.080479 -0.0422892,0.1096431 0.0165508,0.2462483 0.0948823,0.2202702 0.035112,-0.011641 0.0638379,-0.07455 0.0638379,-0.1397878 z M 1.3309906,8.2958991 C 1.1717153,8.1049584 1.5019993,7.8511859 1.67969,8.0279748 c 0.1000028,0.099503 0.071036,0.1423417 -0.096229,0.1423417 -0.1861334,0 -0.1807479,0.1062522 0.00804,0.1587457 0.1135142,0.031564 0.1104939,0.034887 -0.035851,0.039524 -0.08789,0.00277 -0.1889898,-0.029914 -0.2246646,-0.072692 z M 1.5979384,8.0584764 c -0.047687,-0.047438 -0.07494,-0.047438 -0.1226271,0 -0.047687,0.04745 -0.034066,0.061005 0.06131,0.061005 0.095376,0 0.1090028,-0.013545 0.06131,-0.061005 z m 0.2043838,0.026891 c 0.022002,-0.4138747 0.1430616,-0.431611 0.1430616,-0.020962 0,0.2454257 -0.016334,0.3092507 -0.079191,0.3092507 -0.064022,0 -0.076256,-0.055237 -0.063867,-0.2882888 z m 0.2452491,0.084944 c 0,-0.1118357 0.022991,-0.203345 0.051095,-0.203345 0.028102,0 0.051093,0.091508 0.051093,0.203345 0,0.1118356 -0.022989,0.2033425 -0.051093,0.2033425 -0.028102,0 -0.051095,-0.091508 -0.051095,-0.2033425 z m 0.2656939,0.1423392 c -0.078477,-0.07808 -0.078477,-0.2066004 0,-0.28468 0.094996,-0.094519 0.2868028,-0.072069 0.3474426,0.040666 0.049256,0.091565 0.038862,0.101672 -0.1046485,0.101672 -0.1877068,0 -0.1835349,0.1059748 0.00622,0.1587456 0.1151105,0.032002 0.1128352,0.034817 -0.03189,0.039524 -0.085711,0.00277 -0.1834287,-0.022392 -0.2171508,-0.05593 z M 2.5585196,8.0686389 c 0,-0.027953 -0.03449,-0.05083 -0.076644,-0.05083 -0.042151,0 -0.07664,0.022877 -0.07664,0.05083 0,0.027953 0.03449,0.05083 0.07664,0.05083 0.042151,0 0.076644,-0.022877 0.076644,-0.05083 z M 2.819567,8.1919227 C 2.783239,8.0919697 2.765595,7.9981751 2.780354,7.9834879 c 0.049431,-0.04918 0.1358266,0.039224 0.1358266,0.1389869 0,0.054279 0.022989,0.098672 0.051093,0.098672 0.028102,0 0.051095,-0.044393 0.051095,-0.098672 0,-0.093435 0.085345,-0.1892103 0.1294749,-0.1453043 0.011263,0.011185 -0.00564,0.1050058 -0.03752,0.2084337 -0.075312,0.2441464 -0.2033139,0.2469266 -0.2907623,0.00635 z m 0.4542772,0.080064 C 3.1846393,8.1061493 3.295436,7.9575282 3.4939729,7.9767124 c 0.2307554,0.0223 0.2615763,0.1936033 0.034835,0.1936033 -0.1894094,0 -0.1865479,0.105686 0.00433,0.1587458 0.1117989,0.031092 0.1078487,0.034956 -0.040313,0.039524 C 3.377442,8.3721555 3.3122928,8.3434015 3.2738747,8.2719775 Z M 3.5395381,8.0584764 c -0.047687,-0.047438 -0.07494,-0.047438 -0.122627,0 -0.047687,0.04745 -0.034064,0.061005 0.06131,0.061005 0.095375,0 0.1090016,-0.013545 0.06131,-0.061005 z m 0.2452543,0.264348 c 0,-0.027953 0.02299,-0.05083 0.051095,-0.05083 0.028102,0 0.051095,0.022877 0.051095,0.05083 0,0.027953 -0.022991,0.05083 -0.051095,0.05083 -0.028102,0 -0.051095,-0.022877 -0.051095,-0.05083 z m 0.4963357,0.019347 c -0.020068,-0.01997 -0.036482,-0.1583064 -0.036482,-0.3074248 0,-0.207107 0.018098,-0.2711234 0.07664,-0.2711234 0.058835,0 0.076644,0.064963 0.076644,0.279597 0,0.1581793 0.02288,0.2795971 0.052698,0.2795971 0.087901,0 0.1206545,-0.1596974 0.054403,-0.2652444 -0.053167,-0.084701 -0.049527,-0.096769 0.024777,-0.082232 0.1345591,0.026326 0.2109125,0.1771649 0.1437251,0.2839279 -0.057349,0.091127 -0.326899,0.1480766 -0.3924071,0.082902 z M 4.8265897,8.301101 C 4.8111927,8.261196 4.8061697,8.1754117 4.8154287,8.110467 4.8293467,8.012694 4.8628817,7.9923905 5.0103733,7.9923905 c 0.2228767,0 0.2906209,0.1607564 0.07879,0.1869641 -0.1647923,0.020386 -0.1746723,0.1069906 -0.017254,0.1511096 0.1000027,0.028023 0.092432,0.033825 -0.049679,0.038128 -0.1018993,0.003 -0.1786387,-0.023384 -0.1956455,-0.06749 z M 5.0723794,8.0584751 c -0.047687,-0.047438 -0.07494,-0.047438 -0.122627,0 -0.047687,0.047449 -0.034066,0.061005 0.06131,0.061005 0.095379,0 0.1090003,-0.013545 0.06131,-0.061005 z M 5.3516969,8.339767 C 5.2961801,8.28453 5.3128563,8.0937322 5.3789505,8.0279737 c 0.03372,-0.033561 0.119945,-0.059551 0.1916038,-0.057787 0.1243919,0.003 0.125323,0.00531 0.02056,0.047266 C 5.4159174,8.0877797 5.391587,8.1771132 5.5195493,8.280203 l 0.1159796,0.093446 h -0.12488 c -0.068686,0 -0.1402112,-0.015252 -0.1589435,-0.033895 z M 5.7479858,8.248997 C 5.7055128,8.080645 5.8073326,7.9572521 5.9723377,7.9771088 6.268522,8.0127569 6.2417874,8.3340933 5.9401413,8.3640388 5.805712,8.3773866 5.7758611,8.3594242 5.7479837,8.248996 Z M 6.0074109,8.170318 c 0,-0.138281 -0.1012355,-0.1928744 -0.1453857,-0.078403 -0.040063,0.1038873 0.015307,0.2401603 0.087813,0.2161147 0.031661,-0.010501 0.057577,-0.072473 0.057577,-0.1377109 z m 0.2810211,0.00508 c 0,-0.1965718 0.00153,-0.1981996 0.1916063,-0.1906351 0.1829227,0.00727 0.1923217,0.016278 0.2074615,0.1982665 0.011858,0.1424168 -0.00352,0.1906317 -0.060629,0.1906317 -0.048948,0 -0.082255,-0.059494 -0.092503,-0.1652154 -0.00879,-0.090862 -0.039,-0.1652165 -0.067105,-0.1652165 -0.028102,0 -0.058299,0.074354 -0.067105,0.1652165 -0.022553,0.2326904 -0.1117266,0.206312 -0.1117266,-0.033041 z m 0.5620423,0.055917 c 0,-0.078287 -0.028741,-0.1717277 -0.063867,-0.2076469 -0.051621,-0.052791 -0.039375,-0.062044 0.063867,-0.048292 0.1069822,0.014259 0.1303133,0.04798 0.1435935,0.2076468 0.012099,0.1455802 -0.00299,0.190634 -0.063867,0.190634 -0.053253,0 -0.079725,-0.047266 -0.079725,-0.1423395 z M 7.1059464,8.271982 C 6.9910272,8.0583383 7.2799607,7.8554181 7.4533912,8.0279683 c 0.1000028,0.099492 0.071036,0.1423419 -0.096229,0.1423419 -0.1861328,0 -0.1807488,0.1062522 0.00806,0.1587467 0.1117989,0.031079 0.1078487,0.034956 -0.040313,0.039524 -0.1153829,0.00357 -0.1805329,-0.025184 -0.2189511,-0.096608 z m 0.265694,-0.2135128 c -0.047687,-0.047449 -0.07494,-0.047449 -0.122627,0 -0.047687,0.04745 -0.034064,0.061005 0.06131,0.061005 0.095376,0 0.1090016,-0.013545 0.06131,-0.061005 z M 2.0475713,7.8144846 c 0,-0.027953 0.022991,-0.05083 0.051095,-0.05083 0.028102,0 0.051093,0.022866 0.051093,0.05083 0,0.027953 -0.022989,0.050842 -0.051093,0.050842 -0.028102,0 -0.051095,-0.022877 -0.051095,-0.050842 z M 3.9636238,6.7346065 C 3.5793288,6.5392402 2.6328284,5.7686405 2.7152957,5.7182725 2.8905155,5.6112532 3.0975199,5.5238146 3.3380839,5.4552066 3.8390345,5.3123408 4.8447041,4.8659891 5.2311243,4.6150092 5.8911543,4.1863187 6.2040553,3.7037502 6.2069098,3.1101082 6.2094731,2.5841481 5.9784827,2.399571 4.8676864,2.0398176 4.2193604,1.8298427 3.9715528,1.6893302 3.9467438,1.5176212 3.9079623,1.2491984 4.219372,1.1105422 4.9074156,1.0898781 L 5.3225539,1.0774057 5.4594478,0.77305757 C 5.5347415,0.60566746 5.6284211,0.43567999 5.6676264,0.39530888 5.7766867,0.28300154 5.6292115,0.24761216 5.0366117,0.24388111 4.5134169,0.24061949 3.9213304,0.34794498 3.5037713,0.52182166 2.9499578,0.75243374 2.5583284,1.2283301 2.5587093,1.670233 c 3.86e-4,0.3756818 0.1717714,0.5743033 0.8281513,0.9594099 0.2179366,0.1278655 0.3000251,0.2082803 0.3241416,0.317528 0.044435,0.2012733 -0.059904,0.4242574 -0.254499,0.5439157 -0.2196423,0.1350591 -0.7074028,0.2565325 -1.0300693,0.2565325 -0.5075828,0 -0.5621117,0.028257 -0.6615404,0.3427558 L 1.6759539,4.3717055 1.5501378,4.0748621 C 1.4809391,3.9115994 1.3814738,3.6053283 1.3291053,3.3942602 1.1710161,2.7570972 1.0803392,1.4226226 1.1617949,0.93199992 1.1932156,0.74275017 1.2120315,0.72640134 1.6083108,0.54406569 2.0935209,0.32080796 2.8995241,0.11301407 3.5747212,0.03711111 4.465185,-0.06299294 5.4394998,0.07830016 6.5032251,0.46179684 c 0.7734229,0.27883464 0.704912,0.1888612 0.704912,0.92575136 0,0.7622256 -0.073715,1.470493 -0.2070082,1.989035 C 6.8887439,3.8137752 6.5399785,4.5743984 6.2583086,4.9966 5.9504253,5.458096 5.2802409,6.1251734 4.8075908,6.4405906 4.1723473,6.8645129 4.2001285,6.8548349 3.9636238,6.7346019 Z M 5.253321,5.6339537 C 5.6062405,5.3429246 6.3054902,4.4085156 6.2280304,4.3314464 6.2025203,4.3060621 5.8309958,4.7250604 5.3708885,5.2981156 5.1912984,5.521793 5.0081281,5.7487663 4.9638455,5.8025025 4.8534529,5.9364555 4.9658345,5.8710053 5.253321,5.6339537 Z M 1.3683834,1.4987396 c -0.012226,-0.063235 -0.022683,-0.02347 -0.023254,0.088372 -5.604e-4,0.1118382 0.00943,0.1635761 0.022221,0.1149707 0.012783,-0.048606 0.013252,-0.1401068 0.00103,-0.2033423 z M 4.4823662,4.4376277 C 4.1505461,4.3481795 3.9848375,4.1760337 3.9520617,3.8867299 3.8720299,3.1802875 4.4060497,2.733297 5.3815004,2.6902413 5.926251,2.666197 5.9123029,2.6575678 5.847741,2.9787375 L 5.815807,3.1376005 H 5.4364471 c -0.4405371,0 -0.6383183,0.08066 -0.7851115,0.3201914 -0.1280289,0.2089092 -0.1272428,0.4153601 0.00205,0.5440157 0.1366486,0.1359566 0.4367557,0.1379278 0.5091499,0.00332 C 5.2455165,3.85086 5.2258035,3.7984497 5.0847975,3.7984497 H 4.9541782 L 5.0447235,3.645941 C 5.1275814,3.5063915 5.1587463,3.4934376 5.4116631,3.4934376 H 5.6880554 L 5.657067,3.6475897 C 5.640012,3.7323768 5.5903368,3.9240824 5.5466478,4.0736056 5.4717094,4.3300773 5.4550268,4.348576 5.2519055,4.400431 4.8657862,4.4990071 4.7337468,4.5053874 4.4823526,4.4376217 Z"
       id="path362" />
  </g>
</svg>
