<?xml version="1.0" encoding="UTF-8" standalone="no"?>
<svg
   xmlns:dc="http://purl.org/dc/elements/1.1/"
   xmlns:cc="http://creativecommons.org/ns#"
   xmlns:rdf="http://www.w3.org/1999/02/22-rdf-syntax-ns#"
   xmlns:svg="http://www.w3.org/2000/svg"
   xmlns="http://www.w3.org/2000/svg"
   xmlns:sodipodi="http://sodipodi.sourceforge.net/DTD/sodipodi-0.dtd"
   xmlns:inkscape="http://www.inkscape.org/namespaces/inkscape"
   width="32"
   height="32"
   viewBox="0 0 8.4666665 8.4666669"
   version="1.1"
   id="svg8"
   inkscape:version="1.0.1 (3bc2e813f5, 2020-09-07)"
   sodipodi:docname="shoes.svg">
  <defs
     id="defs2" />
  <sodipodi:namedview
     id="base"
     pagecolor="#ffffff"
     bordercolor="#666666"
     borderopacity="1.0"
     inkscape:pageopacity="0.0"
     inkscape:pageshadow="2"
     inkscape:zoom="16.03125"
     inkscape:cx="16"
     inkscape:cy="16"
     inkscape:document-units="px"
     inkscape:current-layer="layer1"
     inkscape:document-rotation="0"
     showgrid="false"
     units="px"
     inkscape:window-width="1366"
     inkscape:window-height="745"
     inkscape:window-x="-8"
     inkscape:window-y="-8"
     inkscape:window-maximized="1" />
  <metadata
     id="metadata5">
    <rdf:RDF>
      <cc:Work
         rdf:about="">
        <dc:format>image/svg+xml</dc:format>
        <dc:type
           rdf:resource="http://purl.org/dc/dcmitype/StillImage" />
        <dc:title></dc:title>
      </cc:Work>
    </rdf:RDF>
  </metadata>
  <g
     inkscape:label="Layer 1"
     inkscape:groupmode="layer"
     id="layer1">
    <path
       style="fill:#ff0000;stroke-width:0.0132331"
       d="M 2.7810585,7.937073 C 2.5445063,7.9020274 1.9869743,7.7364644 1.5816778,7.5808507 1.0673396,7.3833697 0.68056903,7.1472637 0.46690253,6.9003359 0.42909218,6.8566418 0.36436738,6.7576647 0.32307202,6.6803916 0.25376607,6.5507082 0.24736411,6.5323206 0.23986771,6.4413677 0.22583775,6.2710963 0.23115517,5.8495354 0.24915835,5.7052397 0.27224177,5.5202205 0.31992015,5.3018028 0.36874372,5.1574093 0.41876449,5.0094737 0.56880699,4.7455346 0.65026795,4.6621775 0.68146262,4.6302151 0.88008261,4.466953 1.0916426,4.2992836 1.5678894,3.9218375 1.8150304,3.7109705 2.0032214,3.5214992 2.5542098,2.9667576 3.3222407,2.0435795 4.010554,1.1086845 4.2134322,0.83312605 4.216152,0.82999759 4.2919841,0.78542366 4.3454071,0.75398824 4.3727164,0.74864895 4.447149,0.75504089 l 0.09033,0.007742 0.055204,-0.0646012 C 4.7027865,0.56928075 4.8627315,0.40318282 4.9507535,0.32633843 5.0776167,0.21557695 5.1409273,0.18677316 5.2363791,0.19637669 c 0.1201918,0.012102 0.2070186,0.0931409 0.3305923,0.30857325 0.1916523,0.33411304 0.3203325,0.76324746 0.3510484,1.17070016 0.00618,0.081552 0.012848,0.151177 0.014885,0.154719 0.00206,0.00376 0.095386,-0.064676 0.2074411,-0.1515529 C 6.64372,1.2884575 6.7950794,1.2009039 7.1267621,1.1082214 c 0.1014069,-0.028352 0.2941825,-0.036925 0.363717,-0.016245 0.2272572,0.067684 0.3558908,0.2424907 0.4760373,0.6468977 0.1850991,0.6230276 0.2588088,1.2405353 0.2756943,2.3096561 0.00578,0.3657216 -0.00459,1.000218 -0.022751,1.3959765 l -0.00601,0.1310374 -0.096581,0.1132281 C 8.063741,5.7510469 7.93897,5.8728488 7.8395884,5.9594323 7.5018581,6.2536638 7.3356176,6.3353288 6.6502108,6.5436916 6.3489435,6.6352691 6.310223,6.6502791 6.4043129,6.6390219 6.7019734,6.6033746 6.8632112,6.5942743 7.111897,6.5990879 c 0.2762064,0.00527 0.2871119,0.00676 0.3170555,0.043919 0.029889,0.037076 0.040983,0.038656 0.3075911,0.043619 0.2555216,0.00451 0.2781887,0.00767 0.2976906,0.03843 0.020868,0.032864 0.027714,0.1057903 0.013428,0.1429871 C 8.0274202,6.920762 7.9920932,6.92738 7.7310403,6.92738 7.5211975,6.92738 7.4632966,6.93265 7.454454,6.950769 7.445714,6.969044 7.371358,6.976565 7.1144884,6.985137 6.6644254,7.000104 6.3805976,7.045226 5.9374709,7.1722544 5.8076719,7.2094814 5.6653138,7.2451274 5.6211195,7.2515504 5.5329975,7.2643314 5.3905128,7.2384704 5.3102096,7.1950714 l -0.050289,-0.027149 -0.090385,0.070768 C 4.7215987,7.5893113 4.1038898,7.8465495 3.5075487,7.9308169 3.3115284,7.9584845 2.9468253,7.9617307 2.7810776,7.9367932 Z m 0.78286,-0.5049706 c 0.060719,-0.011953 0.1118354,-0.023614 0.1135866,-0.025945 0.00174,-0.00225 -0.00801,-0.042717 -0.021706,-0.08966 C 3.5991149,7.12204 3.4609528,6.9262515 3.3081009,6.8237849 3.1396802,6.7108722 2.9543675,6.655025 2.5803281,6.6044422 2.1729984,6.5493169 2.0139512,6.5012384 1.8949838,6.397087 1.7814039,6.2976587 1.7247668,6.1641326 1.7137045,5.9697279 L 1.7071319,5.8543185 1.6117831,5.8154371 C 1.2696591,5.6758646 1.1515385,5.6250637 1.0457612,5.5720217 0.85037391,5.4740372 0.73973386,5.3723827 0.71437761,5.267547 L 0.70225011,5.217385 0.67593021,5.265441 c -0.0353406,0.06445 -0.0979228,0.2476723 -0.0979228,0.2866436 0,0.050763 0.1065307,0.1834247 0.23586128,0.2937805 0.14814339,0.1264126 0.27348431,0.1977288 0.46065121,0.2620892 0.073484,0.025269 0.1064204,0.076379 0.1064204,0.1651196 0,0.080168 -0.036607,0.1483041 -0.079678,0.1483041 -0.052616,0 -0.271445,-0.087486 -0.39442525,-0.1576822 C 0.77449822,6.1881532 0.6596335,6.0900788 0.57947674,5.9841827 c -0.0295568,-0.039031 -0.0566527,-0.065879 -0.0602217,-0.059713 -0.003562,0.00602 -0.006488,0.097812 -0.006488,0.2035723 v 0.1922911 l 0.0565255,0.091457 C 0.74816329,6.7012159 1.2530749,6.9864833 2.033324,7.2389387 2.3786416,7.35067 2.6457357,7.421288 2.8613483,7.4578595 c 0.082443,0.01399 0.596231,-0.00448 0.7025662,-0.02572 z M 3.9301804,7.3453984 C 4.2464439,7.2597782 4.6240054,7.0895738 4.8833325,6.9157075 4.9465931,6.873292 4.9998012,6.836065 5.0015793,6.8329749 5.00332,6.8299667 4.9868679,6.7693515 4.9649397,6.6985009 4.9103688,6.5221604 4.8755623,6.3005917 4.8619181,6.0427819 4.8522161,5.8594323 4.8481486,5.8286961 4.8345139,5.8356074 4.7754401,5.865539 4.4679535,5.9748719 4.3207335,6.0182801 3.9574454,6.1253871 3.6092971,6.1771882 3.2544938,6.17691 2.9883912,6.1767144 2.8078471,6.1564541 2.5451979,6.0975011 2.3029829,6.0431279 1.9459866,5.9394729 1.8017977,5.8817006 c -0.02446,-0.00978 -0.048493,-0.01805 -0.053407,-0.018275 -0.015193,-7.295e-4 0.00103,0.1831766 0.022711,0.2569301 0.044268,0.1508533 0.1524158,0.263435 0.3124134,0.3252309 0.09302,0.035947 0.2007328,0.057382 0.4898225,0.097646 0.3517756,0.048958 0.5187807,0.09475 0.6794486,0.18623 0.2128222,0.1211847 0.3664726,0.3248176 0.4432185,0.5874032 0.023899,0.081786 0.025702,0.083966 0.061693,0.074678 0.020385,-0.00527 0.098008,-0.026021 0.1724882,-0.046176 z M 5.7070091,7.1711639 c 0.046777,-0.00985 0.1189224,-0.029405 0.160323,-0.043544 0.3629914,-0.1237341 1.099116,-0.2327592 1.449544,-0.2146875 l 0.1096502,0.00602 0.018889,-0.055652 C 7.4626825,6.8123834 7.4630076,6.8032845 7.4491331,6.75671 7.4210082,6.6621552 7.3998884,6.6571228 7.0365861,6.6584553 6.5588406,6.6599629 6.2694124,6.7068865 5.8823704,6.8445122 5.584831,6.9503337 5.4444112,6.9389176 5.3170184,6.7985625 5.2640476,6.740202 5.1906562,6.5975985 5.1607094,6.494861 5.1039779,6.3002381 5.0894568,6.1621848 5.0897022,5.8197843 5.0899672,5.4511899 5.1084887,5.2652081 5.1817963,4.8950645 5.3283348,4.1551759 5.3762729,3.8035478 5.3959899,3.3239208 5.4128692,2.9132718 5.3748532,2.441752 5.305078,2.1963658 5.2178182,1.8894921 5.0602571,1.6162049 4.8992141,1.4923951 4.8329311,1.4414061 4.7109314,1.3966366 4.6407598,1.3974789 c -0.053812,6.619e-4 -0.1841962,0.038204 -0.1944377,0.056028 -0.00308,0.00527 0.013923,0.057908 0.037763,0.1167636 l 0.043342,0.1070616 0.040145,-0.013687 c 0.071514,-0.024367 0.1768794,-0.012102 0.2362871,0.02745 0.1357637,0.090374 0.2832304,0.3830563 0.3615369,0.7175603 0.048794,0.2084455 0.064605,0.3768218 0.063901,0.6805821 -0.00111,0.4721967 -0.052062,0.8985033 -0.2052649,1.7170035 -0.04866,0.259961 -0.095301,0.5354666 -0.1036487,0.6122359 -0.033687,0.3098218 -0.030427,0.6763028 0.0084,0.942167 0.00841,0.057608 0.035263,0.1754907 0.059675,0.2620365 0.1231389,0.4365196 0.366929,0.6227345 0.718537,0.5488457 z M 5.5963422,6.4498659 C 5.8760177,6.2997719 6.063263,6.2154826 6.2035603,6.1765264 6.5825866,6.0712771 7.0801025,5.9089998 7.2423974,5.8376755 7.4336206,5.7536491 7.6732298,5.5778726 7.8759569,5.3729016 l 0.066528,-0.067233 0.00609,-0.1793035 c 0.01152,-0.3378282 0.018525,-0.7986839 0.012156,-0.7986839 -0.00348,0 -0.032271,0.022711 -0.063933,0.050538 C 7.7880018,4.4736916 7.6284976,4.5849946 7.4731807,4.6738341 7.2768848,4.7861001 7.1657748,4.8352616 6.976366,4.8936507 6.2956242,5.1035025 6.162977,5.1574019 5.6214166,5.4441883 5.4723718,5.5231159 5.2984869,5.6129482 5.2350054,5.6438123 L 5.119584,5.699915 5.1167289,5.884543 c -0.00182,0.1161687 0.00277,0.2315259 0.012325,0.3111152 0.017631,0.147033 0.065832,0.3362334 0.1027695,0.4034516 l 0.02575,0.046853 0.081544,-0.050914 C 5.3839623,6.5670727 5.4996993,6.5017339 5.5963018,6.449888 Z M 3.7464448,6.0813696 C 3.9370033,6.0542206 4.1482319,6.0075935 4.3458263,5.9491293 4.5112336,5.9001708 4.8360292,5.7760527 4.8496822,5.7565972 4.8557742,5.7478772 4.8637744,5.6848515 4.8674324,5.616528 4.8782312,5.4144673 4.9075463,5.2147081 4.9874121,4.798727 5.0709957,4.3634183 5.132923,3.9687805 5.1653759,3.6646443 5.2067552,3.2768726 5.2013425,2.6833628 5.1562122,2.6585978 5.0733506,2.6130989 5.0380346,2.4713902 5.0841684,2.3694424 L 5.1039355,2.3257488 5.0649383,2.2144155 C 5.0290433,2.1119407 5.023314,2.1033147 4.9929898,2.1060296 4.9505817,2.1097899 4.7696474,2.2661334 4.7203009,2.3416016 l -0.037984,0.058059 0.060253,0.082921 c 0.033141,0.045575 0.082977,0.1351055 0.1107527,0.198887 0.042993,0.098729 0.050504,0.1274503 0.050504,0.1932165 0,0.06212 -0.00578,0.087245 -0.029335,0.1282544 -0.024017,0.041739 -0.03781,0.050989 -0.076009,0.050989 -0.044569,0 -0.050368,-0.00602 -0.1287403,-0.136527 C 4.6246043,2.8423469 4.5682626,2.7585834 4.5445349,2.7313291 l -0.043144,-0.04956 -0.052,0.085756 c -0.028598,0.047153 -0.053851,0.087501 -0.056123,0.089645 -0.00229,0.00225 0.024167,0.056479 0.058749,0.1207338 0.071127,0.1321648 0.1132093,0.269166 0.1035879,0.3371888 -0.00978,0.069188 -0.031591,0.1172974 -0.063608,0.140355 -0.046799,0.033691 -0.090549,0.00895 -0.1374811,-0.07774 C 4.3036101,3.2836638 4.2139589,3.1586053 4.197451,3.1586053 c -0.017821,0 -0.1266711,0.1429871 -0.1266711,0.1663984 0,0.011056 0.00963,0.035046 0.021398,0.053321 0.045715,0.070993 0.119119,0.273573 0.119119,0.3286981 0,0.1051886 -0.045795,0.1829886 -0.1081958,0.1837934 -0.039978,5.265e-4 -0.049515,-0.0097 -0.1374161,-0.1477476 -0.051951,-0.081567 -0.09967,-0.1483042 -0.1060402,-0.1483042 -0.00913,0 -0.1812246,0.1898398 -0.1997578,0.2203505 -0.00246,0.00376 0.01589,0.044371 0.040706,0.089743 0.1053053,0.192487 0.1192745,0.2275402 0.1192745,0.2992781 0,0.122892 -0.073943,0.2212153 -0.1392649,0.185177 C 3.6692811,4.3832954 3.6203416,4.314709 3.5718361,4.2373459 3.4364921,4.0215454 3.4546451,4.0297351 3.3482342,4.1364956 c -0.050036,0.050162 -0.092813,0.096443 -0.09506,0.1027668 -0.00222,0.00602 0.024974,0.068361 0.060499,0.1379409 0.056699,0.1110318 0.064582,0.1350375 0.064582,0.1967737 0,0.081071 -0.038016,0.1619688 -0.085932,0.1828757 C 3.2529292,4.7740754 3.1970553,4.7188746 3.1756613,4.641609 3.155733,4.5697126 3.1386867,4.537901 3.0859832,4.4744058 l -0.038997,-0.047002 -0.062698,0.05693 c -0.09818,0.089201 -0.1591786,0.1600512 -0.1552851,0.1803565 0.00198,0.010228 0.025853,0.043844 0.053091,0.074603 0.087661,0.09915 0.1047554,0.1350606 0.1045039,0.2195307 -3.411e-4,0.1112355 -0.043864,0.1886741 -0.1060685,0.1886741 -0.015028,0 -0.07832,-0.047229 -0.1406572,-0.1049101 L 2.6265338,4.9376682 2.5354748,5.1179268 c -0.050084,0.09915 -0.1287025,0.2645409 -0.1747112,0.367549 l -0.083651,0.1872829 -0.00633,0.1418666 c -0.00348,0.078033 -0.00459,0.1448897 -0.00246,0.1485748 0.013173,0.022862 0.4767057,0.1200125 0.6833104,0.1431676 0.1783592,0.020004 0.5631497,0.00782 0.7947624,-0.025194 z M 2.239586,5.8160015 C 2.2524216,5.5778952 2.2393201,5.2617713 2.2100452,5.1026902 2.1337519,4.6883036 1.972469,4.4919737 1.6920851,4.4722097 l -0.1254582,-0.00887 -0.092612,0.074002 c -0.086588,0.069188 -0.1077011,0.1043098 -0.062738,0.1043098 0.044213,0 0.1327489,0.076318 0.185187,0.1596299 0.1012656,0.160886 0.14442,0.3761751 0.1513031,0.7548019 0.00246,0.1334809 0.00554,0.2443106 0.00697,0.2462885 0.00246,0.003 0.3548786,0.1205164 0.4090579,0.1359479 0.070104,0.020004 0.067921,0.023464 0.075779,-0.1223663 z M 1.7121544,5.5681787 C 1.7121544,5.0350284 1.5901039,4.7309298 1.357013,4.68331 1.3062799,4.6729329 1.2953355,4.6788006 1.1539774,4.7898908 0.80620824,5.0634787 0.73859829,5.1324793 0.73859829,5.2137983 c 0,0.01459 0.0178053,0.055952 0.0395669,0.091952 0.0468871,0.077544 0.14723807,0.1488155 0.33606671,0.2386929 0.1758808,0.083719 0.580974,0.2461909 0.5903941,0.2367977 0.00411,-0.00376 0.00752,-0.1000082 0.00752,-0.213063 z M 5.3855727,5.5071875 C 5.5208163,5.4364197 5.7285756,5.3272146 5.8472587,5.264426 6.1709101,5.0932069 6.2402278,5.0660204 6.8319167,4.8782186 7.1109458,4.7896573 7.2275517,4.7442335 7.3638598,4.6710215 7.5658399,4.5625385 7.7649315,4.4281548 7.8796825,4.3228452 l 0.080294,-0.0737 5.278e-4,-0.1483041 C 7.962878,3.4319151 7.898518,2.7013293 7.7998258,2.2770607 7.7543077,2.0813774 7.6721314,1.8064884 7.6591542,1.8064884 c -0.00539,0 -0.013117,0.034142 -0.01722,0.075958 C 7.6297875,2.006165 7.5908534,2.0973886 7.4556445,2.3189724 7.1317122,2.8498439 6.8659041,3.1551084 6.6488221,3.2455798 6.5426016,3.2898755 6.4674557,3.2898755 6.3357264,3.2457076 6.0793099,3.1596808 5.9440202,3.0225746 5.6214989,2.5218678 5.467005,2.2820167 5.3644256,2.1467455 5.3370387,2.1467455 c -0.00946,0 -0.011364,0.00963 -0.00601,0.030534 0.029185,0.1141829 0.06561,0.3369255 0.080102,0.4898172 0.023701,0.2501015 0.016152,0.8144844 -0.014742,1.1022636 C 5.3641516,4.0696531 5.3141832,4.3857921 5.241026,4.7523709 5.1553324,5.181776 5.0964137,5.6365328 5.1265375,5.6360214 5.133732,5.6358934 5.250352,5.5779628 5.3855963,5.5071951 Z M 2.3317964,5.2553562 C 2.3593035,5.1897776 2.4168493,5.0677276 2.4596696,4.9840695 2.5024892,4.9004041 2.5358601,4.8300498 2.5338343,4.8277336 2.4316015,4.7110831 2.2415968,4.4262822 2.1300008,4.2224316 2.0828922,4.1363747 2.0402753,4.0659677 2.0352969,4.0659677 c -0.00499,0 -0.096659,0.078341 -0.2037344,0.1740845 l -0.1946823,0.1740918 0.055204,7.521e-4 c 0.1614014,0.003 0.3199511,0.1049929 0.4146471,0.2670001 0.084209,0.1440626 0.1323375,0.3182145 0.1587956,0.5746182 0.00664,0.064752 0.013074,0.1177714 0.014205,0.1177714 0.00111,0 0.024556,-0.053621 0.05207,-0.1191772 z M 2.8995701,4.9718713 c 0.015503,-0.029556 0.026795,-0.063849 0.025093,-0.076205 C 2.9230018,4.8833326 2.8560858,4.7847164 2.7760423,4.6765115 2.5215676,4.332509 2.2810121,3.9625836 2.2089706,3.8044728 c -0.036996,-0.081206 -0.042986,-0.087561 -0.076365,-0.081057 -0.051445,0.01 -0.109383,0.061969 -0.1217606,0.1092198 -0.00907,0.034595 -0.00514,0.052041 0.027776,0.1237342 0.064803,0.1410018 0.285591,0.514477 0.3861334,0.6531773 0.1178483,0.1625705 0.199037,0.25778 0.3047517,0.3573889 0.094591,0.089126 0.1254851,0.09002 0.1700613,0.00527 z m 0.3876116,-0.42845 c 0.011449,-0.025269 0.020741,-0.05475 0.020662,-0.065428 C 3.3073397,4.4089549 3.1076728,4.099464 2.9893717,3.9843555 2.9090607,3.9062175 2.7767196,3.8217022 2.73467,3.8217022 c -0.036837,0 -0.089104,0.044973 -0.089104,0.076717 0,0.01293 0.055331,0.080717 0.1229494,0.150673 0.1589341,0.1644205 0.3655356,0.4027825 0.4151821,0.4790027 0.04707,0.072273 0.075795,0.076521 0.1034861,0.015341 z M 2.7417082,4.513565 C 2.744557,4.5006297 2.7191233,4.3848367 2.6851826,4.2562137 2.6018185,3.9402702 2.5582923,3.7573569 2.5195054,3.5599891 2.4916027,3.4180022 2.4835547,3.3935906 2.4633676,3.3897477 c -0.031377,-0.00602 -0.099625,0.063549 -0.1178835,0.1201103 -0.0134,0.041514 -0.011859,0.060465 0.018406,0.2265549 0.044007,0.2414454 0.08443,0.3811535 0.1347333,0.4656237 0.059193,0.099398 0.2207279,0.3344588 0.2300515,0.3347597 0.00435,1.354e-4 0.010177,-0.010309 0.013032,-0.023238 z M 2.861825,4.3958914 c 0.041141,-0.039258 0.074806,-0.077242 0.074806,-0.084425 0,-0.011205 -0.092598,-0.1149503 -0.2333528,-0.2615025 -0.020701,-0.021584 -0.037636,-0.03151 -0.037636,-0.022035 0,0.020757 0.1119231,0.4393547 0.1174695,0.4393547 0.00213,0 0.037572,-0.032113 0.078715,-0.071369 z M 3.7086515,4.2391267 c 0.020385,-0.01993 0.042606,-0.051665 0.04938,-0.070468 0.010686,-0.029781 0.00728,-0.044897 -0.025663,-0.1151011 C 3.6312434,3.8383826 3.3933017,3.5449631 3.2558169,3.4658927 3.1798954,3.4222738 3.0656026,3.3917406 3.0481431,3.4105419 c -0.00601,0.00676 0.00539,0.07498 0.028543,0.1717228 l 0.038538,0.1609837 0.051208,0.012931 c 0.1141662,0.028879 0.2740097,0.1871701 0.4075219,0.40364 0.038641,0.062645 0.076411,0.1142888 0.083945,0.1147398 0.00752,4.663e-4 0.030364,-0.015492 0.050749,-0.035346 z M 3.1473974,4.0591768 c 0,-0.00376 -0.022245,-0.09357 -0.049427,-0.199624 C 3.0257993,3.5779706 2.9576566,3.2594852 2.9312255,3.0801817 2.9099149,2.9356227 2.9062187,2.9235297 2.8847186,2.9279218 c -0.028717,0.00602 -0.1079682,0.089441 -0.1220843,0.1287664 -0.011025,0.030683 -0.0092,0.043092 0.076136,0.5120254 l 0.044442,0.2442655 0.1119089,0.104686 c 0.06155,0.057608 0.1173789,0.1144994 0.1240646,0.1264941 0.011548,0.020681 0.028211,0.029556 0.028211,0.015041 z m 0.126336,-0.055803 c 0.035397,-0.034444 0.06436,-0.065654 0.06436,-0.069414 0,-0.034519 -0.195343,-0.1415357 -0.205602,-0.1126794 -0.00719,0.020381 0.053337,0.2446868 0.066069,0.2446868 0.00594,0 0.039773,-0.028127 0.075177,-0.062571 z M 2.3582187,3.8958319 c -0.014022,-0.064752 -0.026788,-0.1200275 -0.028362,-0.1227875 -0.00625,-0.010975 -0.055648,0.037978 -0.055648,0.055201 0,0.020831 0.090577,0.185365 0.1020486,0.185365 0.00411,0 -0.00404,-0.053019 -0.018034,-0.1177714 z M 2.7227793,3.7637037 c 0.026533,-2.632e-4 0.064897,0.00602 0.085251,0.013392 l 0.037011,0.013913 -0.04551,-0.2420095 C 2.7745005,3.4158945 2.7526047,3.3044177 2.7508788,3.3012818 c -0.00174,-0.003 -0.048723,0.045724 -0.1044275,0.1085502 l -0.1012867,0.1142658 0.024064,0.1095363 c 0.01323,0.060239 0.029003,0.1314287 0.035048,0.1581785 l 0.010982,0.048658 0.029644,-0.038129 c 0.020583,-0.026472 0.044387,-0.03828 0.077893,-0.038656 z m 1.3830128,-0.053696 c 0.01258,-0.014289 0.027848,-0.050914 0.033933,-0.081244 0.010742,-0.053546 0.00907,-0.05881 -0.056541,-0.1778221 C 3.9869893,3.2765041 3.8434889,3.0728642 3.7846715,3.0273201 3.6975351,2.9598612 3.5697237,2.8969749 3.5197346,2.8969749 c -0.050639,0 -0.1113831,0.028503 -0.1113831,0.052343 0,0.00774 0.013187,0.067759 0.029295,0.1335109 l 0.029295,0.1195004 0.060007,0.011803 c 0.068538,0.013542 0.142866,0.063774 0.2226492,0.1506429 0.05715,0.062194 0.1969336,0.2614725 0.24088,0.3433933 0.020535,0.03828 0.03121,0.045048 0.058773,0.037302 0.018525,-0.00527 0.043967,-0.021133 0.056541,-0.035497 z m -0.41855,-0.1430849 0.086256,-0.097736 -0.024492,-0.03309 C 3.6868298,3.3519948 3.5113416,3.2355926 3.4935,3.2666071 c -0.00736,0.012781 0.088065,0.3980973 0.098603,0.3980973 0.0049,0 0.047703,-0.043995 0.095143,-0.097744 z m -0.15292,0.049786 C 3.530682,3.5999379 3.4680788,3.348776 3.3952445,3.0586129 3.2724185,2.5692995 3.2609995,2.5310428 3.2377268,2.5308924 c -0.030887,-1.956e-4 -0.085351,0.055652 -0.09968,0.1021583 -0.00859,0.027901 0.00435,0.1039553 0.067525,0.3963525 l 0.078153,0.3618261 0.089911,0.086215 c 0.049451,0.047379 0.103462,0.104648 0.1200235,0.1271787 0.036211,0.04926 0.049634,0.053245 0.040659,0.012102 z M 3.2380014,3.372443 C 3.2386495,3.341533 3.1321789,2.8621024 3.1246678,2.8621024 c -0.021564,0 -0.1579308,0.1783034 -0.1579308,0.2065052 0,0.016996 0.010558,0.085486 0.023479,0.1521321 l 0.023479,0.1211698 0.092666,0.011437 c 0.050962,0.00602 0.09535,0.016094 0.098631,0.021809 0.00852,0.014816 0.032675,0.012863 0.033007,-0.003 z M 4.4622827,3.311376 C 4.5167827,3.246851 4.5194107,3.226364 4.4845037,3.1381791 4.3585634,2.8199795 4.0970613,2.6003885 3.8440586,2.6003885 c -0.040912,0 -0.07437,0.00602 -0.074346,0.01308 1.98e-5,0.00752 0.014703,0.055275 0.03262,0.1067913 0.031978,0.09199 0.033964,0.094314 0.1078523,0.1267277 0.1366415,0.059938 0.2883297,0.2064074 0.4207918,0.4063171 0.035468,0.053546 0.072068,0.097323 0.081319,0.097323 0.00926,0 0.031749,-0.017673 0.049988,-0.039257 z M 4.0397586,3.1234088 c 0.028101,-0.03858 0.051081,-0.074378 0.051081,-0.079432 0,-0.03309 -0.2130533,-0.1662781 -0.2270727,-0.1419042 -0.012862,0.022411 0.030586,0.1602993 0.071228,0.2261036 0.022229,0.036024 0.043397,0.065428 0.047045,0.065428 0.00365,0 0.02962,-0.031586 0.057713,-0.070166 z M 6.6250999,3.0685098 C 6.7417685,3.0257934 6.9647649,2.8049015 7.1430877,2.5554768 7.309766,2.3223491 7.4900299,2.0247633 7.5172608,1.9377887 7.5665378,1.7803923 7.5414206,1.6361869 7.4562008,1.5872961 7.3660526,1.5355551 6.9815027,1.6261771 6.7887679,1.7444895 6.622972,1.8462944 6.0192453,2.3010586 5.8335013,2.4640502 l -0.059549,0.052267 0.02913,0.042943 c 0.1628988,0.2400917 0.3093796,0.3945175 0.4367629,0.4604646 0.1508601,0.078101 0.2656301,0.092645 0.3852605,0.048808 z M 3.8259099,2.9422182 C 3.7825048,2.7616287 3.6064452,2.2285008 3.5754411,2.1837689 3.5443493,2.1389466 3.4284238,2.2533332 3.4284238,2.3288243 c 0,0.015267 0.031147,0.1358198 0.069211,0.26791 l 0.069211,0.2401668 0.058757,0.021133 c 0.032319,0.011586 0.090374,0.048131 0.1290145,0.081078 0.038641,0.03294 0.073706,0.06054 0.077915,0.061292 0.0042,7.145e-4 0.00127,-0.02542 -0.00664,-0.058133 z m 0.9505953,-0.030007 c 0.038214,-0.034218 0.06709,-0.089847 0.06709,-0.1292623 0,-0.098571 -0.1727447,-0.3463336 -0.333912,-0.4789199 C 4.3759028,2.1939743 4.1309924,2.0926883 4.1309924,2.1474149 c 0,0.010676 0.017814,0.072347 0.039582,0.1371888 0.038476,0.1145293 0.041119,0.118418 0.094437,0.1391592 0.1120093,0.043544 0.2839212,0.2198015 0.4079603,0.4181996 0.058804,0.094059 0.069124,0.1010609 0.1035356,0.070242 z M 3.466914,2.8489641 c 0.02393,-0.00527 0.04555,-0.018501 0.048042,-0.029781 0.00435,-0.019779 -0.083035,-0.323524 -0.093076,-0.323524 -0.014205,0 -0.093827,0.1097089 -0.093827,0.1292854 0,0.012632 0.013781,0.075724 0.03061,0.1402722 0.024603,0.094314 0.033957,0.1149653 0.04767,0.1051736 0.00939,-0.00676 0.036647,-0.016319 0.060569,-0.021433 z M 4.2690565,2.6832125 C 4.2609215,2.6616286 4.1830026,2.4515962 4.0959051,2.2164906 4.0088076,1.981385 3.9288573,1.7675173 3.9182383,1.7412331 l -0.019309,-0.047831 -0.038199,0.033842 C 3.8102893,1.7719921 3.7597036,1.8470828 3.74962,1.8922212 c -0.00539,0.023991 -0.00277,0.05114 0.00768,0.079936 0.023653,0.065203 0.251666,0.5695119 0.2659474,0.5881779 0.0068,0.00887 0.058726,0.042039 0.1153804,0.0737 0.05666,0.031661 0.1054762,0.06445 0.1084869,0.072949 0.00301,0.0085 0.012509,0.015418 0.021089,0.015418 0.013894,0 0.013979,-0.00451 7.914e-4,-0.039258 z m 0.099827,-0.033917 c 0.018201,-0.030683 0.033093,-0.061142 0.033093,-0.067759 0,-0.013392 -0.090242,-0.078424 -0.1329864,-0.095826 -0.015178,-0.00602 -0.027602,-0.00527 -0.027602,0.00225 0,0.024742 0.075091,0.2167106 0.084833,0.2168611 0.00523,6.76e-5 0.024453,-0.024967 0.042654,-0.055577 z M 3.8644705,2.3124898 C 3.8061329,2.1829423 3.7557037,2.0769479 3.7524033,2.0769479 c -0.00332,0 -0.030237,0.031812 -0.059865,0.070693 l -0.053858,0.070693 0.025616,0.073249 c 0.014092,0.04031 0.037407,0.1102209 0.051817,0.1554111 l 0.026193,0.082161 0.071395,0.00602 c 0.039267,0.003 0.090621,0.00752 0.1141181,0.00948 l 0.042724,0.00376 z M 5.660293,2.2214166 C 5.6450913,1.8504006 5.6337908,1.6645166 5.6211294,1.5771134 5.5991776,1.4256056 5.5305309,1.1997352 5.4495756,1.0126477 5.3537923,0.79129715 5.2733199,0.68115192 5.2073883,0.68115192 c -0.057697,0 -0.2729547,0.20894946 -0.5280181,0.51255928 l -0.1190567,0.1417162 0.1017716,0.012781 c 0.1907025,0.023991 0.3335502,0.1405806 0.4874838,0.3977889 0.075866,0.1267658 0.098559,0.1546214 0.1405766,0.1725653 0.079292,0.033842 0.1939535,0.1476875 0.2809086,0.2788674 0.044055,0.066481 0.082923,0.1177932 0.086376,0.1140865 0.00348,-0.00376 0.00475,-0.044295 0.00286,-0.09014 z m -1.0348481,0.018048 c 0.024508,-0.029556 0.037312,-0.057155 0.034654,-0.074829 C 4.6562964,2.139518 4.3209495,1.2523102 4.3014223,1.215753 4.2850658,1.1851448 4.2207352,1.2417745 4.194968,1.3094209 L 4.169565,1.3761269 4.23641,1.6046371 c 0.067921,0.2322028 0.1684507,0.5137173 0.1990338,0.5573588 0.018977,0.027074 0.127047,0.1208846 0.1416409,0.1229369 0.00523,7.37e-4 0.026984,-0.019704 0.048367,-0.045499 z M 4.3718694,2.135367 c 0,-0.00602 -0.021834,-0.070993 -0.048517,-0.1439422 C 4.296668,1.9184761 4.2511816,1.7822273 4.2222652,1.6885972 4.175473,1.5370668 4.1678128,1.5207849 4.1525637,1.5402931 4.0551714,1.6649227 3.9804387,1.769811 3.9804387,1.7818814 c 0,0.00812 0.021034,0.071971 0.046744,0.1418289 0.025711,0.069866 0.047164,0.1282395 0.04767,0.1297064 5.12e-4,0.00151 0.041577,0.011287 0.091258,0.021884 0.04968,0.010526 0.1129124,0.030007 0.1405129,0.043168 0.063157,0.030157 0.065238,0.030684 0.065238,0.016921 z M 4.8853648,1.9782489 c 0.026707,-0.016696 0.048556,-0.035873 0.048556,-0.042566 0,-0.026398 -0.077298,-0.1280819 -0.1300195,-0.1710687 -0.046586,-0.037978 -0.069891,-0.045348 -0.1429782,-0.045348 -0.050306,0 -0.092015,0.0082 -0.098398,0.019252 -0.00809,0.014063 0.00578,0.063623 0.051287,0.1831993 0.093931,0.2468977 0.079477,0.232684 0.1567579,0.1541775 0.036426,-0.037 0.088082,-0.080936 0.1147895,-0.097631 z M 4.4952555,1.3694049 c 0.044418,-0.013989 0.043762,-0.036024 -0.00269,-0.090712 -0.034755,-0.040912 -0.1042847,-0.053847 -0.115786,-0.021508 -0.00348,0.00978 0.00365,0.045724 0.015756,0.079838 0.016911,0.047604 0.027048,0.060013 0.043358,0.053245 0.011717,-0.00451 0.038428,-0.014289 0.059366,-0.020832 z"
       id="path24" />
  </g>
</svg>
