<?xml version="1.0" encoding="UTF-8" standalone="no"?>
<svg
   xmlns:dc="http://purl.org/dc/elements/1.1/"
   xmlns:cc="http://creativecommons.org/ns#"
   xmlns:rdf="http://www.w3.org/1999/02/22-rdf-syntax-ns#"
   xmlns:svg="http://www.w3.org/2000/svg"
   xmlns="http://www.w3.org/2000/svg"
   xmlns:sodipodi="http://sodipodi.sourceforge.net/DTD/sodipodi-0.dtd"
   xmlns:inkscape="http://www.inkscape.org/namespaces/inkscape"
   width="32"
   height="32"
   viewBox="0 0 31.999995 31.999996"
   version="1.1"
   id="svg71"
   sodipodi:docname="shuttle.svg"
   inkscape:version="1.0.1 (3bc2e813f5, 2020-09-07)">
  <metadata
     id="metadata24">
    <rdf:RDF>
      <cc:Work
         rdf:about="">
        <dc:format>image/svg+xml</dc:format>
        <dc:type
           rdf:resource="http://purl.org/dc/dcmitype/StillImage" />
      </cc:Work>
    </rdf:RDF>
  </metadata>
  <defs
     id="defs22" />
  <sodipodi:namedview
     pagecolor="#ffffff"
     bordercolor="#666666"
     borderopacity="1"
     objecttolerance="10"
     gridtolerance="10"
     guidetolerance="10"
     inkscape:pageopacity="0"
     inkscape:pageshadow="2"
     inkscape:window-width="1366"
     inkscape:window-height="745"
     id="namedview20"
     showgrid="false"
     inkscape:zoom="14.71875"
     inkscape:cx="16"
     inkscape:cy="16"
     inkscape:window-x="-8"
     inkscape:window-y="-8"
     inkscape:window-maximized="1"
     inkscape:current-layer="svg71"
     inkscape:snap-nodes="false"
     inkscape:snap-global="true"
     inkscape:snap-bbox="true" />
  <path
     d="M 3.0121748,0.46165212 C 2.5420378,0.66313339 2.139988,0.82530099 2.120535,0.81792995 2.104331,0.81301192 1.8935691,0.69507528 1.6536391,0.55993554 1.4137056,0.42233966 1.2061984,0.31914156 1.1964715,0.32896973 1.1835177,0.34125532 1.0635348,0.64101923 0.92735712,0.99729634 l -0.24965998,0.64867156 0.95973006,5.125481 0.9597302,5.1254801 0.4993181,0.781354 0.499319,0.781353 0.1134809,0.727298 c 0.061602,0.400505 0.1134832,0.73221 0.1134832,0.739581 0,0.005 -0.022704,0.005 -0.048639,-0.005 -0.032407,-0.0073 -0.048639,0.0024 -0.048639,0.02949 0.00323,0.07126 0.1167233,0.432445 0.1556315,0.484046 0.019454,0.02703 0.1685992,0.928775 0.3307169,2.002522 0.1621177,1.073747 0.6673271,4.176973 0.7937773,4.982894 0.1621178,1.076207 11.3562437,2.840437 -0.080464,-0.03924 -1.0353123,4.719829 -0.1491454,0.454561 -0.2918092,0.941064 -0.1426638,0.486503 -0.3080222,1.056546 -0.3728702,1.265401 -0.2820821,0.958263 -0.3825925,1.579905 -0.3825925,2.346512 0,1.174489 0.2885683,2.009898 0.9500029,2.759309 0.1783264,0.203938 0.8883984,0.798553 1.1672388,0.980374 0.5479548,0.356282 1.9875495,0.712557 3.3655393,0.832957 0.5965884,0.05406 1.1315746,0.03688 1.4655346,-0.04915 1.280721,-0.324337 1.79301,-0.540559 2.483625,-1.059004 0.434473,-0.326794 0.690616,-0.572501 1.008366,-0.965631 0.619285,-0.773985 1.131575,-1.825618 1.439593,-2.975534 0.05512,-0.194111 0.09079,-0.282564 0.126448,-0.289934 0.03566,-0.0073 0.116717,-0.245709 0.314502,-0.914037 l 0.265878,-0.901757 1.186694,-1.520939 c 0.651709,-0.835406 1.206148,-1.530763 1.232086,-1.545506 0.07456,-0.04177 0.372869,-0.417703 0.343689,-0.432445 -0.01299,-0.0073 0.392325,-0.545475 0.901368,-1.199061 0.846249,-1.083572 0.933794,-1.186771 1.005123,-1.179399 0.06809,0.0073 0.103763,-0.02212 0.252902,-0.213768 0.09403,-0.122853 0.171845,-0.228506 0.171845,-0.235882 0,-0.0097 -0.0292,-0.02212 -0.06485,-0.02949 -0.05512,-0.0097 -0.03889,-0.04177 0.168599,-0.307137 0.175084,-0.223598 0.259389,-0.307135 0.356658,-0.351362 0.106993,-0.04914 0.207512,-0.159714 0.632253,-0.697813 0.278843,-0.351362 0.518775,-0.648671 0.534987,-0.663417 0.01299,-0.01229 -0.136175,0.235883 -0.33396,0.552846 -0.402051,0.643758 -0.55768,0.899293 -0.534986,0.882096 0.01621,-0.01229 4.591142,-5.226222 7.444395,-8.486774 l 2.000517,-2.28509 0.05512,-1.164659 c 0.02917,-0.6412991 0.04542,-1.1695727 0.04216,-1.1744865 -0.0065,-0.00245 -0.359898,0.1842808 -0.787885,0.4201617 -0.885155,0.4865029 -0.800853,0.4791302 -0.843004,0.085996 -0.0097,-0.1203969 -0.03241,-0.2260524 -0.04865,-0.2334232 -0.01299,-0.0049 -0.632254,-0.0049 -1.374748,0.0049 L 27.456109,4.594332 27.319935,4.800725 27.18376,5.0071212 26.522321,4.3289671 c -0.395573,-0.4077394 -0.677657,-0.6755614 -0.71008,-0.6755614 -0.02917,0 -0.590104,0.073712 -1.245056,0.1621687 l -1.189937,0.167083 -0.26911,0.4963303 c -0.145904,0.275195 -0.272355,0.4963321 -0.275595,0.4914182 -0.0065,-0.0049 0.06809,-0.1719951 0.168598,-0.3710199 L 23.18271,4.2381925 22.94602,4.0514529 C 21.788509,3.1226748 20.893625,2.4248617 20.861201,2.4248617 c -0.02272,0 -0.402052,0.098285 -0.846248,0.2186818 -0.4442,0.120397 -1.206147,0.3243357 -1.689256,0.4570185 -0.486351,0.1302268 -0.894882,0.2309642 -0.911093,0.2235936 -0.01621,-0.00738 -0.04865,-0.090912 -0.07133,-0.1867398 -0.02272,-0.093369 -0.04865,-0.1670804 -0.05512,-0.1621655 -0.0065,0.0049 -0.03566,0.081084 -0.06161,0.1646245 -0.02595,0.085996 -0.06161,0.1990222 -0.08106,0.2506237 l -0.03242,0.093369 -1.005123,-0.7444953 C 15.553506,2.3290375 14.986098,1.9137889 14.843435,1.8130485 L 14.584048,1.6312246 13.848039,1.8916748 c -0.405291,0.1425114 -1.261266,0.4447331 -1.903248,0.668329 -0.641981,0.2260497 -1.173723,0.4152462 -1.180207,0.4201597 -0.0065,0.0049 -0.01946,0.058972 -0.02595,0.120397 -0.0292,0.17691 -0.05837,0.1474271 -0.04864,-0.044227 l 0.0097,-0.176911 L 9.4157535,1.8523617 C 8.7089378,1.2896894 8.1155912,0.82775728 8.099379,0.82775728 8.0831749,0.82775728 7.6195144,1.058724 7.0715601,1.3388305 6.5236058,1.6213965 6.0599529,1.8572758 6.0437412,1.8646473 6.0242882,1.8744766 5.5379374,1.4788851 4.9575608,0.98746726 4.377183,0.49605116 3.8973175,0.09308843 3.887591,0.09308843 c -0.00975,0 -0.4020465,0.16708163 -0.8754296,0.36856287 z M 22.793638,5.0711437 c -0.03889,0.049142 -0.04541,0.0344 -0.01621,-0.029495 0.01299,-0.022122 0.0292,-0.034397 0.03566,-0.027027 0.0097,0.0049 0,0.031942 -0.01946,0.056514 z M 6.5787394,14.260647 7.2596296,15.083771 v 0.221138 0.221137 l -0.103756,-0.01717 c -0.343686,-0.05653 -1.3325975,-0.23343 -1.3390813,-0.238342 -0.00648,-0.0049 -0.074573,-0.425075 -0.1523904,-0.93615 l -0.1426637,-0.92632 0.1815717,-0.211312 0.1783308,-0.211308 0.00969,0.226049 0.00976,0.223593 z m 3.5503536,0.523357 c 0.333962,0.412791 0.62577,0.764152 0.648465,0.781353 0.03241,0.02703 0.05513,0.02703 0.110242,0.0073 0.03565,-0.01717 0.06809,-0.01966 0.06809,-0.0097 0,0.02949 -0.139424,0.55776 -0.14915,0.567589 -0.0033,0.005 -0.116723,-0.0073 -0.246415,-0.03193 -0.6906186,-0.115504 -2.0913052,-0.361213 -2.1399411,-0.37104 -0.051879,-0.01229 -0.058361,-0.05406 -0.058361,-0.410332 v -0.398013 l 0.5382268,-0.476672 c 0.4409588,-0.388221 0.5479548,-0.46685 0.5803775,-0.43982 0.022707,0.01717 0.3145031,0.368561 0.6484658,0.781352 z m 3.680044,-0.515986 -0.03889,0.125312 0.171843,0.189195 c 0.09727,0.103195 0.29505,0.32188 0.440953,0.48159 0.149152,0.162167 0.269115,0.309592 0.269115,0.326792 0,0.01717 -0.09727,0.245708 -0.213992,0.506159 -0.395565,0.872267 -0.350172,0.791181 -0.453927,0.786266 -0.08107,-0.005 -1.99079,-0.326792 -2.01673,-0.341534 -0.0065,-0.0024 0.05187,-0.324334 0.12969,-0.712553 0.09728,-0.49879 0.152392,-0.717471 0.188059,-0.739583 0.09078,-0.0565 1.540108,-0.761696 1.553076,-0.754325 0.0065,0.005 -0.0065,0.06389 -0.02917,0.132683 z m -8.9812558,0.319421 c 0.016203,0.154795 0.042158,0.336622 0.051881,0.402961 l 0.016204,0.120397 -0.1232103,-0.01718 c -0.06809,-0.0073 -0.1750857,-0.0246 -0.2399337,-0.03933 -0.1102427,-0.02459 -0.119964,-0.03193 -0.1394189,-0.152339 -0.012947,-0.0688 -0.029158,-0.159712 -0.038908,-0.20148 l -0.016203,-0.07617 0.064849,0.086 0.06809,0.086 -0.00649,-0.07371 c -0.00322,-0.0516 0.042158,-0.127771 0.1523908,-0.253079 0.084301,-0.09828 0.1588721,-0.174454 0.1653583,-0.169541 0.00649,0.0024 0.025956,0.132684 0.045408,0.287479 z m 12.8104518,1.059002 0.181567,0.272735 -0.385838,0.629016 c -0.213993,0.348908 -0.398806,0.638843 -0.411773,0.651129 -0.01946,0.01471 -1.715192,-0.262909 -1.747618,-0.289938 -0.01299,-0.0097 0.181573,-0.520902 0.22048,-0.574958 0.01621,-0.02459 0.05187,-0.0024 0.126446,0.08109 0.05835,0.06143 0.113481,0.113023 0.126446,0.113023 0.01299,0 0.392326,-0.26045 0.846251,-0.577415 0.453924,-0.316964 0.833279,-0.577415 0.843007,-0.577415 0.0098,0 0.10051,0.122855 0.201023,0.272735 z M 4.7630346,15.580095 c 0.103756,0.01717 0.1815715,0.04423 0.1848124,0.06634 0.00975,0.03686 0.3339577,2.86742 0.3339577,2.90182 0,0.02212 -0.1621176,0 -0.2010256,-0.02703 -0.012947,-0.0097 -0.090783,-0.375929 -0.1718448,-0.81329 -0.1718445,-0.926322 -0.3339576,-1.810874 -0.3598978,-1.953385 -0.00969,-0.05406 -0.022704,-0.122854 -0.032407,-0.154796 -0.016203,-0.06389 0,-0.06389 0.246415,-0.01969 z m 1.8027361,0.321879 c 0.3372032,0.06143 0.6225274,0.110562 0.6387392,0.110562 0.025955,0 0.022704,1.245744 -0.00649,2.213836 l -0.019454,0.651126 -0.4182597,-0.0688 c -0.2302065,-0.03685 -0.4215051,-0.07126 -0.4247459,-0.07371 -0.012948,-0.0097 -0.4377135,-2.845304 -0.4377135,-2.901818 0,-0.02212 0.012948,-0.04177 0.029158,-0.04177 0.012948,0 0.301536,0.04914 0.6387386,0.110574 z m 2.7884049,0.491418 c 0.496076,0.08846 1.0018804,0.179365 1.1218464,0.199022 0.19778,0.0344 0.217235,0.04423 0.204267,0.09091 -0.0097,0.02949 -0.162118,0.638843 -0.337204,1.351396 -0.178331,0.715013 -0.327476,1.302255 -0.333961,1.304716 -0.0033,0.0024 -0.3534176,-0.05159 -0.771676,-0.120397 L 8.475503,19.091277 8.45605,18.430319 C 8.394445,16.479396 8.391203,16.233687 8.417143,16.233687 c 0.016203,0 0.4377137,0.07125 0.9370323,0.159711 z m 10.4630044,0 c 0.04863,0.07617 0.08754,0.144968 0.08754,0.157252 0,0.02212 -0.703584,0.980377 -0.745734,1.017234 -0.01621,0.01471 -0.894885,-0.117941 -0.930548,-0.140054 -0.0065,-0.0024 0.05512,-0.120397 0.132943,-0.260451 l 0.142656,-0.253079 0.113481,0.16708 0.110242,0.169541 0.483106,-0.496329 c 0.265862,-0.272739 0.489584,-0.496335 0.499308,-0.496335 0.0098,0 0.05836,0.06144 0.107003,0.135141 z m -6.964529,0.619185 c 0.518774,0.08846 0.950002,0.169539 0.966213,0.179369 0.01299,0.0073 -0.139422,0.373476 -0.337203,0.813296 -0.19778,0.437361 -0.453926,1.009859 -0.573891,1.270311 -0.116717,0.262907 -0.230207,0.481589 -0.249661,0.486505 -0.0227,0.0073 -0.330717,-0.03686 -0.684132,-0.09582 l -0.645224,-0.105662 0.0098,-0.07372 c 0.01946,-0.127766 0.492833,-2.525882 0.509046,-2.584851 0.0098,-0.02949 0.0292,-0.05406 0.04216,-0.05406 0.01295,0 0.447439,0.07372 0.962971,0.164625 z m 3.031579,0.535645 c 0.418259,0.07372 0.77816,0.140054 0.800856,0.144969 0.02271,0.0073 -0.252902,0.479132 -0.726282,1.248201 -0.41826,0.680609 -0.768431,1.240824 -0.771675,1.24574 -0.01299,0.0073 -1.121847,-0.169538 -1.144541,-0.184284 -0.0227,-0.01229 1.018089,-2.589766 1.047271,-2.589766 0.01621,0 0.37611,0.06143 0.794371,0.13514 z m 4.863497,0.135143 c 0.07133,0.09828 0.123212,0.184281 0.116716,0.191652 -0.02595,0.01717 -0.47338,-0.07125 -0.47338,-0.09582 0,-0.02949 0.197779,-0.297307 0.213991,-0.285023 0.0065,0.0024 0.07133,0.08846 0.142671,0.189196 z m -2.347446,0.31205 c 0.204267,0.03686 0.369624,0.07372 0.369624,0.08354 0,0.02459 -1.718435,2.336687 -1.767071,2.376001 -0.03566,0.02949 -0.07456,0.02949 -0.230204,0.0024 -0.107003,-0.01717 -0.19454,-0.03441 -0.201028,-0.03686 -0.0065,-0.0024 0.298297,-0.565131 0.677648,-1.248201 0.450686,-0.81084 0.706828,-1.243286 0.736009,-1.243286 0.02595,0 0.213993,0.02949 0.41502,0.06634 z m 1.964851,0.346449 0.217235,0.04177 -0.937031,1.164658 c -0.515533,0.641298 -0.950004,1.174487 -0.969461,1.189231 -0.01946,0.01471 -0.07783,0.01718 -0.158871,0.0024 l -0.126448,-0.02209 0.726283,-1.068834 c 0.398808,-0.587252 0.768432,-1.132728 0.823554,-1.211354 0.106993,-0.15725 0.110242,-0.15725 0.424743,-0.09583 z M 5.3012615,18.980708 c 0.032408,0.01471 0.3274761,2.403028 0.2982953,2.425145 -0.00969,0.0073 -0.4506861,-2.378462 -0.4474408,-2.427601 0,-0.02212 0.103756,-0.02212 0.14915,0.0024 z m 1.7411316,0.289932 c 0.064849,0.0097 0.126451,0.02212 0.1329363,0.03193 0.016204,0.01968 -0.045408,3.403064 -0.061606,3.415352 -0.00649,0.0024 -0.05188,-0.0024 -0.1005109,-0.01471 L 6.9224288,22.681064 6.6727684,21.010258 C 6.5333463,20.093768 6.4133814,19.302586 6.4068966,19.253443 l -0.016204,-0.08845 0.2658689,0.04422 c 0.1426636,0.02459 0.3177494,0.05406 0.385838,0.06143 z m 2.1788468,0.375938 c 0.6679197,0.113025 0.6808897,0.117941 0.6711636,0.176908 -0.00984,0.06144 -0.7814021,3.191757 -0.7943721,3.218784 -0.00653,0.01471 -0.4668959,-0.05896 -0.4928347,-0.08109 -0.00974,-0.0074 -0.032408,-0.464388 -0.048631,-1.017235 -0.016204,-0.552842 -0.038908,-1.321911 -0.05188,-1.712588 -0.012948,-0.407876 -0.00969,-0.705183 0.00649,-0.702725 0.016203,0 0.3372031,0.0516 0.710071,0.117941 z m 2.6424991,0.447189 c 0.330717,0.0565 0.606319,0.105661 0.6128,0.110574 0.0065,0.005 -0.0097,0.0565 -0.03889,0.113022 -0.02917,0.05897 -0.301536,0.658499 -0.606316,1.334199 -0.308022,0.6757 -0.609558,1.34157 -0.671163,1.481621 l -0.116724,0.250623 -0.116723,-0.01471 c -0.06484,-0.0097 -0.168604,-0.02949 -0.230207,-0.04423 l -0.116723,-0.02703 0.327476,-1.651158 c 0.178331,-0.909122 0.330718,-1.653619 0.340443,-1.653619 0.0098,0 0.285324,0.0467 0.616043,0.100736 z m 2.519291,0.429988 c 0.282083,0.04914 0.518775,0.09337 0.525259,0.09828 0.0065,0.0024 -0.418259,0.702725 -0.940275,1.555335 l -0.953246,1.545506 -0.09727,-0.01229 c -0.05187,-0.0097 -0.149146,-0.02703 -0.213993,-0.04177 l -0.116718,-0.02703 0.635497,-1.602017 c 0.35017,-0.882096 0.63874,-1.604477 0.641983,-1.604477 0.0032,0 0.236687,0.03932 0.51877,0.08846 z m 2.185332,0.37102 c 0.05187,0.0073 0.09403,0.01717 0.09403,0.02213 0,0.01471 -1.322872,1.796131 -1.400689,1.889502 -0.09078,0.10565 -0.09403,0.115478 0.505804,-0.968095 0.534984,-0.955803 0.554438,-0.987746 0.629011,-0.973003 0.04215,0.0073 0.119966,0.02212 0.171846,0.02949 z m 1.734647,0.307137 c 0.0032,0.005 -0.33396,0.43245 -0.755463,0.953349 -0.418259,0.520905 -0.758706,0.933691 -0.75222,0.918952 0.0065,-0.01473 0.301536,-0.452105 0.658192,-0.973008 l 0.64198,-0.948436 0.10051,0.02212 c 0.05187,0.0097 0.100499,0.0246 0.107003,0.02703 z m -12.6742729,0.31942 c -0.00969,0.01968 -0.019455,0.01229 -0.019455,-0.01471 -0.00322,-0.02703 0.00649,-0.04177 0.016204,-0.03193 0.00969,0.0073 0.012948,0.02949 0.00322,0.04669 z"
     id="path257"
     style="fill:#ffff00;stroke:none;stroke-width:0.00282252"
     sodipodi:nodetypes="cccccccccccscccsccscsccccccccccccccccsccccccsccccccccccccscccccccsscccccccccccccccccscccscccccccccccccccccccccccscccscccccccccsccccccccccccccccccccccccccccccsssccccscccccccsccccssccccccccccsccsscccccccssscccccccccscccccccscccsccccsccccscccccccccccccccccccccccccccccccccccccccccccccccsccccccccccscccscccccccccccccccccc" />
  <path
     style="fill:#008000"
     id="path26"
     sodipodi:type="arc"
     sodipodi:cx="7.3375797"
     sodipodi:cy="2.8874733"
     sodipodi:rx="6.794055"
     sodipodi:ry="2.1401274"
     sodipodi:start="0"
     sodipodi:end="0.0031841612"
     sodipodi:arc-type="slice"
     d="m 14.131635,2.8874733 a 6.794055,2.1401274 0 0 1 -3.5e-5,0.00681 l -6.7940203,-0.00681 z" />
</svg>
