<?xml version="1.0" encoding="UTF-8" standalone="no"?>
<svg
   xmlns:dc="http://purl.org/dc/elements/1.1/"
   xmlns:cc="http://creativecommons.org/ns#"
   xmlns:rdf="http://www.w3.org/1999/02/22-rdf-syntax-ns#"
   xmlns:svg="http://www.w3.org/2000/svg"
   xmlns="http://www.w3.org/2000/svg"
   xmlns:sodipodi="http://sodipodi.sourceforge.net/DTD/sodipodi-0.dtd"
   xmlns:inkscape="http://www.inkscape.org/namespaces/inkscape"
   width="16"
   height="16"
   viewBox="0 0 4.2333331 4.2333338"
   version="1.1"
   id="svg8"
   inkscape:version="1.0.2-2 (e86c870879, 2021-01-15)"
   sodipodi:docname="small-logo.svg">
  <defs
     id="defs2" />
  <sodipodi:namedview
     id="base"
     pagecolor="#ffffff"
     bordercolor="#666666"
     borderopacity="1.0"
     inkscape:pageopacity="0"
     inkscape:pageshadow="2"
     inkscape:zoom="40.4375"
     inkscape:cx="8"
     inkscape:cy="8"
     inkscape:document-units="px"
     inkscape:current-layer="layer1"
     inkscape:document-rotation="0"
     showgrid="false"
     showguides="false"
     units="px"
     inkscape:window-width="1600"
     inkscape:window-height="837"
     inkscape:window-x="-8"
     inkscape:window-y="-8"
     inkscape:window-maximized="1"
     inkscape:snap-text-baseline="true"
     inkscape:snap-intersection-paths="true"
     inkscape:snap-global="false" />
  <metadata
     id="metadata5">
    <rdf:RDF>
      <cc:Work
         rdf:about="">
        <dc:format>image/svg+xml</dc:format>
        <dc:type
           rdf:resource="http://purl.org/dc/dcmitype/StillImage" />
        <dc:title></dc:title>
      </cc:Work>
    </rdf:RDF>
  </metadata>
  <g
     inkscape:label="Layer 1"
     inkscape:groupmode="layer"
     id="layer1">
    <text
       xml:space="preserve"
       style="font-style:normal;font-weight:normal;font-size:10.5833px;line-height:1.25;font-family:sans-serif;letter-spacing:0px;word-spacing:0px;fill:#000000;fill-opacity:1;stroke:none;stroke-width:0.264583"
       x="14.963373"
       y="4.2042027"
       id="text120"><tspan
         id="tspan118"
         x="14.963373"
         y="4.2042027"
         style="stroke-width:0.264583"
         sodipodi:role="line" /></text>
    <rect
       style="fill:#ff0000;fill-opacity:0;stroke-width:0.264583"
       id="rect936"
       width="13.229167"
       height="13.177591"
       x="0.077363543"
       y="0.025787851" />
    <rect
       style="fill:#ff0000;fill-opacity:0;stroke-width:0.264583"
       id="rect938"
       width="13.100228"
       height="13.126016"
       x="0.12893924"
       y="0.077363543" />
    <rect
       style="fill:#00ffff;fill-opacity:0;stroke-width:0.264583"
       id="rect960"
       width="11.346654"
       height="11.114563"
       x="0.20630282"
       y="0.20630281" />
    <rect
       style="mix-blend-mode:darken;fill:#007bff;fill-opacity:1;stroke:#0275d8;stroke-width:0.0263064;stroke-opacity:1"
       id="rect20"
       width="4.2073131"
       height="4.223671"
       x="0.022824666"
       y="0.0081027588" />
    <path
       style="fill:#ffffff;stroke-width:0.0350387"
       d="m 4.7540658,4.5591088 c -3.6915714,-3.3086116 -1.8457858,-1.6543061 0,0 z M 0.90360794,4.1084299 C 0.79908734,4.0184318 0.76308634,3.8753779 0.80534054,3.7179692 0.82463494,3.6461007 0.86679034,3.5699493 0.89901914,3.548747 1.0745869,3.4332404 1.3093969,3.5776875 1.3093969,3.8012028 c 0,0.1834542 -0.026392,0.2475646 -0.1286689,0.3125838 -0.1151606,0.073213 -0.18750246,0.071815 -0.27712476,-0.00532 z M 2.3410962,4.0753564 C 2.1643789,3.8740269 2.2807404,3.5101939 2.5218497,3.5101939 c 0.083967,0 0.1288105,0.028598 0.1938506,0.1236176 0.1026662,0.1499972 0.090397,0.3155691 -0.033322,0.4494012 C 2.5766216,4.1976158 2.4457659,4.1946044 2.3410956,4.0753622 Z M 0.55549784,3.014876 C 0.34625914,2.182035 0.14011264,1.3025057 0.14011264,1.2426226 c 0,-0.054311 0.044783,-0.063345 0.314022,-0.063345 h 0.314022 l 0.00987,-0.1262584 0.00987,-0.12625815 0.42257046,-0.039443 c 0.4629781,-0.043213 0.4584724,-0.0450675 0.4408221,0.18142815 l -0.010112,0.1299563 -0.419798,0.01085 -0.41979816,0.01085 0.020804,0.3582138 c 0.011413,0.1970172 0.030326,0.3712158 0.041954,0.387108 0.01165,0.015892 0.16273106,0.011972 0.33578326,-0.0087 0.1730523,-0.020683 0.3548162,-0.038056 0.4039203,-0.038607 l 0.089279,-0.00101 -0.021922,-0.3444966 c -0.015187,-0.2388454 -0.01105,-0.3527434 0.01344,-0.3713638 0.019449,-0.014774 0.035355,-0.1024276 0.035355,-0.1947896 V 0.83882589 l 0.2765208,-0.0253886 c 0.1520862,-0.0139622 0.351182,-0.0355282 0.4424342,-0.0479202 l 0.1659083,-0.0225307 4.41e-4,0.13073428 C 2.6065089,1.1700736 2.6154789,1.179274 2.9060079,1.179274 H 3.167974 L 3.238934,0.8490608 3.309894,0.51884715 H 3.7633411 4.2167909 V 0.69366314 0.86848218 H 3.8762766 3.5357701 L 3.302446,1.8299867 C 3.174117,2.3588132 3.0352752,2.9269751 2.9939067,3.0925678 L 2.9186905,3.3936449 H 1.7846533 0.65061494 Z M 1.4797554,3.0989451 1.7607176,3.072766 1.7404716,2.7222112 C 1.7292965,2.5294051 1.7202256,2.2942831 1.7202256,2.199717 c 0,-0.166583 -0.00275,-0.1713064 -0.086901,-0.1516675 -0.047802,0.01115 -0.2414902,0.031843 -0.4304249,0.045991 l -0.34352016,0.025722 0.020388,0.3164453 c 0.011175,0.1740439 0.028947,0.4098763 0.039408,0.524071 l 0.019021,0.2076271 0.13029526,-0.021387 c 0.071662,-0.011768 0.2567284,-0.033174 0.4112577,-0.047567 z M 1.1082957,2.8638989 C 0.98856184,2.71671 0.99239824,2.4953552 1.117336,2.3417512 1.3273342,2.0836009 1.6747037,2.3300197 1.6101475,2.6913377 1.5622144,2.9596282 1.2683439,3.06067 1.1082747,2.8638989 Z M 2.7185569,2.991127 c 0.00154,-0.00298 -0.011924,-0.2389745 -0.029993,-0.5244723 L 2.6557285,1.9475679 2.4012948,1.9723123 c -0.1399379,0.01361 -0.330624,0.035295 -0.423745,0.048188 l -0.1693122,0.023443 0.02059,0.3349278 c 0.011294,0.1842096 0.028912,0.4110493 0.039088,0.5040877 l 0.018498,0.1691621 0.4146493,-0.027803 C 2.5291204,3.009022 2.7169937,2.994087 2.7185593,2.991127 Z M 2.123959,2.8296332 C 1.8578356,2.6472465 1.9573573,2.1504955 2.2600214,2.1504955 c 0.1560653,0 0.277819,0.12699 0.3021743,0.3151683 C 2.5973137,2.7369413 2.3221536,2.965465 2.123959,2.8296332 Z M 2.3450181,1.8429553 c 0.1437456,-0.01689 0.2697078,-0.040979 0.2799161,-0.053528 0.010227,-0.012548 0.00843,-0.1462252 -0.00381,-0.297058 L 2.5986769,1.2181256 H 2.1782487 1.7578206 l 0.014718,0.2428039 c 0.025286,0.4169057 0.025727,0.4179518 0.177402,0.4151788 0.073541,-0.00134 0.2513181,-0.016266 0.3950636,-0.033157 z M 0.98547694,0.72912326 c -0.075526,-0.0402659 -0.118513,-0.0891742 -0.118513,-0.134829 0,-0.0691072 0.00476,-0.0689898 0.13430996,0.003294 0.081683,0.0455812 0.20241,0.0745703 0.3081231,0.0739891 L 1.4832161,0.67060087 1.3318632,0.5737686 C 1.1370367,0.44912021 1.090076,0.33214751 1.1612255,0.14873163 1.2447643,-0.06662026 1.3827636,-0.00864852 1.5570748,0.31502325 l 0.087984,0.16337273 0.068392,-0.1730426 c 0.07404,-0.18734527 0.1908477,-0.26128592 0.2758171,-0.17459845 0.075477,0.0769988 0.054627,0.21928661 -0.05452,0.37209981 l -0.1015132,0.14212974 0.1410175,-0.028825 c 0.1485019,-0.0303546 0.2955751,-0.10783888 0.3828009,-0.2016727 0.040313,-0.0433657 0.057622,-0.0452789 0.076144,-0.00842 0.034166,0.067971 -0.1476272,0.25604072 -0.292992,0.30309637 -0.06586,0.0213186 -0.3259518,0.0487414 -0.5779818,0.0609385 -0.3817145,0.0184725 -0.4780239,0.011624 -0.57674416,-0.0410104 z M 1.482668,0.41201885 C 1.3403633,0.13670575 1.2461973,0.07983368 1.2461973,0.26920001 c 0,0.0659406 0.031718,0.11917127 0.1027013,0.17238104 0.1518569,0.11381893 0.2021307,0.10270808 0.1337632,-0.0295624 z m 0.4305842,-0.0758048 c 0.021362,-0.0490519 0.029673,-0.10044318 0.018473,-0.11420346 -0.032014,-0.039358 -0.1086697,0.0572765 -0.143855,0.1813591 -0.029744,0.10491524 -0.027782,0.10980362 0.027248,0.067564 0.032621,-0.0250439 0.076786,-0.0856683 0.098137,-0.13471946 z"
       id="path112"
       sodipodi:nodetypes="cccscsscccssscccsscccsccccscsccccsccsccscccccccccsscccccccsccccccsccccsccsscccccccssssscscccccccccccscccccscssscsssccccsscsccscc" />
  </g>
</svg>
