<?xml version="1.0" encoding="UTF-8" standalone="no"?>
<svg
   xmlns:dc="http://purl.org/dc/elements/1.1/"
   xmlns:cc="http://creativecommons.org/ns#"
   xmlns:rdf="http://www.w3.org/1999/02/22-rdf-syntax-ns#"
   xmlns:svg="http://www.w3.org/2000/svg"
   xmlns="http://www.w3.org/2000/svg"
   xmlns:sodipodi="http://sodipodi.sourceforge.net/DTD/sodipodi-0.dtd"
   xmlns:inkscape="http://www.inkscape.org/namespaces/inkscape"
   width="32"
   height="32"
   viewBox="0 0 8.4666665 8.4666669"
   version="1.1"
   id="svg88"
   inkscape:version="1.0.1 (3bc2e813f5, 2020-09-07)"
   sodipodi:docname="string.svg">
  <defs
     id="defs82" />
  <sodipodi:namedview
     id="base"
     pagecolor="#ffffff"
     bordercolor="#666666"
     borderopacity="1.0"
     inkscape:pageopacity="0.0"
     inkscape:pageshadow="2"
     inkscape:zoom="14.71875"
     inkscape:cx="16"
     inkscape:cy="16"
     inkscape:document-units="px"
     inkscape:current-layer="layer1"
     inkscape:document-rotation="0"
     showgrid="false"
     units="px"
     inkscape:window-width="1366"
     inkscape:window-height="745"
     inkscape:window-x="-8"
     inkscape:window-y="-8"
     inkscape:window-maximized="1" />
  <metadata
     id="metadata85">
    <rdf:RDF>
      <cc:Work
         rdf:about="">
        <dc:format>image/svg+xml</dc:format>
        <dc:type
           rdf:resource="http://purl.org/dc/dcmitype/StillImage" />
        <dc:title></dc:title>
      </cc:Work>
    </rdf:RDF>
  </metadata>
  <g
     inkscape:label="Layer 1"
     inkscape:groupmode="layer"
     id="layer1">
    <path
       style="fill:#ff0000;stroke-width:0.0132584"
       d="M 4.2338521,8.2314527 C 4.1631598,8.2258524 4.0648329,8.2108479 4.0153481,8.1980449 3.7403243,8.1268975 3.7434294,8.1279515 3.5976194,8.0563135 3.5446003,8.0302644 3.4433816,7.9846102 3.372689,7.9548592 3.2428033,7.9001964 3.183438,7.8619163 3.2285496,7.8619163 c 0.032477,0 0.026784,-0.034574 -0.00993,-0.060162 C 3.2010504,7.7894992 3.1154058,7.703865 3.0282978,7.6114466 2.917214,7.493591 2.8437059,7.4009764 2.7821312,7.3012959 2.6705628,7.1206793 2.5723798,6.898063 2.5564227,6.7895291 2.5496913,6.7437349 2.5355888,6.6662572 2.525085,6.6173646 2.5005987,6.5033449 2.4997391,6.2359501 2.5233573,6.0810856 2.5436245,5.9482425 2.6069574,5.7291218 2.6530837,5.6322664 2.7464144,5.4362924 2.9408288,5.187409 3.1323119,5.0187755 3.3961393,4.7864301 3.7014611,4.6706699 4.081602,4.6588606 c 0.136371,-0.00424 0.1683765,0.00917 0.052416,0.021963 -0.3332039,0.036756 -0.4293631,0.053 -0.538927,0.091059 -0.2036262,0.070737 -0.330072,0.156141 -0.5332995,0.3602148 -0.1190032,0.1194983 -0.2353819,0.2752263 -0.2353819,0.3149661 0,0.011826 -0.00602,0.021488 -0.013393,0.021488 -0.016669,0 -0.089435,0.1700073 -0.089435,0.208957 0,0.015734 -0.010999,0.041322 -0.02442,0.056853 -0.013441,0.015531 -0.036572,0.074785 -0.051414,0.1316797 -0.032316,0.1238711 -0.032226,0.1222146 -0.00669,0.1222146 0.015867,0 0.018453,-0.00896 0.011829,-0.041033 -0.00659,-0.031944 -0.00401,-0.041033 0.011653,-0.041033 0.02004,0 0.097605,-0.1449121 0.097605,-0.1823495 0,-0.010461 0.017349,-0.059729 0.038559,-0.1095006 0.02121,-0.049766 0.038559,-0.099854 0.038559,-0.1113024 0,-0.024883 0.027292,-0.027336 0.048842,-0.00442 0.011988,0.012764 0.018996,0.01256 0.031492,-9.335e-4 0.012866,-0.013893 0.011446,-0.020962 -0.0072,-0.035611 -0.013361,-0.01051 -0.017844,-0.021844 -0.01052,-0.026656 0.00701,-0.00458 0.016137,-0.00254 0.020291,0.00467 0.00418,0.00712 0.069628,-0.053339 0.145486,-0.1344319 C 3.290712,5.0672067 3.3875558,4.9992367 3.6618718,4.8885998 3.8645214,4.8068649 4.1812993,4.7485887 4.2111925,4.7875396 4.2221115,4.8017636 4.2014725,4.8058536 4.106323,4.8083316 3.9658224,4.8119816 3.8322709,4.8396806 3.7372388,4.8848566 3.6457768,4.9283346 3.5071665,4.996463 3.4075709,5.046894 3.2187543,5.142504 3.0277081,5.3457192 2.9285457,5.5564304 c -0.035665,0.075778 -0.079028,0.1587133 -0.096367,0.1842964 -0.017336,0.025587 -0.037389,0.071738 -0.044551,0.1025728 -0.00717,0.030832 -0.021341,0.074522 -0.031498,0.097087 -0.026837,0.059619 -0.041889,0.1324469 -0.060075,0.2907204 -0.015388,0.1338888 -0.014766,0.145104 0.01376,0.2461746 0.018064,0.064024 0.033289,0.1635167 0.038505,0.251618 0.0076,0.1285488 0.013648,0.1559516 0.051157,0.2324991 0.046299,0.094464 0.1040107,0.1753242 0.1758425,0.2463817 0.025321,0.025044 0.091797,0.1021658 0.1477304,0.1713762 0.071933,0.089008 0.1181571,0.1335856 0.1579339,0.1523083 0.030932,0.014554 0.089136,0.048858 0.1293457,0.076237 0.08602,0.058549 0.1290312,0.076312 0.3350885,0.138374 0.2977843,0.089689 0.5879791,0.1271088 0.6509294,0.083934 0.016662,-0.011428 0.053425,-0.024824 0.081702,-0.029771 0.089205,-0.015624 0.1399914,-0.035882 0.1863711,-0.074352 0.061975,-0.051412 0.095814,-0.069107 0.1321216,-0.069107 0.017045,0 0.041991,-0.012942 0.055441,-0.028753 0.044096,-0.051845 0.1337675,-0.087597 0.1337675,-0.05333 0,0.00747 -0.027476,0.032003 -0.061052,0.054442 -0.060004,0.0401 -0.06039,0.040805 -0.022494,0.04105 0.02121,1.554e-4 0.069383,-0.017092 0.1070548,-0.038301 C 5.0884043,7.5873403 5.2397536,7.4480214 5.2552702,7.40543 5.2610648,7.3894662 5.2997434,7.3333268 5.3411708,7.2806713 5.476319,7.1089081 5.5001839,7.0718161 5.5496458,6.9566618 5.6404502,6.7452538 5.6760287,6.5304326 5.6612884,6.2825716 5.6456925,6.0204182 5.5702829,5.7522453 5.4858605,5.6587507 5.4593682,5.6294128 5.4282817,5.57525 5.4167755,5.5383863 5.3957393,5.4709896 5.2677808,5.3003154 5.2032603,5.2535926 5.1861319,5.2411839 5.1390328,5.1988181 5.0985983,5.1594366 5.0142573,5.0772897 4.8404925,4.9693975 4.7094023,4.9177779 4.5895467,4.8705809 4.3891183,4.8149632 4.3172747,4.8089631 4.285406,4.8062473 4.2534267,4.8002388 4.2462096,4.7954947 4.2253693,4.7817887 4.2247667,4.6023468 4.2454337,4.57223 4.2610777,4.54946 4.2657787,4.548748 4.2855027,4.5662 c 0.018959,0.016736 0.021216,0.03533 0.014878,0.1225707 l -0.00747,0.1028358 0.061281,-0.00458 c 0.036953,-0.00272 0.1134448,0.00947 0.1926736,0.030772 0.1427866,0.038411 0.1746906,0.042662 0.1624964,0.021667 -0.015564,-0.026801 0.05944,-0.013172 0.1384542,0.025155 0.172156,0.083525 0.3503647,0.2163294 0.4825147,0.3595815 0.071995,0.078043 0.1021191,0.1240771 0.065394,0.099926 -0.018543,-0.012198 0.0049,0.034616 0.065391,0.1307681 0.1148735,0.1824845 0.1876874,0.3790509 0.2325052,0.6276646 0.022886,0.1269712 0.026772,0.1852265 0.020977,0.314557 -0.00843,0.1880262 -0.022577,0.26732 -0.087252,0.4889137 C 5.5722797,7.0746959 5.5493232,7.127209 5.4686825,7.2489668 5.418105,7.32533 5.336042,7.4106174 5.3131366,7.4106174 c -0.00447,0 -0.029356,0.023568 -0.055311,0.052371 -0.051115,0.056725 -0.1818133,0.1651003 -0.2335658,0.1936749 -0.017671,0.00977 -0.051294,0.038487 -0.07471,0.063845 -0.073524,0.079614 -0.2608412,0.1687827 -0.3545494,0.1687827 -0.033475,0 -0.060556,-0.00948 -0.078583,-0.027496 C 4.4903604,7.835749 4.4867154,7.835469 4.4472834,7.856445 4.4129804,7.874657 4.3707354,7.877687 4.2072565,7.873682 4.0981393,7.870962 4.0088603,7.871222 4.0088603,7.8741471 c 0,0.00289 0.010121,0.013511 0.022494,0.0235 0.02041,0.01649 0.019151,0.018204 -0.013601,0.018603 -0.089428,0.0011 -0.2260416,-0.032775 -0.306769,-0.076016 -0.047189,-0.02527 -0.089225,-0.05185 -0.093409,-0.059055 -0.00418,-0.00721 -0.039645,-0.020173 -0.078802,-0.028821 C 3.2931665,7.6981026 2.9291969,7.3974145 2.9291969,7.2487615 c 0,-0.014419 -0.00881,-0.034006 -0.019593,-0.04352 C 2.8988287,7.1957242 2.8577014,7.1272145 2.8182055,7.052997 2.752602,6.9297104 2.7057456,6.8629162 2.7278385,6.9241766 c 0.00477,0.013214 0.012435,0.04038 0.017044,0.060366 0.016919,0.073359 0.1352616,0.2989211 0.2069585,0.3944713 0.098397,0.1311288 0.3245026,0.3296039 0.4500945,0.3950872 0.05457,0.028456 0.112527,0.066672 0.1287886,0.084931 0.025745,0.028906 0.036888,0.032029 0.086151,0.02417 0.080606,-0.012858 0.1473089,0.00323 0.1602583,0.038615 0.016263,0.044453 0.080812,0.1032764 0.1298645,0.1183431 0.024213,0.00747 0.080387,0.020301 0.1248361,0.028583 0.044449,0.00831 0.089714,0.024527 0.1005882,0.036094 0.010871,0.011565 0.035234,0.020546 0.05414,0.019952 0.3483744,-0.010994 0.4171475,-0.016278 0.4883274,-0.037536 0.061059,-0.01823 0.07945,-0.029636 0.07945,-0.049265 0,-0.01632 -0.00916,-0.025553 -0.025375,-0.025553 -0.031219,0 -0.075398,-0.079316 -0.04898,-0.087938 0.00908,-0.00297 0.036702,-0.012285 0.061377,-0.020699 0.037055,-0.012653 0.047361,-0.011664 0.059255,0.0056 0.020153,0.029322 0.03249,0.026428 0.070768,-0.01666 0.018382,-0.020682 0.1007239,-0.086088 0.182989,-0.145339 C 5.1521696,7.6769602 5.2391458,7.6000302 5.3056289,7.525158 5.4064421,7.4116245 5.4355588,7.3907609 5.4355588,7.43206 c 0,0.031825 -0.023001,0.073266 -0.082994,0.1495408 -0.077877,0.099013 -0.084054,0.1169595 -0.019044,0.055342 0.070008,-0.066349 0.1403011,-0.1582311 0.1404687,-0.1836022 4.82e-5,-0.010361 0.016674,-0.050377 0.036905,-0.088896 0.020232,-0.038529 0.049616,-0.1038956 0.0653,-0.1452669 0.015676,-0.041373 0.036959,-0.087499 0.047271,-0.1025058 0.015989,-0.023263 0.020493,-0.024289 0.030561,-0.00696 0.0065,0.01118 0.00832,0.035151 0.00405,0.053263 -0.012483,0.052906 0.020249,0.021013 0.047272,-0.046057 0.036774,-0.091283 0.090099,-0.3324411 0.090099,-0.4074636 0,-0.061579 -0.00203,-0.066264 -0.021132,-0.049367 -0.018942,0.016727 -0.020053,0.015131 -0.010695,-0.01542 0.00573,-0.018747 0.018046,-0.067936 0.027332,-0.1093033 l 0.016889,-0.075218 -0.00631,0.088516 c -0.00602,0.084443 -0.00525,0.087411 0.016292,0.064499 C 5.8798416,6.54724 5.8161568,5.9802359 5.7204534,5.7459741 5.6711281,5.6252072 5.5685833,5.44031 5.494584,5.3386852 5.3949833,5.2019016 5.0865824,4.9333604 4.9443508,4.8595685 4.8213316,4.7957485 4.6451086,4.7343871 4.555132,4.7240486 4.4335232,4.710071 4.3441309,4.686444 4.3268358,4.6637082 c -0.00875,-0.011503 -0.00988,-0.017092 -0.00251,-0.012409 0.00737,0.00467 0.085457,0.021106 0.1735178,0.036501 C 4.6947859,4.722214 4.794813,4.7529454 4.9278749,4.8199126 5.2657921,4.98998 5.395931,5.11545 5.6192541,5.486486 c 0.057675,0.095826 0.1138232,0.2098126 0.1381014,0.2803658 0.060923,0.1770446 0.1043172,0.4612174 0.1058672,0.6932965 0.00114,0.1722291 -0.00222,0.2030493 -0.033241,0.3067094 -0.018985,0.063379 -0.034519,0.1441737 -0.034519,0.1795378 0,0.042026 -0.00707,0.070533 -0.020386,0.082304 -0.013553,0.011962 -0.018018,0.03062 -0.013313,0.055656 0.00792,0.04217 -0.022535,0.1465891 -0.074719,0.2561718 -0.043434,0.091199 -0.057363,0.083238 -0.019259,-0.011006 0.031952,-0.079029 0.025686,-0.1101335 -0.00801,-0.039794 C 5.6056919,7.4025981 5.485304,7.57645 5.3959321,7.6707406 5.2415164,7.8336523 5.019786,7.9798093 4.9801506,7.9448076 4.9557542,7.9232685 4.9221902,7.9406507 4.8626463,8.0055134 4.8011773,8.0725241 4.6765021,8.1252214 4.5194162,8.1505935 4.3981942,8.170172 4.3784909,8.1902182 4.4804647,8.1902095 4.7503143,8.190202 5.0962717,8.0385038 5.3283199,7.818437 5.4575937,7.6958377 5.4681517,7.6889086 5.4094107,7.7652173 5.3780018,7.8060208 5.311051,7.8767976 5.260638,7.9224962 5.166194,8.0081051 4.9824375,8.1218327 4.9385572,8.1218327 c -0.013648,0 -0.030317,0.00552 -0.037038,0.012161 -0.016974,0.016906 -0.1390257,0.052711 -0.2587458,0.075905 -0.1401271,0.027149 -0.2590733,0.033438 -0.4089767,0.021616 z M 4.0057882,8.1046716 c -0.00607,-0.019664 -0.073986,-0.032007 -0.073986,-0.013447 0,0.020639 0.015628,0.030544 0.048197,0.030544 0.019097,0 0.029027,-0.00661 0.025787,-0.017092 z M 3.7711378,8.0734067 c -0.02121,-0.010324 -0.047236,-0.01857 -0.057841,-0.018289 -0.0106,2.588e-4 -0.0019,0.00896 0.019275,0.019273 0.02121,0.010336 0.047236,0.018568 0.057841,0.018289 0.0106,-2.589e-4 0.0019,-0.00896 -0.019282,-0.019282 z M 3.6747384,8.040062 c 0,-0.0073 -0.017547,-0.022982 -0.038995,-0.034779 C 3.6116024,7.992002 3.5981394,7.974935 3.6003944,7.960481 3.6030744,7.943448 3.5757364,7.922096 3.4993385,7.881512 3.4417485,7.850926 3.3797766,7.815536 3.3616186,7.802874 3.3207086,7.77435 3.2891396,7.773256 3.2891396,7.800334 c 0,0.013298 0.012515,0.020513 0.035575,0.020513 0.019569,0 0.056945,0.015454 0.083061,0.034329 0.026116,0.018884 0.062312,0.040328 0.080433,0.047662 0.038075,0.015403 0.056182,0.052736 0.032973,0.067996 -0.010488,0.00687 0.00311,0.019927 0.039901,0.038241 0.092157,0.045871 0.1136524,0.051718 0.1136524,0.030942 z M 5.1271488,7.8384064 c 0,-0.02714 -0.0034,-0.028957 -0.030132,-0.015997 -0.022367,0.010845 -0.028639,0.022898 -0.024348,0.046787 0.00501,0.027794 0.0091,0.029974 0.030132,0.015997 0.013393,-0.0089 0.02435,-0.02995 0.024348,-0.046787 z m -0.083546,-0.00747 C 5.1506927,7.7737186 5.2885442,7.6485954 5.3532334,7.5498934 5.3906397,7.4928208 5.3655569,7.5063401 5.274189,7.5925049 5.2247402,7.6391393 5.1280486,7.7170914 5.0593178,7.7657397 4.9015163,7.8774317 4.8933761,7.911205 5.0436101,7.8309425 Z M 3.1477581,7.48155 c 0,-0.00611 -0.015899,-0.023423 -0.035349,-0.038487 -0.065193,-0.050505 -0.074222,-0.050606 -0.029613,-3.097e-4 0.043011,0.048476 0.064957,0.061588 0.064957,0.038818 z M 2.8682811,7.3498712 c -0.00579,-0.032215 -0.054757,-0.093048 -0.054659,-0.067902 5.36e-5,0.013825 0.04825,0.1012724 0.055818,0.1012724 0.00268,0 0.00216,-0.015013 -0.00114,-0.033378 z M 5.4642557,7.1849364 c 0.011031,-0.022473 0.00717,-0.021251 -0.02164,0.00687 -0.019282,0.018807 -0.041095,0.046499 -0.048477,0.061546 -0.01103,0.022473 -0.00717,0.021251 0.02164,-0.00687 0.019282,-0.018798 0.041095,-0.046499 0.048477,-0.061546 z m 0.266599,-0.020513 c 0,-0.018238 -0.00137,-0.018238 -0.012467,0 -0.00685,0.011292 -0.012467,0.029746 -0.012467,0.041033 0,0.018238 0.00137,0.018238 0.012467,0 0.00685,-0.011279 0.012467,-0.029746 0.012467,-0.041033 z M 2.7566148,7.1303669 c -0.010312,-0.026258 -0.025214,-0.058567 -0.033115,-0.071798 -0.011781,-0.019731 -0.012914,-0.016676 -0.00626,0.016965 0.00797,0.040295 0.03943,0.1025728 0.051826,0.1025728 0.00346,0 -0.00216,-0.021488 -0.012451,-0.047738 z M 2.6977,6.5351726 C 2.69171,6.5014036 2.680565,6.4583846 2.67292,6.4395806 2.662001,6.4127116 2.660708,6.4256786 2.66687,6.5000906 2.6763,6.6138424 2.684291,6.6427614 2.698728,6.6153103 2.704168,6.6050113 2.703678,6.5689393 2.697718,6.5351783 Z M 2.5912901,6.2583652 c -0.00305,-0.016923 -0.00556,-0.00305 -0.00556,0.030772 0,0.033853 0.00251,0.047695 0.00556,0.030772 0.00305,-0.016923 0.00305,-0.044623 0,-0.061546 z m 1.6425631,1.8164502 c -0.00707,-0.00297 -0.028073,-0.0089 -0.046674,-0.013248 -0.022779,-0.00535 -0.035796,-0.018875 -0.039866,-0.041542 -0.0073,-0.040651 0.027077,-0.060918 0.049062,-0.028931 0.019676,0.028634 0.123591,0.027912 0.2583329,-0.00179 0.085353,-0.018824 0.1116378,-0.020054 0.1394806,-0.00654 0.028227,0.013689 0.031535,0.02019 0.01865,0.036705 -0.0086,0.011044 -0.036672,0.025885 -0.062361,0.032971 -0.050298,0.013884 -0.2954389,0.03124 -0.316619,0.022405 z m 0.3120776,-0.041212 c 0.00412,-0.00442 0.0019,-0.014021 -0.00501,-0.021353 -0.012898,-0.013714 -0.1793872,0.016243 -0.1959036,0.035254 -0.00999,0.011503 0.1900246,-0.00238 0.2008945,-0.013902 z m 0.555512,-0.5495067 c 0,-0.014309 0.064582,-0.073494 0.080189,-0.073494 0.00656,0 0.00953,0.00764 0.00661,0.016974 -0.00631,0.020164 -0.086798,0.07257 -0.086798,0.05653 z M 5.6728227,6.9372851 c 0.011749,-0.066655 0.060071,-0.1700055 0.074918,-0.1602416 0.029905,0.019664 -0.02651,0.2095918 -0.062251,0.2095918 -0.017582,0 -0.019826,-0.00875 -0.012659,-0.049351 z M 5.5538098,6.4190608 c 2.429e-4,-0.022566 0.00316,-0.030144 0.0064,-0.016837 0.00329,0.013307 0.00305,0.031774 -4.858e-4,0.041033 -0.00351,0.00926 -0.00618,-0.00161 -0.00591,-0.024196 z M 5.7507757,6.0327038 C 5.7418843,5.9692656 5.6898925,5.8162539 5.6223862,5.6549039 5.5880592,5.5728625 5.586,5.5362854 5.6189222,5.5938754 c 0.010057,0.017576 0.036101,0.062733 0.057877,0.1003405 0.021777,0.037605 0.043839,0.093 0.049026,0.1230881 0.00519,0.030085 0.016824,0.073545 0.025852,0.096566 0.021199,0.054044 0.035259,0.1837991 0.01992,0.1837991 -0.00647,0 -0.015851,-0.029236 -0.020846,-0.064966 z M 2.1901959,3.9782054 C 1.9843695,3.9587093 1.7757853,3.8962593 1.5631287,3.7904553 1.4753054,3.7467585 1.3908588,3.71395 1.362211,3.7123942 1.2901488,3.7084737 1.1217377,3.567537 1.1891221,3.567537 c 0.030783,0 0.02031,-0.013425 -0.1107264,-0.1419981 C 1.0112376,3.3596449 0.94009923,3.2892468 0.92031027,3.2690995 0.87285936,3.2207877 0.73345246,2.9951503 0.63899921,2.8137855 0.58263228,2.7055513 0.56017557,2.6464163 0.55070866,2.5812878 0.54372625,2.5332449 0.52813207,2.4539395 0.51605887,2.4050459 0.48176713,2.2661803 0.48697716,1.8932646 0.5256016,1.7219949 0.60226368,1.3820287 0.7410967,1.1334032 1.0045278,0.86432392 1.2573532,0.60607709 1.4693632,0.48583775 1.7836822,0.42243275 1.957628,0.38734429 2.1782636,0.37273205 2.2030914,0.39465885 c 0.016317,0.0144102 0.019264,0.0110189 0.019432,-0.022296 4.663e-4,-0.0927464 0.065319,-0.10251946 0.078312,-0.0118007 0.00429,0.0300142 0.00864,0.0477685 0.00964,0.0394572 0.00244,-0.0200612 0.2637277,0.0231708 0.4195519,0.0694106 0.1322158,0.0392326 0.3412074,0.14300447 0.4592946,0.22805335 0.10607,0.0763917 0.2587058,0.24189005 0.3327445,0.3607807 0.2298734,0.3691265 0.2601094,0.4442885 0.3134631,0.7792135 0.035647,0.2237791 0.044037,0.4962635 0.019683,0.63937 -0.00736,0.043254 -0.018937,0.1129428 -0.025715,0.1548679 C 3.7810519,2.9311085 3.6557864,3.2005657 3.4270235,3.4974615 3.3035028,3.6577689 3.103388,3.8132596 2.9099712,3.8992137 2.7736688,3.9597855 2.4132888,3.9993358 2.1901929,3.9782063 Z M 2.8103242,3.8552868 C 2.9993647,3.7898517 3.1579437,3.6958827 3.3056074,3.5617945 3.3782737,3.4958096 3.5163094,3.323507 3.5584848,3.2461433 l 0.029822,-0.054708 -0.043183,0.054708 C 3.3801997,3.4550686 3.2402896,3.5782086 3.0642115,3.6694105 2.7562084,3.8289432 2.6970526,3.8561195 2.6014966,3.8819802 l -0.1028246,0.02783 0.096399,-0.0067 c 0.056402,-0.00392 0.1457158,-0.023764 0.2152527,-0.047831 z M 2.5254438,3.7608404 c -0.0064,-0.011019 -0.071757,-0.00498 -0.071757,0.00659 0,0.00285 0.017695,0.00526 0.039317,0.00526 0.021622,0 0.036225,-0.00532 0.032442,-0.011838 z m 0.58509,-0.2406445 c 0.058791,-0.041198 0.204316,-0.1840688 0.204316,-0.2005897 0,-0.00686 -0.044824,0.02513 -0.099613,0.071109 -0.054785,0.045975 -0.1328704,0.1054454 -0.1735178,0.132152 -0.040647,0.02671 -0.073906,0.053918 -0.073906,0.060475 0,0.015386 0.08316,-0.021406 0.1427212,-0.063145 z M 2.4302125,3.539149 C 2.5663441,3.509897 2.6020433,3.495968 2.6336309,3.459776 2.6518339,3.438924 2.6987059,3.411939 2.7417329,3.397551 2.7835149,3.383578 2.8494071,3.348512 2.8881575,3.319626 2.9379545,3.28251 2.9670705,3.269371 2.9874625,3.274814 c 0.02288,0.00611 0.051032,-0.013755 0.1359879,-0.095961 0.058928,-0.057017 0.1169519,-0.1036673 0.1289482,-0.1036673 0.011988,0 0.063129,-0.047697 0.1136284,-0.1059914 C 3.434735,2.8898833 3.4735225,2.8287793 3.5201203,2.7264403 3.6145769,2.518994 3.6489853,2.3560963 3.649014,2.1162136 3.6490404,1.8910074 3.5821782,1.5613073 3.5245323,1.5024047 3.5065033,1.4839837 3.5051963,1.4853837 3.5117303,1.5160817 3.5304393,1.6040607 3.5481513,1.7355499 3.5433543,1.75086 3.5404343,1.7602 3.5224233,1.712747 3.5033553,1.6453885 3.4218595,1.357543 3.3709036,1.2079969 3.3406861,1.1679921 3.3229436,1.1445028 3.2708281,1.0890926 3.224878,1.0448645 3.1789251,1.0006356 3.1181967,0.940358 3.0899196,0.91091352 3.0236053,0.8418607 2.8604161,0.73476614 2.7407108,0.68174102 2.6235271,0.62983356 2.3787769,0.56139124 2.2909554,0.55597212 c -0.036321,-0.002246 -0.063632,-0.008264 -0.060695,-0.0133865 0.00292,-0.0051 -5.371e-4,-0.0131781 -0.00773,-0.0178996 -0.00718,-0.004703 -0.013058,-0.002916 -0.013058,0.004033 0,0.006936 -0.050608,0.0169478 -0.1124647,0.0222637 -0.221318,0.0190052 -0.2899639,0.0405678 -0.5252815,0.16498276 -0.1210097,0.0639793 -0.2240779,0.11632663 -0.2290415,0.11632663 -0.024337,0 -0.1398941,0.0990624 -0.2292499,0.19653039 -0.098283,0.107205 -0.16540516,0.2125693 -0.18122314,0.2844723 -0.004406,0.020084 -0.034667,0.078552 -0.0672253,0.1299252 -0.0945286,0.1491697 -0.17219061,0.4383846 -0.17219061,0.6412428 0,0.03319 0.0145424,0.1137196 0.0323045,0.1789526 0.0177669,0.065233 0.0381949,0.1776433 0.0454038,0.2498006 0.0134728,0.134954 0.067452,0.2856125 0.0997262,0.2783545 0.008013,-0.00179 0.0378309,0.032042 0.0662356,0.075219 0.0284079,0.043176 0.10261225,0.1400446 0.16490025,0.2152649 0.097871,0.1181917 0.1306211,0.1474061 0.2411523,0.2151365 0.070345,0.043103 0.1718312,0.096392 0.2255247,0.1184138 0.1096488,0.044974 0.3257701,0.1051179 0.442209,0.1230621 0.1120641,0.017272 0.3406729,0.017547 0.4199615,5.169e-4 z M 3.5116258,2.3962819 c 0.00423,-0.023624 0.014335,-0.1251718 0.022487,-0.2256597 0.019593,-0.2415938 0.043107,-0.268858 0.033719,-0.039104 -0.00651,0.1595916 -0.02617,0.2703523 -0.052613,0.296553 -0.0064,0.00633 -0.00795,-0.00742 -0.00358,-0.03179 z m -0.47312,0.9445127 C 3.09048,3.3080084 3.1404812,3.2617003 3.1991713,3.1919984 l 0.03213,-0.038163 -0.057841,0.041317 c -0.031808,0.022723 -0.090126,0.063407 -0.1295883,0.090409 -0.039459,0.027001 -0.082842,0.062308 -0.096399,0.078458 -0.024588,0.029286 -0.024564,0.029337 0.00749,0.019288 0.017671,-0.00555 0.055269,-0.024671 0.083546,-0.042509 z M 2.2994482,0.53138377 c 0,-0.00752 -0.00257,-0.0136769 -0.00567,-0.0136769 -0.00311,0 -0.00924,0.006155 -0.013616,0.0136769 -0.00436,0.00752 -0.00179,0.0136769 0.00567,0.0136769 0.00749,0 0.013616,-0.006155 0.013616,-0.0136769 z M 6.5859848,3.8711803 C 6.5647746,3.868376 6.538236,3.8573583 6.5270044,3.8466322 6.5157663,3.8359111 6.4521487,3.8145731 6.3856193,3.7992223 6.31909,3.7838702 6.2278976,3.7593059 6.1829703,3.7446438 6.1380438,3.7299817 6.0888791,3.718119 6.073719,3.7182865 c -0.026658,3.097e-4 -0.02651,0.00118 0.0046,0.026946 0.017671,0.014651 0.075512,0.043747 0.1285315,0.064658 l 0.096398,0.038018 -0.059142,0.00409 c -0.042535,0.0029 -0.086785,-0.00761 -0.1575541,-0.037514 C 5.932636,3.7494311 5.7914829,3.6696743 5.7421866,3.6199109 5.7173838,3.5948702 5.653122,3.5343831 5.5993826,3.4854899 5.5456415,3.4365958 5.4893425,3.373515 5.4742688,3.3453077 c -0.031296,-0.058565 -0.012084,-0.070917 0.021269,-0.013677 0.03456,0.059305 0.084555,0.1128299 0.1053867,0.1128299 0.010488,0 0.029177,0.00973 0.041525,0.021613 0.012339,0.011888 0.035933,0.019581 0.052423,0.017093 0.025806,-0.00386 0.017946,-0.013694 -0.056468,-0.070443 C 5.5908569,3.3764649 5.4939773,3.2816966 5.4231123,3.2021268 5.2654764,3.0251281 5.2459767,3.034884 5.3887848,3.2192984 5.4385338,3.2835445 5.4165127,3.2779655 5.3438823,3.2079196 5.2817444,3.1479988 5.1566281,2.9545172 5.1146228,2.8533937 5.0898023,2.7936403 5.0115294,2.4725664 4.9886537,2.336668 4.9816893,2.2952956 4.9767955,2.1660554 4.9777803,2.0494643 4.9823755,1.5019415 5.1306485,1.1617203 5.5205089,0.80396687 5.8138912,0.53474591 6.0373832,0.44470116 6.4960404,0.41092666 l 0.1285316,-0.009468 0.014463,-0.0478691 c 0.019127,-0.0632968 0.064673,-0.0740998 0.07582,-0.0179839 0.01475,0.0742462 0.021007,0.0778199 0.1808501,0.10324662 0.1961364,0.0312017 0.3013173,0.0649695 0.4650163,0.14930375 0.3006657,0.15489474 0.4643293,0.31223933 0.6430193,0.61819587 0.1059566,0.1814214 0.1238192,0.2175627 0.1648404,0.3335254 0.031867,0.090073 0.073499,0.3261941 0.089468,0.50734 0.00559,0.063119 0.012882,0.093554 0.01973,0.082057 0.00653,-0.011044 0.010967,0.018276 0.011078,0.074042 9.69e-5,0.052562 -0.00527,0.092316 -0.012659,0.092316 -0.00706,0 -0.01285,0.014724 -0.01285,0.032724 0,0.018 -0.00749,0.035767 -0.016528,0.03948 -0.00927,0.00381 -0.023935,0.053917 -0.033425,0.1142929 -0.025429,0.1618431 -0.074974,0.3539025 -0.1106098,0.4287245 -0.035837,0.075251 -0.067473,0.1071256 -0.05323,0.053638 0.023482,-0.088215 0.025062,-0.1118508 0.00706,-0.1054591 -0.019668,0.00697 -0.1311399,0.2357052 -0.1521745,0.3122406 -0.016929,0.061578 -0.1138902,0.1772874 -0.246108,0.2936786 -0.067631,0.059539 -0.1012889,0.09819 -0.096664,0.111012 0.00442,0.012309 -0.00843,0.029751 -0.034405,0.046598 -0.049797,0.032305 -0.062448,0.033873 -0.052578,0.00651 0.010328,-0.028519 -0.00916,-0.025774 -0.091385,0.012926 -0.1244674,0.05857 -0.075901,0.017071 0.06089,-0.05202 C 7.5594895,3.5317388 7.5894634,3.5087765 7.686942,3.4040073 7.7907164,3.2924692 7.861177,3.1851637 7.8432014,3.1660362 c -0.00433,-0.00454 -0.063416,0.048542 -0.1314193,0.1179745 -0.069811,0.071276 -0.1863095,0.1701388 -0.2675593,0.2270509 -0.079156,0.055441 -0.1529296,0.1154481 -0.163949,0.133345 -0.020426,0.033178 -0.062943,0.043551 -0.077285,0.018864 -0.024045,-0.041394 -0.1001237,0.00409 -0.08796,0.052557 0.00654,0.026128 0.014814,0.030983 0.044784,0.026302 0.031446,-0.00493 0.03675,-0.00112 0.03675,0.026082 0,0.017502 -0.00168,0.031823 -0.00364,0.031823 -0.00203,0 -0.038165,0.013033 -0.080333,0.028967 -0.062462,0.023595 -0.1129819,0.029774 -0.2725703,0.033307 -0.1077428,0.00241 -0.2002864,0.0065 -0.2056516,0.00913 -0.00538,0.00263 -0.027105,0.00252 -0.048311,-2.588e-4 z M 6.978906,3.7775428 c 0.027781,-0.011826 0.050512,-0.026576 0.050512,-0.032775 0,-0.02573 -0.05623,-0.025651 -0.2194905,3.102e-4 C 6.7150355,3.760167 6.6301661,3.77255 6.6213294,3.772599 6.5938044,3.7727541 6.6037474,3.79778 6.6341794,3.804966 6.6899014,3.818117 6.9281142,3.799186 6.9789013,3.77755 Z M 6.1995619,3.7028775 c -0.012611,-0.021708 -0.1095163,-0.066305 -0.1448427,-0.066658 -0.046931,-4.655e-4 -0.026229,0.031061 0.037478,0.05708 0.0663,0.02708 0.1203281,0.031897 0.1073629,0.00958 z m -0.299433,-0.040062 c -0.016686,-0.014791 -0.036935,-0.026694 -0.044986,-0.02644 -0.00805,2.582e-4 -0.00101,0.012556 0.015708,0.027354 0.016693,0.014791 0.036935,0.026694 0.044986,0.02644 0.00805,-2.581e-4 0.00101,-0.012556 -0.015708,-0.027354 z m 0.4421786,-0.046133 c 0.019951,-0.015519 0.06772,-0.017761 0.247279,-0.01159 0.2135249,0.00735 0.2240714,0.00645 0.2599806,-0.021792 0.020583,-0.016192 0.048311,-0.029443 0.061611,-0.029443 0.013297,0 0.052578,-0.00911 0.08728,-0.020236 0.03857,-0.012371 0.064761,-0.015027 0.067379,-0.00684 0.0073,0.022795 0.032919,0.014444 0.064544,-0.021032 0.02975,-0.033368 0.038022,-0.036467 0.106951,-0.039983 0.053957,-0.00274 0.031288,0.014501 -0.077967,0.059331 -0.140531,0.057666 -0.1685055,0.072195 -0.1685055,0.087517 0,0.025909 0.1208326,-0.00437 0.21506,-0.053934 0.051987,-0.027331 0.1101772,-0.069409 0.1293137,-0.093506 0.019141,-0.0241 0.066188,-0.061698 0.1045534,-0.083558 C 7.5285597,3.3310392 7.7014112,3.158726 7.7457042,3.0766459 7.7644033,3.0419933 7.8142097,2.9674828 7.8563938,2.9110677 8.0183471,2.6944654 8.109081,2.3971249 8.109081,2.0830032 8.109081,1.6364997 7.9419452,1.2238839 7.6541356,0.959862 7.5805426,0.89235369 7.3966893,0.76129235 7.311662,0.71573069 7.1248888,0.61564867 6.8122409,0.52184694 6.7134514,0.53625481 c -0.031069,0.004542 -0.070544,0.002581 -0.087719,-0.004368 -0.037766,-0.0152788 -0.2510106,0.005547 -0.3589017,0.0350496 -0.04122,0.0112671 -0.1077333,0.0361068 -0.1478118,0.0551952 -0.04008,0.0190871 -0.1164555,0.0512914 -0.1697288,0.0715622 -0.2367254,0.0900847 -0.556536,0.40297979 -0.6455202,0.63156139 -0.010392,0.02667 -0.033259,0.058521 -0.050841,0.070777 -0.043416,0.030266 -0.074354,0.1046426 -0.079172,0.1903064 -0.00316,0.055862 -0.010839,0.077248 -0.035885,0.099602 -0.017534,0.015654 -0.041586,0.061484 -0.053437,0.1018382 -0.025991,0.088475 -0.026551,0.103496 -0.0046,0.1228896 0.012675,0.011205 0.01459,0.036315 0.0076,0.099557 -0.00717,0.064673 -0.00351,0.1082473 0.015372,0.1851408 0.017342,0.07046 0.023967,0.138388 0.02213,0.2269307 -0.00251,0.1196385 -1.458e-4,0.1320411 0.044264,0.2328779 0.025793,0.058579 0.079218,0.15644 0.1187271,0.217467 0.040803,0.063028 0.068718,0.1195951 0.064622,0.1309507 -0.010152,0.028149 0.031546,0.094023 0.11125,0.1757559 0.1287087,0.1319822 0.2955833,0.2534717 0.3168863,0.2307031 0.0046,-0.00493 -0.013297,-0.027499 -0.039805,-0.050149 -0.02651,-0.02265 -0.048197,-0.047236 -0.048197,-0.05464 0,-0.021523 0.092018,0.042374 0.1440828,0.1000551 0.026229,0.029056 0.05586,0.052825 0.065846,0.052825 0.028401,0 0.1391789,0.055284 0.1850104,0.092328 0.03928,0.03175 0.1665968,0.08314 0.2099179,0.084729 0.011015,4.14e-4 0.031163,-0.00792 0.044765,-0.018499 z m -1.09948,-0.6645808 c -0.035922,-0.075713 -0.051599,-0.097659 -0.051294,-0.071801 1.94e-4,0.014455 0.07616,0.1538587 0.08387,0.1538587 0.00351,0 -0.011174,-0.036926 -0.032579,-0.082058 z M 8.1450357,2.6574003 c 0.00916,-0.029297 0.014638,-0.07191 0.01218,-0.094688 l -0.00442,-0.041418 -0.020637,0.047869 c -0.031656,0.073424 -0.043613,0.1554498 -0.021533,0.1477309 0.0098,-0.00342 0.025314,-0.030193 0.034479,-0.059495 z M 5.1078689,2.6238695 c -0.00484,-0.016175 -0.011669,-0.026334 -0.015197,-0.022576 -0.00351,0.00375 -0.00251,0.020072 0.00233,0.036253 0.00484,0.016181 0.011669,0.026334 0.015197,0.022576 0.00351,-0.00375 0.00251,-0.020072 -0.00233,-0.036253 z M 5.0885866,2.4962232 c 0,-0.017552 -0.00436,-0.036454 -0.00964,-0.042011 -0.00532,-0.00555 -0.016723,-0.029661 -0.025375,-0.053566 -0.014989,-0.041423 -0.015404,-0.040253 -0.00868,0.024918 0.00388,0.037608 0.00934,0.076075 0.012116,0.085477 0.00872,0.029392 0.031575,0.018661 0.031575,-0.014814 z M 5.0545199,2.2610064 c -0.0102,-0.028273 -0.017342,-0.02494 -0.017342,0.00808 0,0.015486 0.00556,0.024526 0.012292,0.020078 0.00677,-0.00442 0.00904,-0.017117 0.00508,-0.02816 z M 1.0701845,3.5011614 C 1.0126296,3.4567978 0.97050619,3.3958499 0.98278819,3.374704 c 0.00795,-0.013699 0.14701841,0.1328304 0.14701841,0.1549151 0,0.016046 -0.00495,0.013688 -0.059625,-0.028457 z M 4.9492331,2.2956355 c 0,-0.018808 0.00292,-0.026498 0.00648,-0.017093 0.00358,0.00941 0.00358,0.024789 0,0.034192 -0.00358,0.00941 -0.00648,0.00174 -0.00648,-0.017093 z M 2.2584785,0.27586674 c 0.00927,-0.003983 0.020363,-0.003474 0.024636,0.001061 0.00429,0.004542 -0.00334,0.00778 -0.016871,0.007185 -0.014973,-6.7205e-4 -0.018018,-0.003921 -0.00776,-0.008252 z m 4.4078387,2.844e-4 c 0.00884,-0.003809 0.023298,-0.003809 0.032131,0 0.00884,0.003809 0.00161,0.006899 -0.016065,0.006899 -0.017671,0 -0.024904,-0.003077 -0.016066,-0.006899 z"
       id="path118" />
  </g>
</svg>
