<?xml version="1.0" encoding="UTF-8" standalone="no"?>
<svg
   xmlns:dc="http://purl.org/dc/elements/1.1/"
   xmlns:cc="http://creativecommons.org/ns#"
   xmlns:rdf="http://www.w3.org/1999/02/22-rdf-syntax-ns#"
   xmlns:svg="http://www.w3.org/2000/svg"
   xmlns="http://www.w3.org/2000/svg"
   xmlns:sodipodi="http://sodipodi.sourceforge.net/DTD/sodipodi-0.dtd"
   xmlns:inkscape="http://www.inkscape.org/namespaces/inkscape"
   version="1.1"
   x="0px"
   y="0px"
   width="50"
   height="50"
   viewBox="0 0 50 50"
   enable-background="new 0 0 512 512"
   xml:space="preserve"
   id="svg20"
   sodipodi:docname="top.svg"
   inkscape:version="1.0.2-2 (e86c870879, 2021-01-15)"><metadata
   id="metadata26"><rdf:RDF><cc:Work
       rdf:about=""><dc:format>image/svg+xml</dc:format><dc:type
         rdf:resource="http://purl.org/dc/dcmitype/StillImage" /><dc:title></dc:title></cc:Work></rdf:RDF></metadata><defs
   id="defs24" /><sodipodi:namedview
   pagecolor="#ffffff"
   bordercolor="#666666"
   borderopacity="1"
   objecttolerance="10"
   gridtolerance="10"
   guidetolerance="10"
   inkscape:pageopacity="0"
   inkscape:pageshadow="2"
   inkscape:window-width="1600"
   inkscape:window-height="837"
   id="namedview22"
   showgrid="false"
   inkscape:zoom="12.94"
   inkscape:cx="25"
   inkscape:cy="25"
   inkscape:window-x="-8"
   inkscape:window-y="-8"
   inkscape:window-maximized="1"
   inkscape:current-layer="svg20" />

<path
   id="arrow-28-icon"
   fill="#2299ee"
   d="m 25.001544,44.10483 c 10.914333,0 19.745837,-8.591248 19.745837,-19.205298 0,-10.615551 -8.833167,-19.2052887 -19.745837,-19.2052887 -10.914326,0 -19.7458303,8.5912467 -19.7458303,19.2052887 0,10.61556 8.8331683,19.205298 19.7458303,19.205298 z m 0,-43.0383687 c 13.533151,0 24.503866,10.6703937 24.503866,23.8330707 0,13.162686 -10.970715,23.83308 -24.503866,23.83308 -13.533151,0 -24.50386732,-10.670394 -24.50386732,-23.83308 0,-13.162677 10.97071632,-23.8330707 24.50386732,-23.8330707 z M 14.60501,31.383638 10.785855,27.650979 25.120498,13.775042 39.45526,27.650979 35.636105,31.383638 25.120498,21.204604 Z"
   style="stroke-width:0.117311" />

</svg>
