<?xml version="1.0" encoding="UTF-8" standalone="no"?>
<svg
   xmlns:dc="http://purl.org/dc/elements/1.1/"
   xmlns:cc="http://creativecommons.org/ns#"
   xmlns:rdf="http://www.w3.org/1999/02/22-rdf-syntax-ns#"
   xmlns:svg="http://www.w3.org/2000/svg"
   xmlns="http://www.w3.org/2000/svg"
   xmlns:sodipodi="http://sodipodi.sourceforge.net/DTD/sodipodi-0.dtd"
   xmlns:inkscape="http://www.inkscape.org/namespaces/inkscape"
   width="32"
   height="32"
   viewBox="0 0 8.4666665 8.4666669"
   version="1.1"
   id="svg252"
   inkscape:version="1.0.1 (3bc2e813f5, 2020-09-07)"
   sodipodi:docname="yonex.svg">
  <defs
     id="defs246" />
  <sodipodi:namedview
     id="base"
     pagecolor="#ffffff"
     bordercolor="#666666"
     borderopacity="1.0"
     inkscape:pageopacity="0.0"
     inkscape:pageshadow="2"
     inkscape:zoom="14.71875"
     inkscape:cx="16"
     inkscape:cy="16"
     inkscape:document-units="px"
     inkscape:current-layer="layer1"
     inkscape:document-rotation="0"
     showgrid="false"
     inkscape:snap-global="false"
     units="px"
     inkscape:window-width="1366"
     inkscape:window-height="745"
     inkscape:window-x="-8"
     inkscape:window-y="-8"
     inkscape:window-maximized="1" />
  <metadata
     id="metadata249">
    <rdf:RDF>
      <cc:Work
         rdf:about="">
        <dc:format>image/svg+xml</dc:format>
        <dc:type
           rdf:resource="http://purl.org/dc/dcmitype/StillImage" />
        <dc:title></dc:title>
      </cc:Work>
    </rdf:RDF>
  </metadata>
  <g
     inkscape:label="Layer 1"
     inkscape:groupmode="layer"
     id="layer1">
    <path
       style="fill:#008000;stroke-width:0.0155176"
       d="M 1.3850962,7.9092594 C 1.001043,7.8137912 0.66612052,7.3943959 0.48383501,6.7806924 0.23900672,5.9564207 0.32457691,4.9689672 0.69867738,4.3015858 1.064019,3.6498239 1.6303494,3.4863172 2.1002282,3.8969402 2.2292603,4.0096955 2.3201754,4.129279 2.4297989,4.3304088 2.8286077,5.0621169 2.8784607,6.1927567 2.5484366,7.0210359 2.3840736,7.43356 2.137435,7.7352051 1.8617355,7.8609111 1.7369856,7.9177895 1.5114465,7.9406693 1.3850962,7.9092594 Z m 3.4621825,-0.00147 C 4.4616201,7.8195658 4.1124125,7.3744721 3.9333864,6.7429976 3.7646221,6.1477176 3.7666556,5.4273708 3.93876,4.8408615 4.2465863,3.7918375 4.9638809,3.373333 5.5601488,3.8948653 5.6836732,4.0029037 5.7461873,4.082004 5.8599433,4.2741901 6.014953,4.536085 6.1177707,4.8367728 6.1857307,5.2270366 6.2151512,5.3959743 6.2172332,5.4336108 6.217502,5.7990234 6.2177672,6.1682135 6.2159484,6.200576 6.1855289,6.3754555 6.0629119,7.0798744 5.7850681,7.592167 5.4051139,7.8144211 5.219569,7.9229545 5.042783,7.9525518 4.8472754,7.9078141 Z M 3.0734645,5.6627496 C 3.0699381,5.6244774 3.0588553,5.4727281 3.048612,5.3255315 2.9841211,4.3926037 2.8102722,3.381267 2.6039719,2.7388909 2.3671519,2.0014837 1.8695625,1.0640639 1.4593115,0.58244335 l -0.080771,-0.0948207 1.7114259,-0.005219 c 0.9412838,-0.002882 1.7138724,-8.9463e-4 1.7168648,0.004369 0.00621,0.0110017 -0.020184,0.0936101 -0.313111,0.97873345 C 4.1000433,2.6550327 3.8240653,3.4906425 3.735605,3.760942 3.687428,3.9081379 3.6046923,4.1582681 3.5517412,4.3167871 3.498795,4.4753058 3.3749586,4.8505018 3.2765624,5.1505546 3.1781595,5.4506082 3.0936439,5.7042608 3.0887338,5.7142283 c -0.00486,0.00997 -0.011749,-0.013194 -0.015281,-0.051467 z m 3.4435028,-0.014228 c 0,-0.111237 -0.040536,-0.6060745 -0.074507,-0.9097144 C 6.3423172,3.8440092 6.1741961,3.0506457 5.9669388,2.4948382 5.7079848,1.8004007 5.2752842,1.0193336 4.9088476,0.58488105 l -0.082031,-0.0972583 1.7125323,-0.005218 c 0.9418934,-0.002882 1.7143024,-0.002086 1.7164651,0.001687 0.00403,0.007001 -0.03115,0.11475837 -0.5748777,1.76368485 C 7.1494526,3.8595663 7.0581645,4.1366894 6.79424,4.9395077 6.6518581,5.3726035 6.5312289,5.726955 6.5261695,5.726955 c -0.00504,0 -0.00924,-0.035305 -0.00924,-0.078452 z"
       id="path268" />
  </g>
</svg>
