<?xml version="1.0" encoding="UTF-8" standalone="no"?>
<svg
   xmlns:dc="http://purl.org/dc/elements/1.1/"
   xmlns:cc="http://creativecommons.org/ns#"
   xmlns:rdf="http://www.w3.org/1999/02/22-rdf-syntax-ns#"
   xmlns:svg="http://www.w3.org/2000/svg"
   xmlns="http://www.w3.org/2000/svg"
   xmlns:sodipodi="http://sodipodi.sourceforge.net/DTD/sodipodi-0.dtd"
   xmlns:inkscape="http://www.inkscape.org/namespaces/inkscape"
   width="32"
   height="32"
   viewBox="0 0 8.4666665 8.4666669"
   version="1.1"
   id="svg37"
   inkscape:version="1.0.1 (3bc2e813f5, 2020-09-07)"
   sodipodi:docname="ball.svg">
  <defs
     id="defs31" />
  <sodipodi:namedview
     id="base"
     pagecolor="#ffffff"
     bordercolor="#666666"
     borderopacity="1.0"
     inkscape:pageopacity="0.0"
     inkscape:pageshadow="2"
     inkscape:zoom="16.03125"
     inkscape:cx="16"
     inkscape:cy="16"
     inkscape:document-units="px"
     inkscape:current-layer="layer1"
     inkscape:document-rotation="0"
     showgrid="false"
     units="px"
     inkscape:window-width="1366"
     inkscape:window-height="745"
     inkscape:window-x="-8"
     inkscape:window-y="-8"
     inkscape:window-maximized="1" />
  <metadata
     id="metadata34">
    <rdf:RDF>
      <cc:Work
         rdf:about="">
        <dc:format>image/svg+xml</dc:format>
        <dc:type
           rdf:resource="http://purl.org/dc/dcmitype/StillImage" />
        <dc:title></dc:title>
      </cc:Work>
    </rdf:RDF>
  </metadata>
  <g
     inkscape:label="Layer 1"
     inkscape:groupmode="layer"
     id="layer1">
    <path
       style="fill:#ff0000;stroke-width:0.027808"
       d="M 3.4801741,8.1407391 C 2.8763934,8.0280881 2.3388844,7.7965847 1.8252504,7.4284877 1.6606623,7.3103247 1.1335043,6.7998462 1.0159924,6.6445806 0.78398249,6.3379766 0.5790604,5.9692939 0.4561547,5.6373349 0.3756453,5.4203005 0.3760419,5.4182335 0.4573847,5.4726644 c 0.0567132,0.037894 0.0686115,0.03824 0.0813023,0.00345 0.0158635,-0.042026 -0.10192505,-0.153988 -0.16220863,-0.153988 -0.0198301,0 -0.0467981,-0.050641 -0.0622661,-0.1119627 -0.0237953,-0.1012818 -0.0237953,-0.1123064 0.0237953,-0.1123064 0.0277618,0 0.0519541,0.020669 0.0519541,0.04513 0,0.031005 0.0158636,0.040995 0.0535404,0.031005 0.0317284,-0.00689 0.0594903,0.0023 0.0682146,0.024115 0.007938,0.020669 0.0396602,0.038929 0.0674221,0.038929 0.0277619,0 0.0586965,0.024115 0.0658356,0.050985 0.0118944,0.040306 0.0356937,0.048573 0.11342636,0.038929 0.0816993,-0.010335 0.10073552,-0.00283 0.10073552,0.036862 0,0.042029 0.0198301,0.046507 0.12413523,0.031005 0.10311572,-0.013776 0.12413522,-0.010335 0.12413522,0.027559 0,0.038929 0.023795,0.042718 0.1792622,0.027559 0.1503106,-0.017225 0.1792623,-0.010335 0.1792623,0.024115 0,0.03445 0.035694,0.042718 0.1487242,0.042718 0.1225488,0 0.1507072,0.010335 0.1622085,0.053397 0.011895,0.050985 0.023795,0.051674 0.216939,0.013776 0.1118401,-0.020669 0.206231,-0.039273 0.210197,-0.039273 0.00397,0 0.00794,0.017225 0.00794,0.040306 0,0.064421 0.043626,0.07579 0.2157493,0.056154 0.1514995,-0.017224 0.1606213,-0.024113 0.1487233,-0.085434 -0.011895,-0.062353 -0.023795,-0.067177 -0.1871942,-0.067177 -0.097563,0 -0.1828315,-0.013776 -0.1935397,-0.031005 -0.011895,-0.020669 -0.084078,-0.024115 -0.2220949,-0.010335 -0.1752962,0.017225 -0.2034547,0.013776 -0.2034547,-0.024115 0,-0.045819 -0.040057,-0.053742 -0.2276471,-0.04513 -0.072974,0.00345 -0.1086673,-0.010335 -0.1205656,-0.040306 -0.015863,-0.037552 -0.04442,-0.042029 -0.1792622,-0.027559 -0.1130308,0.013776 -0.1622085,0.010335 -0.1622085,-0.013776 0,-0.017225 -0.046798,-0.031004 -0.11144447,-0.031004 -0.0741644,0 -0.11660037,-0.013777 -0.12730794,-0.042718 -0.0118944,-0.031004 -0.0396602,-0.03824 -0.10946111,-0.024115 -0.0725768,0.013776 -0.0935976,0.00689 -0.0935976,-0.024115 0,-0.024115 -0.0317284,-0.049953 -0.0690084,-0.059598 -0.0396602,-0.010335 -0.0690084,-0.031005 -0.0690084,-0.04513 0,-0.013776 -0.0317284,-0.027561 -0.0690084,-0.027561 -0.0396602,0 -0.0690084,-0.010335 -0.0690084,-0.027559 0,-0.013776 -0.0237953,-0.034451 -0.0551269,-0.044095 C 0.25036273,4.9531683 0.23925818,4.9204405 0.21070256,4.6972056 0.194839,4.5783532 0.19880817,4.5638848 0.24639625,4.5638848 c 0.0277619,0 0.0682146,0.017225 0.0864583,0.040306 0.0198301,0.020669 0.0483845,0.034451 0.0674221,0.027559 0.0198301,-0.00689 0.0487814,0.017225 0.0662326,0.057875 0.0237953,0.054086 0.0527479,0.071312 0.11818672,0.071312 0.0582995,0 0.10311567,0.020669 0.13841268,0.067522 0.0356937,0.044441 0.0705948,0.062699 0.10589149,0.053053 0.0317284,-0.00689 0.0912174,0.013776 0.14198218,0.049263 0.0761464,0.05512 0.10192628,0.059943 0.19116018,0.035828 0.086459,-0.024115 0.114617,-0.017225 0.1760894,0.027559 0.055921,0.041341 0.09677,0.049608 0.1729168,0.03514 l 0.099546,-0.017225 -0.055524,-0.056498 C 1.5155108,4.9156119 1.4524522,4.8956298 1.3374387,4.8873624 1.2482046,4.8804741 1.1137576,4.8701371 1.0388005,4.8666929 0.9416346,4.8598046 0.88888653,4.8391337 0.85517562,4.7967594 0.82741371,4.7623084 0.77585657,4.7371612 0.73342059,4.7371612 c -0.0464025,0 -0.094787,-0.027559 -0.12849738,-0.070277 -0.0277619,-0.038584 -0.0765432,-0.069933 -0.10430515,-0.069933 -0.0277619,0 -0.0658357,-0.020669 -0.084872,-0.043407 -0.01983,-0.024115 -0.0507647,-0.037551 -0.0698009,-0.031004 -0.0198301,0.00689 -0.0416422,-0.00345 -0.0499708,-0.027559 -0.007938,-0.020669 -0.0317284,-0.040306 -0.0543342,-0.040306 -0.0198301,0 -0.0471951,-0.020669 -0.057507,-0.047541 -0.0237953,-0.062699 -0.0158635,-0.5258776 0.0118944,-0.5682509 0.0158636,-0.024115 0.0602828,-0.00689 0.15467315,0.054086 0.13206714,0.08509 0.1356365,0.08578 0.16022554,0.031005 0.0317284,-0.072689 -0.057507,-0.1550245 -0.11501402,-0.1061054 -0.0277619,0.024115 -0.0317284,0.017225 -0.0198301,-0.013776 0.0118944,-0.027559 -0.0158636,-0.064765 -0.0682146,-0.1040385 -0.0606797,-0.043752 -0.084475,-0.083713 -0.084475,-0.1412447 0,-0.1298754 0.0610766,-0.3610349 0.099546,-0.376055 0.0237966,-0.010335 0.0277619,0.00138 0.0198301,0.027559 -0.0118944,0.027559 0.00397,0.040651 0.0428329,0.040651 0.0317284,0 0.0579039,0.017225 0.0579039,0.040306 0,0.031005 0.0237953,0.036172 0.0987522,0.024115 0.0856658,-0.013776 0.0975628,-0.010335 0.089631,0.036517 -0.007938,0.044095 0.007938,0.051331 0.0805098,0.044095 0.0753539,-0.00689 0.089631,6.545e-4 0.089631,0.049263 0,0.064421 0.0277619,0.070277 0.15665616,0.031004 0.0789235,-0.024115 0.0884416,-0.017225 0.10430511,0.043751 0.011894,0.048574 0.031728,0.064767 0.064249,0.054775 0.1729169,-0.05202 0.1990922,-0.051674 0.1990922,0.00327 0,0.083369 0.023795,0.090949 0.1439651,0.047541 0.1503106,-0.053742 0.1895738,-0.050296 0.2074207,0.017225 0.015863,0.059943 0.05473,0.060976 0.2780153,0.00689 0.048781,-0.010335 0.067422,-0.00162 0.078923,0.044095 0.01983,0.069933 0.00794,0.0689 0.21218,0.020669 0.1554663,-0.036862 0.162605,-0.036517 0.176486,0.017225 0.011895,0.051331 0.027761,0.05512 0.1689507,0.039273 0.085269,-0.010335 0.1808487,-0.024115 0.2129731,-0.034451 0.046005,-0.013776 0.062266,-0.00162 0.075751,0.054086 l 0.015863,0.070622 0.1852113,-0.05202 c 0.193143,-0.054431 0.2284403,-0.05202 0.2284403,0.013776 0,0.050985 -0.011895,0.052365 0.2197153,-0.027559 0.1637949,-0.056154 0.200282,-0.060976 0.2125765,-0.027559 0.01983,0.05133 0.1102549,0.050641 0.257392,-0.00227 0.064645,-0.024115 0.1344466,-0.042029 0.1550697,-0.042029 0.01983,0 0.03966,0.017225 0.03966,0.042029 0,0.053053 0.047592,0.052708 0.2538227,-0.00165 0.1534833,-0.040306 0.1677609,-0.039963 0.1994886,0.00345 0.031729,0.044784 0.046005,0.044784 0.2331996,-0.00193 0.1864011,-0.046507 0.2010751,-0.046507 0.232803,-0.00227 0.031729,0.04444 0.045608,0.04444 0.220905,-3.1e-4 0.1550698,-0.039618 0.1979025,-0.041684 0.2526329,-0.010335 0.053937,0.027559 0.094787,0.027559 0.2284405,-0.00689 0.1431717,-0.036517 0.1657779,-0.036517 0.1883839,-3.444e-4 0.023795,0.035483 0.047592,0.036172 0.1856078,0.00345 0.1316706,-0.031005 0.1641916,-0.031005 0.1824351,1.379e-4 0.01983,0.031004 0.048781,0.031004 0.1657779,0.00165 0.1122369,-0.027559 0.1570528,-0.027559 0.2054378,-0.00138 0.047592,0.027559 0.089631,0.027559 0.1796588,0.00165 0.1015292,-0.027561 0.1245322,-0.024115 0.1705371,0.017225 0.050765,0.046852 0.059093,0.046507 0.1729166,-0.010335 0.1086673,-0.053742 0.1233414,-0.05512 0.1626053,-0.013776 0.039661,0.039961 0.051557,0.039961 0.1352398,-3.446e-4 0.061077,-0.031004 0.1308773,-0.038929 0.2074207,-0.027559 0.063455,0.010335 0.1380161,0.00689 0.1649847,-0.00689 0.1316706,-0.057875 0.1594324,-0.035483 0.1681575,0.1367666 0.00794,0.1770723 -0.027761,0.2535511 -0.1066854,0.2277136 -0.031729,-0.010335 -0.05949,0.00294 -0.076146,0.034451 -0.023795,0.041683 -0.031727,0.043407 -0.071784,0.010335 -0.039661,-0.031005 -0.050765,-0.031005 -0.084475,0.013776 -0.023795,0.027559 -0.040055,0.038584 -0.040452,0.020669 -5.951e-4,-0.024115 -0.027761,-0.020669 -0.090425,0.010335 -0.1166003,0.057531 -0.1114443,0.050641 -0.090425,0.1174749 0.015863,0.054086 0.023795,0.05512 0.095579,0.017225 0.042436,-0.024115 0.085666,-0.031005 0.095579,-0.020669 0.035694,0.036172 0.2347861,0.024115 0.2494602,-0.013776 0.00794,-0.020669 0.027761,-0.027559 0.046402,-0.017225 0.015863,0.010335 0.049971,-0.00345 0.072181,-0.034451 0.035694,-0.048231 0.039661,-0.03824 0.023795,0.100938 C 8.120044,4.3974627 8.104189,4.5579989 8.09229,4.6692032 L 8.07246,4.871424 7.9098548,4.888649 C 7.8202238,4.898984 7.740904,4.916208 7.7329721,4.930678 c -0.00794,0.013776 -0.04442,0.010335 -0.0817,-0.00689 -0.055524,-0.027559 -0.077733,-0.024115 -0.1233415,0.020669 -0.07575,0.069589 -0.0698,0.090603 0.031729,0.1133404 0.065042,0.013776 0.095976,0.00689 0.1201687,-0.027559 0.023795,-0.031004 0.056714,-0.040651 0.1154097,-0.027559 0.061472,0.013776 0.086855,0.00345 0.099943,-0.027559 0.011895,-0.035483 0.027761,-0.039273 0.069406,-0.017225 0.027761,0.013776 0.058696,0.020669 0.067025,0.013776 0.00794,-0.010335 5.553e-4,0.042718 -0.015863,0.1136842 -0.035694,0.1457228 -0.1542765,0.248728 -0.2550125,0.2228907 -0.039661,-0.010335 -0.065042,3.445e-4 -0.076543,0.031005 -0.011895,0.031004 -0.035694,0.040306 -0.070594,0.027559 -0.035694,-0.010335 -0.079716,0.010335 -0.1388093,0.06821 -0.089631,0.088881 -0.1542766,0.108517 -0.1729167,0.052364 -0.00794,-0.020669 -0.049178,-0.010335 -0.1281018,0.034451 -0.090425,0.051674 -0.122152,0.05891 -0.1388091,0.031004 -0.015863,-0.027559 -0.050368,-0.020669 -0.1515005,0.027559 -0.1094611,0.054086 -0.1336535,0.057875 -0.1542765,0.024115 -0.01983,-0.034794 -0.044817,-0.03445 -0.1709337,0.00689 -0.1229458,0.040306 -0.1503107,0.042029 -0.1717269,0.010335 -0.01983,-0.031005 -0.047989,-0.031005 -0.1745032,0.00135 L 6.0625024,5.6626899 5.8856197,5.4869955 C 5.7880566,5.3905358 5.708737,5.3023442 5.708737,5.2913201 c 0,-0.010335 0.023795,-0.027559 0.056714,-0.038584 0.090028,-0.027559 0.011895,-0.103005 -0.1011326,-0.09336 C 5.5830155,5.1662652 5.5449417,5.1387074 5.2681165,4.8600074 5.0027926,4.5940543 4.967892,4.5482359 5.0063619,4.5196425 c 0.035694,-0.027559 0.03966,-0.045473 0.015864,-0.08957 -0.023795,-0.044784 -0.048782,-0.053397 -0.1209626,-0.041684 -0.077732,0.013781 -0.1035113,0.00138 -0.1752954,-0.07889 -0.11541,-0.1291871 -0.4796058,-0.4778199 -0.394615,-0.378053 0.035694,0.044095 0.1522936,0.1629479 0.2546159,0.2638862 0.1023221,0.1009379 0.186401,0.1939526 0.186401,0.2070436 0,0.013776 -0.031729,0.024115 -0.070991,0.024115 -0.057507,0 -0.069406,0.010335 -0.061869,0.063044 0.00794,0.056153 0.023795,0.063044 0.1511037,0.063044 h 0.1423788 l 0.3125191,0.3186615 c 0.1840214,0.1874073 0.2982415,0.3241735 0.2780151,0.3317525 -0.049178,0.017225 -0.015863,0.064421 0.049575,0.064421 0.049575,0 0.3850966,0.2931684 0.3850966,0.3365754 0,0.010335 -0.065042,0.037549 -0.1447582,0.059254 -0.1134277,0.031005 -0.1447582,0.05133 -0.1447582,0.095081 0,0.04513 0.015863,0.054086 0.082888,0.047196 0.1189792,-0.013776 0.2724627,-0.064421 0.2962585,-0.1005931 0.011895,-0.017225 0.01983,-0.013776 0.01983,0.017225 2.38e-4,0.027559 0.015863,0.048919 0.035693,0.048919 0.01983,0 0.063852,0.031004 0.097166,0.065455 l 0.06068,0.065456 -0.1162035,0.046507 c -0.072577,0.027559 -0.1225489,0.035828 -0.1328604,0.017225 -0.011895,-0.017225 -0.070594,-0.017225 -0.1693472,0.00345 -0.087251,0.017225 -0.1752963,0.024115 -0.2054377,0.010335 -0.027761,-0.013776 -0.065439,-0.020669 -0.08051,-0.013776 -0.015863,0.00345 -0.170537,0.013776 -0.3446435,0.017225 -0.1745031,0.00345 -0.3501959,0.020669 -0.3906491,0.036517 -0.055921,0.020669 -0.07694,0.020669 -0.08725,-0.00689 -0.011895,-0.031005 -0.052748,-0.031005 -0.2228879,-0.00338 -0.1661747,0.027559 -0.2090073,0.027559 -0.2090073,-0.00165 0,-0.027559 -0.051954,-0.031004 -0.2062308,-0.017225 -0.1637949,0.013776 -0.2094037,0.00689 -0.2213016,-0.024115 -0.011895,-0.031005 -0.05473,-0.036172 -0.2145594,-0.020669 -0.1094611,0.010335 -0.2026615,0.010335 -0.2070242,-0.00165 -0.00397,-0.010335 -0.1007353,-0.013776 -0.2137663,-0.00689 -0.1511038,0.010335 -0.2058344,0.00345 -0.2058344,-0.020669 0,-0.024115 -0.05473,-0.031004 -0.1943329,-0.024115 C 2.7195787,5.899085 2.6374828,5.8893702 2.625585,5.8715251 2.6136871,5.8543002 2.5006566,5.8325967 2.3717622,5.8226063 2.242868,5.8122714 2.0691581,5.7916014 1.9854759,5.7750654 1.7284805,5.7258022 1.5144763,5.6944528 1.2269428,5.6637922 1.0754423,5.6465673 0.91204404,5.6159069 0.86405569,5.59317 0.75499149,5.5418394 0.71652127,5.5414957 0.71652127,5.5917921 c 0,0.048919 0.19710913,0.1457229 0.34464363,0.1688043 0.06068,0.010335 0.2478736,0.034451 0.4161898,0.054086 0.1681575,0.020669 0.3232273,0.047885 0.3446435,0.06132 0.049575,0.031005 0.2748424,0.064765 0.5835939,0.08647 0.1328603,0.010335 0.2415281,0.027559 0.2415281,0.041684 0,0.013776 0.092804,0.024115 0.2066276,0.024115 0.1356365,0 0.2066274,0.010335 0.2066274,0.031004 0,0.020669 0.059093,0.027559 0.1931432,0.017225 0.1062884,-0.00689 0.1931432,-0.00345 0.1931432,0.010335 0,0.013776 0.09915,0.017225 0.2205084,0.00689 0.1713303,-0.013776 0.2205086,-0.010335 0.2205086,0.017225 0,0.027559 0.049575,0.031005 0.2205082,0.017225 0.1875909,-0.013776 0.2205084,-0.010335 0.2205084,0.024115 0,0.027559 0.015863,0.037894 0.047989,0.027559 0.1503106,-0.044784 0.3771646,-0.070622 0.405799,-0.046507 0.01983,0.017225 0.099547,0.017225 0.2201118,-0.00283 0.1277049,-0.020669 0.1939364,-0.020669 0.2054377,-9.991e-4 0.011895,0.017225 0.080906,0.017225 0.2101969,-0.00689 0.1058915,-0.020669 0.1990922,-0.027559 0.2070242,-0.013776 0.01983,0.03445 0.4935264,0.010335 0.6023132,-0.031005 0.070197,-0.027559 0.097563,-0.027559 0.1126338,-0.00162 0.011895,0.017225 0.035694,0.027559 0.059093,0.017225 0.023795,-0.010335 0.1741066,0.1226418 0.3977084,0.3504587 L 7.1555263,6.8091131 6.9338281,7.0254584 C 6.656606,7.2958902 6.6014789,7.3423974 6.3586024,7.5089626 5.9735059,7.7731933 5.4497983,7.9993568 4.9626969,8.1116635 4.6811123,8.1764293 3.7639399,8.1936541 3.4732734,8.1392232 Z M 4.6310617,5.7857793 c 0.1332567,-0.031004 0.1455513,-0.031004 0.160622,0.017225 0.01983,0.061664 0.011895,0.06132 0.2193188,0.010335 0.2058341,-0.050641 0.2066273,-0.050641 0.2066273,6.544e-4 0,0.048919 -0.00794,0.048919 0.2066275,0.00283 0.1324639,-0.027559 0.1653814,-0.046163 0.1653814,-0.089226 0,-0.058221 -0.035694,-0.06201 -0.2550123,-0.024115 -0.1007355,0.01723 -0.1169961,0.013781 -0.1169961,-0.027554 0,-0.055465 -0.080906,-0.05133 -0.3101394,0.013777 -0.1209625,0.03514 -0.1336535,0.034451 -0.1689508,-0.013777 -0.035694,-0.05202 -0.042436,-0.05202 -0.2486669,0.00689 -0.1828316,0.051331 -0.2101968,0.053397 -0.2101968,0.017225 0,-0.035828 -0.023795,-0.040306 -0.1447583,-0.024115 -0.079716,0.010335 -0.1729167,0.024115 -0.2070242,0.03514 -0.046798,0.013776 -0.061869,0.00689 -0.061869,-0.031005 0,-0.042718 -0.01983,-0.046163 -0.1586392,-0.027559 -0.087253,0.010335 -0.1788657,0.031004 -0.2038514,0.044784 -0.031727,0.017225 -0.048781,0.010335 -0.058299,-0.027559 -0.011895,-0.039618 -0.035694,-0.048573 -0.1062884,-0.040306 -0.2383554,0.027559 -0.2724629,0.038929 -0.2724629,0.089225 0,0.076478 0.011895,0.079235 0.2248711,0.053397 0.1451548,-0.017225 0.2034547,-0.013776 0.2181289,0.010335 0.015863,0.024115 0.060283,0.024115 0.1939363,-0.00135 0.1515004,-0.031004 0.1776758,-0.027559 0.2050411,0.010335 0.027761,0.036517 0.057508,0.039273 0.1943331,0.017225 0.2169389,-0.036172 0.2320096,-0.03514 0.2320096,0.017225 0,0.035483 0.015863,0.040651 0.07575,0.024115 0.041642,-0.010335 0.1407923,-0.035828 0.2201118,-0.055465 z M 3.03884,5.6614152 c 0,-0.096804 -0.035694,-0.1143729 -0.2335962,-0.1143729 -0.1986955,0 -0.1998854,6.89e-4 -0.1867976,0.069934 0.011895,0.067177 0.01983,0.070277 0.216939,0.070277 0.1122369,0 0.2034548,-0.010335 0.2034548,-0.024115 z M 0.69439102,5.5497975 c 0,-0.064421 -0.0832856,-0.103005 -0.11461709,-0.053052 -0.0158635,0.020669 -0.00397,0.049263 0.0237953,0.070966 0.064645,0.048919 0.0908205,0.043752 0.0908205,-0.017225 z M 4.3467406,5.3055479 c 0.062266,-0.024115 0.054334,-0.048573 -0.031729,-0.099561 -0.063456,-0.037206 -0.093993,-0.038929 -0.186401,-0.010335 l -0.1102537,0.03445 0.082888,0.046507 c 0.087253,0.048919 0.1733133,0.059943 0.2458907,0.031004 z m 0.5348519,-0.00689 c 0.070197,-0.04513 -0.095184,-0.1226419 -0.2177322,-0.1016277 -0.060283,0.010335 -0.1007354,0.031004 -0.091614,0.046163 0.040055,0.066144 0.2379588,0.1016276 0.3093462,0.055465 z m 0.4729034,-0.013776 0.087648,-0.037552 -0.074957,-0.049953 c -0.065439,-0.043748 -0.088045,-0.04547 -0.1812453,-0.013773 -0.1300837,0.043752 -0.1332569,0.065799 -0.015863,0.1040385 0.049178,0.017225 0.091217,0.031005 0.093598,0.031005 0.00207,0.00162 0.043229,-0.013776 0.091614,-0.034794 z M 3.8643981,5.2538779 3.9314231,5.2159839 3.8505171,5.1739549 C 3.7696111,5.1319259 3.590349,5.1381269 3.590349,5.1842899 c 0,0.024115 0.132067,0.103005 0.1792622,0.1064506 0.015863,9.991e-4 0.057902,-0.013776 0.094787,-0.035828 z M 6.19683,5.2366529 c 0.084475,-0.031005 0.072181,-0.071657 -0.027761,-0.091291 -0.08051,-0.017225 -0.2415282,0.053742 -0.2173358,0.093703 0.01983,0.034451 0.155863,0.034451 0.2466839,-0.00193 z M 2.8644955,5.2022012 c 0.1154096,-0.042373 0.1154096,-0.067865 5.156e-4,-0.1236744 -0.074957,-0.036172 -0.11184,-0.038584 -0.2066275,-0.013776 -0.063455,0.017225 -0.1158066,0.042373 -0.1158066,0.055464 0,0.017225 0.169744,0.1067943 0.2185255,0.1126516 0.00794,6.545e-4 0.053143,-0.013776 0.1035129,-0.031005 z m 0.5621775,-0.00345 0.090821,-0.038584 -0.086459,-0.045474 C 3.3283167,5.0606092 3.2470142,5.0588867 3.1351737,5.1078055 l -0.082888,0.036862 0.09677,0.043752 c 0.1233415,0.055809 0.1657779,0.057186 0.2776185,0.010335 z m 3.2529754,-0.00193 0.069009,-0.038929 -0.077733,-0.031005 c -0.042833,-0.01723 -0.093201,-0.03101 -0.1122367,-0.03101 -0.058299,0 -0.2403383,0.099905 -0.2201118,0.1205754 0.031729,0.03445 0.26929,0.017225 0.3410742,-0.020669 z m 0.3474198,-0.03445 c 0.052748,-0.03514 0.06068,-0.05202 0.031729,-0.069589 -0.063455,-0.040995 -0.1776758,-0.027559 -0.2272507,0.031005 -0.051162,0.057531 -0.053937,0.05512 0.1023221,0.082679 0.011895,0.00193 0.053145,-0.017225 0.091217,-0.042373 z M 2.4023003,5.1348143 c 0.00794,-0.00689 -0.015863,-0.040651 -0.050765,-0.077512 -0.055127,-0.059598 -0.072974,-0.064077 -0.1495175,-0.03824 -0.1308773,0.044441 -0.1423786,0.068556 -0.055524,0.1150633 0.067818,0.036172 0.2145594,0.036517 0.2558065,6.887e-4 z M 1.944904,5.1003643 2.02343,5.0831393 1.953629,5.0166513 C 1.892949,4.9591203 1.86717,4.9525743 1.7581062,4.9694553 c -0.1399991,0.020669 -0.1550697,0.047541 -0.064249,0.1123064 0.063456,0.04513 0.1181867,0.049608 0.251443,0.020669 z m 5.4627792,-0.02756 c 0.045211,-0.050641 0.04323,-0.054086 -0.040055,-0.083713 -0.090425,-0.031005 -0.1146172,-0.027559 -0.2006787,0.049608 -0.049178,0.043062 -0.048781,0.04513 0.015863,0.063044 0.1158064,0.034451 0.1792622,0.024115 0.2272505,-0.027559 z M 5.5135713,4.4925306 c 0.054731,-0.010335 0.057902,-0.020669 0.027761,-0.083368 -0.023795,-0.055809 -0.046798,-0.067867 -0.1027191,-0.057186 -0.039661,0.00689 -0.136033,0.020669 -0.2157492,0.031005 -0.145948,0.017225 -0.1582425,0.027559 -0.1284973,0.1078282 0.011895,0.035483 0.048781,0.040651 0.186401,0.027559 0.093597,-0.00689 0.1975056,-0.020669 0.2308199,-0.027559 z M 3.5284401,4.4821954 c 0.1185823,-3.444e-4 0.1423786,-0.027559 0.092011,-0.1092059 -0.01983,-0.031004 -0.059886,-0.03445 -0.2228879,-0.010335 -0.1094611,0.017225 -0.2038513,0.035483 -0.2105935,0.042029 -0.00794,0.00689 -0.00397,0.034451 0.00794,0.060976 0.015863,0.038929 0.039661,0.045473 0.1177899,0.031005 0.05473,-0.010335 0.1522936,-0.017225 0.2165424,-0.017225 z m 1.0825933,0.00345 c 0,-0.060976 -0.08051,-0.08957 -0.2510464,-0.08957 -0.1713304,0 -0.1840215,0.00345 -0.1705371,0.056154 0.011895,0.049608 0.039661,0.056153 0.2181288,0.056153 0.1122368,0 0.2034547,-0.010335 0.2034547,-0.024115 z M 3.1166128,4.4167408 c -0.00794,-0.05202 -0.035694,-0.06821 -0.1606222,-0.093015 -0.1503105,-0.031005 -0.1518969,-0.027559 -0.1673643,0.042029 -0.00794,0.039618 -0.011895,0.081301 -0.00794,0.093015 0.00794,0.010335 0.084872,0.020669 0.1760895,0.020669 0.1562596,0 0.1653813,-0.00345 0.1570528,-0.063044 z m 0.9680559,0.038584 0.066628,-0.017225 -0.069009,-0.046162 C 3.9553766,4.3075358 3.602087,4.3712688 3.6916388,4.4629048 c 0.023795,0.024115 0.3041906,0.020669 0.3930285,-0.00689 z m 1.8167357,9.99e-4 c 0.01983,-0.013776 0.027761,-0.043752 0.015863,-0.070966 -0.015863,-0.037551 -0.039661,-0.044441 -0.1043047,-0.031004 -0.1748998,0.035828 -0.1879875,0.043062 -0.1530868,0.08578 0.035694,0.043062 0.1832282,0.052708 0.2403383,0.017225 z m 0.4275722,-0.031004 c -0.01983,-0.080612 -0.051162,-0.091981 -0.1891772,-0.070622 -0.076146,0.010335 -0.122152,0.034451 -0.122152,0.056842 0,0.041341 0.064645,0.060287 0.2248711,0.066488 0.088441,0.00327 0.09915,-0.00327 0.086458,-0.052708 z m 0.4127395,6.544e-4 c 0.051162,-3.1e-4 0.062266,-0.046852 0.023795,-0.1061054 -0.015863,-0.027559 -0.05354,-0.027559 -0.1721235,-0.00345 -0.1792623,0.038584 -0.1812453,0.039962 -0.1340501,0.097493 0.027761,0.03445 0.063455,0.040995 0.1348433,0.027559 0.053937,-0.010335 0.119773,-0.017225 0.1459479,-0.017225 z m -4.0264603,-0.05891 c -0.01983,-0.078546 -0.047195,-0.085436 -0.2887233,-0.076135 -0.202265,0.00689 -0.2070242,0.010335 -0.184418,0.071311 0.01983,0.058566 0.039661,0.063044 0.2558056,0.063044 0.2224914,0 0.2320098,-0.00276 0.2177322,-0.058566 z m 4.3840724,-0.010335 c 0.1126339,-0.024115 0.069406,-0.1005931 -0.05711,-0.099905 -0.1380161,6.546e-4 -0.1915567,0.036517 -0.1431717,0.096115 0.01983,0.024115 0.056713,0.039273 0.080906,0.031004 0.023795,-0.00689 0.07813,-0.020669 0.1193762,-0.027559 z M 2.1834179,4.3326142 C 2.1825454,4.2606142 2.1378089,4.2320206 1.97917,4.2023936 1.889142,4.1851686 1.8114091,4.1748336 1.8058568,4.1817236 c -0.00794,0.00689 0.0021,0.042718 0.015863,0.082336 0.01983,0.056498 0.049575,0.074411 0.1316705,0.083369 0.2046444,0.020669 0.2288369,0.020669 0.2284403,-0.013777 z m 5.3015226,-0.043407 c 0.011895,-0.013776 0.015863,-0.046507 0.00794,-0.073034 -0.01983,-0.050297 -0.064249,-0.047885 -0.2177323,0.010335 -0.06068,0.024115 -0.065835,0.034451 -0.035694,0.070622 0.035694,0.044784 0.201075,0.038929 0.2478736,-0.010335 z M 1.7785708,4.2292646 c -0.011894,-0.044096 -0.047989,-0.057532 -0.1975057,-0.072 -0.1011325,-0.01034 -0.242718,-0.03755 -0.3152954,-0.060632 -0.1419821,-0.045818 -0.2125764,-0.035828 -0.2125764,0.031005 0,0.043407 0.031727,0.056843 0.1998853,0.08578 0.074957,0.013777 0.1039077,0.00689 0.1054945,-0.017225 0.00107,-0.020669 0.011895,-0.010335 0.023795,0.020669 0.015863,0.045474 0.054334,0.058566 0.1979024,0.070277 0.2101968,0.017225 0.216939,0.013776 0.1990921,-0.054432 z M 1.0055618,4.0601157 c 0.011894,-0.04513 -0.00397,-0.06132 -0.0864583,-0.084402 -0.14594794,-0.04134 -0.16974392,-0.036172 -0.16974392,0.036172 0,0.051674 0.0198301,0.070967 0.10351262,0.09267 0.12175505,0.031004 0.13325697,0.027559 0.15269027,-0.044784 z M 0.72199426,3.972613 c 0,-0.069933 -0.1356365,-0.1305656 -0.16974392,-0.07579 -0.0396602,0.062699 -0.0277619,0.094392 0.0523511,0.1240196 0.0916143,0.034794 0.1173929,0.024115 0.11739282,-0.04823 z M 6.818775,6.428752 C 6.6295978,6.2368662 6.4808736,6.0751239 6.4880123,6.0691296 c 0.00794,-0.00689 0.051954,-0.024115 0.1003384,-0.040995 0.062663,-0.020669 0.09082,-0.020669 0.09796,-1.034e-4 0.00794,0.020669 0.040452,0.020669 0.1114444,-0.00345 0.055524,-0.017225 0.1388093,-0.038929 0.1840215,-0.04444 0.045608,-0.00689 0.1074782,-0.024115 0.138016,-0.040651 0.031729,-0.017225 0.083682,-0.024115 0.1177898,-0.013777 0.07694,0.020669 0.2859471,-0.052708 0.2764288,-0.095426 -0.00397,-0.017225 0.011895,-0.031005 0.035694,-0.031005 0.023795,0 0.091217,-0.024115 0.1507072,-0.056154 0.05949,-0.031005 0.1150139,-0.056154 0.1233414,-0.056154 0.031727,0 -0.2149561,0.4661415 -0.3605075,0.6868962 C 7.2471007,6.7014918 7.1919736,6.779693 7.1765063,6.7793141 7.1685743,6.7790384 7.0079522,6.6222227 6.8191716,6.4303368 Z M 6.2549713,5.8505107 6.1474934,5.749228 6.2771809,5.7285581 c 0.083682,-0.013777 0.1431718,-0.010335 0.1673643,0.010335 0.027761,0.024115 0.071784,0.017225 0.1800554,-0.031005 0.1134263,-0.049608 0.1471379,-0.054774 0.1649848,-0.024115 0.01983,0.031004 0.04442,0.027559 0.1384126,-0.010335 0.063455,-0.027559 0.1388093,-0.039618 0.1669677,-0.031005 0.027761,0.010335 0.082491,-0.00345 0.1209626,-0.031004 0.039661,-0.024115 0.089631,-0.038929 0.1134263,-0.031005 0.023795,0.010335 0.076543,3.101e-4 0.1173929,-0.020669 0.040849,-0.020669 0.1237383,-0.040306 0.184418,-0.044441 0.06068,-0.00345 0.1189792,-0.020669 0.1292912,-0.039273 0.011895,-0.017225 0.027761,-0.024115 0.039661,-0.013776 0.011895,0.010335 0.044023,0.00689 0.07456,-0.010335 0.047195,-0.024115 0.053143,-0.024115 0.03966,0.017225 -0.011895,0.027559 -0.01983,0.059943 -0.01983,0.0751 0,0.013776 -0.011895,0.020669 -0.027761,0.010335 -0.015863,-0.010335 -0.027761,-0.00345 -0.027761,0.010335 0,0.013776 -0.035694,0.039962 -0.07575,0.055809 C 7.7215937,5.6379591 7.5887326,5.6879111 7.4681668,5.735107 7.3099243,5.796771 7.2432958,5.811242 7.2286217,5.787471 7.2127587,5.763356 7.1889607,5.763356 7.1306617,5.790921 7.0878287,5.81159 7.0156477,5.832605 6.9700396,5.838117 6.9244316,5.845007 6.8522497,5.862232 6.8090207,5.88118 6.7455657,5.908739 6.7261327,5.905295 6.7066986,5.87429 6.6868686,5.83984 6.6579176,5.843286 6.5230738,5.891515 L 6.3636387,5.9476759 Z M 2.8731811,3.6349696 c 0,-0.05202 -0.011895,-0.057186 -0.088044,-0.041684 -0.048781,0.010335 -0.15269,0.024115 -0.231613,0.03514 C 2.4234399,3.6422026 2.4083687,3.6387606 2.391315,3.5846756 2.37942,3.5450576 2.355622,3.5285216 2.326273,3.5374796 c -0.1641916,0.048919 -0.2526328,0.049608 -0.2704798,0.00273 -0.015863,-0.038929 -0.040849,-0.04513 -0.1324637,-0.031004 -0.062663,0.010335 -0.1344467,0.024115 -0.1586392,0.03445 -0.031729,0.010335 -0.050765,-0.00227 -0.063852,-0.043752 -0.015863,-0.053397 -0.031727,-0.05891 -0.1241353,-0.044095 -0.057902,0.010335 -0.1245322,0.024115 -0.1483276,0.034451 -0.027763,0.010335 -0.05354,-0.00689 -0.074165,-0.052364 -0.027761,-0.064421 -0.039659,-0.067177 -0.1280999,-0.038929 -0.083286,0.027559 -0.1019262,0.024115 -0.1336534,-0.020669 -0.031727,-0.04134 -0.058697,-0.047885 -0.14872433,-0.03445 -0.1003399,0.017225 -0.11144438,0.013777 -0.11144438,-0.040306 0,-0.048919 -0.0158636,-0.057186 -0.089631,-0.050296 -0.0634555,0.00689 -0.0872521,-0.00273 -0.0816993,-0.027559 0.007938,-0.027559 -0.0158635,-0.034451 -0.0757507,-0.024115 -0.0674221,0.010335 -0.0836825,0.00227 -0.0836825,-0.038583 0,-0.031005 -0.0198301,-0.051331 -0.0543343,-0.051331 -0.0396602,0 -0.0495752,-0.013777 -0.0356937,-0.046852 0.0158636,-0.036172 0.007938,-0.042718 -0.0317284,-0.027559 -0.042436,0.017225 -0.0464025,0.00689 -0.0317284,-0.058221 0.0118944,-0.042373 0.0198301,-0.077858 0.0237953,-0.0782 0.002102,-6.546e-4 0.0277619,-0.020669 0.0579026,-0.042029 0.0483845,-0.036861 0.0519541,-0.036172 0.0356937,0.00689 -0.0118944,0.037206 -0.00397,0.049263 0.0396602,0.049263 0.0416422,0 0.0527479,0.013777 0.0400558,0.045819 -0.0158636,0.038584 -0.002102,0.043407 0.079716,0.031005 0.0840782,-0.013777 0.0971659,-0.010335 0.0971659,0.04065 0,0.048231 0.0118944,0.053742 0.0828887,0.03824 0.0725768,-0.017225 0.0828887,-0.010335 0.0828887,0.043407 0,0.058221 0.007938,0.060632 0.13801601,0.043407 0.1281004,-0.017225 0.1380162,-0.013777 0.1380162,0.041683 0,0.06132 0.023795,0.062355 0.2002818,0.010335 0.035694,-0.010335 0.047988,0.00138 0.047988,0.046852 0,0.055465 0.011895,0.059943 0.1035129,0.044095 0.057111,-0.010335 0.1312739,-0.024115 0.1653814,-0.03514 0.050765,-0.013777 0.061869,-0.00689 0.061869,0.04513 0,0.066833 -0.015863,0.066144 0.2550124,0.013776 0.094787,-0.017225 0.1035129,-0.013776 0.1035129,0.043062 0,0.056498 0.011895,0.06132 0.089631,0.04513 0.2625479,-0.053397 0.2966553,-0.053742 0.2966553,-0.00276 0,0.043752 0.01983,0.047196 0.1673642,0.031004 0.092011,-0.010335 0.1848148,-0.027559 0.206231,-0.034451 0.023795,-0.010335 0.051162,0.013777 0.070594,0.05512 0.031729,0.067867 0.035694,0.0689 0.1352401,0.034451 0.1641913,-0.05891 0.2423212,-0.060976 0.2815843,-0.00689 0.031729,0.044784 0.044817,0.04444 0.1871943,-0.00689 0.1788656,-0.063388 0.2395451,-0.068556 0.2554091,-0.020669 0.00794,0.027559 0.054334,0.024115 0.2018683,-0.013776 0.1721236,-0.04513 0.1935397,-0.045819 0.2216983,-0.00689 0.027762,0.039273 0.051162,0.039617 0.2209049,0.0033 0.1641916,-0.03514 0.1935397,-0.035482 0.2205085,-3.443e-4 0.027761,0.034794 0.057507,0.034451 0.2312166,-0.00273 0.1756929,-0.037551 0.2038513,-0.037894 0.2312167,-0.00165 0.027761,0.035828 0.057507,0.034794 0.2447008,-0.010335 0.1748996,-0.04203 0.2137663,-0.044096 0.2137663,-0.013777 0,0.046852 0.047592,0.048231 0.2121798,0.00689 0.097166,-0.024115 0.1388092,-0.024115 0.1796589,0.00165 0.041246,0.027559 0.088441,0.027559 0.2046445,0.00189 0.1150139,-0.024115 0.1606221,-0.024115 0.1903669,0.00138 0.027762,0.024115 0.061473,0.024115 0.126911,0.00227 0.1146172,-0.04065 0.2098005,-0.039273 0.2236813,0.00294 0.00794,0.027559 0.04323,0.027559 0.1582426,-3.447e-4 0.1229457,-0.027559 0.1542764,-0.027559 0.1911601,0.00345 0.03966,0.03445 0.06068,0.03445 0.1677609,-0.010335 0.1130308,-0.045474 0.1261185,-0.045819 0.155863,-0.00345 0.027762,0.041341 0.040056,0.040995 0.1273079,-0.00138 0.063455,-0.031004 0.139206,-0.042029 0.2280437,-0.034451 0.088838,0.010335 0.141189,6.892e-4 0.157846,-0.024115 0.01983,-0.027559 0.027761,-0.027559 0.039661,3.445e-4 0.011895,0.027559 0.023795,0.024115 0.051162,-0.013776 0.035694,-0.048573 0.035694,-0.048573 0.055921,3.1e-4 0.031729,0.080957 -0.027762,0.1856848 -0.096373,0.1677709 -0.035694,-0.010335 -0.056714,-0.00162 -0.056714,0.020669 0,0.024115 -0.023795,0.027559 -0.067818,0.017225 -0.051557,-0.013776 -0.075354,-0.00289 -0.099546,0.042718 -0.023795,0.043062 -0.039661,0.050297 -0.052351,0.024115 -0.015864,-0.027557 -0.040056,-0.024113 -0.1058919,0.010337 -0.080113,0.042029 -0.086856,0.041683 -0.1237384,-0.010335 -0.03966,-0.055809 -0.03966,-0.055809 -0.1979021,0.013776 -0.1423787,0.064076 -0.1622086,0.066833 -0.1907636,0.027559 -0.027761,-0.037894 -0.052748,-0.039617 -0.1772793,-0.013776 -0.1062884,0.024115 -0.1550699,0.024115 -0.1824351,6.546e-4 -0.027762,-0.024115 -0.07575,-0.024115 -0.1816419,6.545e-4 -0.1138232,0.024115 -0.1495174,0.024115 -0.1661746,-0.00345 -0.015863,-0.027559 -0.05473,-0.027559 -0.1828315,-0.00273 -0.1384126,0.027559 -0.1653814,0.027559 -0.1919534,-0.010335 -0.027761,-0.038584 -0.049178,-0.03824 -0.2058344,0.00273 -0.1697438,0.044096 -0.1760894,0.044096 -0.2113866,-0.010335 -0.035694,-0.055463 -0.035694,-0.055463 -0.2470806,3.45e-5 -0.1939362,0.051331 -0.2133695,0.05202 -0.2439076,0.010335 -0.031729,-0.042373 -0.047989,-0.042029 -0.2296302,0.00227 -0.1808487,0.044096 -0.1990921,0.044441 -0.2312166,0.00273 -0.031729,-0.041683 -0.049971,-0.041341 -0.2276473,0.00345 -0.1887777,0.048233 -0.193537,0.048233 -0.2141599,-0.00689 -0.015863,-0.035483 -0.039661,-0.049263 -0.069009,-0.039273 -0.2970519,0.094738 -0.3509893,0.103005 -0.3843035,0.057531 -0.031727,-0.040995 -0.043626,-0.040995 -0.1637949,3.101e-4 -0.161812,0.056154 -0.2216982,0.056843 -0.2510465,0.00345 -0.019831,-0.035832 -0.04323,-0.035832 -0.1875913,-10e-4 -0.218922,0.053052 -0.2339928,0.052019 -0.2339928,-0.017225 z M 3.3500106,3.3287101 c -0.015863,-0.066833 -0.047195,-0.0689 -0.2010751,-0.013777 -0.1475344,0.053053 -0.2205085,0.053397 -0.2205085,0.00165 0,-0.06511 -0.035694,-0.070277 -0.2466838,-0.03824 -0.1780725,0.027561 -0.2046445,0.024116 -0.2272506,-0.013775 -0.027761,-0.052364 -0.122152,-0.059254 -0.2316131,-0.017225 -0.040849,0.017225 -0.078527,0.024115 -0.083285,0.020669 -0.00397,-0.00345 0.3644734,-0.3892838 0.8211558,-0.8540471 L 3.7907896,1.5692203 3.774926,1.4214304 c -0.00794,-0.081301 -0.027762,-0.152613 -0.044817,-0.1584696 -0.015863,-0.00689 -0.031727,-0.027559 -0.031727,-0.04513 0,-0.024115 0.1066854,-0.046163 0.3315558,-0.070622 0.3307626,-0.036172 0.3315558,-0.036517 0.4137309,-0.1377992 0.045211,-0.0558088 0.082492,-0.11161752 0.082492,-0.12401948 0,-0.0206694 -0.5586081,-0.003452 -0.7940286,0.0241151 -0.1043047,0.0137766 -0.1201687,0.0241151 -0.1344467,0.096804 -0.00794,0.04513 -0.01983,0.082335 -0.027761,0.082335 -0.00794,0 -0.085665,-0.075446 -0.1764861,-0.16742644 L 3.2280568,0.75378773 3.2704928,0.65078261 c 0.023795,-0.0568427 0.039661,-0.10782822 0.031729,-0.11368405 -0.00794,-0.006889 -0.043626,0.002272 -0.084872,0.0172253 C 3.1070943,0.59704039 3.0733837,0.59049574 2.9956504,0.51160589 2.9559902,0.47233353 2.8857923,0.42306942 2.8370113,0.4024 l -0.088045,-0.0378947 0.178469,-0.0561539 C 3.380152,0.16607264 3.6375838,0.12748884 4.1394785,0.12576631 c 0.3962012,-0.001378 0.5329879,0.0103399 0.7638872,0.0595981 0.5176793,0.11265153 1.0144181,0.31349393 1.3558095,0.54844213 0.081303,0.0558088 0.1542767,0.10162727 0.1626053,0.10162727 0.027761,0 0.3160885,0.25355129 0.526801,0.46025059 0.3113294,0.3055705 0.6345963,0.7591376 0.7713036,1.0829666 0.027761,0.068556 0.07813,0.1815509 0.1090641,0.2511397 0.088441,0.1980868 0.149914,0.4089201 0.1396024,0.4808515 -0.00794,0.049608 -0.023795,0.064076 -0.072181,0.05891 -0.035694,-0.00345 -0.069801,0.010335 -0.078924,0.035828 -0.011895,0.034451 -0.023795,0.035828 -0.057111,0.00689 -0.031727,-0.027559 -0.047989,-0.024115 -0.077733,0.017225 -0.01983,0.027559 -0.049575,0.042718 -0.065042,0.031004 -0.015863,-0.010335 -0.063852,6.546e-4 -0.1066854,0.024115 -0.071387,0.037551 -0.080907,0.036517 -0.1098579,-0.010335 -0.031729,-0.049608 -0.035694,-0.049608 -0.1558631,-0.00345 -0.068215,0.027559 -0.1328602,0.056842 -0.1435683,0.067867 -0.035694,0.03514 -0.093201,0.020669 -0.093201,-0.020669 0,-0.050641 -0.01983,-0.051674 -0.1836249,-0.010335 -0.1007353,0.024115 -0.1300837,0.024115 -0.147931,-0.00345 -0.01983,-0.031005 -0.049971,-0.031005 -0.1812452,0.00165 -0.122152,0.031004 -0.1614154,0.031004 -0.1697439,0.00345 -0.015862,-0.042728 -0.093991,-0.043073 -0.2339909,-2.853e-4 -0.097167,0.031005 -0.1142202,0.027559 -0.1459481,-0.017225 -0.035694,-0.047196 -0.044816,-0.047541 -0.1871942,-0.00689 -0.1911602,0.056498 -0.2042479,0.056153 -0.2244745,-0.00689 -0.015863,-0.05202 -0.01983,-0.051674 -0.2252675,0.00138 -0.1939364,0.050641 -0.2113867,0.050985 -0.2423213,0.00689 -0.031729,-0.043063 -0.047592,-0.042373 -0.2312167,0.010335 -0.1852112,0.051674 -0.1982989,0.05202 -0.2125764,0.00689 -0.015863,-0.045479 -0.027761,-0.045479 -0.2213014,6.496e-4 -0.1134276,0.027559 -0.2062308,0.040995 -0.2066274,0.031005 -2.381e-4,-0.010335 -0.011895,-0.03445 -0.023795,-0.053052 -0.015863,-0.027559 -0.061472,-0.024115 -0.2090071,0.024115 -0.1792624,0.056154 -0.1879875,0.056498 -0.2228881,0.00689 -0.035694,-0.048231 -0.043626,-0.047885 -0.2070241,0.010335 -0.1689507,0.061664 -0.1709338,0.06201 -0.1848147,0.00689 z m 0.73676,-2.55073857 C 4.1700566,0.76419483 4.3215565,0.74696663 4.422689,0.73559873 L 4.607107,0.71837343 4.7229136,0.56231552 4.8387201,0.40625746 4.5936227,0.42348272 c -0.1348434,0.0103399 -0.4096063,0.0241151 -0.6106023,0.0358282 l -0.3656632,0.0172253 v 0.13400979 c 0,0.0737229 -0.00794,0.15536893 -0.01983,0.1815508 -0.015863,0.0430632 -3.966e-4,0.0458185 0.1586391,0.0275592 0.097166,-0.0103394 0.2447009,-0.0310049 0.3283831,-0.0434068 z M 1.4307544,3.1040969 C 1.4188596,3.0548338 1.4029919,3.0496652 1.3038434,3.0655129 1.2146092,3.0792893 1.1880368,3.075848 1.1745522,3.0379537 1.1626573,3.0021254 1.1344968,2.9962702 1.0484336,3.0103946 0.95324974,3.024171 0.93738617,3.0207298 0.92429841,2.9693997 c -0.0118944,-0.047885 -0.0317284,-0.055465 -0.094787,-0.042373 -0.0614722,0.013776 -0.079716,0.00689 -0.079716,-0.027559 0,-0.03514 -0.0198301,-0.040995 -0.0828887,-0.027559 -0.0721811,0.013776 -0.0828887,0.010335 -0.0828887,-0.045819 0,-0.044095 -0.0118944,-0.057875 -0.0416422,-0.046507 -0.0237953,0.010335 -0.0416422,-1.377e-4 -0.0416422,-0.027559 0,-0.024115 -0.0118944,-0.03514 -0.0277618,-0.024115 -0.0523511,0.034451 -0.0277619,-0.050641 0.0935976,-0.3097044 0.13325683,-0.2862786 0.35931767,-0.6575105 0.40008791,-0.6575105 0.0503678,0 0.0614722,0.1639815 0.0198301,0.2893791 C 0.91668651,2.2595278 0.95079387,2.321193 1.3644454,2.7350051 L 1.7320916,3.102482 1.6146988,3.1334866 C 1.4568505,3.1737889 1.4477288,3.172411 1.4306751,3.1059226 Z M 1.5180456,2.7190161 C 1.2911916,2.4916468 1.0986433,2.2765417 1.0897991,2.2411617 1.0818672,2.2056783 1.0937652,2.1229985 1.117561,2.0571994 1.1663425,1.9273232 1.1532549,1.7822892 1.0897991,1.7282028 1.0160319,1.6658486 1.0541054,1.5959152 1.3083246,1.335543 1.6029969,1.0334175 1.771194,0.89692699 2.0963251,0.69691104 2.2823294,0.58253669 2.3453885,0.55704395 2.4203456,0.56669057 c 0.051162,0.006889 0.1507071,-0.006889 0.2213016,-0.0275592 0.1348432,-0.0413404 0.1828315,-0.0310048 0.2621511,0.0602869 0.04323,0.0496078 0.027761,0.0568427 -0.3406775,0.17707249 L 2.177231,0.90188796 2.193095,1.0079934 C 2.208959,1.1123759 2.208959,1.1140988 2.119724,1.1144439 1.9999518,1.1150982 1.8254487,1.2188268 1.7485087,1.3349229 1.4911166,1.7230008 1.842899,2.2318258 2.28927,2.1175554 2.5244525,2.0572682 2.7057374,1.7840806 2.6632618,1.5530596 2.6473982,1.4603902 2.6473982,1.460045 2.8453003,1.3752982 3.0324944,1.2953743 3.047565,1.2822835 3.0931739,1.1603309 c 0.027762,-0.071656 0.039661,-0.1298768 0.027762,-0.1298768 -0.011895,0 -0.1554665,0.04513 -0.3176749,0.1002497 C 2.3721986,1.2774607 2.3814789,1.2120052 2.8191244,1.0318333 3.1280741,0.90402448 3.1847876,0.88852204 3.2231387,0.92090458 3.3278404,1.0090959 3.6350056,1.347291 3.6516626,1.3924892 c 0.023795,0.059598 -0.040849,0.1987757 -0.126911,0.2811111 -0.052748,0.050296 -0.1007353,0.061321 -0.2871368,0.066144 l -0.2240777,0.00689 -0.3450403,0.3500108 c -0.3795442,0.3848052 -0.416745,0.4508112 -0.3878727,0.6860695 0.01983,0.1481345 0.01983,0.148479 -0.098753,0.2501061 -0.064249,0.055809 -0.1467413,0.1016277 -0.1832283,0.1016277 -0.048782,0 -0.1768827,-0.1109288 -0.478773,-0.4135021 z"
       id="path338"
       sodipodi:nodetypes="ccccccscssccsccscscssccssccsccscccssccscsssccscccscccccccccccscscccscccccccsccsssccscccscccccccccccscccssccccccccccccccccccccccccccccccccccccccccccccccccccccccccccccsccccccccssscscccsscscccscccccccccccscscccsccccccsccccssscscscscccccscccccccccccccscscscccsccsccccscccccscccsscssssccssccccccccsccccccccccccsscccccccccccscccccccccccccscccccccccscccsccccccccccccccccccccccccccccccscsccccccsccccccccccccccccsccccccccccccsccccccccccccccccccccccccsccccccccscccsccscccccccccscscccccccccccccccccsccssscccccccccccccccccccccccccscccssccccccsccscscscsccscscsccccccccccccccscccccccccccccccccsccccccccccccccccccccccccccccccsccccccccsccsccsccccccccccccsccccccsscccccsccccccccccccccccccccccccccccsccccccccccscscsccsccccccccccccccccccccccccsccccccccccscc" />
  </g>
</svg>
