<?xml version="1.0" encoding="UTF-8" standalone="no"?>
<svg
   xmlns:dc="http://purl.org/dc/elements/1.1/"
   xmlns:cc="http://creativecommons.org/ns#"
   xmlns:rdf="http://www.w3.org/1999/02/22-rdf-syntax-ns#"
   xmlns:svg="http://www.w3.org/2000/svg"
   xmlns="http://www.w3.org/2000/svg"
   xmlns:sodipodi="http://sodipodi.sourceforge.net/DTD/sodipodi-0.dtd"
   xmlns:inkscape="http://www.inkscape.org/namespaces/inkscape"
   width="32"
   height="32"
   viewBox="0 0 8.4666665 8.4666669"
   version="1.1"
   id="svg161"
   inkscape:version="1.0.1 (3bc2e813f5, 2020-09-07)"
   sodipodi:docname="helmet.svg">
  <defs
     id="defs155" />
  <sodipodi:namedview
     id="base"
     pagecolor="#ffffff"
     bordercolor="#666666"
     borderopacity="1.0"
     inkscape:pageopacity="0.0"
     inkscape:pageshadow="2"
     inkscape:zoom="16.03125"
     inkscape:cx="16"
     inkscape:cy="16"
     inkscape:document-units="px"
     inkscape:current-layer="layer1"
     inkscape:document-rotation="0"
     showgrid="false"
     units="px"
     inkscape:window-width="1366"
     inkscape:window-height="745"
     inkscape:window-x="-8"
     inkscape:window-y="-8"
     inkscape:window-maximized="1" />
  <metadata
     id="metadata158">
    <rdf:RDF>
      <cc:Work
         rdf:about="">
        <dc:format>image/svg+xml</dc:format>
        <dc:type
           rdf:resource="http://purl.org/dc/dcmitype/StillImage" />
        <dc:title></dc:title>
      </cc:Work>
    </rdf:RDF>
  </metadata>
  <g
     inkscape:label="Layer 1"
     inkscape:groupmode="layer"
     id="layer1">
    <path
       style="fill:#ff0000;stroke-width:0.0409414"
       d="M 1.900706,8.2896496 C 1.6684989,8.2746727 1.6144547,8.2561518 1.5830091,8.1808312 1.5621933,8.1309084 1.5172346,8.0892266 1.4830933,8.0882073 1.2873822,8.0823004 0.49034185,6.3369703 0.26686214,5.4248673 0.02386327,4.4331392 0.05186218,3.4790514 0.34696885,2.6954738 0.50452057,2.2771236 0.8122531,1.7248249 0.86466791,1.7663474 c 0.0185976,0.014748 0.0294325,0.00524 0.023972,-0.021179 C 0.87396621,1.6744284 1.225506,1.227182 1.2688011,1.2614725 c 0.020304,0.016101 0.026105,0.00686 0.012967,-0.020531 -0.030029,-0.062298 0.1524331,-0.25210349 0.2034915,-0.2116593 0.020645,0.016349 0.027129,0.0082 0.014417,-0.018063 C 1.4768139,0.96370599 1.5820873,0.86209686 1.9274168,0.59842063 2.1454452,0.43195186 2.6682971,0.1479539 2.6946154,0.18169466 c 0.010408,0.0132809 -0.023802,0.0378422 -0.075841,0.0545906 -0.052039,0.0167484 -0.094678,0.0504566 -0.094678,0.0749031 0,0.0244465 0.029091,0.0326312 0.06458,0.018178 0.046408,-0.0188831 0.06458,-0.001714 0.06458,0.0611369 0,0.0893661 -0.085984,0.0831542 -0.1345434,-0.009719 -0.013309,-0.0253992 -0.052552,-0.0287242 -0.090404,-0.007619 -0.036769,0.020484 -0.087494,0.0329741 -0.1126186,0.0277535 -0.025167,-0.00524 -0.054684,0.0204743 -0.065604,0.0570971 -0.011431,0.0380426 -0.048798,0.0569063 -0.087239,0.0440153 -0.069016,-0.0231414 -0.07968,0.0467404 -0.024314,0.16027033 0.034124,0.0700158 0.00597,0.0737985 -0.084713,0.0114578 -0.0453,-0.0310689 -0.075158,-0.0310689 -0.090165,0 -0.012284,0.0255621 -0.05494,0.0464735 -0.094729,0.0464735 -0.039755,0 -0.062277,0.0207786 -0.050078,0.0461693 0.0122,0.0254003 0.072429,0.0410344 0.1338098,0.0347646 0.061424,-0.00629 0.1184453,0.0135381 0.1268996,0.0441108 0.017062,0.0617463 -0.2457971,0.0281999 -0.2789488,-0.0355944 -0.010071,-0.0193877 -0.058864,-0.004854 -0.1084895,0.0322787 -0.090012,0.0674248 -0.09002,0.0674912 -0.00427,0.0374606 0.05511,-0.019302 0.077633,-0.0128716 0.062704,0.0179594 -0.014674,0.0304109 0.017318,0.0414727 0.087042,0.0301537 C 1.9705019,0.9059763 1.9525952,0.95980505 1.7923817,1.0635081 1.5464194,1.22271 1.4086001,1.3613058 1.0956721,1.7641695 0.87399239,2.0495612 0.81488063,2.1473157 0.75293657,2.3309382 c -0.0193654,0.057364 -0.0500778,0.1042902 -0.0684189,0.1042902 -0.0182569,0 -0.0425696,0.031487 -0.054087,0.069959 -0.0144171,0.048217 0.0128815,0.037937 0.0877843,-0.033079 0.0598032,-0.056678 0.11766043,-0.1486298 0.12857166,-0.204351 0.0217539,-0.1111962 0.0405229,-0.1125751 0.23984237,-0.017597 0.1288446,0.061404 0.1786405,0.1589498 0.09861,0.193146 -0.02039,0.00866 -0.00427,0.051943 0.036172,0.096111 0.069954,0.076742 0.073197,0.076209 0.073197,-0.011953 0,-0.1115186 0.056305,-0.1207571 0.1017245,-0.016692 0.018171,0.041558 0.063727,0.079534 0.1012379,0.084393 0.037537,0.00486 0.097587,0.025665 0.1334344,0.046216 0.061765,0.035433 0.061424,0.041882 -0.00768,0.1241877 -0.040011,0.047751 -0.093876,0.086813 -0.119759,0.086813 -0.025849,0 -0.067396,0.041721 -0.092221,0.092699 -0.052637,0.108092 -0.031138,0.1733902 0.1665434,0.5056007 l 0.06646,0.1116154 0.4850508,-0.3844934 C 2.396174,2.9663312 2.6219657,2.7847931 2.6311536,2.7743847 c 0.00921,-0.010408 -0.00341,-0.059411 -0.027129,-0.1088915 -0.059206,-0.1215811 -0.05366,-0.1812787 0.00768,-0.078275 0.043509,0.073493 0.051186,0.074436 0.070894,0.00866 0.012114,-0.040606 0.039584,-0.060002 0.060912,-0.043111 0.025593,0.020254 0.017489,0.060822 -0.023631,0.1190997 -0.034295,0.048608 -0.055708,0.093472 -0.047518,0.099687 0.1272067,0.096856 0.1807135,0.124829 0.1611432,0.084258 -0.013223,-0.027372 -0.00256,-0.04977 0.023716,-0.04977 0.02619,0 0.067993,-0.041721 0.092852,-0.092699 0.024825,-0.05099 0.065348,-0.091052 0.090062,-0.089041 0.035404,0.00286 0.035319,0.00857 -2.73e-4,0.027039 -0.057073,0.029524 -0.059547,0.1547084 -0.00341,0.1547084 0.023204,0 0.031479,-0.01372 0.018427,-0.030497 -0.013053,-0.016768 -0.00683,-0.05663 0.013821,-0.088575 0.026105,-0.040271 0.025849,-0.067357 -5.546e-4,-0.088336 -0.025082,-0.019893 -0.019536,-0.054191 0.016294,-0.1001401 0.038816,-0.049799 0.054514,-0.169365 0.054514,-0.4160532 0,-0.3732407 -0.062362,-0.5947323 -0.2345788,-0.8328841 -0.049992,-0.069129 -0.09089,-0.1643679 -0.09089,-0.2116316 0,-0.0472644 -0.014502,-0.085936 -0.032333,-0.085936 -0.017745,0 -0.041972,-0.032374 -0.05383,-0.0719306 -0.014503,-0.0485984 -0.00683,-0.0610512 0.023289,-0.0383855 0.024655,0.0184544 0.016294,-0.008198 -0.018512,-0.0591834 -0.1142285,-0.167355 -0.080624,-0.20131489 0.1988872,-0.20102912 0.3371221,3.4966e-4 0.8297655,0.19705797 1.1818511,0.47191252 0.1408394,0.1099527 0.2847925,0.2207712 0.3198893,0.2462642 0.035062,0.025495 0.1174045,0.095659 0.182906,0.1559212 l 0.1191108,0.10957 0.080875,-0.097386 c 0.061936,-0.07456 0.077376,-0.1356881 0.065945,-0.2608487 -0.016977,-0.1863586 0.039158,-0.29957298 0.1512643,-0.30490345 0.042314,-0.002004 0.056476,-0.0142239 0.031479,-0.0271341 -0.024996,-0.0129091 -0.036257,-0.0425484 -0.024996,-0.0658709 0.032844,-0.0681203 -0.026873,-0.048817 -0.095565,0.0309059 -0.057926,0.067205 -0.069443,0.0652709 -0.1384591,-0.0231801 C 4.76391,0.76366105 4.709678,0.71816545 4.6848188,0.71562516 c -0.024911,-0.002572 -0.00427,-0.0213219 0.045215,-0.0417299 0.052892,-0.0216937 0.06569,-0.0390326 0.030968,-0.0417299 -0.052637,-0.004093 -0.1312846,-0.14367569 -0.08096,-0.14367569 0.043764,0 0.5144915,0.35248352 0.7256354,0.54330493 0.1717644,0.1552343 0.2203488,0.2241542 0.209395,0.2970521 -0.011943,0.079657 -0.00597,0.085669 0.03984,0.037375 0.044447,-0.047255 0.071661,-0.036413 0.1522369,0.060679 0.1629177,0.1962576 0.3742834,0.3594242 0.4655913,0.3594242 0.047688,0 0.1866683,-0.09976 0.3113754,-0.2235008 C 7.0034773,1.1467101 7.0394528,1.1212235 7.108981,1.1910251 7.164348,1.2466071 7.165883,1.2449301 7.123484,1.175401 7.082876,1.108853 7.086801,1.090065 7.150613,1.0463038 7.21306,1.0034597 7.225345,1.0086138 7.225516,1.0778388 7.2259253,1.1892032 6.5773937,1.9831674 6.512242,1.9511244 6.4846868,1.9375476 6.4712079,1.9454981 6.4824687,1.9686926 6.4936435,1.9919319 6.3722636,2.1289004 6.2126558,2.2730649 5.9322483,2.526347 4.976769,3.2776224 4.9616861,3.2566805 4.9574206,3.2510594 4.895741,3.037812 4.8242081,2.7828788 4.7527177,2.5279465 4.6450471,2.1978958 4.5850397,2.0494326 4.5249809,1.9009695 4.4867873,1.7569546 4.5000702,1.7293988 4.5135491,1.7014557 4.5077478,1.6925382 4.4864209,1.7092202 4.4656901,1.7256738 4.3939694,1.6430343 4.3271455,1.5255671 4.1969017,1.2966414 3.9458155,0.95199974 3.9092684,0.95199974 c -0.018598,0 0.069784,0.15243796 0.134441,0.23175706 0.1409845,0.1729806 0.3832582,0.6098368 0.5012769,0.9038496 0.1269252,0.3162 0.3650869,1.0913955 0.36565,1.1901445 1.023e-4,0.017254 -0.093398,0.098961 -0.2077571,0.1815801 -0.1143675,0.08262 -0.3267398,0.254349 -0.471947,0.3816178 -0.2841954,0.2491025 -0.2889557,0.3071454 -0.025337,0.3087555 0.079594,5.26e-4 0.1954809,0.040614 0.2576126,0.089166 0.1094536,0.085545 0.740121,1.1122669 0.8182997,1.3321816 0.021243,0.059832 0.053063,0.1087779 0.070722,0.1087779 0.064495,0 1.2141069,-0.8080825 1.5571325,-1.094512 C 7.3810276,4.191468 7.53451,4.0957609 7.6670997,4.1127909 c 0.094798,0.012177 0.1175069,0.0415 0.1546682,0.1996751 0.023973,0.1019717 0.126789,0.4202891 0.2285046,0.7073699 0.23068,0.6510754 0.2959853,0.9298734 0.2959853,1.2635598 0,0.3658093 -0.1182828,0.928328 -0.2873178,1.3663653 -0.1654002,0.4286192 -0.2956948,0.6257418 -0.413594,0.6257418 -0.1158434,0 -1.07732,-0.3181026 -1.8112731,-0.5992584 C 5.4965668,7.5469601 5.1993616,7.441179 5.1736063,7.441179 5.1478423,7.441179 5.0985333,7.420724 5.0639907,7.395725 5.0294398,7.370725 4.6187714,7.2150973 4.1513629,7.0498861 3.683963,6.884675 3.2242409,6.7194466 3.129768,6.6827134 3.0352949,6.6459764 2.9579949,6.6216057 2.9579949,6.6285319 c 0,0.00695 -0.050078,0.2286445 -0.1112706,0.4926829 C 2.7408026,7.5782142 2.7381921,7.6086491 2.7924668,7.7545571 2.871465,7.9669139 2.8642134,8.0562461 2.7573192,8.1849136 2.6569688,8.3057497 2.4817744,8.3271755 1.9006724,8.2896747 Z M 7.6591747,8.1554363 c 0,-0.035613 -0.1546512,-0.2008811 -0.1898503,-0.2028819 -0.053405,-0.00306 -0.025934,0.1338179 0.036172,0.1801508 0.070381,0.052533 0.1536872,0.064862 0.1536872,0.022732 z M 7.9037691,7.8561272 C 8.0529002,7.5392554 8.1553409,7.1892795 8.2245966,6.760068 8.3246082,6.1402192 8.3132795,6.1364236 7.8530604,6.635565 l -0.402803,0.4368721 0.034039,0.1941131 c 0.018683,0.1067629 0.023376,0.2752424 0.010237,0.374401 -0.021413,0.1624902 -0.011773,0.1951925 0.097552,0.3312417 0.066713,0.08302 0.1375889,0.147298 0.1574835,0.1428326 0.019878,-0.00448 0.08927,-0.1209695 0.1541911,-0.2588983 z M 7.3736144,7.9627819 C 7.3997193,7.8721205 7.3795861,7.8376871 7.2154484,7.6962608 7.111958,7.6069333 7.0098923,7.5338515 6.988633,7.5338515 c -0.060656,0 -0.2877699,0.2293659 -0.2877699,0.2905775 0,0.054362 0.4955866,0.2629788 0.5926019,0.2494541 0.027555,-0.00382 0.063642,-0.053839 0.080192,-0.111101 z M 2.1825723,7.877694 C 2.1063043,7.806173 1.9092797,7.787451 1.9092797,7.851723 c 0,0.041815 0.2943388,0.1411892 0.325409,0.109873 0.0099,-0.00999 -0.013564,-0.047751 -0.052125,-0.083906 z M 6.6209355,7.7125553 C 6.7047107,7.657888 6.8108968,7.5815612 6.8569901,7.542952 L 6.9407652,7.4727457 6.7665608,7.3330333 C 6.4192698,7.054505 5.4199152,6.4677642 5.2928109,6.4677642 c -0.00597,0 -0.021158,0.1095048 -0.033016,0.2433442 -0.011858,0.1338407 -0.032333,0.3139621 -0.04547,0.4002723 -0.030798,0.2020702 -0.026105,0.2053638 0.6728536,0.4748297 0.3082871,0.1188534 0.5652428,0.2182676 0.5710097,0.22092 0.00597,0.00267 0.078998,-0.039909 0.1627301,-0.094577 z M 7.4060409,7.4643217 c 0,-0.319205 -0.030371,-0.3643632 -0.1508463,-0.2245726 -0.038731,0.044911 -0.066116,0.1403707 -0.066116,0.2302766 0,0.1198602 0.021839,0.1687429 0.099447,0.2227175 0.054684,0.038033 0.1035159,0.069987 0.1084895,0.071007 0.00512,0.00105 0.00905,-0.1337217 0.00905,-0.2994282 z M 7.1069929,7.2905036 C 7.2189205,7.1352551 7.2829206,6.8201517 7.2317512,6.6762139 7.2091444,6.6125524 7.1758731,6.5604707 7.1578718,6.5604707 c -0.069699,0 -0.5836101,0.4348191 -0.5836101,0.4937499 0,0.071369 0.3148219,0.3383691 0.4005335,0.3396933 0.031309,5.25e-4 0.090814,-0.046045 0.1321718,-0.1034111 z M 5.1432954,7.0052624 c 0.062532,-0.2756912 0.073879,-0.4911433 0.025849,-0.4911433 -0.073112,0 -0.731479,0.4780071 -0.7042478,0.5112982 0.035489,0.043368 0.4731669,0.2197252 0.5608748,0.2259883 0.043337,0.00314 0.07695,-0.067205 0.1175325,-0.2461432 z m 2.2260278,0.025352 c -2.73e-4,-0.016396 -0.014332,-0.057621 -0.031138,-0.091634 -0.024399,-0.049323 -0.035233,-0.046207 -0.05366,0.015377 -0.036598,0.1221575 -0.0273,0.1614974 0.031138,0.1327374 0.029858,-0.014682 0.054002,-0.04009 0.05366,-0.056487 z M 6.7630205,6.7806412 C 6.8954482,6.6722935 7.0327812,6.5609208 7.0681937,6.533145 7.1267168,6.4872427 7.1116168,6.4428933 6.9024181,6.0464577 6.5746887,5.4253769 6.6284515,5.4578982 6.3180913,5.6929479 6.1705977,5.8046484 5.8911968,6.0056687 5.6971919,6.1396599 5.3896811,6.3520377 5.2930498,6.467769 5.4232253,6.467769 c 0.057755,0 0.6841914,0.330105 0.8075164,0.4255558 0.1629349,0.1260969 0.267466,0.1039666 0.5322788,-0.1126836 z M 7.7550127,6.6353153 C 7.9111394,6.4725345 8.0951118,6.263762 8.1638289,6.1713771 8.2789564,6.016607 8.2841776,5.9975067 8.2302904,5.9283903 c -0.04283,-0.054849 -0.092598,-0.066825 -0.1852433,-0.044539 -0.1650847,0.0397 -0.6751312,0.4663648 -0.6751312,0.5647709 0,0.047998 -0.019707,0.065719 -0.054257,0.048741 -0.029858,-0.014682 -0.054257,-0.00649 -0.054257,0.018216 0,0.024695 0.016294,0.044892 0.036172,0.044892 0.019878,0 0.036172,0.030306 0.036172,0.067349 0,0.0911 0.077462,0.3034648 0.1106735,0.3034648 0.014674,0 0.1544891,-0.1331841 0.3106246,-0.2959669 z M 4.6733105,6.6361918 C 4.8981894,6.5007657 5.0197656,6.4035325 4.9984294,6.3761816 4.9796611,6.3521539 4.752948,6.2684865 4.4945762,6.1902592 L 4.0248131,6.0480249 3.6374857,6.2926829 C 3.4244565,6.4272467 3.2495185,6.5523158 3.2487337,6.5706157 3.2478805,6.5982642 3.6422546,6.7667475 3.9163236,6.8555807 4.0921659,6.9125727 4.3277597,6.844304 4.6733105,6.6361918 Z M 3.2594657,6.4448254 C 3.5451114,6.2918473 3.8697013,6.036638 3.820733,6.0035279 3.7937748,5.9852832 3.6496169,5.9343601 3.5004513,5.8903631 3.3512771,5.8463663 3.2029474,5.80135 3.1708194,5.7903193 3.1250925,5.774609 3.1034238,5.8282949 3.0708524,6.0379261 3.0479889,6.1851383 3.0194956,6.3525159 3.007466,6.4098757 2.9807637,6.5375828 3.0645389,6.5491975 3.2594225,6.4448217 Z M 7.2613882,6.3140839 c 0,-0.1010385 -0.4734229,-0.9650507 -0.5174091,-0.944288 -0.065348,0.030859 -0.044447,0.088061 0.2151364,0.5877686 0.2160748,0.4159581 0.3022727,0.5176272 0.3022727,0.3565194 z M 5.0464081,6.2244706 C 4.98925,6.1141021 4.8720246,6.0838721 4.8487178,6.1734807 c -0.00768,0.029316 0.031736,0.074599 0.087392,0.1006309 0.1529194,0.071473 0.1692393,0.064127 0.1102981,-0.049646 z m 3.016831,-0.3939901 c 0.076097,-0.01308 0.1383825,-0.041253 0.1383825,-0.062604 0,-0.041176 -0.4301525,-1.30267 -0.4554983,-1.3358364 -0.00853,-0.010721 -0.051442,0.022056 -0.096128,0.072846 -0.044703,0.050789 -0.2480237,0.2430159 -0.451899,0.42717 C 6.9942293,5.1162094 6.82743,5.2784108 6.82743,5.2925027 c 0,0.014081 0.1148025,0.2512861 0.255113,0.5270971 L 7.3376559,6.3210723 7.6312525,6.0876716 C 7.7959788,5.9567214 7.9855979,5.8438301 8.0632391,5.8304805 Z m -2.79208,0.3622748 c 0.047006,-0.1124894 0.048883,-0.327507 0.00256,-0.327507 -0.062447,0 -0.2186768,0.1067375 -0.2186768,0.1493636 0,0.055526 0.1195799,0.2644927 0.152416,0.2663429 0.014247,8.756e-4 0.042656,-0.03889 0.0633,-0.088204 z M 6.3192174,5.4944685 C 6.5071056,5.3496753 6.6663038,5.210161 6.6729921,5.1844346 6.679817,5.158711 6.6539678,5.0882493 6.6157486,5.0278571 6.5632826,4.9447413 6.5343623,4.9301608 6.4970389,4.9678639 6.4699101,4.9952642 6.2849566,5.1276426 6.0860549,5.2620503 5.3093014,5.786962 5.3447224,5.7522684 5.3447224,5.9882861 V 6.1972197 L 5.6611481,5.9774755 C 5.8351819,5.8566167 6.1312951,5.6392648 6.3191832,5.4944734 Z M 4.8137318,6.0907269 C 4.8571554,6.0617836 4.8990597,6.031058 4.9067972,6.0224642 4.9178024,6.0102506 4.8128444,5.809552 4.7048754,5.6363131 4.6980497,5.625121 4.5623725,5.6970785 4.4037117,5.796232 4.2450424,5.8953836 4.1277148,5.9925105 4.1429683,6.0120672 4.2272556,6.1200953 4.6884787,6.1741859 4.8137317,6.0907336 Z M 5.1437903,5.8606705 c 0.070722,-0.053505 0.1286399,-0.1224252 0.1286399,-0.1531563 0,-0.068443 -0.1948581,-0.4681883 -0.2492095,-0.5112421 -0.040438,-0.032031 -0.2793497,0.092814 -0.313619,0.1638888 -0.015527,0.032144 0.2652052,0.5977905 0.2966593,0.5977905 0.00512,0 0.066798,-0.043778 0.1375293,-0.097281 z M 4.0915516,5.8101378 4.2056205,5.7086717 4.1332766,5.8159464 C 4.0731331,5.905198 4.1118641,5.890526 4.3638462,5.7285628 4.5762868,5.5920305 4.6553356,5.5192995 4.6285821,5.4850033 4.6017946,5.4507052 4.5329746,5.4799538 4.3980216,5.5829481 4.2136823,5.7236285 4.2416301,5.673076 4.4622605,5.4667634 L 4.5662116,5.3695577 4.4118335,5.1074848 4.2574553,4.8454102 4.1592115,4.926125 C 4.1052095,4.970522 3.9926425,5.0728066 3.9091149,5.153431 3.8255949,5.234051 3.6506577,5.3883836 3.5203712,5.4963854 3.3900763,5.604387 3.2834722,5.7084583 3.2834722,5.7276557 c 0,0.048741 0.3869349,0.1737876 0.5549372,0.1793467 0.088911,0.00296 0.1802187,-0.032003 0.2531422,-0.096865 z M 3.4992227,5.4441389 C 3.6786481,5.2890066 3.8338708,5.1446231 3.8441593,5.1232886 3.8544819,5.1019572 3.6999587,5.1811097 3.5008437,5.2991866 3.196387,5.4797366 3.1388194,5.5307541 3.1388194,5.6200358 c 0,0.058393 0.00768,0.1061616 0.017062,0.1061616 0.00938,0 0.1638902,-0.1269259 0.3433156,-0.2820582 z M 1.6332742,5.57721 c -0.00964,-0.020026 6.825e-4,-0.036413 0.022863,-0.036413 0.022266,0 0.030371,-0.020855 0.018085,-0.046351 -0.012285,-0.025494 -0.00853,-0.046351 0.0087,-0.046351 0.017062,0 0.050589,0.020855 0.074476,0.046351 0.031138,0.03326 0.033527,0.031097 0.00853,-0.00762 -0.023546,-0.036395 -0.014674,-0.074504 0.027129,-0.1168696 0.037708,-0.038252 0.00955,-0.032259 -0.072002,0.015291 -0.073708,0.042986 -0.1243573,0.098283 -0.1124992,0.1228844 0.011858,0.0246 -8.53e-4,0.03487 -0.028665,0.022817 -0.02764,-0.012049 -0.047262,-0.072112 -0.043509,-0.1334797 0.00427,-0.068844 -4.095e-4,-0.080295 -0.011773,-0.029887 -0.010152,0.044921 -0.033357,0.069921 -0.051442,0.055535 -0.018172,-0.014386 -0.023289,0.00619 -0.011431,0.045778 0.011858,0.039566 0.037025,0.07194 0.055963,0.07194 0.018938,0 0.026532,0.016378 0.016892,0.036413 -0.00965,0.020026 0.012626,0.036422 0.049481,0.036422 0.036854,0 0.059121,-0.016378 0.04948,-0.036422 z M 1.9273656,5.4017389 c 0.012285,-0.025494 0.00597,-0.046351 -0.013821,-0.046351 -0.019878,0 -0.046238,0.020855 -0.058523,0.046351 -0.012285,0.025495 -0.00597,0.046351 0.013821,0.046351 0.019877,0 0.046238,-0.020855 0.058523,-0.046351 z M 4.1071123,4.8330285 C 4.2135117,4.7686052 4.1949994,4.703433 4.0407406,4.5993335 3.8447992,4.4671105 3.5615678,4.5185614 3.4019004,4.7153908 3.2483327,4.9047001 3.2260922,4.9570705 3.1940581,5.2049258 L 3.1685502,5.4020981 3.5966646,5.1424784 C 3.8321305,4.9996878 4.0618209,4.8604346 4.1070868,4.8330285 Z M 1.4572442,5.3090349 c 0.012284,-0.025495 0.00512,-0.046351 -0.015953,-0.046351 -0.021071,0 -0.038305,0.020855 -0.038305,0.046351 0,0.025495 0.00683,0.046351 0.015954,0.046351 0.00878,0 0.02602,-0.020855 0.038304,-0.046351 z m 3.3465063,-0.093644 c 0.078742,-0.051504 0.143211,-0.1122068 0.143211,-0.1348916 0,-0.067443 -0.2875566,-0.5130854 -0.3310736,-0.5130854 -0.085345,0 -0.2837432,0.1934813 -0.2566826,0.2503133 0.055963,0.117413 0.27505,0.4913071 0.2879405,0.4913071 0.00768,0 0.077803,-0.04214 0.1566047,-0.093643 z M 1.3175992,5.1468048 c -0.013309,-0.04435 0.0017,-0.071473 0.041376,-0.074903 0.0575,-0.00495 0.057414,-0.00695 -8.532e-4,-0.026572 -0.034807,-0.011675 -0.0633,-0.041758 -0.0633,-0.066891 0,-0.025133 0.017318,-0.031983 0.038475,-0.015244 0.021157,0.016748 0.07149,-0.00781 0.1118166,-0.054658 0.040352,-0.046808 0.1491742,-0.1387664 0.2418216,-0.2043463 0.092647,-0.065586 0.1647264,-0.1427154 0.1601707,-0.1714087 -0.00427,-0.028697 0.019878,-0.052381 0.054257,-0.052639 0.03438,-3.507e-4 0.107261,-0.014454 0.1619623,-0.031534 0.091905,-0.028716 0.099447,-0.020436 0.099447,0.1090495 0,0.1210065 -0.01109,0.1370801 -0.081387,0.1178404 -0.080448,-0.022036 -0.080619,-0.021456 -0.00905,0.053963 0.039755,0.041929 0.068931,0.093139 0.06475,0.1137982 -0.00427,0.020665 0.023716,0.073931 0.062106,0.1183909 0.076523,0.088784 0.077291,0.077219 0.013991,-0.2025191 -0.022608,-0.099965 -0.018172,-0.1049711 0.051442,-0.05723 0.050333,0.034517 0.068419,0.078476 0.053234,0.1291857 -0.017233,0.057601 -0.00853,0.069549 0.036342,0.047665 0.032674,-0.016062 0.069272,-0.00877 0.081302,0.016273 0.012028,0.025009 0.00853,0.042492 -0.00768,0.038834 -0.089261,-0.019874 -0.1330591,0.00639 -0.094021,0.056459 C 2.3639235,5.0289028 2.5512056,4.900581 3.055255,4.496036 3.9928446,3.7435325 4.1519148,3.6016898 4.1519148,3.5181606 c 0,-0.039823 -0.059291,-0.1954794 -0.1317111,-0.3459079 C 3.8800665,2.8812306 3.7982281,2.8343412 3.6615945,2.9667995 c -0.038646,0.037432 -0.1227108,0.068721 -0.18689,0.069531 -0.084202,0.00105 -0.1334088,0.034155 -0.1766784,0.118799 -0.033016,0.064528 -0.049651,0.1305804 -0.037025,0.1467797 0.012626,0.016206 0.022949,0.00391 0.022949,-0.027362 0,-0.031249 0.015185,-0.044816 0.033698,-0.030144 0.018512,0.014662 0.04385,0.00543 0.05639,-0.020436 0.012455,-0.025905 0.058353,-0.047026 0.1019462,-0.046931 0.069614,1.525e-4 0.065433,0.010926 -0.03438,0.088947 -0.141266,0.1104118 -0.1774718,0.1820983 -0.1255688,0.2486252 0.029518,0.037842 0.084458,0.023999 0.2066224,-0.052058 L 3.689064,3.3589279 3.60964,3.4880649 C 3.541818,3.5982833 3.538661,3.6193962 3.587886,3.6321886 c 0.07422,0.019283 0.073965,0.1185526 -4.096e-4,0.1977571 -0.048883,0.05199 -0.06475,0.050579 -0.099447,-0.00877 C 3.4129566,3.6927439 3.3181253,3.6808092 3.1885044,3.783492 3.086379,3.8643883 3.055343,3.8710756 3.0092752,3.8220681 2.9604773,3.7701152 2.9695201,3.7441069 3.0826425,3.6112615 3.1536213,3.5279075 3.2117004,3.4482244 3.2117004,3.4341774 c 0,-0.076637 -0.1403531,0.010194 -0.5274587,0.3263265 -0.5805134,0.4740802 -1.0722524,0.8868779 -1.1254692,0.9447913 -0.024057,0.026143 -0.054684,0.047531 -0.068078,0.047531 -0.013394,0 -0.053575,0.043082 -0.089192,0.095747 -0.03566,0.052657 -0.078229,0.09411 -0.094653,0.092109 -0.032076,-0.00391 -0.050419,0.1832767 -0.023631,0.2408937 0.029261,0.062984 0.05622,0.036204 0.034977,-0.034764 z M 2.3652822,4.7146877 C 2.3211766,4.6231498 2.3884014,4.5399846 2.715653,4.2815815 2.9583618,4.0899179 3.0605042,4.0319418 3.0935451,4.0670878 3.1785145,4.1574824 3.1373095,4.2198269 2.8286726,4.4681518 2.4958587,4.7358991 2.4000804,4.7868556 2.3652822,4.7146877 Z M 3.1749826,3.9914214 c 0,-0.089719 0.018512,-0.1192771 0.074817,-0.1192771 0.056817,0 0.072087,0.02497 0.0633,0.1038169 C 3.295953,4.1300207 3.1749738,4.1435609 3.1749738,3.9914138 Z M 3.7053674,3.6558381 c -0.03438,-0.044025 -0.029859,-0.1908376 0.00683,-0.2198108 0.016977,-0.013433 0.061082,0.00391 0.098082,0.038595 0.057073,0.053496 0.059973,0.074303 0.018939,0.1375696 -0.052039,0.08042 -0.085823,0.09231 -0.1237943,0.043644 z m 8.532e-4,-0.3581332 c -0.014844,-0.048265 -0.018427,-0.098667 -0.00768,-0.1120161 0.033016,-0.042272 0.062021,0.027 0.048201,0.1150225 -0.012711,0.080667 -0.014588,0.080525 -0.040181,-0.00306 z M 1.4389195,5.1699808 c 0,-0.025495 -0.017232,-0.046351 -0.038305,-0.046351 -0.021071,0 -0.028238,0.020855 -0.015953,0.046351 0.012285,0.025494 0.029518,0.046351 0.038305,0.046351 0.00878,0 0.015953,-0.020855 0.015953,-0.046351 z m 0.7232551,-0.079476 c 0,-0.1015015 -0.1775485,-0.392098 -0.2193336,-0.3589946 -0.058779,0.046588 -0.036855,0.1696309 0.058949,0.330672 0.092733,0.1558336 0.1603755,0.1677797 0.1603755,0.028324 z m -0.5114629,0.038204 c 0.028323,-0.02297 0.03438,-0.051495 0.014332,-0.06733 -0.01911,-0.01512 -0.065603,0.00247 -0.1033027,0.039081 -0.052807,0.051189 -0.05605,0.066747 -0.014417,0.06733 0.029859,3.497e-4 0.076353,-0.017168 0.1033112,-0.039081 z M 7.211746,4.7230706 C 7.6625786,4.3022299 7.7107109,4.2444329 7.6621777,4.1822275 7.6167924,4.1240445 7.3991137,4.2575214 6.9869438,4.5962886 6.6162264,4.9009884 6.6144178,4.9033682 6.6705522,5.0131822 c 0.031053,0.060746 0.068931,0.1104429 0.084287,0.1104429 0.015271,0 0.220912,-0.1802509 0.4569154,-0.4005543 z M 4.5426402,4.5075814 C 4.5751438,4.4574107 4.5651619,4.4204926 4.496743,4.3381801 4.4311395,4.2591707 4.3435934,4.2236817 4.1456129,4.1958267 3.8876505,4.1595276 3.8792731,4.1616619 3.7620989,4.2935389 c -0.06586,0.074151 -0.1070308,0.1366694 -0.091419,0.1389351 0.015612,0.00228 0.1046591,8.756e-4 0.1978866,-0.00323 0.1471268,-0.00639 0.1876236,0.013872 0.3066576,0.1536871 l 0.1371374,0.1610841 0.094353,-0.086117 C 4.4585836,4.6105348 4.51976,4.5429114 4.5426062,4.5076253 Z M 6.2124085,2.1289748 c 0,-0.038356 -0.070211,-0.06006 -0.086318,-0.026666 -0.010408,0.021656 0.00512,0.039385 0.033698,0.039385 0.02892,0 0.052637,-0.00571 0.052637,-0.012718 z M 6.3932244,1.9971347 c 0,-0.0061 -0.036342,-0.05077 -0.080704,-0.09933 -0.061509,-0.067234 -0.069357,-0.069435 -0.033016,-0.00924 0.02619,0.043492 0.03728,0.1006166 0.024655,0.1269346 -0.013734,0.028543 -4.096e-4,0.036709 0.033015,0.020245 0.030883,-0.015186 0.056135,-0.032573 0.056135,-0.038643 z m 0.208704,-0.1895113 c 0.061936,-0.024618 0.072599,-0.047274 0.043423,-0.092357 -0.027725,-0.042882 -0.02636,-0.069463 0.00512,-0.094205 0.029176,-0.023095 0.034039,-0.014824 0.014759,0.025066 -0.01928,0.039928 -0.012199,0.051818 0.021498,0.036137 0.02764,-0.012881 0.045897,-0.047856 0.040608,-0.077743 -0.00512,-0.029887 0.011005,-0.050885 0.036172,-0.046655 0.098014,0.016473 0.1330761,-0.0061 0.1131049,-0.072817 -0.012626,-0.042129 -1.11e-4,-0.069531 0.03165,-0.069531 0.02892,0 0.081984,-0.04171 0.1179677,-0.092699 0.084543,-0.1197432 0.017915,-0.1204579 -0.089542,-8.766e-4 -0.045385,0.050457 -0.095591,0.081391 -0.1115522,0.068749 -0.015953,-0.012652 -0.050504,0.014434 -0.076694,0.060184 -0.02619,0.045741 -0.094626,0.1295239 -0.1520065,0.1861815 -0.057328,0.056659 -0.084884,0.1030093 -0.061167,0.1030093 0.023716,0 0.032589,0.021875 0.019707,0.048599 -0.016294,0.033831 -0.037451,0.03365 -0.069699,-5.258e-4 -0.033101,-0.035222 -0.057243,-0.032174 -0.085055,0.010733 -0.029858,0.04615 -0.020645,0.057803 0.040438,0.050705 0.043594,-0.00505 0.1161675,-0.023894 0.161331,-0.041834 z M 6.7744777,1.5114249 c -0.011431,-0.023733 -0.00683,-0.054106 0.0099,-0.067491 0.016892,-0.013386 0.030711,0.006 0.030711,0.043149 0,0.078152 -0.011431,0.084983 -0.040608,0.024343 z m -2.1351464,0.228554 c 0.012285,-0.025495 0.00512,-0.046351 -0.015953,-0.046351 -0.021071,0 -0.038305,0.020855 -0.038305,0.046351 0,0.025495 0.00683,0.046351 0.015953,0.046351 0.00878,0 0.02602,-0.020855 0.038305,-0.046351 z M 1.1259317,1.575749 C 1.1141587,1.536411 1.0967557,1.514165 1.0872857,1.526312 c -0.00947,0.012157 -0.00683,0.044341 0.00683,0.071521 0.03566,0.07395 0.056475,0.059583 0.032076,-0.022094 z M 5.755587,1.610856 C 5.765227,1.59083 5.742961,1.574434 5.706106,1.574434 c -0.036854,0 -0.05912,0.016378 -0.04948,0.036422 0.00963,0.020026 0.031906,0.036422 0.04948,0.036422 0.017574,0 0.039755,-0.016396 0.049481,-0.036422 z M 5.3248792,1.2796667 c 0.011431,-0.023731 0.00683,-0.054095 -0.0099,-0.067491 -0.016892,-0.013386 -0.030711,0.00601 -0.030711,0.043149 0,0.078152 0.011431,0.084983 0.040608,0.024341 z M 1.4298766,1.2185303 c -0.00512,-0.031868 0.012541,-0.05221 0.038816,-0.045207 0.02636,0.00705 0.03711,-0.00965 0.023887,-0.037014 -0.016892,-0.034936 -0.039073,-0.033717 -0.074647,0.0041 -0.027811,0.02962 -0.041717,0.07235 -0.030797,0.094959 0.028835,0.05986 0.053149,0.050275 0.042655,-0.016834 z m 3.938238,-0.073284 c -0.032929,-0.046683 -0.047945,-0.1040439 -0.033357,-0.1274671 0.014588,-0.0234275 0.00341,-0.016587 -0.025081,0.015168 -0.044362,0.049522 -0.041632,0.06751 0.018683,0.1259922 0.096171,0.093225 0.1115096,0.087937 0.039755,-0.0137 z M 4.9286282,0.72025782 c -0.012284,-0.0254946 -0.037622,-0.0463504 -0.05639,-0.0463504 -0.018683,0 -0.034039,0.0208547 -0.034039,0.0463504 0,0.0254946 0.025337,0.0463504 0.05639,0.0463504 0.030968,0 0.046324,-0.0208547 0.034039,-0.0463504 z M 1.5654864,3.1305273 c 0.036002,-0.05099 0.081727,-0.092699 0.1015452,-0.092699 0.019878,0 -0.0017,0.04171 -0.047348,0.092699 -0.045897,0.05099 -0.091555,0.092699 -0.1015452,0.092699 -0.00998,0 0.011261,-0.04171 0.047348,-0.092699 z M 1.7435979,2.9970667 c 0.010835,-0.022418 0.056561,-0.052666 0.1015879,-0.067225 0.079083,-0.025533 0.079424,-0.024094 0.011773,0.040758 -0.077718,0.074445 -0.143902,0.089899 -0.1133182,0.026466 z M 1.7101561,2.8524192 c -0.012285,-0.025494 -0.00597,-0.046351 0.013821,-0.046351 0.019878,0 0.046238,0.020855 0.058523,0.046351 0.012285,0.025495 0.00597,0.046351 -0.013821,0.046351 -0.019877,0 -0.046238,-0.020855 -0.058523,-0.046351 z m 0,-0.2317572 c -0.012285,-0.025494 0.00341,-0.046351 0.034039,-0.046351 0.030968,0 0.05639,0.020855 0.05639,0.046351 0,0.025495 -0.015271,0.046351 -0.034039,0.046351 -0.018683,0 -0.044105,-0.020855 -0.05639,-0.046351 z M 2.1019197,2.553171 c 0,-0.037118 0.013821,-0.056535 0.030711,-0.043149 0.016892,0.013386 0.021328,0.043759 0.0099,0.067491 -0.029262,0.06064 -0.040693,0.053819 -0.040693,-0.024343 z M 2.263899,2.4499419 C 2.290004,2.4365559 2.321228,2.4382069 2.333171,2.4535619 2.3452,2.4689579 2.323791,2.4799139 2.285738,2.4779029 2.243594,2.4757129 2.235064,2.4646989 2.263899,2.4499019 Z M 2.2143335,2.2252001 c 0.091368,-0.088575 0.1502321,-0.087641 0.092537,0.00143 -0.02474,0.038241 -0.07149,0.068862 -0.1038827,0.068053 -0.049481,-0.00124 -0.047603,-0.012347 0.011346,-0.069531 z m 2.508662,-1.3048518 c 0.026105,-0.0133859 0.057328,-0.0117356 0.069272,0.003622 0.012029,0.0153962 -0.00938,0.0263529 -0.047433,0.0243427 C 4.7026905,0.946127 4.6941605,0.9351081 4.7229945,0.920312 Z M 4.5308844,0.81295811 c -0.012284,-0.0254946 0.00341,-0.0463503 0.034039,-0.0463503 0.030968,0 0.05639,0.0208547 0.05639,0.0463503 0,0.0254946 -0.015271,0.0463504 -0.034039,0.0463504 -0.018683,0 -0.044106,-0.0208547 -0.05639,-0.0463504 z M 2.2164577,0.72025781 c -0.012284,-0.0254946 -0.00512,-0.0463504 0.015953,-0.0463504 0.021071,0 0.038305,0.0208547 0.038305,0.0463504 0,0.0254946 -0.00683,0.0463504 -0.015954,0.0463504 -0.00878,0 -0.02602,-0.0208547 -0.038304,-0.0463504 z M 3.5023963,0.59272037 C 3.3421061,0.48831113 3.3317495,0.43371994 3.454708,0.34125327 c 0.08996,-0.0676626 0.1131561,-0.0681867 0.2354062,-0.005336 0.2041654,0.10502426 0.1739483,0.3304499 -0.045215,0.3372467 -0.00998,3.5062e-4 -0.07405,-0.0359079 -0.1424944,-0.0804859 z M 2.30687,0.56298573 c 0,-0.0100208 0.025252,-0.030639 0.056135,-0.0458167 0.032162,-0.0158345 0.046665,-0.008101 0.034039,0.0182166 -0.021243,0.0440444 -0.090147,0.0651477 -0.090147,0.0276001 z M 4.3408038,0.45770552 c -0.024996,-0.0129091 -0.036257,-0.0425484 -0.024996,-0.0658709 0.011261,-0.0233128 -0.00597,-0.0423866 -0.038048,-0.0423866 -0.032162,0 -0.048883,-0.0199503 -0.03711,-0.0443305 0.021328,-0.0442641 0.055623,-0.0365756 0.2475118,0.0555915 0.074305,0.0356991 0.089004,0.0593923 0.054257,0.0876504 -0.052124,0.0423299 -0.1306789,0.0459785 -0.2015634,0.009333 z m 0.1719948,-0.0337738 c 0,-0.0100208 -0.025252,-0.0306403 -0.056135,-0.0458167 -0.032162,-0.0158345 -0.046665,-0.008101 -0.034039,0.0182166 0.021243,0.0440444 0.090147,0.0651477 0.090147,0.0276001 z M 4.1415267,0.25099208 c 0.024569,-0.0316786 0.053745,-0.0459217 0.064836,-0.0316496 0.011176,0.0142818 -0.00896,0.0401856 -0.044617,0.0575921 -0.051527,0.0251517 -0.055708,0.019826 -0.020218,-0.0259425 z M 3.9341962,0.16403675 c -0.048201,-0.0399381 -0.048201,-0.0449306 0,-0.0449306 0.029859,0 0.078656,0.0202171 0.1084895,0.0449306 0.048201,0.0399381 0.048201,0.0449305 0,0.0449305 -0.029858,0 -0.078656,-0.0202171 -0.1084895,-0.0449305 z M 3.6991397,0.1191539 c -0.058949,-0.03125844 -0.050759,-0.03794719 0.043935,-0.03608907 0.063983,0.0012435 0.1077473,0.01998778 0.097314,0.0416248 -0.022436,0.0465496 -0.044702,0.0456827 -0.1412658,-0.005529 z M 3.0120393,0.06867847 c 0.079594,-0.02109372 0.193476,-0.0369463 0.2531422,-0.03522219 0.081387,0.0023785 0.067823,0.01242369 -0.054257,0.04024358 C 2.9926994,0.12347069 2.821643,0.11914472 3.0120223,0.06865311 Z m 0.4249152,-0.0292965 c 0.034807,-0.01167512 0.09176,-0.01167512 0.1265754,0 0.034807,0.01165099 0.00597,0.02119876 -0.0633,0.02119876 -0.069614,0 -0.09809,-0.0095502 -0.0633,-0.02119876 z"
       id="path177" />
  </g>
</svg>
