<?xml version="1.0" encoding="UTF-8" standalone="no"?>
<svg
   xmlns:dc="http://purl.org/dc/elements/1.1/"
   xmlns:cc="http://creativecommons.org/ns#"
   xmlns:rdf="http://www.w3.org/1999/02/22-rdf-syntax-ns#"
   xmlns:svg="http://www.w3.org/2000/svg"
   xmlns="http://www.w3.org/2000/svg"
   xmlns:sodipodi="http://sodipodi.sourceforge.net/DTD/sodipodi-0.dtd"
   xmlns:inkscape="http://www.inkscape.org/namespaces/inkscape"
   width="50"
   height="50"
   viewBox="0 0 13.229166 13.229167"
   version="1.1"
   id="svg231"
   inkscape:version="1.0.1 (3bc2e813f5, 2020-09-07)"
   sodipodi:docname="mp.svg">
  <defs
     id="defs225" />
  <sodipodi:namedview
     id="base"
     pagecolor="#007bff"
     bordercolor="#666666"
     borderopacity="1.0"
     inkscape:pageopacity="0"
     inkscape:pageshadow="2"
     inkscape:zoom="10.26"
     inkscape:cx="25"
     inkscape:cy="25"
     inkscape:document-units="px"
     inkscape:current-layer="layer1"
     inkscape:document-rotation="0"
     showgrid="false"
     units="px"
     inkscape:window-width="1366"
     inkscape:window-height="745"
     inkscape:window-x="-8"
     inkscape:window-y="-8"
     inkscape:window-maximized="1" />
  <metadata
     id="metadata228">
    <rdf:RDF>
      <cc:Work
         rdf:about="">
        <dc:format>image/svg+xml</dc:format>
        <dc:type
           rdf:resource="http://purl.org/dc/dcmitype/StillImage" />
        <dc:title></dc:title>
      </cc:Work>
    </rdf:RDF>
  </metadata>
  <g
     inkscape:label="Layer 1"
     inkscape:groupmode="layer"
     id="layer1">
    <path
       style="fill:#ffffff;stroke-width:0.0149253"
       d="m 1.3107355,12.966753 c -0.013262,-0.249839 -0.00516,-0.339961 0.036426,-0.402704 l 0.029235,-0.04418 0.3726926,-0.0069 0.3726927,-0.0069 -0.00575,-0.149736 c -0.00648,-0.165663 0.01478,-0.272326 0.06323,-0.318182 0.030591,-0.02894 0.042542,-0.02959 0.5606076,-0.02959 h 0.5293594 l -0.00129,-0.137908 c -6.425e-4,-0.09159 0.00516,-0.145046 0.018508,-0.159152 0.013851,-0.01471 0.065205,-0.02411 0.1669153,-0.03053 0.4318056,-0.02727 0.9759964,-0.145033 1.3630635,-0.294876 C 5.246214,11.219727 5.5812161,11.00892 6.026303,10.624761 l 0.2640357,-0.227894 -0.037531,-0.06533 c -0.068594,-0.119441 -0.039197,-0.270143 0.070495,-0.3614121 0.047743,-0.039699 0.048259,-0.041521 0.018066,-0.060153 -0.017152,-0.010639 -0.045356,-0.043768 -0.062714,-0.073785 -0.031225,-0.053942 -0.031549,-0.088893 -0.031549,-3.0435111 l 6.48e-5,-2.988946 0.033214,-0.049056 c 0.018243,-0.026998 0.048642,-0.059719 0.067489,-0.072764 l 0.034244,-0.023797 -0.054035,-0.046349 C 6.1833352,3.4875585 6.1773982,3.2943789 6.3145256,3.1695178 l 0.049924,-0.045466 -0.041775,-0.038585 C 6.2584866,3.0261428 6.2470666,2.9821574 6.2470666,2.793707 c 0,-0.1341366 -0.00442,-0.1742572 -0.020748,-0.1742572 -0.011494,0 -0.1350364,0.012475 -0.2746939,0.027762 -1.0511418,0.114827 -1.9651281,0.408233 -3.2812089,1.053342 -0.3389866,0.1661577 -0.4077309,0.1957143 -0.5206095,0.2238121 -0.037133,0.00923 -0.067562,0.021352 -0.067562,0.026822 0,0.03835 0.058088,0.1386072 0.1246626,0.2152073 0.090653,0.1042671 0.1110028,0.1708153 0.07801,0.2552036 -0.019215,0.049234 -0.018641,0.060047 0.00575,0.09517 0.071585,0.1043204 0.043632,0.2789614 -0.057115,0.3569434 -0.03065,0.0237 -0.055715,0.04712 -0.055715,0.052 0,0.00466 0.2009441,0.5332169 0.4465516,1.1740624 0.2456075,0.6408443 0.6322503,1.6507424 0.8592114,2.2442146 0.2269597,0.593472 0.4238898,1.0865979 0.4376204,1.0958384 0.021853,0.014642 0.015295,0.026758 -0.051471,0.095689 -0.09269,0.095635 -0.3250608,0.269461 -0.4730675,0.3538719 C 3.1600969,10.02432 2.859405,10.131288 2.5524432,10.189718 c -0.2309133,0.04394 -0.6931302,0.04394 -0.9240493,0 C 1.3872041,10.143782 1.2372701,10.097301 1.0094676,9.9977211 0.76420789,9.8905152 0.5709734,9.7662914 0.3679723,9.5853233 0.2425375,9.4735026 0.2238779,9.4512342 0.24875,9.4430472 0.278563,9.4332072 0.3575174,9.2310451 1.6081001,5.960722 L 2.0050239,4.9227609 1.9421768,4.867356 C 1.8457622,4.7823599 1.823099,4.6837879 1.8703116,4.554904 1.8948606,4.487849 1.8948606,4.481479 1.8696942,4.456928 1.8358322,4.423932 1.8195052,4.3402663 1.8405182,4.3071749 c 0.013999,-0.021944 0.020173,-0.017768 0.049541,0.032996 0.040479,0.069994 0.070185,0.085222 0.1490986,0.076511 0.060592,-0.00665 0.1070242,-0.044593 0.1068916,-0.087177 -3.3e-5,-0.011703 -0.028661,-0.071191 -0.063614,-0.132049 -0.047286,-0.08243 -0.063481,-0.127461 -0.063481,-0.1765919 V 3.954909 L 1.8878086,3.946389 C 1.7096029,3.934805 1.5925276,3.906039 1.4207216,3.8317688 1.1608502,3.7194066 0.9470876,3.5073173 0.84520176,3.2607657 0.80690406,3.1681197 0.80317606,3.1407925 0.80336756,2.9558011 0.80352228,2.7799559 0.80852456,2.7403472 0.84005906,2.661518 0.9539794,2.3772179 1.2083059,2.1550998 1.5182178,2.0692475 1.6759455,2.0255446 1.9191629,2.0256629 2.0773798,2.0695534 2.5381246,2.1972616 2.8014663,2.6282456 2.6524635,3.0107455 2.5134043,3.3677179 2.062074,3.541416 1.7124027,3.372535 1.4276989,3.2350339 1.343668,2.9273225 1.5398967,2.740831 1.6255687,2.659419 1.7462134,2.6279638 1.8353958,2.663784 c 0.054551,0.02194 0.051088,0.049526 -0.00752,0.06089 -0.1094997,0.021175 -0.2016204,0.1430363 -0.1810923,0.2394936 0.014912,0.070177 0.089238,0.1518765 0.1691654,0.1859856 0.1837256,0.078407 0.4173487,-0.015176 0.4970355,-0.1991314 0.034187,-0.078918 0.027438,-0.2308823 -0.013557,-0.3055294 -0.046706,-0.084982 -0.1294466,-0.1584942 -0.2354496,-0.209155 -0.09335,-0.044643 -0.1108259,-0.048056 -0.2436285,-0.048056 -0.1222607,0 -0.1564044,0.00529 -0.2347606,0.03788 -0.051854,0.02141 -0.1299233,0.071577 -0.1795805,0.115356 -0.2739557,0.2415047 -0.2546153,0.6112115 0.044781,0.8565042 0.1144362,0.093757 0.2589594,0.1554117 0.4140863,0.1766747 0.1095587,0.014999 0.128818,0.013822 0.2248142,-0.01394 0.057763,-0.016703 0.1536931,-0.057171 0.2132114,-0.089929 C 2.3624031,3.4380644 2.48074,3.3734511 2.5658378,3.3272081 2.7581719,3.2226927 3.3792158,2.8752666 3.7596843,2.6593421 4.6279611,2.1665743 5.1724789,1.9879057 6.019115,1.9179522 L 6.2279043,1.900719 6.1626406,1.8568404 C 5.9813183,1.7349268 5.9309066,1.5438411 6.0176724,1.3073769 6.0398936,1.2467692 6.1736657,0.99223072 6.3148999,0.74173833 L 6.5716946,0.28629697 6.8228147,0.73307421 C 7.0814189,1.193168 7.1694652,1.3905234 7.1694652,1.5101083 c 0,0.1431831 -0.084081,0.2900835 -0.2034506,0.3554726 l -0.058854,0.032233 0.1112828,0.010469 c 0.5591369,0.052701 0.7656525,0.088234 1.1273775,0.1939027 0.3883005,0.1134324 0.7299911,0.2685382 1.2729794,0.5778497 0.4304235,0.2451927 0.9468667,0.5339821 1.0332667,0.5777965 0.04369,0.022174 0.154594,0.083953 0.246397,0.1372953 0.295262,0.1715749 0.416599,0.2077427 0.597964,0.1782391 0.238226,-0.038762 0.459049,-0.1844798 0.563589,-0.3719419 0.0521,-0.093405 0.05455,-0.1046388 0.05455,-0.2522393 0,-0.1383246 -0.0044,-0.1628756 -0.04266,-0.2347289 -0.0566,-0.1065162 -0.127551,-0.1821213 -0.226078,-0.2410109 -0.160279,-0.095805 -0.37423,-0.1169555 -0.537791,-0.053172 -0.15591,0.060802 -0.28556,0.2102072 -0.307882,0.3547901 -0.0221,0.1433008 0.08844,0.3177285 0.240113,0.3788002 0.147105,0.059232 0.324569,0.016469 0.408342,-0.098422 0.03996,-0.054819 0.04614,-0.075306 0.0408,-0.1358953 -0.0094,-0.1072689 -0.05897,-0.158882 -0.194816,-0.202714 l -0.04768,-0.01541 0.03753,-0.026939 c 0.07609,-0.054643 0.240332,-0.018116 0.327181,0.072665 0.0673,0.07036 0.09257,0.1349012 0.09272,0.2367169 1.55e-4,0.12412 -0.0469,0.2166245 -0.157007,0.3084056 -0.192471,0.1604699 -0.44891,0.1910382 -0.700145,0.083454 -0.118653,-0.050822 -0.270399,-0.1878409 -0.327905,-0.2961032 -0.142714,-0.2686616 -0.07579,-0.5830196 0.171259,-0.804379 0.285515,-0.2558332 0.708565,-0.3144111 1.086757,-0.1504826 0.178213,0.077247 0.371852,0.249669 0.461201,0.4106743 0.34967,0.6301042 -0.155582,1.3545836 -0.983977,1.4108967 l -0.126829,0.00859 -9.6e-5,0.043467 c -1.28e-4,0.064084 -0.02935,0.1458358 -0.0748,0.2093015 -0.08382,0.1170475 -0.06155,0.1930146 0.06136,0.209531 0.0622,0.00837 0.08639,-0.00705 0.148139,-0.094385 l 0.02923,-0.041348 0.01459,0.034352 c 0.0169,0.039699 -0.0072,0.1270485 -0.04222,0.1526165 -0.01947,0.01423 -0.01947,0.022994 7.7e-5,0.064275 0.05468,0.1153189 0.01473,0.2883189 -0.08214,0.3554606 -0.03019,0.020947 -0.03984,0.038116 -0.03411,0.060884 0.0044,0.017476 0.194185,0.5172775 0.421789,1.1107496 0.227597,0.5934721 0.589078,1.5362338 0.803297,2.0950212 0.214213,0.5587914 0.413295,1.0772978 0.442402,1.1522462 0.03115,0.080301 0.06277,0.1384301 0.07685,0.1415355 0.01575,0.00346 -0.03855,0.06006 -0.158885,0.1656285 -0.347564,0.3048886 -0.754111,0.4943145 -1.248449,0.5816965 -0.217561,0.03846 -0.674232,0.0347 -0.897569,-0.0074 C 10.247438,10.124472 9.9561928,10.015364 9.6762731,9.8472352 9.503857,9.7436732 9.1654687,9.4554368 9.2069831,9.4474891 9.237633,9.4416374 9.2186242,9.4869615 9.5059067,8.7363565 9.6268855,8.420351 9.9095828,7.682544 10.134129,7.0967762 10.972958,4.9085347 10.97182,4.9115869 10.949828,4.9051459 10.907934,4.8929106 10.841521,4.815575 10.824089,4.758751 c -0.02166,-0.070566 -0.01032,-0.1867081 0.02397,-0.2451041 0.01889,-0.032237 0.0212,-0.051934 0.0093,-0.07957 -0.03862,-0.089558 -0.01223,-0.1718634 0.0914,-0.2845778 0.04736,-0.051522 0.126416,-0.1962789 0.112019,-0.2050781 C 11.058078,3.942661 11.006038,3.927422 10.944839,3.91007 10.883591,3.8927771 10.697644,3.811755 10.531524,3.7300842 9.1637388,3.0576007 8.2763324,2.7695994 7.196639,2.6477677 7.0586113,2.6321808 6.9352056,2.619476 6.9224269,2.619476 c -0.019082,0 -0.023267,0.030056 -0.023267,0.1686106 0,0.1789861 -0.017359,0.2425518 -0.083108,0.304247 l -0.033921,0.031821 0.040803,0.038467 C 6.9626562,3.2942757 6.954478,3.5075361 6.8054579,3.6180747 l -0.047419,0.035174 0.040862,0.033174 c 0.022486,0.018233 0.054035,0.058407 0.0702,0.089211 0.028204,0.053937 0.029368,0.1682635 0.029692,3.0168606 3.095e-4,3.2361437 0.00678,3.0137204 -0.088089,3.1009653 l -0.039064,0.035935 0.041436,0.034113 c 0.1108407,0.091207 0.1450566,0.2618214 0.07384,0.3681314 l -0.035984,0.05376 0.1203304,0.116848 c 0.1257236,0.122074 0.4243156,0.36474 0.5876532,0.477573 0.2786062,0.192468 0.6752721,0.386777 0.9981955,0.488974 0.3266102,0.103375 0.7962612,0.191456 1.131502,0.212231 0.1275066,0.0079 0.1555041,0.01389 0.1690564,0.03623 0.00899,0.01471 0.013999,0.08622 0.011199,0.158894 l -0.00516,0.132143 0.5404776,0.0035 0.540476,0.0035 0.03971,0.07006 c 0.03604,0.06353 0.03971,0.08642 0.03971,0.245235 v 0.175175 l 0.365138,0.0069 0.365136,0.0069 0.0304,0.07007 c 0.03411,0.07871 0.05455,0.379652 0.03503,0.517159 l -0.01105,0.07842 H 6.5656516 1.3226507 Z M 2.0343594,7.3044905 c 0,-1.1766677 -0.00324,-2.1365351 -0.00722,-2.1330413 -0.00648,0.00532 -0.459762,1.1863789 -1.4379745,3.7434296 L 0.3867875,9.4438903 h 0.8237818 0.8237871 z m 1.7486071,2.1268067 c 0,-0.012102 -1.4147028,-3.7097491 -1.5634109,-4.0863676 L 2.1476316,5.1627568 2.1469891,7.3033256 2.1463466,9.4438903 h 0.8186607 c 0.4736163,0 0.8186666,-0.00532 0.8186666,-0.012634 z M 10.999942,7.2974858 c 0,-1.1805206 -0.0027,-2.143782 -0.0065,-2.1405649 -0.0057,0.00532 -0.294921,0.7582535 -1.2905224,3.3585709 L 9.3474747,9.4438903 H 10.173537 10.9996 Z m 1.739702,2.1148718 C 12.733897,9.395002 12.553547,8.9236364 12.339592,8.3648503 12.125641,7.8060576 11.764862,6.8634301 11.537868,6.270123 11.310869,5.6768158 11.122009,5.1886186 11.11818,5.1852486 c -0.0038,-0.00359 -0.0069,0.9534318 -0.0069,2.1262467 v 2.132395 h 0.819733 0.81974 z M 2.1421896,4.8676206 c 0.054551,-0.033648 0.087426,-0.1030696 0.08915,-0.1881031 0.00192,-0.1084826 -0.015811,-0.1601705 -0.050631,-0.1454362 -0.014912,0.00625 -0.069684,0.011969 -0.1216566,0.012767 -0.090447,0.00118 -0.095088,0.00293 -0.1079378,0.042345 -0.016769,0.051469 -0.00192,0.1661352 0.028395,0.2176422 0.023459,0.039938 0.080574,0.082736 0.1104871,0.082736 0.00928,0 0.032698,-0.00984 0.052179,-0.021878 z m 8.9541254,0.00745 c 0.05429,-0.02564 0.09441,-0.1162361 0.09414,-0.2126842 -1.29e-4,-0.048462 -0.0057,-0.094452 -0.01193,-0.1021523 -0.0065,-0.00771 -0.05102,-0.014124 -0.09911,-0.014231 -0.04807,-1.423e-4 -0.10113,-0.00359 -0.117884,-0.00705 -0.02398,-0.00532 -0.0336,0.00359 -0.04536,0.042292 -0.03251,0.10694 0.0239,0.2819605 0.09634,0.2987469 0.04524,0.010504 0.05191,0.01011 0.0838,-0.00466 z"
       id="path247" />
    <path
       style="fill:#000000;stroke-width:0.0197024"
       d="M -0.04999219,7.8665374 V 4.9168325 H 2.6307119 5.3114158 V 7.8665374 10.816243 H 2.6307119 -0.04999219 Z M 4.5836646,10.458567 c 0.1175584,-0.06658 0.2290742,-0.194085 0.2865387,-0.327628 0.041315,-0.09601 0.045901,-0.1365883 0.054712,-0.4840443 0.00529,-0.208586 0.00853,-0.381869 0.00719,-0.385073 -0.00134,-0.0032 -0.037368,0.04709 -0.080072,0.111776 -0.07022,0.106354 -0.1536431,0.179753 -0.1756762,0.154557 -0.00467,-0.0053 0.023618,-0.113926 0.062857,-0.241323 C 4.8160365,9.0374167 4.8431964,8.8867833 4.8238859,8.8172073 4.8041629,8.7461427 4.688987,8.7233727 4.4307116,8.739476 4.3060545,8.747246 4.1912145,8.759246 4.1755119,8.766136 4.1548379,8.775206 4.1488109,8.767646 4.1536669,8.73872 4.1622969,8.687308 4.309119,8.5966773 4.4425928,8.560372 4.5011568,8.544443 4.6297625,8.533587 4.7361491,8.535593 L 4.925481,8.539163 4.920391,7.0809078 4.915301,5.6226525 4.870661,5.5189308 C 4.8110638,5.3804628 4.7039575,5.2618233 4.5771786,5.1938512 L 4.4731197,5.1380607 2.649555,5.1322938 C 1.417597,5.1283938 0.79547801,5.1337738 0.7319392,5.1488548 0.53587191,5.1954018 0.39019732,5.327764 0.30616278,5.5357209 l -0.0521578,0.1290722 -0.005308,1.4904122 -0.005308,1.4904124 0.28166674,0.1578627 C 1.0150554,9.0781053 1.6319507,9.2782697 2.1861615,9.3424597 c 0.3199944,0.03706 0.9735837,0.01586 1.2506984,-0.04057 0.3581583,-0.07293 0.6686435,-0.1727506 1.0321859,-0.3318345 0.093243,-0.040803 0.1454793,-0.027582 0.1570833,0.039755 C 4.6399576,9.0900587 4.1761535,9.3857677 3.8102412,9.5300037 3.143757,9.7927197 2.3816196,9.8310527 1.7132927,9.6354727 1.2411722,9.4973107 0.69994907,9.1867506 0.35393371,8.8554564 c -0.0476425,-0.045616 -0.091691,-0.082938 -0.097885,-0.082938 -0.006193,0 -0.0112609,0.2492598 -0.0112609,0.5539103 0,0.598754 0.0139017,0.7214033 0.0990074,0.8735263 0.0482209,0.08619 0.12150553,0.168988 0.19989688,0.225836 0.1302408,0.09445 0.10541364,0.09338 2.07780191,0.08905 l 1.8700444,-0.0042 z M 2.0343564,8.644467 C 1.7654847,8.5840403 1.5795508,8.3326685 1.5446547,7.9824185 1.5171741,7.7065955 1.5988494,7.4323953 1.7652452,7.2418562 1.9316276,7.0513325 2.1289718,6.9690888 2.5656774,6.908274 2.6920404,6.890677 2.8029337,6.876279 2.8121069,6.876279 c 0.00927,0 0.013098,-0.078022 0.00863,-0.175538 C 2.8142744,6.5600532 2.8041248,6.5114761 2.7696198,6.4560603 2.6291167,6.230412 2.2633686,6.3236855 2.197866,6.6018695 2.1869733,6.6481073 2.1638432,6.6940977 2.1464547,6.7040706 2.1283563,6.7144436 2.018417,6.7121217 1.8893319,6.6986192 1.5993113,6.6682967 1.5892633,6.659168 1.6346852,6.4672738 1.6929639,6.2210651 1.8202746,6.0462705 2.0355417,5.9169098 2.1903127,5.8239028 2.3591383,5.781511 2.5766627,5.7810346 c 0.4982815,-0.00109 0.793579,0.2254696 0.854624,0.6556927 0.010461,0.073722 0.019128,0.4042549 0.019261,0.7345165 1.473e-4,0.3567816 0.00815,0.6330589 0.019737,0.6807628 0.010727,0.044158 0.052052,0.1389697 0.091842,0.2106932 0.039791,0.071723 0.072426,0.1462476 0.072522,0.1656093 C 3.6348871,8.2761785 3.2673086,8.6446054 3.218481,8.6454377 3.181604,8.6460714 3.0189292,8.4700092 2.9488342,8.3536047 l -0.030229,-0.0502 -0.097886,0.098484 C 2.6066084,8.6173061 2.3144795,8.7074225 2.0343564,8.644467 Z M 2.5963356,8.1000149 C 2.7419319,7.9984876 2.8241647,7.7775207 2.8241647,7.4878159 V 7.2976657 h -0.061101 c -0.1966703,0 -0.4191253,0.096849 -0.4996026,0.2175089 -0.1188937,0.1782576 -0.08542,0.5025373 0.061287,0.593725 0.069593,0.043256 0.2030757,0.03889 0.2715877,-0.00888 z"
       id="path378" />
    <path
       style="fill:#000000;stroke-width:0.029947"
       d="m 9.3870257,10.645548 c -0.215197,-0.149887 -0.281691,-0.391404 -0.175239,-0.636494 0.05074,-0.1168227 0.09568,-0.1681557 0.197957,-0.2261097 0.179654,-0.1018 0.325106,-0.07446 0.479616,0.09017 0.102631,0.109349 0.1133943,0.1363147 0.1230883,0.3083657 0.01237,0.219798 -0.04554,0.35642 -0.1953623,0.460756 -0.117655,0.08194 -0.314996,0.08346 -0.43006,0.0033 z m 1.3962693,-0.0033 c -0.131284,-0.09143 -0.202664,-0.242247 -0.202788,-0.428473 -1.09e-4,-0.202325 0.07817,-0.3474347 0.233966,-0.4335817 0.150607,-0.08328 0.221877,-0.08328 0.372484,0 0.413889,0.2288537 0.269364,0.9262307 -0.191857,0.9257707 -0.07074,-6.1e-5 -0.158184,-0.0264 -0.211805,-0.06372 z m 0.958435,-0.180592 c 0.01107,-0.05032 0.02337,-0.09523 0.02735,-0.09979 0.004,-0.0047 0.214173,0.0061 0.467074,0.02365 0.252897,0.01758 0.503946,0.03365 0.557887,0.03573 l 0.09807,0.0038 -0.112085,0.02483 c -0.06165,0.01365 -0.276004,0.03417 -0.476355,0.04564 -0.200348,0.01147 -0.413274,0.0291 -0.473166,0.03924 -0.108195,0.01829 -0.108769,0.01782 -0.08879,-0.07309 z m 0.04828,-0.414606 c 0.01093,-0.1092927 -0.08041,-0.1034207 0.990026,-0.06365 1.167354,0.04336 1.285484,0.06419 0.518386,0.09137 -0.362168,0.01284 -0.851815,0.0328 -1.088097,0.04436 l -0.42961,0.02104 z M 9.3474747,9.4438903 c 0,-0.09362 0.11015,-0.5689014 0.142008,-0.6127464 0.02608,-0.03592 0.136239,-0.04578 0.5269193,-0.0473 0.888161,-0.0033 0.877918,0.0043 0.996865,-0.766226 0.02581,-0.167232 0.0709,-0.4552822 0.100205,-0.6401152 0.02931,-0.184828 0.06145,-0.3900677 0.07145,-0.4560777 l 0.01818,-0.120021 h -0.241897 c -0.277231,0 -0.259767,0.01867 -0.339,-0.3623065 -0.06349,-0.3052572 -0.05831,-0.3098114 0.352656,-0.3098114 h 0.33155 l 0.01763,-0.1200168 c 0.06843,-0.4662811 0.175472,-0.7407865 0.379917,-0.9743039 0.189733,-0.2167126 0.398895,-0.3194744 0.689246,-0.3386249 0.30525,-0.020141 0.354081,-0.00284 0.408476,0.1440343 0.127043,0.3431981 0.07316,0.4887727 -0.180895,0.4887727 -0.282237,0 -0.464984,0.1774969 -0.510756,0.4960898 -0.0101,0.070408 -0.02526,0.1676254 -0.03368,0.2160349 l -0.01529,0.088014 h 0.168352 c 0.207341,0 0.256413,0.045969 0.256413,0.2402467 0,0.1670611 -0.03368,0.2782971 -0.110964,0.3665851 -0.04573,0.05222 -0.09334,0.06529 -0.238029,0.06529 h -0.180863 l -0.01512,0.104022 c -0.06125,0.4213217 -0.247086,1.6063149 -0.272292,1.7362979 -0.07207,0.371713 -0.279382,0.6572944 -0.566083,0.7798184 -0.14951,0.06389 -0.211695,0.06833 -0.957439,0.06833 -0.6746173,0 -0.7975473,-0.0071 -0.7975473,-0.04597 z M 8.2686697,8.4848179 c -0.04623,-0.02332 -0.105319,-0.06967 -0.131301,-0.103018 -0.02598,-0.03336 -0.220053,-0.406181 -0.431273,-0.8285162 C 7.3639407,6.869148 7.3206187,6.765708 7.3088557,6.604827 c -0.01251,-0.1709052 -0.008,-0.1871081 0.08458,-0.3024568 0.09099,-0.1134058 0.112147,-0.123519 0.304375,-0.1455034 0.113621,-0.012985 0.744094,-0.024501 1.401049,-0.025591 1.3465823,-0.00237 1.2668853,-0.017819 1.2697653,0.248763 l 0.0017,0.1493282 -1.1750143,0.0083 c -1.044279,0.0074 -1.18068,0.01422 -1.225913,0.06097 -0.02801,0.02896 -0.0509,0.08249 -0.0509,0.118998 0,0.03649 0.102607,0.271217 0.228015,0.5215717 0.181874,0.363069 0.246526,0.4652192 0.31947,0.5047572 0.07699,0.0417 0.241777,0.04957 1.041579,0.04957 0.7161873,0 0.9617763,0.0099 0.9974383,0.04 0.05085,0.04298 0.131525,0.352046 0.131525,0.503834 0,0.190543 -0.01182,0.19242 -1.2041273,0.191036 -0.832987,-9.53e-4 -1.098778,-0.01095 -1.163639,-0.04365 z"
       id="path410" />
  </g>
</svg>
