<?xml version="1.0" encoding="UTF-8" standalone="no"?>
<svg
   xmlns:dc="http://purl.org/dc/elements/1.1/"
   xmlns:cc="http://creativecommons.org/ns#"
   xmlns:rdf="http://www.w3.org/1999/02/22-rdf-syntax-ns#"
   xmlns:svg="http://www.w3.org/2000/svg"
   xmlns="http://www.w3.org/2000/svg"
   xmlns:sodipodi="http://sodipodi.sourceforge.net/DTD/sodipodi-0.dtd"
   xmlns:inkscape="http://www.inkscape.org/namespaces/inkscape"
   width="40"
   height="32"
   viewBox="0 0 10.583333 8.4666669"
   version="1.1"
   id="svg370"
   inkscape:version="1.0.1 (3bc2e813f5, 2020-09-07)"
   sodipodi:docname="mrf.svg">
  <defs
     id="defs364" />
  <sodipodi:namedview
     id="base"
     pagecolor="#ffffff"
     bordercolor="#666666"
     borderopacity="1.0"
     inkscape:pageopacity="0.0"
     inkscape:pageshadow="2"
     inkscape:zoom="14.71875"
     inkscape:cx="16"
     inkscape:cy="16"
     inkscape:document-units="px"
     inkscape:current-layer="layer1"
     inkscape:document-rotation="0"
     showgrid="false"
     units="px"
     inkscape:window-width="1366"
     inkscape:window-height="745"
     inkscape:window-x="-8"
     inkscape:window-y="-8"
     inkscape:window-maximized="1" />
  <metadata
     id="metadata367">
    <rdf:RDF>
      <cc:Work
         rdf:about="">
        <dc:format>image/svg+xml</dc:format>
        <dc:type
           rdf:resource="http://purl.org/dc/dcmitype/StillImage" />
        <dc:title></dc:title>
      </cc:Work>
    </rdf:RDF>
  </metadata>
  <g
     inkscape:label="Layer 1"
     inkscape:groupmode="layer"
     id="layer1">
    <path
       style="fill:#ff0000;stroke-width:0.00619168"
       d="M 6.1832307,4.6955665 5.7728146,4.1578504 H 5.581279 5.3897409 V 4.327268 4.4966856 H 5.566699 5.7436545 V 4.8576183 5.2185509 H 4.4138755 3.0840967 V 4.8502524 4.4819539 h 0.1717525 c 0.1145367,0 0.1717533,-0.00242 0.1717533,-0.00759 0,-0.011995 -0.2300504,-0.7805631 -0.2336425,-0.7805631 -0.00195,0 -0.099446,0.3389286 -0.2170611,0.7531734 l -0.2138484,0.7531706 -0.390853,0.00184 -0.3908533,0.00184 -0.017496,-0.079228 C 1.9542307,5.080951 1.8797193,4.7411752 1.7982865,4.3694679 1.7168576,3.9977637 1.6488425,3.6936421 1.6471392,3.693639 c -0.00155,0 -0.05817,0.1715334 -0.1254827,0.3811889 l -0.1223853,0.3811889 0.1423954,0.0018 0.1423992,0.00211 V 4.8391645 5.2183976 H 0.87995085 0.07583913 V 4.8206323 4.4228703 h 0.21023265 c 0.16335613,0 0.21079671,-0.00211 0.2127743,-0.00923 0.001549,-0.00507 0.0944483,-0.3191306 0.2067798,-0.6979264 0.11232729,-0.3787959 0.20536625,-0.6928633 0.20675296,-0.6979265 0.001927,-0.00729 -0.05749,-0.00923 -0.28689575,-0.00923 H 0.33606937 V 2.6292253 2.249878 H 1.2357462 2.1354229 L 2.3013898,2.7727932 C 2.3926758,3.0603959 2.4685309,3.2956571 2.46996,3.2955938 2.47151,3.2955395 2.546523,3.0660197 2.6369196,2.7855688 l 0.1643526,-0.5099103 1.8836595,-0.00211 c 1.6892816,-0.0018 1.889569,-9.059e-4 1.9409108,0.00958 0.3479204,0.070317 0.5971551,0.2885069 0.6869995,0.601423 0.037348,0.1300868 0.049667,0.32269 0.031478,0.4922191 -0.033292,0.3103995 -0.1646542,0.573361 -0.3739327,0.7486224 -0.026338,0.022061 -0.053244,0.042022 -0.059806,0.04438 -0.00655,0.00242 -0.011211,0.00687 -0.010329,0.010036 7.961e-4,0.00316 0.04784,0.079008 0.1044598,0.1685405 L 7.1076477,4.5111367 H 7.484836 7.8620285 V 3.7450734 2.9790099 H 7.6589851 7.4560021 V 2.6243188 2.2696307 l 0.7429604,0.00479 c 0.4086275,0.00272 1.0866586,0.00696 1.5067334,0.00961 l 0.7637781,0.00482 V 2.935938 3.5830207 H 10.136377 9.8032844 V 3.2810218 2.9790159 H 9.2047513 8.606222 v 0.246762 0.246759 H 9.0590229 9.5118237 V 3.8408385 4.2091371 H 9.0590229 8.606222 V 4.3601401 4.511143 H 8.8274203 9.0486147 V 4.8720757 5.2330086 H 7.8211477 6.5936808 Z M 4.6090488,3.7453567 V 3.0308541 H 4.250098 c -0.3489892,0 -0.3588458,3.013e-4 -0.3552151,0.013834 0.00195,0.00759 0.098593,0.3290492 0.2145238,0.7143187 l 0.210785,0.7004882 0.1444311,1.658e-4 0.144426,1.627e-4 z M 6.4273513,3.3115431 c 0.077239,-0.053812 0.078713,-0.2298543 0.00227,-0.2590254 -0.013591,-0.00519 -0.1417392,-0.00516 -0.4062102,1.115e-4 -0.2124968,0.00422 -0.4419782,0.00766 -0.5099634,0.00769 l -0.1236058,2.4e-5 V 3.1967234 3.3331 L 5.8959886,3.3313 6.4021353,3.3295 Z"
       id="path386" />
  </g>
</svg>
