<?xml version="1.0" encoding="UTF-8" standalone="no"?>
<svg
   xmlns:dc="http://purl.org/dc/elements/1.1/"
   xmlns:cc="http://creativecommons.org/ns#"
   xmlns:rdf="http://www.w3.org/1999/02/22-rdf-syntax-ns#"
   xmlns:svg="http://www.w3.org/2000/svg"
   xmlns="http://www.w3.org/2000/svg"
   xmlns:sodipodi="http://sodipodi.sourceforge.net/DTD/sodipodi-0.dtd"
   xmlns:inkscape="http://www.inkscape.org/namespaces/inkscape"
   width="32"
   height="32"
   viewBox="0 0 8.4666665 8.4666669"
   version="1.1"
   id="svg75"
   inkscape:version="1.0.1 (3bc2e813f5, 2020-09-07)"
   sodipodi:docname="wkgloves.svg">
  <defs
     id="defs69" />
  <sodipodi:namedview
     id="base"
     pagecolor="#ffffff"
     bordercolor="#666666"
     borderopacity="1.0"
     inkscape:pageopacity="0.0"
     inkscape:pageshadow="2"
     inkscape:zoom="16.03125"
     inkscape:cx="16"
     inkscape:cy="16"
     inkscape:document-units="px"
     inkscape:current-layer="layer1"
     inkscape:document-rotation="0"
     showgrid="false"
     units="px"
     inkscape:window-width="1366"
     inkscape:window-height="745"
     inkscape:window-x="-8"
     inkscape:window-y="-8"
     inkscape:window-maximized="1" />
  <metadata
     id="metadata72">
    <rdf:RDF>
      <cc:Work
         rdf:about="">
        <dc:format>image/svg+xml</dc:format>
        <dc:type
           rdf:resource="http://purl.org/dc/dcmitype/StillImage" />
        <dc:title></dc:title>
      </cc:Work>
    </rdf:RDF>
  </metadata>
  <g
     inkscape:label="Layer 1"
     inkscape:groupmode="layer"
     id="layer1">
    <path
       style="fill:#ff0000;stroke-width:0.019438"
       d="M 0.37991384,8.0978827 C 0.25935603,8.0406678 0.16279647,7.8742196 0.13995871,7.6841871 0.1323378,7.6207941 0.14587852,7.4759896 0.1836791,7.2168759 0.21379981,7.0103975 0.24068277,6.83023 0.2434204,6.816497 0.24912474,6.7878895 0.38103418,6.7705637 0.8241577,6.7401234 L 1.1359039,6.7187678 1.6666818,7.4247645 2.1974602,8.130768 1.3212331,8.1300965 C 0.62135685,8.1294249 0.43190563,8.1229109 0.37991418,8.0982655 Z M 6.654692,7.4247242 7.1854698,6.7187209 7.4972157,6.7401423 c 0.4431249,0.030421 0.5750369,0.047747 0.5807378,0.076375 0.00272,0.013767 0.029554,0.1934841 0.059595,0.3994387 0.057667,0.3953155 0.057826,0.4635909 0.00147,0.6345179 C 8.1020523,7.9626485 8.0065064,8.0761784 7.9231516,8.1069821 7.8825522,8.1219577 7.5452603,8.130553 6.9916981,8.13062 l -0.8678024,8.72e-5 z m -4.6679123,-0.046806 -0.4970019,-0.663139 0.2147167,0.00732 0.2147166,0.00732 0.369159,0.4908285 c 0.3683977,0.4898214 0.3691223,0.4909764 0.3514322,0.560548 -0.028499,0.1120936 -0.1119128,0.2603089 -0.1464958,0.2603089 -0.00524,0 -0.2331757,-0.2984122 -0.5065268,-0.6631322 z M 5.792657,8.0130269 C 5.7552116,7.9724659 5.702064,7.8613461 5.6815707,7.7807478 5.6638801,7.7111696 5.6646052,7.7100145 6.0330025,7.2201933 L 6.4021616,6.7293715 6.616879,6.7220478 6.8315956,6.7147241 6.3345929,7.3778632 c -0.2733511,0.3647278 -0.501288,0.66314 -0.5065265,0.66314 -0.00524,0 -0.021173,-0.012627 -0.035409,-0.028004 z M 2.4511584,6.9435323 2.3190104,6.766662 l 0.10777,0.012421 c 0.059273,0.00685 0.111551,0.016923 0.1161724,0.022429 0.00826,0.00987 0.048782,0.3043219 0.043206,0.3139651 -0.00158,0.00269 -0.062319,-0.074655 -0.135,-0.1719344 z M 5.733859,7.0883901 C 5.739139,7.0700561 5.748393,7.0057511 5.754398,6.94552 5.760408,6.885283 5.770155,6.826113 5.776069,6.8140123 5.781989,6.8019263 5.835318,6.7862773 5.8945919,6.7793603 l 0.10777,-0.012691 -0.1326511,0.1775418 c -0.072958,0.097648 -0.1355355,0.1775418 -0.1390613,0.1775418 -0.00353,0 -0.00208,-0.015043 0.00321,-0.033375 z M 0.25859757,6.3511736 c -0.007281,-0.05735 -0.00423,-0.092612 0.00897,-0.1034713 0.0264588,-0.021757 0.25841269,-0.042844 0.74194993,-0.067496 0.455438,-0.023168 1.3236699,0.010413 1.4964823,0.057887 0.034241,0.0094 0.038244,0.021893 0.033702,0.1052372 -0.00284,0.051978 -0.012737,0.093075 -0.022005,0.091269 C 2.5084316,6.4325785 2.3414201,6.418751 2.1465662,6.4034395 1.7868026,6.375101 0.64967838,6.3870545 0.39102606,6.4218401 L 0.269643,6.4381581 Z m 5.52745873,0.078214 c -0.00421,-0.00537 -0.00765,-0.048686 -0.00765,-0.095715 0,-0.1043915 -0.014353,-0.098998 0.3538743,-0.1328708 0.4946114,-0.04553 1.6987344,-0.022496 1.8999694,0.036263 0.038705,0.011352 0.047619,0.060775 0.028238,0.156771 -0.00885,0.043583 -0.015752,0.044725 -0.1556433,0.024377 -0.1943466,-0.028271 -1.7359852,-0.028809 -1.9460553,-6.715e-4 -0.090786,0.01215 -0.1685126,0.01746 -0.1727243,0.01188 z M 0.22834122,5.7507228 C 0.20658887,5.4738133 0.20192334,5.4766068 0.35286156,5.676061 l 0.13534633,0.1788512 -0.0721548,0.015176 c -0.0396843,0.00833 -0.0957183,0.015915 -0.12451999,0.016856 -0.0519129,0.00134 -0.0524595,4.767e-4 -0.0631923,-0.1361615 z M 2.4404639,5.879504 C 2.4365968,5.874806 2.2476586,5.8582833 2.0205892,5.8433747 L 1.6077357,5.816245 0.895774,4.8715225 0.18381269,3.9268 0.18314303,3.5231104 C 0.18276289,3.3010724 0.16445458,2.7914944 0.1424313,2.3906993 0.10400766,1.6914448 0.10358375,1.6588146 0.13194553,1.5835082 0.19086759,1.4270662 0.38204485,1.2879634 0.47411942,1.3345481 c 0.0874351,0.044255 0.0984639,0.1020747 0.1604808,0.8416209 0.0321291,0.3831271 0.0670866,0.7215967 0.0776844,0.7521382 0.0393951,0.1135378 0.17608652,0.1171237 0.21937053,0.00605 C 0.95284742,2.879828 0.94818756,2.7866044 0.8899228,2.0994645 0.80662928,1.1171559 0.79352405,0.81743422 0.82897146,0.7054885 0.86552231,0.5900574 0.92503226,0.54302954 1.0113296,0.56139617 1.1013401,0.58053558 1.1912,0.64345107 1.2538609,0.73117495 l 0.050553,0.0707798 0.0047,1.05722565 c 0.00465,1.0460174 0.00508,1.0577695 0.040852,1.1084305 0.048242,0.068323 0.1304951,0.068007 0.1790002,-6.717e-4 l 0.036641,-0.051909 v -1.285219 c 0,-0.92021802 0.00562,-1.31020811 0.019817,-1.37322555 0.027314,-0.12130678 0.1049428,-0.20574632 0.1725978,-0.18774241 0.1069966,0.02847357 0.256206,0.16160611 0.2990795,0.26685664 0.011329,0.0278017 0.0046,0.41153307 -0.020736,1.18354232 -0.028391,0.8649031 -0.032874,1.1559015 -0.01846,1.1979937 0.023807,0.069525 0.087927,0.1099441 0.1444629,0.091061 0.09045,-0.030219 0.091815,-0.041972 0.1357723,-1.1672776 0.044641,-1.14284685 0.048592,-1.1755643 0.1499024,-1.24152961 0.069272,-0.0451276 0.1960822,0.0190712 0.2993751,0.15157999 0.070941,0.0909798 0.082006,0.11711594 0.081882,0.19340353 -8.27e-5,0.0484857 -0.03419,0.64314729 -0.0758,1.32140929 -0.04161,0.6782622 -0.075668,1.2563708 -0.075685,1.2846763 -3.37e-5,0.069195 0.072315,0.1615389 0.1265745,0.1615389 0.025294,0 0.1880096,-0.1106495 0.3841297,-0.2612223 0.3441951,-0.264251 0.4087895,-0.2962096 0.4602572,-0.2277327 0.033407,0.044456 0.1272062,0.5345593 0.130055,0.6795448 0.00121,0.061648 -0.00342,0.1393781 -0.010309,0.1727067 C 3.7540994,3.9452339 3.4066195,4.3537249 3.090629,4.6723035 2.9794115,4.7844306 2.8566502,4.9198802 2.817826,4.9733012 2.6651574,5.1833589 2.5766686,5.4736187 2.5766686,5.7643283 v 0.1244962 h -0.064596 c -0.035528,0 -0.067756,-0.00403 -0.071617,-0.00906 z M 5.7446958,5.7671826 c 0,-0.2936778 -0.087509,-0.5820707 -0.2411575,-0.7947474 C 5.464714,4.9187116 5.3457446,4.7865323 5.2391609,4.6787368 5.1325773,4.5709478 4.9383748,4.3609976 4.8075994,4.2121709 4.4951575,3.856624 4.4935597,3.8496199 4.6001044,3.3026908 c 0.079404,-0.4076045 0.069303,-0.4064294 0.5209132,-0.06064 0.2028222,0.1553138 0.3708221,0.2697308 0.3960437,0.2697308 0.052389,0 0.1265274,-0.091585 0.1265274,-0.156301 0,-0.025451 -0.034124,-0.6075623 -0.07583,-1.2936277 -0.041706,-0.6860656 -0.07583,-1.28117095 -0.07583,-1.32245724 0,-0.19590839 0.3096607,-0.43574217 0.4139763,-0.32061998 0.068048,0.0750916 0.076429,0.16098148 0.1178222,1.20750942 0.022239,0.5622403 0.040593,1.0353267 0.040788,1.0512959 6.37e-4,0.049694 0.080985,0.1391229 0.1250312,0.1391229 0.023075,0 0.062826,-0.023907 0.088336,-0.053051 l 0.04638,-0.053052 -0.037615,-1.1572716 C 6.2457369,0.29466837 6.2441182,0.33732467 6.337098,0.22350529 6.3880379,0.1611188 6.4976979,0.086068 6.5633503,0.0685945 c 0.067655,-0.01799774 0.1452834,0.06641516 0.1725973,0.18774241 0.014187,0.0630571 0.019812,0.45373938 0.019812,1.37636829 v 1.2883562 l 0.039,0.048753 c 0.051566,0.064468 0.1301678,0.063393 0.1766394,-0.00269 0.035768,-0.050634 0.036199,-0.062386 0.040849,-1.1084306 L 7.016898,0.80146158 7.067454,0.72990828 C 7.128762,0.64312578 7.2673032,0.5524337 7.3390122,0.55213149 7.4078842,0.55189646 7.4728918,0.62224709 7.498288,0.72463007 7.525982,0.83631438 7.510853,1.1449805 7.430879,2.0990239 7.373439,2.7843306 7.368744,2.8795818 7.389769,2.9339161 c 0.043083,0.1113277 0.1795562,0.1077212 0.2195387,-0.00605 0.010774,-0.030555 0.043423,-0.353183 0.072591,-0.7169831 0.057452,-0.71656 0.079078,-0.8331662 0.1623172,-0.8752785 0.095068,-0.048083 0.2850037,0.088053 0.3452326,0.2474626 0.028488,0.0754 0.028068,0.1074998 -0.010774,0.818399 -0.022228,0.4069599 -0.040588,0.9165447 -0.040804,1.1324112 L 8.1374907,3.9263597 7.4255282,4.87078 6.713568,5.8151935 6.3259906,5.8410478 c -0.2131672,0.014237 -0.4311794,0.032032 -0.4844708,0.039553 l -0.096894,0.0137 z M 7.8968232,5.8685455 7.8330208,5.8549137 7.968437,5.6760624 C 8.1194568,5.4766016 8.114781,5.4738012 8.0930286,5.7507241 l -0.010774,0.1378201 -0.060786,-0.00336 c -0.033432,-0.00134 -0.0895,-0.00933 -0.1245904,-0.016789 z M 0.50819767,5.4121122 0.18381269,4.977834 V 4.6983927 4.4189516 l 0.52659884,0.6955541 c 0.28962897,0.3825629 0.52659887,0.696837 0.52659887,0.6984017 0,0.00134 -0.090996,0.00974 -0.202214,0.018132 L 0.83258243,5.8463505 Z M 7.2065996,5.8229268 7.0929189,5.8100942 7.6152399,5.1142715 8.1375598,4.4184485 V 4.6981583 4.9778615 L 7.8137429,5.4107899 7.4899271,5.843725 7.4050992,5.8396964 c -0.046655,-0.00202 -0.1359798,-0.00974 -0.198503,-0.016789 z M 2.9638013,2.9680826 C 2.963096,2.889835 3.0665633,1.1528361 3.0753727,1.0949695 c 0.00775,-0.050903 0.00827,-0.05097 0.059835,-0.011211 0.086581,0.066751 0.2148495,0.276285 0.285391,0.4661428 0.1081159,0.290985 0.1414426,0.6136532 0.097813,0.9470191 -0.015335,0.1171764 -0.025925,0.147121 -0.057709,0.1631977 -0.02141,0.010812 -0.1374623,0.095909 -0.2578927,0.1890586 -0.1204308,0.09315 -0.2233726,0.1693624 -0.2287602,0.1693624 -0.00539,0 -0.010003,-0.022698 -0.010252,-0.050433 z M 5.1633304,2.8821188 C 5.0706489,2.808236 4.9556486,2.7225877 4.9077739,2.6917977 L 4.8207303,2.6357912 4.8002278,2.4740575 C 4.770978,2.2433163 4.7879159,1.9460927 4.842685,1.729004 4.9105912,1.4598374 5.0736699,1.1616535 5.2035532,1.0691622 c 0.029905,-0.021288 0.035864,-0.017662 0.042521,0.02619 0.00877,0.057685 0.1121951,1.7949256 0.1114977,1.8727235 -2.534e-4,0.027735 -0.00614,0.049962 -0.013092,0.049425 C 5.3375279,3.0170245 5.2560115,2.9559887 5.16333,2.8821255 Z"
       id="path105" />
  </g>
</svg>
